<svg width="239" height="233" viewBox="0 0 239 233" fill="none" xmlns="http://www.w3.org/2000/svg">
<path d="M155.855 232.639C153.735 232.639 151.616 232.594 149.451 232.639C148.053 232.685 146.655 232.775 145.303 232.865C144.581 232.91 143.814 232.956 143.093 232.956C138.764 233.091 134.434 232.91 130.105 232.504C126.047 232.143 121.988 231.556 118.02 230.517C114.502 229.614 111.21 228.169 108.64 225.459C108.144 224.962 107.602 224.736 106.881 224.736C96.4637 224.736 86.0917 224.736 75.6745 224.782C74.953 224.782 74.2315 224.962 73.4648 225.053C72.0669 225.233 70.714 225.188 69.316 224.736C68.0534 224.33 66.971 223.788 66.7907 222.388C66.5652 220.807 67.0161 219.453 68.369 218.504C69.4513 217.737 70.714 217.33 72.0218 217.195C72.112 217.195 72.2022 217.014 72.2473 216.879C72.2924 216.833 72.2022 216.698 72.1571 216.653C71.9316 216.427 71.661 216.201 71.4355 216.021C70.5787 215.388 69.6768 214.801 68.8651 214.124C67.5122 213.04 66.3848 211.73 65.5731 210.195C63.3183 205.905 64.3104 200.847 68.0082 197.776C69.9023 196.195 72.112 195.066 74.4119 194.208C78.5607 192.628 82.8899 191.77 87.3544 191.724C89.8797 191.679 92.4502 191.634 94.9756 191.77C97.6813 191.905 100.342 192.221 103.048 192.537C105.257 192.808 107.422 193.17 109.587 193.44C109.902 193.486 110.218 193.441 110.534 193.35C111.03 193.215 111.436 192.853 111.436 192.311C111.436 191.589 111.526 190.821 111.345 190.099C110.534 187.118 111.3 187.299 107.963 187.208C103.363 187.118 98.8538 186.305 94.5246 184.589C92.1346 183.686 89.9248 182.467 87.8955 180.886C87.0387 180.209 86.9485 180.209 86.227 180.796C84.2879 182.376 82.0331 183.37 79.643 183.912C79.0116 184.047 78.3803 184.183 77.7039 184.228C72.1571 184.815 66.971 183.686 62.0556 181.112C57.095 178.538 53.0364 174.925 50.015 170.138C47.9857 166.932 46.7681 163.454 46.7681 159.706C46.7681 154.784 48.7072 150.584 52.9462 147.784C55.0206 146.429 57.2754 145.526 59.8008 145.255C60.6125 145.164 61.4243 145.029 62.236 144.893C63.183 144.758 63.2281 144.758 63.4536 143.764C63.9045 141.687 64.5359 139.655 65.7535 137.848C66.1593 137.261 66.3848 136.494 66.5201 135.816C67.1063 132.745 68.9102 130.487 71.165 128.5C71.3904 128.275 71.7061 128.094 71.9316 127.913C72.8335 127.191 72.7884 127.146 71.9316 126.242C71.1199 125.429 70.3082 124.617 69.5415 123.759C68.1435 122.088 67.2867 120.146 66.8809 118.023C66.6554 116.894 66.6554 115.72 67.0612 114.636C67.422 113.507 67.3769 112.378 66.8809 111.294C66.7005 110.843 66.5652 110.346 66.4299 109.894C65.3025 105.966 66.3397 102.624 69.3611 99.9592C69.9023 99.4625 70.1277 98.9657 70.0826 98.2431C69.9474 96.6174 69.9925 94.9465 70.6238 93.411C71.7512 90.6563 73.6001 88.7144 76.6215 88.2176C77.6588 88.037 78.7411 87.9467 79.7783 87.8563C80.2743 87.8112 80.9056 88.0821 81.1762 87.8563C81.537 87.5402 81.7625 86.8628 81.8076 86.3209C82.5742 81.3082 83.2957 76.2954 84.1074 71.2826C84.1976 70.7407 84.1075 70.3342 83.7467 69.9278C81.8527 67.9408 79.5077 66.9021 76.847 66.5408C74.953 66.315 73.1041 66.4505 71.3002 67.1279C68.2788 68.2569 65.4378 69.6569 63.0026 71.7794C59.4851 74.8503 56.2382 78.2373 53.0364 81.6243C51.0522 83.7016 48.9778 85.6887 46.9034 87.6757C45.1898 89.3015 43.1153 90.5659 41.0409 91.6949C38.1548 93.3207 34.9981 94.1336 31.7512 94.5852C23.7241 95.669 16.7343 93.2756 10.3758 88.5789C6.27203 85.5532 3.2957 81.5791 0.58995 77.3341C0.0488002 76.476 -0.0864928 75.5276 0.0487947 74.5341C0.680137 70.4246 1.2664 66.2699 1.89774 62.1603C2.61927 57.3733 3.3859 52.6315 4.15253 47.8446C4.5584 45.1801 4.91915 42.5157 5.32501 39.8061C5.73088 37.0513 6.18185 34.2965 6.63281 31.5869C7.03867 28.9225 7.39942 26.2581 7.80529 23.5485C8.39153 19.6647 9.02287 15.7809 9.60912 11.8972C10.0601 8.82627 10.4659 5.75539 10.8718 2.63935C10.9169 2.23291 10.962 1.82649 11.0522 1.42005C11.1875 0.923288 11.5032 0.516842 12.0443 0.426522C12.6306 0.336202 13.2168 0.426528 13.5775 0.968448C13.8932 1.42005 14.1638 1.96196 14.4344 2.45872C15.7422 5.39413 17.4558 8.10373 19.4851 10.5875C23.183 15.0584 27.7376 18.2647 33.3295 19.8905C37.1627 20.9743 40.9507 20.884 44.5584 19.1228C47.0838 17.8583 49.1582 16.0067 50.962 13.8842C53.2619 11.1746 55.652 8.60049 58.3126 6.29733C59.6204 5.16833 60.9733 4.08449 62.3713 3.13612C65.7084 0.878123 69.4964 -0.160569 73.5099 0.020071C75.9902 0.155551 78.3352 0.878112 80.59 1.82647C83.2507 2.95547 85.6407 4.49093 87.8955 6.29733C88.5719 6.83925 88.6621 6.83925 89.2484 6.16185C90.8267 4.40061 92.811 3.72319 95.0658 3.31675C97.7264 2.81999 100.297 3.18129 102.822 3.90385C104.175 4.31029 105.438 4.94253 106.475 5.84573C107.061 6.38765 107.648 7.01988 108.098 7.69728C109.271 9.45852 108.82 11.5811 107.648 12.9359C106.565 14.1552 105.257 14.8777 103.724 15.3293C103.003 15.51 102.642 15.9616 102.597 16.7293C102.507 17.7228 102.326 18.6712 102.191 19.6195C101.56 23.9097 100.928 28.1999 100.342 32.4901C99.9361 35.3352 99.5753 38.1803 99.2146 41.0254C98.8087 44.0059 98.3127 47.0317 97.9068 50.0122C97.501 52.767 97.1853 55.5218 96.7794 58.2765C96.3736 61.2571 95.8775 64.2828 95.4716 67.2634C95.1109 69.9278 94.7501 72.5923 94.3442 75.3019C94.2089 76.1147 94.0736 76.9276 93.9834 77.7405C93.8933 78.3276 93.8482 78.8695 93.8482 79.4566C93.8482 79.6824 93.9835 79.863 94.0737 80.0888C94.209 79.9985 94.3442 79.9082 94.4344 79.7727C94.7952 79.2308 95.1109 78.6437 95.4266 78.1018C102.191 66.7215 111.571 58.1862 123.702 52.8122C128.211 50.8251 132.901 49.4703 137.772 48.7478C142.326 48.0252 146.926 47.9349 151.481 48.4316C164.468 49.9219 175.291 55.7476 183.724 65.8182C188.504 71.5536 191.661 78.1921 193.555 85.4177C195.269 91.8304 195.584 98.3786 194.953 104.927C194.322 111.565 192.563 117.933 189.722 124.03C189.496 124.526 189.271 125.068 189 125.61C188.865 125.971 189.136 126.062 189.316 126.107C190.038 126.152 190.804 126.107 191.526 126.107C196.937 126.017 201.853 129.449 203.431 135.545C203.792 136.9 203.882 138.3 203.882 139.7C203.882 140.332 203.882 141.01 203.927 141.642C203.927 141.823 204.198 142.094 204.378 142.139C204.919 142.229 205.505 142.229 206.092 142.229C211.999 142.184 217.636 143.448 223.003 145.842C227.557 147.874 231.526 150.719 234.637 154.648C236.622 157.132 238.065 159.887 238.651 163.003C239.418 167.202 238.967 171.312 236.847 175.151C234.998 178.447 232.518 181.112 229.451 183.234C225.212 186.215 220.477 187.976 215.472 188.97C211.007 189.873 206.498 189.918 202.033 189.466C196.622 188.925 191.481 187.389 186.655 184.679C186.024 184.318 185.348 183.776 184.671 183.821C184.04 183.867 183.409 184.454 182.777 184.86C178.764 187.525 174.344 189.15 169.654 190.053C167.309 190.505 164.964 190.595 162.574 190.686C161.988 190.686 161.447 190.686 160.861 190.686C159.778 190.686 159.688 190.821 160.004 191.77C161.131 195.608 163.206 198.905 165.911 201.885C167.219 203.331 168.572 204.776 169.835 206.311C170.962 207.711 171.999 209.201 172.946 210.737C174.48 213.221 175.336 215.93 175.427 218.866C175.472 219.814 175.607 219.949 176.644 219.995C178.403 220.04 180.026 220.401 181.605 221.169C182.958 221.801 184.085 222.749 184.942 224.014C186.34 226.001 185.889 227.943 183.814 229.252C182.281 230.201 180.477 230.607 178.719 230.923C175.336 231.51 171.909 231.781 168.482 232.007C164.198 232.504 160.049 232.594 155.855 232.639ZM145.438 51.367C141.785 51.2316 137.907 51.7735 134.074 52.6767C125.325 54.754 117.569 58.7733 110.714 64.6441C102.777 71.3729 97.1402 79.6824 93.3972 89.3466C93.1718 89.8885 92.9913 90.4305 92.856 90.9724C92.6757 91.6498 92.856 92.2369 93.307 92.8239C93.758 93.411 94.5246 93.411 94.9305 92.7336C95.1108 92.4627 95.201 92.1465 95.3363 91.8304C95.7873 90.7014 96.2382 89.5273 96.6892 88.3983C98.4479 84.1081 100.883 80.2243 103.905 76.747C105.483 74.9406 107.332 73.4503 109.361 72.231C111.21 71.102 113.239 70.4246 115.404 70.2891C118.29 70.1536 120.861 71.102 123.07 73.0439C125.19 74.9406 126.678 77.2437 127.715 79.9082C129.113 83.3855 129.744 86.9983 130.015 90.6563C130.331 94.811 130.015 99.0109 129.294 103.12C129.158 103.978 128.617 104.972 129.068 105.74C129.474 106.372 130.376 106.643 131.052 107.095C131.548 107.411 131.999 107.727 132.495 108.043C132.766 108.224 132.991 108.449 133.217 108.72C133.623 109.172 133.668 109.849 133.397 110.346C133.082 110.933 132.315 111.249 131.684 110.978C131.233 110.798 130.827 110.527 130.421 110.256C126.678 107.817 122.574 106.191 118.2 105.378C115.449 104.882 112.698 104.611 109.902 105.198C109.045 105.378 108.144 105.649 107.377 106.056C105.438 107.004 104.897 108.54 105.799 110.527C106.159 111.34 106.655 112.107 107.242 112.785C107.873 113.552 108.594 114.23 109.361 114.862C114.322 118.701 119.959 120.959 126.227 121.501C127.354 121.591 128.527 121.726 129.654 121.862C130.286 121.952 130.646 122.404 130.737 123.036C130.782 123.713 130.556 124.21 129.97 124.436C129.609 124.571 129.203 124.707 128.797 124.707C127.986 124.707 127.174 124.707 126.362 124.617C124.964 124.436 123.611 124.21 122.259 123.984C121.763 123.894 121.312 124.255 121.041 124.978C120.861 125.475 121.221 125.7 121.582 125.926C123.025 126.694 124.468 127.507 125.911 128.275C129.474 130.126 133.172 131.707 136.915 133.107C137.05 133.152 137.276 133.152 137.366 133.062C137.456 132.971 137.501 132.791 137.456 132.655C137.456 132.52 137.321 132.339 137.275 132.203C135.607 127.958 134.84 123.533 134.705 119.017C134.615 115.133 134.931 111.34 135.607 107.546C136.644 101.856 138.448 96.4367 141.199 91.3788C142.912 88.2628 144.897 85.3726 147.467 82.9339C149.677 80.8114 152.112 79.0501 155.043 78.0566C160.004 76.3857 164.378 77.3792 168.211 80.9469C169.79 82.4371 171.007 84.1532 171.999 86.0499C173.938 89.6627 174.976 93.5465 175.336 97.5206C175.787 102.172 175.742 106.824 175.066 111.52C174.209 117.256 172.54 122.675 169.97 127.868C168.347 131.21 166.317 134.281 163.747 136.99C163.386 137.397 162.619 137.758 162.8 138.3C163.07 139.068 163.927 138.571 164.513 138.707C164.739 138.752 165.009 138.752 165.235 138.797C165.821 138.932 166.452 139.7 166.407 140.242C166.317 140.874 165.956 141.281 165.415 141.506C165.19 141.597 164.964 141.642 164.694 141.642C164.108 141.687 163.566 141.687 162.98 141.642C158.065 141.552 153.194 140.784 148.414 139.7C136.238 136.945 124.964 132.068 114.547 125.159C110.308 122.359 106.34 119.152 102.867 115.449C100.117 112.559 97.9068 109.353 96.8245 105.469C95.9677 102.488 94.3442 99.9141 92.2698 97.7012C89.6994 94.9916 86.7681 92.824 83.1154 91.7401C81.1311 91.153 79.0567 91.1079 77.0274 91.4691C74.8628 91.8756 73.2394 93.9981 73.6452 96.4367C73.7805 97.3851 74.457 98.0625 75.404 98.2431C75.9451 98.3335 76.5314 98.2883 77.1176 98.3786C77.9293 98.5141 78.7411 98.6947 79.5077 98.9205C79.8685 99.056 80.2292 99.2818 80.5449 99.5528C80.9057 99.9141 81.1312 100.366 80.9959 100.862C80.8606 101.404 80.3194 101.901 79.7332 101.856C79.1469 101.811 78.5607 101.811 78.0646 101.585C77.0274 101.179 75.9451 101.224 74.9079 101.269C72.2924 101.359 70.3983 102.849 69.5866 105.288C69.1807 106.417 69.4964 107.411 70.4434 108.088C70.9846 108.494 71.5708 108.72 72.2924 108.449C72.9688 108.224 73.6903 108.043 74.4119 107.862C75.9 107.501 77.3431 107.727 78.7411 108.269C79.4626 108.54 79.8234 109.353 79.643 110.075C79.4626 110.707 78.9214 111.159 78.1548 111.069C77.5686 111.023 77.0274 110.798 76.4863 110.798C73.4197 110.707 71.4355 111.881 70.4885 114.456C69.9474 115.946 69.9474 117.481 70.4434 119.017C71.2101 121.41 72.7433 122.946 75.2236 123.488C75.8098 123.623 76.351 123.623 76.8921 123.442C78.1548 123.081 78.2901 122.765 77.6588 121.546C77.4333 121.094 77.1627 120.688 76.9823 120.236C76.8019 119.784 76.7118 119.288 76.6667 118.791C76.6216 118.294 76.8921 117.843 77.3431 117.572C77.8391 117.301 78.5607 117.391 78.9214 117.797C79.2371 118.159 79.4626 118.61 79.7332 119.017C80.139 119.694 80.5449 120.462 80.9959 121.139C82.3938 123.126 84.3329 124.21 86.7681 124.391C88.0759 124.481 89.3837 124.436 90.6463 124.075C91.2777 123.894 91.909 123.804 92.5855 123.713C93.1717 123.668 93.7129 123.849 94.1188 124.3C94.4344 124.662 94.705 125.068 95.0207 125.475C96.6441 127.281 98.2225 129.223 99.9812 130.939C103.318 134.191 107.016 137.081 110.894 139.7C120.229 145.932 130.376 150.448 141.199 153.293C147.648 154.964 154.141 156.093 160.816 155.867C161.221 155.867 161.627 155.822 162.033 155.913C162.439 156.003 162.8 156.138 163.161 156.319C163.657 156.59 163.747 157.087 163.702 157.583C163.657 158.125 163.341 158.532 162.845 158.667C162.214 158.803 161.537 158.848 160.906 158.848C155.133 158.938 149.451 158.261 143.859 156.996C133.262 154.603 123.251 150.629 113.871 145.074C107.061 141.055 100.838 136.313 95.4266 130.487C95.156 130.171 94.8403 129.9 94.5697 129.584C94.3442 129.313 94.0737 129.223 93.7129 129.358C92.6306 129.765 91.5934 130.171 90.5111 130.578C90.1954 130.713 90.1052 131.029 90.3307 131.345C90.466 131.526 90.5562 131.797 90.7817 131.933C92.1345 132.836 92.9462 134.145 93.758 135.5C95.4265 138.255 96.599 141.236 97.2755 144.352C97.4108 145.074 97.7264 145.526 98.2676 145.932C99.8008 147.061 101.379 148.055 103.138 148.777C103.905 149.093 104.626 149.455 105.302 149.906C105.799 150.222 105.934 151.08 105.663 151.713C105.483 152.119 104.987 152.435 104.446 152.39C104.22 152.39 103.95 152.39 103.724 152.3C100.432 151.171 97.5009 149.409 94.9305 147.061C94.6599 146.835 94.4344 146.384 94.4344 145.977C94.3442 143.9 93.4874 142.003 92.7659 140.106C92.1345 138.436 91.1875 136.855 90.1503 135.41C89.3386 134.281 88.2112 133.965 86.9034 134.1C86.4976 134.145 86.1368 134.326 85.7309 134.416C81.3566 135.907 78.1097 140.965 78.696 145.661C78.8313 146.745 79.2822 147.739 79.9136 148.597C81.1311 150.222 83.5212 150.313 84.7839 148.687C86.227 146.79 87.1289 144.758 86.3172 142.274C86.0917 141.597 86.6779 140.829 87.4445 140.603C87.8955 140.468 88.572 140.739 88.9327 141.236C89.3837 141.868 89.5641 142.545 89.6092 143.313C89.6994 145.435 89.1582 147.377 88.121 149.184C87.7151 149.906 87.7602 149.997 88.3915 150.629C90.5111 152.661 91.6836 155.1 91.4581 158.08C91.2777 160.383 90.2405 162.145 88.0759 163.138C87.6249 163.364 87.174 163.499 86.6779 163.635C86.3172 163.77 86.0917 163.951 86.1819 164.312C86.227 164.493 86.4976 164.674 86.723 164.719C87.1289 164.809 87.5347 164.945 87.8955 164.854C88.9327 164.628 89.9699 164.448 90.9621 163.996C92.0443 163.545 92.9913 163.59 94.0285 164.041C95.6069 164.719 97.1852 165.351 98.7636 166.028C98.8538 166.074 98.8989 166.074 98.9891 166.119C99.8008 166.57 100.117 167.383 99.7557 168.196C99.4852 168.828 98.7185 169.144 97.8617 168.873C97.546 168.783 97.2303 168.648 96.9598 168.512C96.148 168.151 95.2461 167.88 94.4795 167.473C93.2168 166.841 92.0443 166.796 90.7366 167.293C88.8876 167.97 86.9034 168.151 84.9192 167.564C84.1526 167.338 83.3409 167.157 82.5742 166.932C81.7174 166.706 81.7174 166.661 81.4919 167.654C81.3566 168.196 81.2213 168.783 81.1762 169.325C81.086 170.725 80.3194 171.583 79.1018 172.125C76.8921 173.028 74.6824 173.209 72.3826 172.441C70.263 171.764 69.1807 170.183 69.3611 167.97C69.4062 167.248 69.5415 166.525 69.6768 165.803C69.7219 165.441 69.6768 165.17 69.2709 165.035C68.82 164.854 68.369 164.674 67.9181 164.448C64.4006 162.37 62.7771 159.3 63.0026 155.235C63.0928 153.88 63.679 152.706 64.2202 151.532C64.4908 150.945 64.3555 150.584 63.8143 150.358C60.9282 149.274 58.0421 149.409 55.201 150.629C52.0894 151.938 50.5562 154.422 50.1503 157.674C49.7444 160.835 50.3307 163.861 51.7737 166.751C53.1717 169.596 55.1108 171.99 57.4558 174.112C58.1773 174.744 58.9891 175.331 59.8008 175.873C63.2732 178.041 67.0612 179.215 71.0748 179.712C74.1864 180.118 77.298 179.847 80.2743 178.854C81.8527 178.312 83.2957 177.544 84.4682 176.37C84.6937 176.144 84.9192 175.873 85.1447 175.647C85.6407 175.196 86.4074 175.196 86.9485 175.647C87.5798 176.144 88.1661 176.731 88.7974 177.273C90.6915 179.034 92.9012 180.254 95.2912 181.157C98.2225 182.286 101.244 182.963 104.355 183.189C111.3 183.686 118.065 182.873 124.604 180.299C127.67 179.125 130.601 177.68 133.082 175.467C134.164 174.473 135.246 174.564 136.283 175.693C138.177 177.77 140.477 179.305 143.003 180.615C147.287 182.828 151.841 184.138 156.577 184.589C161.041 185.041 165.596 185.131 170.015 184.183C174.615 183.234 179.034 181.744 182.552 178.402C183.138 177.86 183.814 177.725 184.581 177.725C185.348 177.725 185.979 178.131 186.61 178.493C188.324 179.441 190.038 180.434 191.796 181.292C198.11 184.273 204.649 185.989 211.684 185.763C217.681 185.583 223.093 183.821 228.008 180.48C230.398 178.854 232.428 176.867 233.916 174.293C236.531 169.777 236.847 165.125 234.683 160.383C232.473 155.461 228.73 151.984 223.814 149.861C219.124 147.829 214.119 146.926 209.023 146.745C206.498 146.655 203.927 146.655 201.447 147.151C200.725 147.287 200.004 147.287 199.237 147.332C198.516 147.332 197.975 146.7 198.11 146.022C198.245 145.481 198.425 144.939 198.651 144.397C199.327 142.861 199.643 141.281 199.598 139.61C199.508 132.655 192.247 128.049 185.979 130.623C185.528 130.804 185.077 130.984 184.581 131.029C183.228 131.21 182.507 130.307 182.958 129.087C183.093 128.681 183.273 128.32 183.454 127.958C185.393 124.075 186.881 119.965 187.963 115.765C189.361 110.527 190.038 105.153 190.173 99.7786C190.263 96.3464 189.857 92.9143 189.316 89.5273C188.099 81.8049 185.348 74.6696 180.793 68.302C176.238 61.9345 170.421 57.1927 163.115 54.3928C157.433 52.4057 151.706 51.2316 145.438 51.367ZM92.36 18.8067C92.36 16.368 91.5483 14.6068 90.1954 13.1165C88.7974 11.6262 87.3544 10.1359 85.8211 8.82628C83.1154 6.52312 80.0037 4.85221 76.5765 3.90385C75.0883 3.49741 73.555 3.04581 71.9767 3.22645C69.0905 3.54257 66.3397 4.26512 63.9496 5.9812C62.8673 6.74892 61.8752 7.5618 60.838 8.37468C57.8617 10.723 55.5167 13.7036 52.9462 16.4583C51.909 17.5873 50.8267 18.7163 49.6091 19.7099C45.5505 23.0517 40.8605 24.4065 35.6294 23.7743C31.9316 23.3227 28.5043 21.9679 25.3476 19.9808C21.3341 17.4519 17.9518 14.3358 15.2912 10.3617C14.7951 9.59401 14.2991 8.87144 13.7579 8.14888C13.6678 8.05856 13.4874 8.01341 13.3521 7.96825C13.3521 7.96825 13.2619 8.10373 13.2619 8.19405C12.9011 10.4521 12.5404 12.7101 12.1796 14.9681C11.7737 17.6325 11.4129 20.2969 11.0071 23.0065C10.6012 25.8516 10.1052 28.6515 9.69932 31.4966C9.29346 34.1611 8.93267 36.8255 8.52681 39.49C8.12095 42.335 7.67 45.1349 7.21905 47.98C6.81318 50.5542 6.4524 53.1734 6.04654 55.7476C5.64067 58.412 5.18972 61.0765 4.78386 63.7409C4.3329 66.6311 3.88196 69.5665 3.4761 72.4568C3.34081 73.2697 3.2957 74.0825 3.2055 74.8954C3.11531 75.5728 3.29571 76.1599 3.70158 76.747C4.64859 78.1018 5.50539 79.5017 6.4975 80.7662C9.6993 84.7855 13.6227 87.9918 18.4028 90.024C23.3634 92.1465 28.4592 92.5982 33.7805 91.424C38.4254 90.4305 42.3036 88.0821 45.6858 84.9209C48.0759 82.7081 50.2856 80.2695 52.5855 77.9211C54.3442 76.1147 56.1029 74.218 57.9519 72.5019C59.6655 70.8762 61.4242 69.2504 63.4085 67.8956C67.6926 65.0054 72.3374 63.0635 77.7039 63.786C78.8313 63.9215 79.9587 64.1925 81.041 64.4634C81.6723 64.5989 82.2585 64.9151 82.8899 65.0957C83.9722 65.4118 85.1898 64.9602 85.4152 63.5151C86.0466 59.4055 86.723 55.296 87.3544 51.1412C87.9406 47.4381 88.4367 43.6898 89.0229 39.9867C89.4739 37.1416 89.9248 34.3417 90.3758 31.4966C90.8267 28.8322 91.2326 26.1677 91.6836 23.5033C91.9541 21.8324 92.1796 20.1615 92.36 18.8067ZM137.501 117.572C137.636 119.197 137.772 121.41 138.042 123.623C138.493 126.875 139.395 129.991 140.838 132.971C141.424 134.145 142.191 134.868 143.499 135.229C147.738 136.449 152.067 137.352 156.396 138.029C157.073 138.119 157.704 138.029 158.245 137.578C159.372 136.629 160.5 135.681 161.492 134.597C165.641 130.126 168.256 124.797 170.015 119.017C170.15 118.565 170.646 117.978 170.241 117.662C169.79 117.301 169.519 118.068 169.203 118.339C168.437 118.926 167.715 119.604 166.903 120.146C163.837 122.178 159.508 121.952 156.712 119.288C155.584 118.204 154.592 117.03 153.826 115.63C152.338 112.83 151.526 109.849 151.3 106.733C151.075 103.527 151.12 100.366 151.841 97.2045C152.653 93.5917 153.961 90.1595 156.351 87.2241C157.884 85.3274 159.733 83.8371 162.123 83.25C163.07 83.0242 164.062 83.0694 165.009 82.9791C165.145 82.9791 165.37 82.8887 165.415 82.7984C165.46 82.7081 165.37 82.4823 165.235 82.392C163.115 80.6307 160.725 79.863 157.974 80.2695C155.043 80.7211 152.608 82.1662 150.443 84.0629C148.189 86.0048 146.385 88.3531 144.852 90.8821C139.936 98.8754 137.907 107.727 137.501 117.572ZM100.116 12.8907C100.207 12.2584 99.7557 11.9423 99.0793 12.1681C97.0951 12.8455 95.9226 14.1552 95.7873 16.2777C95.7873 16.5035 95.7422 16.7745 95.6971 17.0003C95.3363 19.4841 94.9756 22.013 94.5697 24.4968C93.9835 28.1096 93.3972 31.7676 92.811 35.3804C92.2247 39.0835 91.7287 42.8318 91.1424 46.5349C90.6915 49.38 90.2405 52.1799 89.7896 55.025C89.3837 57.5088 89.0229 60.0378 88.617 62.5216C88.0308 66.1344 87.4446 69.7923 86.8583 73.4051C86.4074 76.1599 86.0015 78.9147 85.5505 81.6243C85.2349 83.7468 84.9192 85.8241 84.6035 87.9467C84.5584 88.2628 84.6937 88.5789 85.0545 88.7144C85.28 88.8047 85.5054 88.8499 85.776 88.9402C87.3995 89.3918 89.3386 88.9402 89.6092 86.7273C89.6092 86.5467 89.6993 86.4112 89.6993 86.2306C90.0601 83.5661 90.4209 80.9017 90.7817 78.1921C91.1875 75.347 91.5483 72.5019 91.9541 69.702C92.36 66.8569 92.811 64.057 93.1718 61.2119C93.5776 58.3668 93.9384 55.5218 94.2991 52.7218C94.7501 49.4252 95.2462 46.0833 95.6971 42.7866C95.9226 41.3415 96.1029 39.8512 96.2833 38.4061C96.7343 35.3352 97.1852 32.2644 97.6362 29.1935C97.997 26.529 98.3577 23.8646 98.7636 21.2001C99.2597 18.4905 99.7106 15.7809 100.116 12.8907ZM116.261 73.36C115.359 73.2697 113.284 73.7213 112.247 74.1729C109.542 75.4373 107.287 77.334 105.393 79.6372C101.199 84.7855 98.5832 90.7466 96.8245 97.1141C96.6441 97.7915 96.7794 98.3786 97.1852 98.9657C98.3577 100.682 99.0793 102.579 99.7557 104.52C100.026 105.288 100.297 106.056 100.658 106.778C100.973 107.456 101.379 108.043 101.785 108.675C101.83 108.72 102.101 108.675 102.146 108.63C102.281 108.269 102.416 107.862 102.507 107.456C102.912 105.785 103.905 104.52 105.348 103.617C106.024 103.211 106.701 102.714 107.377 102.262C107.287 101.45 107.197 100.637 107.106 99.8237C106.971 98.6044 106.791 97.3851 106.791 96.1658C106.791 95.1271 107.061 94.0433 107.106 93.0046C107.197 90.6111 107.873 88.308 108.685 86.0951C109.587 83.6113 110.94 81.3533 112.834 79.5017C114.908 77.4695 117.298 76.2051 120.274 76.3857C120.59 76.3857 120.951 76.4309 121.266 76.3857C121.447 76.3405 121.672 76.2051 121.762 76.0696C121.808 76.0244 121.717 75.7534 121.582 75.6631C120.049 74.2632 118.29 73.4051 116.261 73.36ZM133.984 196.06C137.185 196.105 139.801 196.06 142.371 196.557C143.138 196.692 143.409 196.331 143.273 195.563C142.642 192.176 141.695 188.879 140.387 185.718C140.071 184.95 139.756 184.228 139.034 183.686C137.411 182.557 136.013 181.157 134.705 179.712C134.209 179.17 133.848 179.17 133.217 179.712C131.052 181.654 128.572 183.054 125.956 184.228C125.731 184.318 125.46 184.409 125.28 184.544C125.009 184.725 124.829 184.996 124.964 185.357C126.002 188.699 127.039 192.086 128.121 195.428C128.301 196.06 128.527 196.24 129.158 196.195C130.962 196.195 132.766 196.105 133.984 196.06ZM140.703 228.304C143.634 228.123 146.565 228.033 149.542 227.807C153.961 227.446 158.29 226.859 162.574 225.775C164.333 225.323 166.002 224.736 167.625 223.924C168.662 223.382 169.564 222.704 170.331 221.846C170.601 221.53 170.782 221.169 170.962 220.807C171.188 220.175 170.917 219.408 170.421 219.046C169.88 218.685 169.068 218.73 168.572 219.091C168.392 219.227 168.211 219.408 168.076 219.633C167.445 220.446 166.633 220.943 165.731 221.349C164.604 221.801 163.476 222.343 162.304 222.659C157.614 223.878 152.834 224.556 148.053 224.782C141.514 225.053 134.976 225.098 128.437 224.33C125.19 223.969 121.988 223.427 118.831 222.524C116.937 221.982 115.133 221.259 113.465 220.175C112.698 219.678 111.841 219.904 111.3 220.627C110.894 221.214 110.985 222.072 111.616 222.614C111.977 222.93 112.383 223.246 112.788 223.472C114.186 224.104 115.584 224.782 117.073 225.278C121.131 226.633 125.325 227.22 129.564 227.627C133.217 227.988 136.96 228.078 140.703 228.304ZM83.2958 160.88C84.0173 160.835 84.7839 160.88 85.5055 160.745C87.3995 160.428 88.5269 158.983 88.3014 157.087C88.121 155.596 87.5348 154.242 86.4525 153.158C85.8211 152.526 85.2799 152.345 84.2878 152.616C81.4468 153.429 78.9665 152.706 77.1176 150.222C76.9823 150.042 76.847 149.771 76.6667 149.635C76.351 149.364 76.0353 149.093 75.6745 149.003C74.6373 148.777 73.555 148.687 72.5178 149.048C71.0297 149.545 69.6317 150.222 68.4141 151.171C67.1965 152.119 66.4299 153.338 65.9789 154.784C65.528 156.183 66.0691 157.358 66.9259 158.396C67.2416 158.803 67.873 158.983 68.4141 159.164C68.82 159.345 69.1356 159.029 69.1807 158.532C69.1807 158.351 69.1356 158.216 69.1807 158.035C69.316 156.635 70.5787 155.958 71.7963 156.635C72.2022 156.861 72.5629 157.222 73.0139 157.448C73.9158 157.99 74.7726 158.667 75.7647 159.074C78.1097 160.203 80.6351 160.835 83.2958 160.88ZM99.9361 220.898C101.424 220.853 102.912 220.853 104.355 220.717C106.971 220.537 106.655 220.085 106.159 218.188C105.979 217.466 105.844 217.33 105.212 217.375C103.905 217.466 102.597 217.691 101.289 217.691C98.2676 217.782 95.2462 217.375 92.2698 216.924C88.3014 216.291 84.4682 215.162 80.8155 213.492C77.3431 211.911 74.1864 209.924 71.7963 206.898C71.6159 206.627 71.3454 206.401 71.1199 206.221C70.6689 205.86 69.7219 205.905 69.2709 206.266C68.82 206.627 68.5494 207.53 68.8651 208.072C69.0906 208.524 69.4062 208.885 69.6768 209.292C71.8414 211.956 74.5471 213.898 77.5686 215.433C84.5584 219.046 92.0895 220.717 99.9361 220.898ZM170.962 104.972C171.097 101.224 170.556 97.7464 169.88 94.3142C169.474 92.1465 168.707 90.0692 168.121 87.9467C168.031 87.5402 167.805 87.1789 167.625 86.8628C167.354 86.4112 166.633 86.2306 166.092 86.4564C165.641 86.637 165.145 87.3596 165.235 87.8112C165.28 88.1273 165.415 88.4434 165.505 88.7595C167.219 93.8175 168.211 99.0109 168.076 104.385C168.076 105.198 168.076 106.011 168.031 106.824C168.031 108.224 168.031 109.578 167.58 110.933C167.445 111.294 167.49 111.746 167.49 112.152C167.49 112.649 168.031 113.146 168.617 113.281C169.023 113.372 169.654 113.146 169.835 112.694C170.06 112.198 170.286 111.656 170.376 111.069C170.782 108.991 171.097 106.914 170.962 104.972ZM126.723 94.7658C126.407 91.7401 126.272 88.8047 125.505 85.9596C125.009 84.2435 124.468 82.5275 123.521 80.9469C123.251 80.4953 122.8 80.0437 122.394 79.7275C122.078 79.4566 121.627 79.5017 121.266 79.7727C120.861 80.0437 120.545 80.4501 120.59 80.992C120.635 81.3081 120.725 81.6694 120.861 81.9404C122.304 84.4693 123.025 87.1789 123.431 90.0692C123.882 93.2304 123.972 96.3916 123.386 99.5528C123.206 100.411 123.025 101.314 122.8 102.172C122.574 103.075 122.71 103.346 123.566 103.662C123.792 103.753 124.017 103.843 124.243 103.888C124.919 104.114 125.1 104.024 125.325 103.346C126.362 100.546 126.407 97.6109 126.723 94.7658ZM67.1514 143.042C67.1514 143.132 67.1514 143.358 67.1514 143.584C67.2867 145.751 69.0004 146.926 71.0748 146.248C72.1571 145.887 73.1943 145.435 74.2766 145.074C75.0432 144.803 75.4941 144.306 75.4941 143.448C75.5392 142.455 75.6294 141.506 76.0353 140.558C76.3059 139.971 76.4863 139.339 76.7569 138.752C76.8921 138.39 76.8019 138.119 76.4412 137.984C75.3138 137.532 74.1413 136.99 72.9237 137.171C70.714 137.487 68.9553 138.571 67.7377 140.513C67.3318 141.236 67.0161 142.003 67.1514 143.042ZM75.8549 134.281C77.9744 134.461 79.9136 134.01 81.7625 133.016C82.8448 132.429 83.9722 131.978 85.0996 131.436C85.5054 131.255 85.9564 131.074 86.4074 130.894C86.3172 130.216 85.8211 129.945 85.28 129.72C84.6035 129.404 83.9722 129.087 83.2507 128.816C79.0117 127.281 75.8549 128.591 73.1492 131.165C72.7433 131.526 72.5178 132.113 72.2924 132.61C72.0218 133.152 72.3825 133.874 72.9688 133.965C73.8707 134.1 74.8628 134.191 75.8549 134.281ZM152.834 194.208C153.555 194.208 154.322 194.253 155.043 194.208C157.298 194.073 157.388 193.892 156.667 191.724C156.396 190.912 155.9 190.505 155.133 190.37C152.698 190.054 150.353 189.331 148.008 188.563C147.557 188.428 147.061 188.337 146.565 188.337C145.257 188.337 144.897 188.924 145.122 190.189C145.438 191.815 146.385 192.808 147.828 193.395C148.144 193.531 148.414 193.621 148.73 193.757C150.038 194.344 151.436 194.299 152.834 194.208ZM76.351 166.48C78.4705 166.751 78.4705 166.751 78.5607 164.719C78.5607 164.538 78.5607 164.403 78.6058 164.222C78.6058 163.545 78.5156 163.364 77.8843 163.138C77.2078 162.912 76.4863 162.687 75.8098 162.506C74.9981 162.325 74.3217 161.512 73.3296 161.874C73.1041 162.732 72.8786 163.59 72.6982 164.448C72.608 164.899 72.608 165.396 72.5629 165.893C72.5178 166.39 72.8335 166.615 73.2845 166.615C74.3668 166.57 75.404 166.074 76.351 166.48ZM118.29 190.912C119.823 190.866 121.221 190.46 122.619 190.053C122.8 190.008 123.025 189.692 123.07 189.512C123.115 188.654 122.484 187.886 121.762 187.705C119.418 187.163 117.253 187.705 115.178 188.744C115.043 188.834 114.908 188.97 114.818 189.06C114.412 189.421 114.502 190.099 114.998 190.234C116.035 190.505 117.163 190.686 118.29 190.912ZM74.9981 170.093C75.404 170.048 75.7196 170.048 76.0353 170.002C76.1255 170.002 76.1706 169.822 76.2157 169.731C76.2157 169.731 76.0804 169.596 76.0353 169.596C75.404 169.596 74.7726 169.641 74.0962 169.686C74.006 169.686 73.9609 169.777 73.8707 169.822C73.9158 169.867 74.006 169.957 74.0511 169.957C74.4119 170.002 74.7275 170.048 74.9981 170.093ZM118.155 123.126C118.11 123.081 118.065 122.991 118.02 122.946C117.614 122.765 117.163 122.584 116.757 122.449C116.712 122.449 116.622 122.494 116.576 122.584C116.576 122.63 116.577 122.72 116.622 122.72C116.937 123.036 117.253 123.397 117.794 123.352C117.929 123.352 118.02 123.217 118.155 123.126Z" fill="#1A1A1A"/>
<path d="M145.437 51.3667C151.706 51.2313 157.433 52.4506 163.025 54.5731C170.375 57.373 176.193 62.16 180.702 68.4824C185.257 74.85 188.008 81.9853 189.226 89.7076C189.767 93.0946 190.173 96.5268 190.082 99.9589C189.947 105.378 189.271 110.707 187.873 115.946C186.745 120.145 185.302 124.255 183.363 128.139C183.183 128.5 183.002 128.861 182.867 129.268C182.416 130.487 183.138 131.39 184.49 131.21C184.987 131.165 185.437 130.984 185.888 130.803C192.157 128.274 199.372 132.881 199.507 139.79C199.552 141.461 199.192 143.042 198.56 144.577C198.335 145.119 198.109 145.616 198.019 146.203C197.884 146.88 198.425 147.512 199.147 147.512C199.868 147.512 200.635 147.512 201.356 147.332C203.882 146.835 206.407 146.835 208.932 146.925C214.028 147.106 219.034 148.009 223.724 150.041C228.639 152.164 232.382 155.641 234.592 160.564C236.757 165.306 236.441 169.957 233.825 174.473C232.382 177.002 230.308 178.989 227.918 180.66C223.002 184.002 217.591 185.763 211.593 185.944C204.558 186.169 197.974 184.453 191.706 181.473C189.947 180.615 188.233 179.621 186.52 178.673C185.888 178.312 185.257 177.905 184.49 177.905C183.724 177.905 183.092 178.041 182.461 178.583C178.944 181.924 174.524 183.415 169.924 184.363C165.46 185.266 160.95 185.221 156.486 184.769C151.751 184.273 147.196 182.963 142.912 180.795C140.432 179.531 138.132 177.995 136.193 175.873C135.156 174.744 134.118 174.654 132.991 175.647C130.511 177.86 127.579 179.305 124.513 180.479C118.019 183.008 111.21 183.866 104.265 183.37C101.153 183.144 98.1319 182.466 95.2007 181.337C92.8106 180.434 90.6009 179.17 88.7069 177.454C88.1206 176.912 87.4893 176.325 86.8579 175.828C86.3168 175.376 85.5502 175.421 85.0541 175.828C84.7835 176.054 84.6031 176.279 84.3777 176.55C83.2052 177.724 81.7621 178.492 80.1837 179.034C77.1623 180.028 74.0958 180.299 70.9842 179.892C66.9706 179.395 63.1375 178.221 59.7102 176.054C58.8985 175.512 58.0868 174.97 57.3652 174.292C55.0202 172.215 53.0811 169.776 51.6831 166.931C50.2852 164.041 49.6538 161.015 50.0597 157.854C50.4656 154.648 51.9988 152.164 55.1104 150.809C57.9515 149.59 60.7925 149.454 63.7237 150.538C64.2649 150.764 64.4002 151.125 64.1296 151.712C63.5434 152.886 62.9571 154.061 62.912 155.415C62.6865 159.48 64.3551 162.551 67.8274 164.628C68.2333 164.854 68.7294 165.035 69.1803 165.215C69.5411 165.351 69.6313 165.622 69.5862 165.983C69.4509 166.705 69.3607 167.428 69.2705 168.151C69.1352 170.318 70.1724 171.899 72.292 172.621C74.5467 173.344 76.8015 173.209 79.0112 172.305C80.2288 171.809 80.9955 170.905 81.0856 169.505C81.1307 168.918 81.266 168.376 81.4013 167.834C81.6268 166.841 81.6268 166.886 82.4836 167.112C83.2502 167.338 84.062 167.518 84.8286 167.744C86.8128 168.286 88.7519 168.151 90.6459 167.473C91.9988 166.976 93.1713 167.022 94.3889 167.654C95.2006 168.06 96.0575 168.331 96.8692 168.693C97.1849 168.828 97.4554 168.963 97.7711 169.054C98.6279 169.28 99.3945 169.009 99.6651 168.376C100.026 167.563 99.7102 166.751 98.8985 166.299C98.8083 166.254 98.7632 166.254 98.673 166.209C97.0947 165.531 95.4712 164.899 93.938 164.222C92.9008 163.77 91.9537 163.725 90.8714 164.177C89.9244 164.583 88.8421 164.809 87.8049 165.035C87.4442 165.125 86.9932 164.989 86.6325 164.899C86.407 164.854 86.1364 164.673 86.0913 164.493C86.0011 164.131 86.2716 163.906 86.5873 163.815C87.0383 163.68 87.5344 163.499 87.9853 163.318C90.1499 162.325 91.1871 160.564 91.3675 158.261C91.593 155.28 90.4205 152.841 88.301 150.809C87.6245 150.177 87.6246 150.132 88.0304 149.364C89.0676 147.558 89.6087 145.616 89.5185 143.493C89.4734 142.725 89.2931 142.048 88.8421 141.416C88.4813 140.919 87.8049 140.648 87.354 140.784C86.6324 141.009 86.0011 141.777 86.2266 142.454C87.0383 144.938 86.0913 146.971 84.6933 148.867C83.4757 150.493 81.0856 150.403 79.823 148.777C79.1916 147.919 78.7407 146.97 78.6054 145.841C78.0191 141.19 81.266 136.087 85.6403 134.597C86.0462 134.461 86.4069 134.281 86.8128 134.281C88.1206 134.145 89.248 134.506 90.0597 135.59C91.142 137.035 92.0439 138.616 92.6753 140.287C93.3968 142.184 94.2536 144.08 94.3438 146.158C94.3438 146.519 94.5693 146.971 94.8399 147.242C97.4103 149.545 100.342 151.306 103.634 152.48C103.859 152.57 104.13 152.57 104.355 152.57C104.851 152.57 105.392 152.299 105.573 151.893C105.843 151.261 105.708 150.403 105.212 150.087C104.535 149.68 103.769 149.274 103.047 148.958C101.289 148.19 99.7102 147.242 98.177 146.113C97.6358 145.706 97.3201 145.254 97.1848 144.532C96.5084 141.371 95.381 138.435 93.6674 135.681C92.8557 134.371 92.044 133.016 90.6911 132.113C90.5107 131.977 90.4205 131.752 90.2401 131.526C90.0146 131.21 90.1048 130.894 90.4205 130.758C91.5028 130.352 92.5851 129.99 93.6223 129.539C93.9831 129.403 94.2536 129.494 94.4791 129.765C94.7497 130.081 95.0653 130.352 95.3359 130.668C100.747 136.493 106.971 141.235 113.78 145.254C123.16 150.809 133.126 154.783 143.769 157.177C149.361 158.441 155.043 159.119 160.815 159.028C161.446 159.028 162.123 158.983 162.754 158.848C163.25 158.712 163.566 158.306 163.611 157.764C163.656 157.222 163.566 156.77 163.07 156.499C162.709 156.319 162.348 156.138 161.943 156.093C161.537 156.003 161.131 156.048 160.725 156.048C154.051 156.228 147.512 155.144 141.108 153.474C130.24 150.628 120.139 146.112 110.804 139.88C106.926 137.261 103.228 134.371 99.8906 131.119C98.1319 129.403 96.5535 127.507 94.93 125.655C94.6144 125.294 94.3438 124.887 94.0281 124.481C93.6223 123.984 93.0812 123.803 92.4949 123.894C91.8636 123.939 91.1871 124.074 90.5558 124.255C89.2931 124.616 87.9853 124.661 86.6775 124.571C84.2424 124.39 82.3032 123.307 80.9052 121.32C80.4543 120.642 80.0484 119.92 79.6426 119.197C79.372 118.791 79.1465 118.339 78.8308 117.978C78.4701 117.571 77.7485 117.481 77.2525 117.752C76.7564 118.023 76.531 118.429 76.5761 118.971C76.6212 119.468 76.7113 119.92 76.8917 120.416C77.0721 120.868 77.3427 121.274 77.5682 121.726C78.1995 122.945 78.0642 123.262 76.8015 123.623C76.2153 123.803 75.7192 123.803 75.133 123.668C72.6527 123.126 71.1195 121.591 70.3528 119.197C69.8568 117.662 69.8568 116.126 70.3979 114.636C71.3449 112.062 73.3742 110.888 76.3957 110.978C76.9819 110.978 77.5231 111.204 78.0642 111.249C78.8308 111.294 79.372 110.888 79.5524 110.255C79.7328 109.533 79.372 108.72 78.6505 108.449C77.2525 107.907 75.8094 107.681 74.3213 108.043C73.5997 108.223 72.8782 108.359 72.2018 108.63C71.4802 108.901 70.894 108.675 70.3528 108.268C69.4058 107.591 69.0901 106.597 69.496 105.468C70.3077 103.03 72.2468 101.585 74.8173 101.449C75.8545 101.404 76.9368 101.359 77.974 101.765C78.5152 101.946 79.1014 101.991 79.6426 102.036C80.2288 102.081 80.77 101.585 80.9052 101.043C81.0405 100.501 80.8602 100.049 80.4543 99.7331C80.1386 99.4622 79.7779 99.2364 79.4171 99.1009C78.6505 98.8751 77.8387 98.6945 77.027 98.559C76.4859 98.4687 75.8996 98.5138 75.3134 98.4235C74.3664 98.288 73.6899 97.5655 73.5546 96.6171C73.1488 94.2236 74.7722 92.0559 76.9368 91.6495C78.9661 91.2882 80.9955 91.3334 83.0248 91.9204C86.6776 93.0043 89.6087 95.1268 92.1792 97.8816C94.2987 100.094 95.9222 102.669 96.7339 105.649C97.8162 109.533 100.071 112.739 102.777 115.629C106.294 119.333 110.218 122.539 114.457 125.339C124.874 132.248 136.148 137.126 148.324 139.88C153.104 140.964 157.974 141.732 162.89 141.822C163.476 141.822 164.017 141.822 164.603 141.822C164.829 141.822 165.099 141.777 165.325 141.687C165.866 141.461 166.272 141.009 166.317 140.422C166.362 139.88 165.776 139.113 165.144 138.977C164.919 138.932 164.648 138.932 164.423 138.887C163.837 138.751 162.98 139.248 162.709 138.48C162.529 137.893 163.25 137.577 163.656 137.171C166.227 134.461 168.211 131.39 169.879 128.048C172.45 122.855 174.118 117.436 174.975 111.701C175.652 107.049 175.697 102.352 175.246 97.7009C174.885 93.6817 173.848 89.7979 171.909 86.2303C170.917 84.3336 169.699 82.6175 168.121 81.1272C164.287 77.5596 159.958 76.566 154.953 78.237C152.021 79.2305 149.586 81.0369 147.377 83.1142C144.806 85.598 142.777 88.4883 141.108 91.5592C138.357 96.6171 136.554 102.036 135.516 107.726C134.84 111.52 134.524 115.359 134.614 119.197C134.75 123.758 135.516 128.139 137.185 132.384C137.23 132.519 137.32 132.7 137.365 132.835C137.365 132.971 137.365 133.152 137.275 133.242C137.185 133.332 136.959 133.332 136.824 133.287C133.081 131.887 129.383 130.306 125.821 128.455C124.378 127.687 122.935 126.919 121.492 126.107C121.131 125.926 120.77 125.7 120.95 125.158C121.221 124.436 121.672 124.074 122.168 124.165C123.521 124.391 124.919 124.616 126.272 124.797C127.083 124.887 127.895 124.932 128.707 124.887C129.113 124.887 129.519 124.752 129.879 124.616C130.42 124.391 130.691 123.894 130.646 123.216C130.601 122.584 130.195 122.133 129.564 122.042C128.436 121.907 127.309 121.771 126.136 121.681C119.868 121.139 114.231 118.881 109.271 115.042C108.504 114.455 107.782 113.733 107.151 112.965C106.565 112.288 106.069 111.52 105.708 110.707C104.806 108.72 105.392 107.139 107.286 106.236C108.098 105.83 108.955 105.559 109.812 105.378C112.563 104.791 115.358 105.062 118.109 105.559C122.484 106.372 126.587 108.043 130.33 110.436C130.736 110.707 131.142 110.978 131.593 111.159C132.224 111.43 132.946 111.113 133.307 110.526C133.577 110.03 133.532 109.397 133.126 108.901C132.901 108.675 132.675 108.404 132.405 108.223C131.954 107.862 131.458 107.591 130.962 107.275C130.285 106.823 129.383 106.552 128.977 105.92C128.481 105.152 129.023 104.159 129.203 103.301C129.924 99.1461 130.24 94.9913 129.924 90.8366C129.654 87.1787 129.023 83.5207 127.625 80.0885C126.542 77.4692 125.099 75.1209 122.98 73.2242C120.815 71.2823 118.2 70.334 115.313 70.4694C113.194 70.5597 111.119 71.2823 109.271 72.4113C107.241 73.6306 105.392 75.1209 103.814 76.9273C100.793 80.4046 98.3574 84.2884 96.5986 88.5786C96.1477 89.7076 95.6967 90.8818 95.2458 92.0108C95.1105 92.3269 95.0203 92.643 94.8399 92.914C94.434 93.5914 93.6674 93.5914 93.2164 93.0043C92.8106 92.4624 92.5851 91.8301 92.7655 91.1527C92.9008 90.6108 93.0811 90.0689 93.3066 89.527C97.0045 79.8627 102.687 71.5533 110.623 64.8244C117.478 58.9988 125.235 54.9344 133.983 52.857C137.906 51.728 141.785 51.2313 145.437 51.3667Z" fill="#F9F5F2"/>
<path d="M92.36 18.807C92.1797 20.1618 91.9542 21.8779 91.6836 23.5488C91.2777 26.2132 90.8268 28.8776 90.3758 31.5421C89.9249 34.3872 89.4288 37.1871 89.0229 40.0322C88.4367 43.7353 87.9407 47.4836 87.3544 51.1867C86.7231 55.2963 86.0466 59.4058 85.4153 63.5606C85.1898 65.0057 83.9722 65.4573 82.8899 65.1412C82.2586 64.9605 81.6723 64.6444 81.041 64.5089C79.9136 64.2379 78.8313 63.967 77.7039 63.8315C72.3375 63.1089 67.6926 65.0508 63.4085 67.9411C61.4694 69.2507 59.7107 70.9217 57.9519 72.5474C56.103 74.2635 54.3893 76.1602 52.5855 77.9666C50.2856 80.3149 48.0759 82.7536 45.6858 84.9664C42.3037 88.1276 38.3803 90.4308 33.7805 91.4695C28.5043 92.5985 23.4085 92.192 18.4029 90.0695C13.6227 88.0373 9.69935 84.8309 6.49754 80.8117C5.46034 79.5472 4.64864 78.1021 3.70162 76.7924C3.29576 76.2054 3.16046 75.6183 3.20555 74.9409C3.29574 74.128 3.34086 73.3151 3.47614 72.5022C3.9271 69.612 4.33295 66.6766 4.78391 63.7864C5.18977 61.1219 5.64072 58.4575 6.04658 55.793C6.45245 53.2189 6.81323 50.5996 7.21909 48.0255C7.62496 45.1804 8.0759 42.3805 8.52686 39.5354C8.93272 36.871 9.2935 34.2065 9.69936 31.5421C10.1503 28.697 10.6013 25.8971 11.0071 23.052C11.413 20.3876 11.7738 17.7231 12.1796 15.0135C12.4953 12.7555 12.9012 10.4975 13.2619 8.23951C13.2619 8.14919 13.3521 8.01371 13.3521 8.01371C13.4874 8.05887 13.6678 8.10404 13.758 8.19437C14.2991 8.91693 14.7952 9.68463 15.2912 10.4072C17.9068 14.3813 21.3341 17.4973 25.3476 20.0263C28.5043 22.0133 31.9316 23.323 35.6295 23.8197C40.8606 24.4971 45.5506 23.0972 49.6092 19.7553C50.8268 18.7618 51.864 17.6328 52.9463 16.5038C55.5167 13.749 57.8617 10.7685 60.838 8.42017C61.8752 7.60728 62.8674 6.79438 63.9497 6.02666C66.3397 4.35574 69.1357 3.63319 71.9767 3.27191C73.5551 3.09127 75.0883 3.54287 76.5765 3.94931C80.0038 4.89767 83.1154 6.5686 85.8211 8.87177C87.3995 10.1814 88.7974 11.6717 90.1954 13.162C91.5483 14.6071 92.36 16.3683 92.36 18.807ZM20.6126 47.89C20.5675 48.7481 20.5675 49.3351 20.5224 49.9222C20.342 51.6835 21.0184 53.1286 22.1909 54.3931C23.2281 55.4769 24.4457 56.2898 25.8888 56.7414C30.1278 58.1414 34.4119 58.1865 38.6058 56.5608C40.9057 55.6576 43.1154 54.6189 45.1898 53.2641C46.4976 52.406 47.8054 51.5932 49.1582 50.7803C50.5562 49.9222 51.9992 49.1094 53.6227 48.7481C54.5697 48.5223 55.5618 48.3868 56.5088 48.4319C58.0421 48.5223 58.6735 50.0125 57.8166 51.277C57.0951 52.3157 56.1481 53.0383 55.0207 53.6705C51.5934 55.5221 48.6171 57.9156 46.0015 60.7606C44.7839 62.0703 43.4761 63.3348 42.1233 64.5541C39.3724 67.0379 35.9902 67.8959 32.3826 67.8056C31.2101 67.8056 30.3532 67.2185 29.7219 66.2702C29.4062 65.7734 29.1357 65.2766 28.9553 64.7347C28.6847 63.8767 28.5043 62.9735 28.369 62.1154C28.2337 61.3026 27.8279 60.6703 27.1063 60.4445C25.077 59.9026 23.3183 60.1284 21.9203 61.709C20.9733 62.7929 20.4322 64.0573 20.1165 65.4121C19.7106 67.083 19.5753 68.7991 19.5753 70.5152C19.5753 72.1861 20.0714 73.7667 20.7929 75.2118C21.8752 77.4247 23.6791 78.7795 26.0241 79.3666C27.2867 79.6827 28.5945 79.8633 29.9023 79.9085C34.0511 80.1343 37.7941 78.8698 41.2665 76.657C43.8369 75.0312 46.227 73.1796 48.3916 71.012C51.413 67.9411 54.8403 65.4573 58.5832 63.3799C60.0263 62.567 61.4243 61.709 62.7772 60.851C65.1222 59.3607 66.475 57.193 67.1064 54.5286C67.2868 53.806 67.1965 53.0383 67.3769 52.3157C68.0083 49.8319 67.5573 47.3933 66.926 45.0449C65.6182 39.8064 61.1537 37.1871 55.7422 37.4581C53.8482 37.5484 52.0444 38.0451 50.3758 39.0387C48.3916 40.1677 46.4525 41.387 44.5134 42.6063C42.2135 44.0514 39.9587 45.4965 37.4784 46.6255C35.8098 47.3933 34.0511 47.7546 32.2473 47.6191C31.5258 47.5739 30.5787 47.9352 30.218 47.2126C29.9474 46.761 30.2631 45.9481 30.3533 45.3159C30.5336 43.7805 30.7591 42.245 30.9846 40.7096C31.0748 39.9419 31.4356 39.716 32.1571 39.8967C36.4412 40.8902 40.4547 40.3031 44.1526 37.9548C45.0545 37.3677 45.9564 36.8258 46.9034 36.2839C48.5269 35.3355 50.1503 34.3872 51.8189 33.484C54.4344 32.0389 57.3206 31.4518 60.2969 31.3615C62.4615 31.3163 64.5359 31.4969 66.6103 32.1292C68.1436 32.5808 69.4964 32.1292 70.4886 30.3679C70.714 29.9615 70.8944 29.4647 71.0297 29.0131C71.7512 26.9809 72.2473 24.9487 72.6081 22.8262C72.8786 21.1553 73.1041 19.4392 73.2394 17.7231C73.3296 16.3232 72.6532 15.42 71.2552 14.9684C71.0297 14.878 70.8042 14.7877 70.5336 14.7877C68.5945 14.6974 66.6103 14.5619 64.6712 14.9684C61.8301 15.5555 59.4852 17.0006 57.4558 18.9424C56.1932 20.1166 55.1109 21.4262 53.9384 22.6907C52.4953 24.2713 51.0973 25.8971 49.5641 27.3422C47.0387 29.7357 43.9722 31.0002 40.4547 31.0002C38.9666 31.0002 37.5235 31.0002 36.0353 30.9099C33.8256 30.7744 31.7061 30.1873 29.7219 29.0583C28.6847 28.426 27.5573 27.8841 26.475 27.3422C26.0692 27.1164 25.528 27.0261 25.077 26.9809C24.4908 26.9358 23.9045 27.2971 23.7242 27.839C23.4536 28.6067 23.183 29.3744 23.0928 30.1873C22.8674 31.9034 22.7321 33.6195 22.5968 35.3355C22.4164 37.1871 22.3262 39.0838 21.9654 40.9354C21.74 42.1096 21.6948 43.374 21.0184 44.4579C20.7929 44.8191 20.7478 45.4062 20.7027 45.8578C20.5674 46.5352 20.6126 47.3481 20.6126 47.89Z" fill="#F9F5F2"/>
<path d="M137.501 117.572C137.907 107.727 139.936 98.8756 144.852 90.8371C146.385 88.3081 148.234 86.005 150.443 84.0179C152.608 82.1212 155.043 80.6309 157.974 80.2245C160.725 79.8181 163.115 80.5406 165.235 82.347C165.325 82.4373 165.415 82.6631 165.415 82.7535C165.37 82.8438 165.145 82.9341 165.009 82.9341C164.017 83.0244 163.025 82.9793 162.123 83.2051C159.733 83.7921 157.884 85.2824 156.351 87.1791C154.006 90.1145 152.653 93.5467 151.841 97.1595C151.165 100.321 151.075 103.482 151.3 106.688C151.526 109.804 152.383 112.785 153.826 115.585C154.547 116.985 155.584 118.159 156.712 119.243C159.508 121.952 163.837 122.133 166.903 120.101C167.715 119.559 168.437 118.881 169.203 118.294C169.564 118.023 169.79 117.301 170.241 117.617C170.646 117.933 170.15 118.52 170.015 118.972C168.256 124.752 165.641 130.081 161.492 134.552C160.5 135.636 159.327 136.539 158.245 137.533C157.749 137.984 157.118 138.12 156.396 137.984C152.022 137.307 147.738 136.449 143.499 135.184C142.191 134.823 141.424 134.1 140.838 132.926C139.395 129.946 138.493 126.83 138.042 123.578C137.772 121.456 137.636 119.243 137.501 117.572Z" fill="#F9F5F2"/>
<path d="M100.117 12.891C99.6657 15.7361 99.2599 18.4909 98.854 21.2456C98.4482 23.9101 98.1325 26.5745 97.7266 29.2389C97.2757 32.3098 96.8247 35.3807 96.3738 38.4516C96.1483 39.8967 95.9679 41.387 95.7875 42.8321C95.3365 46.1288 94.8405 49.4706 94.3895 52.7673C93.9837 55.6124 93.668 58.4575 93.2621 61.2574C92.8563 64.1025 92.4053 66.9024 92.0446 69.7475C91.6387 72.5926 91.2328 75.3925 90.872 78.2376C90.5113 80.902 90.1505 83.5664 89.7898 86.276C89.7898 86.4567 89.6996 86.5922 89.6996 86.7728C89.4741 88.9857 87.5349 89.4824 85.8664 88.9856C85.6409 88.8953 85.4155 88.8502 85.1449 88.7598C84.7841 88.6244 84.6488 88.3082 84.6939 87.9921C85.0096 85.8696 85.3252 83.7922 85.6409 81.6697C86.0468 78.915 86.4978 76.1602 86.9487 73.4506C87.535 69.8378 88.1212 66.1798 88.7075 62.567C89.1133 60.0832 89.4741 57.5543 89.8799 55.0705C90.3309 52.2254 90.827 49.4255 91.2328 46.5804C91.8191 42.8773 92.3151 39.129 92.9014 35.4259C93.4425 31.8131 94.0739 28.1551 94.6601 24.5423C95.066 22.0585 95.4267 19.5295 95.7875 17.0457C95.8326 16.8199 95.8326 16.549 95.8777 16.3232C96.0581 14.2007 97.1855 12.891 99.1697 12.2136C99.7559 11.9878 100.207 12.3039 100.117 12.891Z" fill="#F9F5F2"/>
<path d="M116.261 73.3603C118.335 73.4506 120.049 74.2635 121.492 75.7086C121.582 75.7989 121.717 76.0698 121.672 76.115C121.537 76.2505 121.357 76.386 121.176 76.4311C120.86 76.4763 120.545 76.4311 120.184 76.4311C117.208 76.2505 114.773 77.5601 112.743 79.5472C110.849 81.3987 109.496 83.6567 108.594 86.1405C107.783 88.3534 107.106 90.6565 107.016 93.05C106.971 94.0887 106.7 95.1725 106.7 96.2112C106.7 97.4305 106.881 98.6499 107.016 99.8692C107.106 100.682 107.196 101.495 107.287 102.308C106.61 102.759 105.934 103.211 105.257 103.663C103.814 104.566 102.822 105.83 102.416 107.501C102.326 107.908 102.191 108.269 102.055 108.675C102.055 108.721 101.74 108.766 101.695 108.721C101.289 108.088 100.883 107.501 100.567 106.824C100.207 106.101 99.936 105.334 99.6654 104.566C98.9889 102.624 98.2674 100.727 97.0949 99.0112C96.6891 98.4241 96.5538 97.837 96.7341 97.1596C98.4929 90.792 101.108 84.8309 105.302 79.6827C107.196 77.3795 109.406 75.4828 112.157 74.2183C113.284 73.6764 115.359 73.2699 116.261 73.3603Z" fill="#F9F5F2"/>
<path d="M140.703 228.304C136.96 228.078 133.172 227.988 129.474 227.626C125.235 227.22 121.041 226.633 116.982 225.278C115.539 224.781 114.096 224.104 112.698 223.472C112.247 223.291 111.886 222.93 111.526 222.614C110.939 222.072 110.804 221.169 111.21 220.627C111.751 219.904 112.563 219.678 113.374 220.175C115.043 221.259 116.847 221.981 118.741 222.523C121.898 223.381 125.099 223.923 128.346 224.33C134.885 225.098 141.424 225.052 147.963 224.781C152.788 224.556 157.568 223.878 162.213 222.659C163.386 222.343 164.513 221.846 165.641 221.349C166.542 220.988 167.399 220.491 167.985 219.633C168.121 219.452 168.301 219.272 168.482 219.091C168.978 218.685 169.789 218.685 170.331 219.046C170.827 219.407 171.142 220.175 170.872 220.807C170.736 221.169 170.511 221.53 170.24 221.846C169.474 222.749 168.572 223.427 167.535 223.923C165.911 224.736 164.243 225.323 162.484 225.775C158.2 226.904 153.87 227.491 149.451 227.807C146.61 228.033 143.679 228.123 140.703 228.304Z" fill="#F9F5F2"/>
<path d="M83.2957 160.88C80.635 160.79 78.1096 160.158 75.7195 159.119C74.7725 158.713 73.8706 158.081 72.9687 157.493C72.5628 157.222 72.2021 156.906 71.7511 156.681C70.4884 156.003 69.2709 156.681 69.1356 158.081C69.1356 158.261 69.1807 158.397 69.1356 158.577C69.0905 159.074 68.7748 159.39 68.3689 159.21C67.8729 158.984 67.2415 158.803 66.8808 158.442C66.024 157.403 65.4828 156.229 65.9338 154.829C66.3847 153.384 67.1513 152.165 68.3689 151.216C69.6316 150.268 71.0296 149.59 72.4727 149.094C73.5099 148.732 74.5922 148.823 75.6294 149.048C75.9901 149.139 76.3509 149.455 76.6215 149.681C76.8018 149.816 76.9371 150.042 77.0724 150.268C78.9213 152.706 81.4016 153.429 84.2427 152.661C85.1897 152.39 85.7759 152.571 86.4073 153.203C87.4896 154.287 88.0758 155.642 88.2562 157.132C88.5268 159.029 87.3993 160.474 85.4602 160.79C84.7838 160.88 84.0623 160.88 83.2957 160.88Z" fill="#F9F5F2"/>
<path d="M99.9367 220.898C92.09 220.718 84.559 219.047 77.524 215.434C74.5026 213.898 71.7968 211.956 69.6322 209.292C69.3166 208.931 69.046 208.524 68.8205 208.073C68.5499 207.531 68.7754 206.673 69.2264 206.266C69.6773 205.905 70.6243 205.86 71.0753 206.221C71.3459 206.402 71.5714 206.673 71.7517 206.899C74.1869 209.924 77.2986 211.956 80.7709 213.492C84.4237 215.163 88.2568 216.292 92.2253 216.924C95.2016 217.376 98.223 217.782 101.244 217.692C102.552 217.647 103.86 217.466 105.168 217.376C105.799 217.331 105.934 217.466 106.115 218.189C106.611 220.085 106.881 220.537 104.311 220.718C102.913 220.853 101.425 220.853 99.9367 220.898Z" fill="#F9F5F2"/>
<path d="M170.962 104.972C171.143 106.914 170.782 108.991 170.466 111.114C170.376 111.656 170.15 112.198 169.925 112.739C169.745 113.191 169.113 113.417 168.707 113.327C168.121 113.191 167.58 112.694 167.58 112.198C167.58 111.791 167.535 111.339 167.67 110.978C168.076 109.623 168.076 108.223 168.121 106.869C168.121 106.056 168.121 105.243 168.166 104.43C168.256 99.056 167.264 93.8626 165.596 88.8047C165.506 88.4885 165.37 88.1724 165.325 87.8563C165.235 87.4047 165.731 86.637 166.182 86.5015C166.723 86.3208 167.445 86.4563 167.715 86.9079C167.941 87.2692 168.121 87.6305 168.211 87.9918C168.843 90.1143 169.564 92.1917 169.97 94.3593C170.556 97.7463 171.052 101.224 170.962 104.972Z" fill="#F9F5F2"/>
<path d="M126.723 94.7655C126.408 97.6106 126.362 100.546 125.325 103.346C125.1 104.023 124.919 104.068 124.243 103.888C124.017 103.798 123.792 103.752 123.566 103.662C122.755 103.346 122.619 103.075 122.8 102.172C122.98 101.314 123.206 100.411 123.386 99.5525C124.017 96.3913 123.927 93.2301 123.431 90.0689C123.025 87.2238 122.304 84.469 120.861 81.9401C120.68 81.6691 120.635 81.3078 120.59 80.9917C120.5 80.4498 120.816 80.0885 121.267 79.7724C121.627 79.5014 122.078 79.4562 122.394 79.7272C122.8 80.0885 123.251 80.4949 123.521 80.9465C124.468 82.482 125.01 84.198 125.506 85.9593C126.272 88.8495 126.453 91.7849 126.723 94.7655Z" fill="#F9F5F2"/>
<path d="M67.1511 143.042C67.0609 142.003 67.3315 141.28 67.7824 140.558C68.9549 138.616 70.7587 137.577 72.9684 137.216C74.2311 137.035 75.3585 137.532 76.4859 138.029C76.8467 138.164 76.9368 138.435 76.8016 138.797C76.5761 139.384 76.3506 140.016 76.08 140.603C75.6742 141.506 75.584 142.5 75.5389 143.493C75.5389 144.351 75.0879 144.848 74.3213 145.119C73.239 145.48 72.2018 145.977 71.1195 146.293C69.0451 146.925 67.3315 145.751 67.1962 143.629C67.106 143.358 67.1511 143.087 67.1511 143.042Z" fill="#F9F5F2"/>
<path d="M75.8549 134.281C74.8628 134.191 73.9158 134.1 72.9236 133.965C72.3374 133.875 71.9766 133.197 72.2472 132.61C72.4727 132.113 72.7432 131.526 73.104 131.165C75.8098 128.591 78.9665 127.281 83.2055 128.817C83.8819 129.042 84.5583 129.404 85.2348 129.72C85.7308 129.991 86.272 130.262 86.3622 130.894C85.9112 131.075 85.5054 131.255 85.0544 131.436C83.927 131.933 82.7996 132.429 81.7173 133.016C79.9135 134.01 77.9293 134.462 75.8549 134.281Z" fill="#F9F5F2"/>
<path d="M152.834 194.208C151.436 194.254 150.038 194.344 148.73 193.757C148.414 193.621 148.144 193.531 147.828 193.396C146.385 192.763 145.438 191.815 145.122 190.189C144.897 188.925 145.258 188.338 146.565 188.338C147.061 188.338 147.557 188.428 148.008 188.563C150.353 189.331 152.653 190.054 155.133 190.37C155.945 190.46 156.396 190.912 156.667 191.725C157.388 193.892 157.298 194.073 155.043 194.208C154.322 194.254 153.555 194.208 152.834 194.208Z" fill="#F9F5F2"/>
<path d="M76.351 166.48C75.3589 166.074 74.3217 166.57 73.2845 166.616C72.7885 166.616 72.5179 166.39 72.563 165.893C72.6081 165.396 72.6081 164.899 72.6983 164.448C72.8787 163.59 73.1041 162.732 73.3296 161.874C74.3217 161.512 74.9531 162.325 75.8099 162.506C76.5314 162.687 77.2079 162.912 77.8843 163.138C78.5156 163.364 78.6058 163.545 78.6058 164.222C78.6058 164.403 78.6058 164.538 78.5607 164.719C78.4705 166.751 78.4705 166.751 76.351 166.48Z" fill="#F9F5F2"/>
<path d="M118.29 190.912C117.163 190.686 116.08 190.505 114.953 190.234C114.457 190.099 114.367 189.466 114.773 189.06C114.908 188.97 114.998 188.834 115.133 188.744C117.208 187.705 119.418 187.118 121.717 187.705C122.439 187.886 123.07 188.699 123.025 189.512C123.025 189.692 122.8 190.008 122.574 190.053C121.221 190.46 119.778 190.866 118.29 190.912Z" fill="#F9F5F2"/>
<path d="M74.9983 170.093C74.7278 170.048 74.4121 170.002 74.0964 169.957C74.0062 169.957 73.9611 169.867 73.916 169.822C74.0062 169.777 74.0513 169.686 74.1415 169.686C74.7728 169.641 75.4042 169.596 76.0806 169.596C76.1257 169.596 76.261 169.731 76.261 169.731C76.2159 169.822 76.1708 169.957 76.0806 170.002C75.7199 170.047 75.3591 170.093 74.9983 170.093Z" fill="#F9F5F2"/>
<path d="M118.155 123.126C118.019 123.216 117.884 123.307 117.749 123.352C117.253 123.397 116.892 123.081 116.576 122.72C116.531 122.675 116.531 122.584 116.531 122.584C116.576 122.539 116.667 122.449 116.712 122.449C117.118 122.629 117.569 122.765 117.974 122.945C118.11 122.991 118.11 123.081 118.155 123.126Z" fill="#F9F5F2"/>
<path d="M20.6123 47.89C20.6123 47.3481 20.5672 46.5353 20.6123 45.7224C20.6574 45.2256 20.6573 44.6837 20.9279 44.3224C21.6043 43.2386 21.6946 41.9741 21.8749 40.7999C22.1906 38.9484 22.2808 37.0517 22.5063 35.2001C22.6866 33.484 22.7769 31.7679 23.0023 30.0518C23.0925 29.239 23.4082 28.4712 23.6337 27.7035C23.814 27.1164 24.3552 26.7552 24.9865 26.8455C25.4826 26.8906 25.9787 26.981 26.3845 27.2068C27.5119 27.7487 28.5942 28.2906 29.6314 28.9228C31.5705 30.0518 33.6901 30.6389 35.9448 30.7744C37.433 30.8647 38.8761 30.8647 40.3642 30.8647C43.8817 30.8647 46.9482 29.6002 49.4736 27.2068C51.0069 25.7616 52.4048 24.0907 53.8479 22.5553C55.0204 21.2908 56.1478 19.9812 57.3654 18.807C59.3947 16.8651 61.7848 15.42 64.5807 14.8329C66.5198 14.4265 68.504 14.562 70.4432 14.6523C70.6686 14.6523 70.9392 14.7877 71.1647 14.8329C72.5176 15.2845 73.2391 16.1426 73.1489 17.5877C73.0136 19.3038 72.7881 21.0198 72.5176 22.6908C72.1568 24.7681 71.6607 26.8455 70.9392 28.8777C70.7588 29.3293 70.6235 29.826 70.3981 30.2325C69.4059 31.9937 68.0531 32.4453 66.5198 31.9937C64.4454 31.4066 62.371 31.1809 60.2064 31.226C57.2301 31.3163 54.3439 31.9034 51.7284 33.3485C50.1049 34.2517 48.4815 35.2001 46.8129 36.1484C45.911 36.6904 44.964 37.2323 44.0621 37.8194C40.3191 40.1677 36.3056 40.7548 32.0666 39.7612C31.3451 39.5806 30.9843 39.8516 30.8941 40.5741C30.6686 42.1096 30.4882 43.645 30.2628 45.1804C30.1726 45.8127 29.902 46.5804 30.1275 47.0772C30.5333 47.7997 31.4803 47.4385 32.1568 47.4836C34.0057 47.6191 35.7193 47.2578 37.3879 46.4901C39.8682 45.3611 42.123 43.916 44.4229 42.4708C46.362 41.2515 48.3462 40.0774 50.2853 38.9032C51.9539 37.9549 53.7577 37.4581 55.6517 37.3226C61.0632 37.0517 65.4826 39.6709 66.8355 44.9095C67.4217 47.2578 67.8727 49.7416 67.2865 52.1803C67.1061 52.9028 67.1512 53.6705 67.0159 54.3931C66.3845 57.0575 65.0317 59.2252 62.6867 60.7155C61.2887 61.6187 59.8907 62.4316 58.4928 63.2445C54.7498 65.3218 51.3225 67.8056 48.3011 70.8765C46.1816 73.0442 43.7464 74.8958 41.176 76.5215C37.7036 78.7344 33.9606 79.9988 29.8118 79.773C28.504 79.7279 27.1962 79.5472 25.9336 79.2311C23.5886 78.644 21.7847 77.2892 20.7024 75.0764C19.9809 73.5861 19.4849 72.0507 19.4849 70.3797C19.4849 68.6637 19.575 66.9476 20.026 65.2767C20.3868 63.9219 20.8828 62.6574 21.8298 61.5735C23.2278 59.9929 24.9865 59.7671 27.0158 60.3091C27.7825 60.5349 28.1884 61.1671 28.2786 61.98C28.4138 62.8832 28.5942 63.7412 28.8648 64.5993C29.0452 65.1412 29.3158 65.6831 29.6314 66.1347C30.2177 67.0831 31.1196 67.6701 32.2921 67.6701C35.9448 67.7153 39.2819 66.9024 42.0328 64.4186C43.3857 63.1993 44.6934 61.9348 45.911 60.6252C48.5717 57.7801 51.548 55.3866 54.9302 53.5351C56.0125 52.948 57.0046 52.1803 57.7261 51.1416C58.628 49.8319 57.9516 48.3417 56.4183 48.2965C55.4713 48.2513 54.4341 48.3868 53.5322 48.6126C51.9088 48.9739 50.4657 49.7868 49.0677 50.6448C47.7148 51.4577 46.4522 52.3158 45.0993 53.1286C43.0249 54.4383 40.8152 55.5221 38.5153 56.4253C34.2763 58.0511 30.0373 58.0059 25.7983 56.6059C24.3552 56.1543 23.1376 55.3415 22.1004 54.2576C20.9279 52.9932 20.2515 51.548 20.4319 49.7868C20.5672 49.3352 20.5672 48.7481 20.6123 47.89Z" fill="#1A1A1A"/>
</svg>
