<svg width="169" height="261" viewBox="0 0 169 261" fill="none" xmlns="http://www.w3.org/2000/svg">
<g clip-path="url(#clip0_270_41753)">
<path d="M6.34681 223.742C6.92198 222.731 7.52705 221.733 8.07232 220.707C9.07963 218.837 10.057 216.953 11.0782 215.053C11.6651 213.937 12.2659 212.791 12.8527 211.676C13.4396 210.56 14.0404 209.414 14.5973 208.285C15.5054 206.551 16.3537 204.79 17.2617 203.056C17.3172 202.936 17.3588 202.846 17.4442 202.739C18.2136 201.307 19.0128 199.888 19.7384 198.471C20.6465 196.737 21.5246 194.99 22.4028 193.243C22.4583 193.122 22.4999 193.032 22.5853 192.925C23.3685 191.463 24.1677 190.044 24.9211 188.567C25.3532 187.708 25.8153 186.863 26.2474 186.005C26.6796 185.146 27.1117 184.287 27.5438 183.429C27.5855 183.338 27.6132 183.278 27.6548 183.188C27.8512 182.841 28.0614 182.464 28.2278 182.103C28.8147 180.987 29.4453 179.855 30.0322 178.739C30.6607 177.533 31.2753 176.358 31.9038 175.152C31.9454 175.061 32.0031 175.015 32.0746 174.939C32.0906 174.982 32.1504 175.01 32.2102 175.038C32.27 175.065 32.2861 175.109 32.3021 175.153C32.5339 175.515 32.7358 175.864 32.9537 176.256C33.0937 176.503 33.2635 176.764 33.4034 177.01C33.6353 177.373 33.8831 177.779 34.1586 178.125C34.3263 178.311 34.4502 178.515 34.6179 178.701C34.6478 178.715 34.6639 178.759 34.6938 178.773C35.2588 179.434 35.8676 180.08 36.4603 180.682C36.5821 180.811 36.6878 180.896 36.8096 181.025C37.037 181.239 37.2346 181.44 37.476 181.624C37.6276 181.767 37.7793 181.91 37.9747 182.036C38.3378 182.35 38.6849 182.619 39.0619 182.902C39.3332 183.1 39.6205 183.342 39.8917 183.54C39.9675 183.612 40.0572 183.653 40.1032 183.711C41.0525 184.404 42.0596 185.051 43.0506 185.653C43.2161 185.766 43.4254 185.863 43.5909 185.976C43.6208 185.989 43.6806 186.017 43.7105 186.031C45.0764 186.843 46.5415 187.518 48.0044 188.12C49.2281 188.611 50.5095 189.056 51.7887 189.427C53.4245 189.889 55.0838 190.144 56.8059 190.026C56.8796 190.023 56.9832 190.034 57.0568 190.032C57.0152 190.122 56.9896 190.256 56.9181 190.333C56.7058 190.636 56.5073 190.909 56.2949 191.213C56.2095 191.319 56.1401 191.47 56.0548 191.576C54.852 193.32 53.6194 195.05 52.4166 196.793C50.9578 198.857 49.5127 200.89 48.0677 202.923C46.992 204.47 45.8863 206.003 44.8106 207.55C43.6217 209.264 42.4029 210.963 41.2141 212.677C40.1522 214.194 39.0903 215.711 38.0285 217.227C36.7958 218.957 35.5632 220.687 34.3604 222.431C33.0723 224.281 31.7981 226.101 30.5099 227.952C29.8867 228.831 29.2634 229.711 28.6701 230.605C28.0468 231.485 27.4236 232.365 26.8003 233.245C25.8793 234.535 24.9583 235.825 24.0373 237.115C23.7971 237.478 23.4491 237.683 23.0413 237.86C22.9976 237.876 22.9538 237.892 22.8801 237.895C22.7488 237.944 22.6314 237.962 22.5001 238.011C22.3389 238.046 22.1777 238.082 22.0303 238.087C21.8691 238.122 21.6919 238.113 21.5445 238.118C21.2498 238.128 20.9253 238.124 20.6146 238.09C20.5847 238.077 20.5409 238.093 20.511 238.079C18.398 237.944 16.4172 237.286 14.5036 236.404C14.4737 236.39 14.4737 236.39 14.4438 236.376C13.5287 235.845 12.5996 235.344 11.6844 234.812C11.6546 234.798 11.5948 234.771 11.5649 234.757C11.3694 234.631 11.19 234.548 10.9946 234.421C10.7992 234.295 10.6336 234.182 10.4382 234.055C10.0773 233.816 9.73018 233.546 9.3831 233.277C9.23144 233.134 9.03601 233.007 8.88436 232.865C8.55114 232.565 8.18804 232.252 7.8687 231.922C7.71704 231.779 7.59528 231.65 7.44362 231.507C7.41372 231.493 7.39769 231.45 7.36779 231.436C7.09438 231.164 6.86474 230.876 6.63509 230.587C6.40545 230.299 6.1758 230.011 5.96003 229.692C5.79018 229.432 5.65024 229.185 5.49427 228.894C5.3682 228.617 5.24212 228.34 5.12992 228.033C5.0658 227.857 5.03158 227.696 5.02727 227.548C4.97702 227.342 4.95668 227.15 4.98011 226.942C4.97579 226.794 5.00137 226.66 5.01092 226.482C5.04606 226.17 5.141 225.886 5.26583 225.615C5.33519 225.464 5.40453 225.314 5.50379 225.177C5.81326 224.663 6.06508 224.196 6.34681 223.742Z" fill="#F9F5F2"/>
<path d="M155.858 47.5323C155.727 47.5812 155.595 47.6301 155.448 47.6351C155.287 47.6702 155.156 47.7191 155.008 47.7242C154.847 47.7593 154.73 47.7781 154.582 47.7831C153.7 47.8872 152.814 47.8434 151.912 47.7558C151.083 47.6656 150.299 47.5591 149.498 47.4088C148.697 47.2585 147.91 47.078 147.107 46.8537C145.531 46.4189 143.997 45.8939 142.446 45.3249C141.731 45.068 140.999 44.7673 140.298 44.4803C139.596 44.1933 138.865 43.8926 138.163 43.6056C137.429 43.2309 136.696 42.8561 135.962 42.4814C135.169 42.0791 134.375 41.6768 133.612 41.2883C133.552 41.2608 133.492 41.2332 133.462 41.2194C133.403 41.1918 133.343 41.1643 133.327 41.1204C132.441 40.6028 131.526 40.0714 130.641 39.5538C129.56 38.9096 128.51 38.2793 127.429 37.6351C127.203 37.4947 127.169 37.333 127.28 37.0923C127.35 36.9419 127.405 36.8216 127.504 36.6849C128.024 35.7937 128.56 34.9463 129.05 34.0412C129.583 33.1199 130.071 32.1409 130.618 31.1895C131.628 29.3932 132.637 27.5969 133.69 25.7842C133.831 25.5574 133.958 25.3605 134.069 25.1199C134.42 24.5157 134.771 23.9115 135.166 23.291C135.349 22.9738 135.547 22.7006 135.73 22.3834C135.909 22.4661 136.045 22.5651 136.224 22.6478C136.403 22.7306 136.539 22.8296 136.718 22.9123C137.259 23.2344 137.829 23.5702 138.399 23.9061C138.97 24.242 139.51 24.5641 140.05 24.8862C140.411 25.1256 140.786 25.3348 141.147 25.5742C142.952 26.7711 144.699 28.0144 146.391 29.378C146.949 29.8179 147.508 30.2578 148.052 30.7278C148.385 31.0274 148.733 31.2968 149.066 31.5964C149.353 31.8383 149.656 32.124 149.944 32.3659C151.398 33.6932 152.825 35.0807 154.093 36.5772C154.566 37.1237 155.025 37.7002 155.471 38.3068C155.716 38.639 155.962 38.9711 156.178 39.2895C156.47 39.6793 156.717 40.0854 156.951 40.5216C157.199 40.9277 157.433 41.3639 157.637 41.7863C157.811 42.1949 157.972 42.6336 158.132 43.0723C158.342 43.7165 158.465 44.3934 158.383 45.1217C158.362 45.4037 158.281 45.6581 158.214 45.8825C158.064 46.2874 157.807 46.6071 157.416 46.8277C156.835 47.1436 156.369 47.3668 155.858 47.5323Z" fill="#F9F5F2"/>
<path d="M142.608 21.0678C142.426 21.385 142.2 21.7184 142.017 22.0356C142.003 22.0656 141.975 22.1258 141.932 22.1421C141.805 22.3389 141.664 22.5658 141.537 22.7626C141.509 22.8228 141.451 22.8692 141.424 22.9293C141.396 22.9895 141.352 23.0058 141.338 23.0359C141.223 23.1287 141.149 23.1312 140.984 23.0184C140.954 23.0046 140.894 22.977 140.848 22.9194C140.713 22.8203 140.547 22.7076 140.398 22.6386C140.096 22.4268 139.811 22.2589 139.51 22.0471C139.374 21.9481 139.195 21.8654 139.059 21.7663C138.549 21.458 138.055 21.1936 137.544 20.8853C137.02 20.6071 136.539 20.3126 136.015 20.0343C135.925 19.993 135.806 19.9378 135.716 19.8965C135.433 19.8025 135.166 19.7524 134.917 19.8201C134.595 19.8903 134.307 20.1222 134.096 20.4995C133.759 21.0737 133.422 21.6478 133.099 22.1918C132.761 22.7659 132.454 23.3538 132.131 23.8979C132.117 23.928 132.103 23.958 132.089 23.9881C131.599 24.8932 131.124 25.7681 130.634 26.6732C130.213 27.4278 129.793 28.1824 129.343 28.9233C129.019 29.4673 128.682 30.0414 128.359 30.5855C128.19 30.8725 128.021 31.1596 127.839 31.4767C127.587 31.9443 127.305 32.3981 127.04 32.8957C126.506 33.8171 125.989 34.7823 125.485 35.7174C125.402 35.8979 125.3 35.9606 125.197 35.9493C125.167 35.9355 125.123 35.9518 125.093 35.938C125.033 35.9105 124.974 35.8829 124.928 35.8252C124.64 35.5834 124.353 35.3415 124.066 35.0996C123.491 34.6158 122.917 34.132 122.342 33.6482C122.055 33.4063 121.768 33.1644 121.494 32.8925C119.024 30.6227 116.842 28.121 115.28 25.1391C114.468 23.5974 113.831 21.9905 113.706 20.2182C113.635 18.7992 113.801 17.4167 114.74 16.2446C114.839 16.1079 114.925 16.0014 115.054 15.8785C115.483 15.4197 115.928 15.0048 116.435 14.6914C116.682 14.5497 116.898 14.3943 117.175 14.2664C117.364 14.1711 117.539 14.1059 117.728 14.0106C118.122 13.8639 118.516 13.7172 118.926 13.6144C119.746 13.4088 120.581 13.247 121.406 13.1893C121.671 13.1654 121.965 13.1554 122.23 13.1315C122.495 13.1077 122.746 13.1139 123.04 13.1039C123.586 13.1001 124.118 13.1263 124.649 13.1526C125.285 13.1902 125.936 13.2716 126.557 13.3392C127.239 13.4344 127.89 13.5158 128.543 13.6712C129.211 13.7965 129.864 13.9518 130.518 14.1072C131.261 14.3039 132.034 14.5144 132.793 14.755C134.921 15.4079 137.07 16.2525 139.326 17.2564C139.565 17.3666 139.791 17.507 140.06 17.6311C140.883 18.0471 141.872 18.576 142.891 19.1187C142.95 19.1462 143.04 19.1876 143.1 19.2152C143.16 19.2427 143.219 19.2703 143.265 19.328C143.325 19.3555 143.371 19.4132 143.387 19.4571C143.403 19.5009 143.389 19.531 143.375 19.5611C143.348 19.6213 143.35 19.6952 143.322 19.7554C143.294 19.8156 143.239 19.9359 143.154 20.0424C143.003 20.4473 142.791 20.7507 142.608 21.0678Z" fill="#F9F5F2"/>
<path d="M34.6237 169.803C34.5821 169.893 34.5405 169.983 34.4988 170.074C34.374 170.344 34.2652 170.659 34.1404 170.93C33.9206 171.485 33.8183 172.021 33.8633 172.553C33.8879 172.893 33.9425 173.246 34.0409 173.583C34.105 173.759 34.1392 173.92 34.2172 174.066C34.3593 174.387 34.5313 174.721 34.7033 175.056C35.341 176.189 36.1517 177.183 37.0339 178.1C37.1856 178.243 37.3234 178.416 37.475 178.559C37.7944 178.889 38.1276 179.188 38.4907 179.502C38.7022 179.672 38.8997 179.873 39.1112 180.043C39.5042 180.37 39.8972 180.697 40.2603 181.011C40.6373 181.294 40.9844 181.563 41.3614 181.847C41.4372 181.918 41.497 181.946 41.5728 182.017C42.1153 182.413 42.6418 182.765 43.2121 183.101C43.4673 183.255 43.7524 183.423 44.0215 183.547C44.3365 183.729 44.6654 183.881 44.9805 184.062C45.2656 184.23 45.5646 184.368 45.8198 184.522C45.9693 184.591 46.1348 184.704 46.2843 184.773C46.719 185.01 47.1237 185.233 47.4985 185.442C50.1713 186.565 52.6166 187.474 55.2336 187.695C56.2394 187.794 57.2569 187.789 58.2337 187.4C58.4664 187.289 58.6692 187.164 58.8859 187.008C58.9873 186.945 59.0727 186.839 59.1442 186.762C59.1581 186.732 59.2019 186.716 59.2157 186.686C59.4303 186.456 59.6149 186.213 59.8433 185.954C60.0994 185.634 60.3257 185.301 60.5679 185.011C60.7526 184.768 60.9372 184.525 61.1058 184.238C61.2467 184.011 61.4036 183.828 61.5445 183.601C61.9831 182.964 62.4217 182.327 62.8603 181.69C64.3352 179.671 65.7642 177.594 67.2092 175.561C68.4696 173.771 69.7001 171.967 70.9605 170.177C71.81 168.963 72.6595 167.75 73.5389 166.55C73.922 166.034 74.2752 165.503 74.6584 164.987C75.621 163.607 76.5836 162.227 77.5463 160.847C77.6455 160.71 77.7448 160.573 77.844 160.437C79.0329 158.723 80.2516 157.023 81.4405 155.31C81.6252 155.066 81.7799 154.809 81.9507 154.596C82.8717 153.306 83.7927 152.017 84.6838 150.713C85.9164 148.983 87.1192 147.239 88.3518 145.509C88.578 145.176 88.7904 144.873 89.0167 144.539C89.1298 144.372 89.229 144.236 89.3422 144.069C90.4318 142.492 91.5652 140.899 92.6548 139.322C93.9867 137.455 95.3324 135.559 96.6344 133.678C96.7614 133.482 96.9183 133.299 97.0453 133.102C97.9802 131.782 98.8852 130.448 99.8201 129.128C100.118 128.718 100.386 128.294 100.683 127.885C102.142 125.821 103.615 123.728 105.074 121.664C105.796 120.648 106.503 119.587 107.225 118.571C107.948 117.554 108.654 116.494 109.377 115.477C110.61 113.747 111.842 112.017 113.075 110.287C114.051 108.877 115.028 107.467 116.02 106.1C116.26 105.737 116.531 105.387 116.771 105.024C118.017 103.264 119.264 101.504 120.466 99.76C120.48 99.7299 120.494 99.6999 120.508 99.6698C121.741 97.9399 122.943 96.1962 124.176 94.4663C125.635 92.403 127.108 90.3095 128.567 88.2462C129.19 87.3662 129.799 86.5163 130.393 85.6225C131.016 84.7425 131.595 83.8789 132.219 82.9989C132.629 82.4222 133.026 81.8757 133.394 81.3154C134.102 80.3288 134.781 79.3285 135.49 78.3419C135.843 77.8117 136.226 77.2952 136.579 76.765C137.655 75.2181 138.731 73.6712 139.806 72.1244C140.16 71.5941 140.529 71.1077 140.882 70.5775C141.166 70.1977 141.434 69.774 141.718 69.3941C142.667 68.0441 143.601 66.7241 144.55 65.374C145.173 64.494 145.797 63.614 146.42 62.7341C147.043 61.8541 147.666 60.9741 148.26 60.0803C149.52 58.2902 150.781 56.5002 152.027 54.7402C153.033 53.3437 154.024 51.9034 155.03 50.507C155.058 50.4468 155.072 50.4167 155.1 50.3566C155.113 50.3265 155.127 50.2964 155.141 50.2663C155.197 50.146 155.194 50.072 155.135 50.0444C155.135 50.0444 155.105 50.0307 155.075 50.0169C155.045 50.0031 154.971 50.0056 154.898 50.0081C154.382 50.0257 153.88 50.0132 153.394 50.0446C152.879 50.0622 152.377 50.0497 151.875 50.0372C149.925 49.9409 147.981 49.5186 146.122 48.9899C144.932 48.6603 143.771 48.2706 142.609 47.8809C142.236 47.7455 141.834 47.5964 141.461 47.4611C140.09 46.9748 138.761 46.3984 137.445 45.7918C136.458 45.3369 135.485 44.8519 134.499 44.397C134.17 44.2453 133.841 44.0937 133.526 43.912C133.137 43.7328 132.749 43.5536 132.374 43.3443C131.61 42.9558 130.89 42.551 130.155 42.1023C129.78 41.893 129.405 41.6837 129.074 41.4581C129.014 41.4305 128.938 41.3591 128.879 41.3315C128.458 41.0646 128.023 40.8277 127.632 40.5746C127.212 40.3076 126.761 40.0269 126.354 39.7298C125.407 39.1107 124.503 38.4753 123.628 37.7797C123.251 37.4965 122.874 37.2132 122.511 36.8999C121.906 36.4023 121.302 35.9047 120.711 35.3771C120.318 35.05 119.969 34.7065 119.62 34.3631C118.997 33.7477 118.344 33.1186 117.736 32.4731C117.522 32.2287 117.308 31.9843 117.095 31.7399C115.783 30.2596 114.557 28.6729 113.607 26.9582C113.389 26.5659 113.201 26.1874 112.983 25.7951C112.795 25.4165 112.621 25.0079 112.447 24.5993C112.193 23.9713 111.968 23.3572 111.788 22.7267L111.859 22.6502C111.843 22.6064 111.827 22.5625 111.827 22.5625L111.811 22.5186C111.811 22.5186 111.781 22.5048 111.765 22.461C111.719 22.4033 111.689 22.3895 111.643 22.3319C111.586 22.3783 111.572 22.4083 111.514 22.4547C111.473 22.545 111.401 22.6214 111.346 22.7418C111.191 22.9988 111.022 23.2858 110.867 23.5428C110.031 25.1999 109.194 26.8571 108.314 28.5306C108.048 29.0282 107.769 29.5559 107.503 30.0536C106.958 31.079 106.413 32.1044 105.867 33.1297C105.84 33.1899 105.812 33.2501 105.784 33.3102C105.756 33.3704 105.729 33.4306 105.715 33.4607C105.296 34.2892 104.864 35.1479 104.446 35.9765C104 36.8652 103.54 37.7841 103.064 38.659C102.632 39.5177 102.17 40.3626 101.722 41.1774L99.3626 45.7439L96.3887 51.4863L83.9875 75.3171C83.3313 76.5832 82.6751 77.8492 82.0188 79.1153C81.6283 79.8837 81.2079 80.6383 80.8173 81.4067C79.7129 83.4876 78.6523 85.5521 77.5479 87.633C76.3602 89.8943 75.1726 92.1557 74.0149 94.4308C73.428 95.5465 72.855 96.632 72.3119 97.7314C71.7805 98.7267 71.279 99.7357 70.7476 100.731C70.3848 101.439 69.9782 102.164 69.6155 102.872C69.2228 103.567 68.8461 104.305 68.4534 104.999C68.4118 105.09 68.3841 105.15 68.3424 105.24C67.4643 106.987 66.5861 108.735 65.6781 110.468C65.0912 111.584 64.4904 112.73 63.9334 113.859C63.3466 114.975 62.7458 116.121 62.1589 117.236C61.1399 119.21 60.091 121.171 59.072 123.145C59.0165 123.266 58.9749 123.356 58.9194 123.476C57.7318 125.738 56.5441 127.999 55.3864 130.274C54.3119 132.369 53.1936 134.48 52.0753 136.591C50.9016 138.822 49.7577 141.067 48.584 143.298C47.5094 145.393 46.4189 147.444 45.3145 149.524C44.5452 150.957 43.7758 152.39 43.0064 153.823C42.9648 153.913 42.9371 153.973 42.8955 154.063C42.0312 155.781 41.1669 157.498 40.2727 159.202C39.7413 160.197 39.2238 161.162 38.6924 162.158C38.4406 162.625 38.1887 163.093 37.9369 163.56C37.8814 163.681 37.8398 163.771 37.7544 163.877C36.8763 165.625 35.9981 167.372 35.09 169.106C35.0346 169.226 34.9492 169.333 34.8937 169.453C34.7645 169.576 34.6792 169.682 34.6237 169.803Z" fill="#F9F5F2"/>
<path d="M3.44212 224.774C3.456 224.744 3.48374 224.684 3.54138 224.637C3.98955 223.822 4.43772 223.008 4.856 222.179C5.97428 220.068 7.07653 217.913 8.1948 215.802C9.35469 213.601 10.4847 211.386 11.6446 209.185C12.7329 207.06 13.8651 204.919 14.9834 202.808C16.1433 200.607 17.2733 198.392 18.447 196.161C19.5792 194.02 20.6953 191.835 21.8274 189.694C22.9734 187.523 24.0896 185.338 25.2494 183.137C26.3816 180.996 27.4977 178.811 28.6299 176.67C29.7898 174.469 30.9197 172.254 32.0796 170.052C33.2118 167.911 34.3279 165.727 35.46 163.586C36.5922 161.445 37.7083 159.26 38.8405 157.119C39.9865 154.947 41.1165 152.733 42.2625 150.561C43.4085 148.39 44.5246 146.205 45.6845 144.004C46.8167 141.863 47.9328 139.678 49.0649 137.537C50.211 135.366 51.3271 133.181 52.487 130.98C53.633 128.809 54.7491 126.624 55.909 124.423C57.0411 122.282 58.1572 120.097 59.2894 117.956C60.4354 115.785 61.5515 113.6 62.7114 111.399C63.8574 109.228 64.9874 107.013 66.1334 104.842C67.2795 102.67 68.3956 100.486 69.5555 98.2844C70.6738 96.1735 71.776 94.0187 72.8943 91.9077C74.0542 89.7065 75.1842 87.4916 76.344 85.2904C77.4762 83.1494 78.5923 80.9645 79.7245 78.8234C80.7296 76.8792 81.7348 74.935 82.756 73.0347L90.2285 58.7144L95.0462 49.4446L98.496 42.8272C99.069 41.7417 99.6121 40.6423 100.171 39.5869C101.29 37.4759 102.364 35.3813 103.482 33.2704C104.67 31.009 105.858 28.7476 107.015 26.4725C107.923 24.7389 108.772 22.9777 109.68 21.244C109.721 21.1538 109.763 21.0635 109.791 21.0034C110.685 19.2998 111.609 17.6101 112.473 15.8927C112.836 15.1845 113.275 14.5477 113.849 14.0099C115.311 12.5683 117.117 11.796 119.066 11.3446C121.102 10.8605 123.194 10.8039 125.294 10.9692C127.466 11.132 129.6 11.4589 131.668 12.0842C133.38 12.618 135.089 13.0779 136.759 13.7019C137.907 14.1218 139 14.6619 140.106 15.172C141.665 16.0367 143.298 16.8989 144.944 17.7311C145.243 17.8689 145.501 18.097 145.742 18.2813C146.271 18.7074 146.362 19.2965 145.981 19.8869C145.812 20.174 145.614 20.4473 145.429 20.6905C144.794 21.6745 144.219 22.6861 143.584 23.6701C143.131 24.337 143.131 24.337 143.766 24.8484C143.826 24.8759 143.842 24.9198 143.887 24.9775C146.324 26.6117 148.634 28.4428 150.815 30.3968C153.419 32.6916 155.806 35.1419 157.792 37.9909C158.96 39.624 159.97 41.3663 160.383 43.3805C160.729 45.1454 160.452 46.7686 159.404 48.2553C157.959 50.2886 156.574 52.3494 155.143 54.3526C154.095 55.8393 153.047 57.326 151.999 58.8127C150.824 60.4962 149.619 62.1659 148.43 63.8795C147.34 65.4565 146.221 67.0197 145.145 68.5666C143.956 70.2801 142.737 71.98 141.548 73.6935C140.288 75.4836 139.058 77.2875 137.797 79.0775C136.338 81.1409 134.893 83.1741 133.434 85.2375C132.188 86.9974 130.971 88.7712 129.725 90.5312C128.492 92.2611 127.26 93.991 126.027 95.7209C124.568 97.7842 123.183 99.845 121.724 101.908C120.265 103.972 118.792 106.065 117.333 108.128C116.101 109.858 114.898 111.602 113.695 113.346C112.421 115.166 111.161 116.956 109.886 118.776C108.684 120.52 107.451 122.25 106.248 123.993C104.803 126.027 103.344 128.09 101.899 130.123C100.653 131.883 99.4362 133.657 98.1897 135.417C96.7308 137.48 95.2858 139.513 93.8568 141.591C92.6103 143.351 91.3937 145.124 90.1472 146.884C88.9146 148.614 87.6819 150.344 86.4792 152.088C85.0203 154.151 83.6351 156.212 82.1762 158.275C80.9019 160.095 79.6416 161.886 78.3673 163.706C77.1347 165.436 75.9319 167.179 74.7292 168.923C73.6673 170.44 72.5755 171.943 71.5137 173.46C70.2672 175.219 69.0506 176.993 67.804 178.753C66.3452 180.817 64.9001 182.85 63.4712 184.927C62.437 186.384 61.4189 187.884 60.3848 189.341C58.9259 191.404 57.4531 193.497 55.9943 195.561C54.7616 197.291 53.5589 199.034 52.3561 200.778C50.8972 202.841 49.4522 204.875 48.0072 206.908C46.7607 208.668 45.5441 210.442 44.2976 212.202C42.8387 214.265 41.3937 216.298 39.9348 218.362C38.6744 220.152 37.414 221.942 36.1675 223.702C34.9349 225.431 33.7322 227.175 32.4995 228.905C31.2391 230.695 30.0086 232.499 28.7483 234.289C27.8572 235.593 26.9362 236.883 26.045 238.186C25.3364 239.173 24.412 239.841 23.2558 240.147C23.212 240.163 23.1383 240.166 23.0946 240.182C23.0946 240.182 21.9683 240.502 20.608 240.385C20.5343 240.388 20.4307 240.377 20.3571 240.379C20.3272 240.365 20.2834 240.382 20.2535 240.368C18.4053 240.209 16.6797 239.705 14.9638 239.023C14.9638 239.023 13.786 238.59 12.7971 238.061C10.9711 237.146 9.25599 235.991 7.65405 234.668C6.82209 233.956 6.03391 233.228 5.28734 232.41C5.28734 232.41 4.54077 231.591 4.02908 230.735C3.85924 230.475 3.67336 230.17 3.51739 229.879C2.84541 228.584 2.42217 227.222 2.92459 225.739C2.96836 225.723 3.24362 225.047 3.44212 224.774ZM143.394 19.6791C143.407 19.649 143.421 19.6189 143.421 19.6189C143.435 19.5888 143.419 19.545 143.433 19.5149C143.417 19.471 143.371 19.4134 143.311 19.3858C143.252 19.3582 143.235 19.3144 143.146 19.273C143.086 19.2454 143.026 19.2179 142.936 19.1765C141.573 18.4383 140.225 17.744 139.356 17.2703C138.997 17.1049 138.638 16.9395 138.296 16.8179C138.236 16.7903 138.146 16.749 138.086 16.7214C137.757 16.5698 137.445 16.462 137.116 16.3104C136.773 16.1888 136.444 16.0372 136.131 15.9294C135.266 15.6036 134.431 15.2916 133.582 15.0096C133.359 14.9432 133.166 14.8906 132.956 14.7941C132.361 14.5923 131.751 14.4206 131.127 14.2791C130.934 14.2264 130.741 14.1738 130.548 14.1212C129.567 13.8881 128.573 13.6852 127.565 13.5123C127.225 13.4647 126.884 13.4171 126.543 13.3695C125.892 13.2881 125.271 13.2204 124.635 13.1829C124.104 13.1566 123.572 13.1303 123.026 13.1341C122.776 13.1279 122.481 13.138 122.216 13.1618C121.774 13.1769 121.348 13.2358 120.892 13.281C120.819 13.2835 120.745 13.286 120.657 13.3186C120.496 13.3537 120.305 13.3751 120.144 13.4102C119.953 13.4315 119.791 13.4666 119.63 13.5017C119.586 13.518 119.513 13.5205 119.469 13.5368C119.308 13.5719 119.103 13.6234 118.942 13.6585C118.532 13.7613 118.138 13.908 117.744 14.0547C117.555 14.15 117.38 14.2152 117.191 14.3104C116.944 14.4521 116.698 14.5938 116.451 14.7354C115.944 15.0488 115.469 15.45 115.07 15.9226C114.984 16.0291 114.855 16.152 114.756 16.2886C113.833 17.5046 113.651 18.8433 113.722 20.2622C113.817 22.0208 114.454 23.6277 115.296 25.1832C116.888 28.1788 119.07 30.6805 121.51 32.9365C121.797 33.1784 122.071 33.4504 122.358 33.6923C122.933 34.1761 123.507 34.6598 124.082 35.1436C124.369 35.3855 124.656 35.6274 124.944 35.8693C124.99 35.927 125.049 35.9545 125.109 35.9821C125.169 36.0097 125.199 36.0235 125.243 36.0072C125.243 36.0072 125.273 36.0209 125.286 35.9909L125.33 35.9746C125.344 35.9445 125.374 35.9583 125.388 35.9282C125.402 35.8981 125.459 35.8517 125.487 35.7915C125.991 34.8564 126.538 33.905 127.042 32.9698C127.294 32.5023 127.545 32.0347 127.841 31.5509C128.01 31.2638 128.178 30.9767 128.361 30.6596C128.698 30.0855 129.021 29.5414 129.345 28.9974C129.765 28.2428 130.215 27.5019 130.636 26.7473C131.126 25.8423 131.602 24.9673 132.091 24.0623C132.105 24.0322 132.119 24.0021 132.133 23.972C132.47 23.3979 132.777 22.81 133.115 22.2359C133.452 21.6618 133.789 21.0876 134.126 20.5135C134.337 20.1362 134.625 19.9043 134.977 19.8478C135.226 19.7801 135.493 19.8303 135.776 19.9242C135.865 19.9656 135.955 20.0069 136.075 20.0621C136.585 20.3704 137.08 20.6348 137.604 20.913C138.128 21.1913 138.609 21.4858 139.119 21.7941C139.255 21.8931 139.434 21.9758 139.57 22.0748C139.885 22.2565 140.156 22.4546 140.457 22.6664C140.593 22.7654 140.758 22.8782 140.908 22.9471C140.968 22.9747 140.998 22.9885 141.044 23.0461C141.209 23.1589 141.313 23.1702 141.398 23.0636C141.456 23.0173 141.527 22.9408 141.597 22.7904C141.724 22.5936 141.864 22.3667 141.991 22.1699C142.005 22.1398 142.033 22.0796 142.047 22.0495C142.456 21.3989 142.851 20.7784 143.229 20.1141C143.299 19.9636 143.384 19.8571 143.426 19.7668C143.366 19.7393 143.38 19.7092 143.394 19.6791ZM158.099 45.9754C158.21 45.7347 158.247 45.4966 158.268 45.2146C158.336 44.5164 158.213 43.8395 158.017 43.1652C157.856 42.7265 157.696 42.2878 157.522 41.8792C157.46 41.7776 157.412 41.646 157.35 41.5445C156.88 40.5982 156.338 39.7283 155.739 38.9048C155.631 38.7457 155.493 38.5727 155.385 38.4135C155.277 38.2543 155.17 38.0952 155.018 37.9523C154.68 37.5048 154.359 37.1012 153.994 36.714C153.826 36.5272 153.688 36.3542 153.52 36.1675L153.491 36.1537C153.323 35.9669 153.155 35.7802 152.988 35.5934C152.85 35.4205 152.668 35.2638 152.5 35.0771C151.648 34.1734 150.738 33.3161 149.798 32.445C149.511 32.2032 149.238 31.9312 148.921 31.6755C148.587 31.3759 148.24 31.1065 147.907 30.8069C147.362 30.3369 146.804 29.897 146.245 29.4571C144.54 28.1236 142.793 26.8803 141.002 25.6533C140.641 25.414 140.28 25.1746 139.905 24.9653C139.365 24.6432 138.794 24.3073 138.254 23.9852C137.684 23.6494 137.143 23.3273 136.573 22.9914C136.408 22.8786 136.258 22.8097 136.079 22.727C135.899 22.6442 135.764 22.5452 135.584 22.4625C135.402 22.7797 135.203 23.0529 135.021 23.3701C134.67 23.9743 134.289 24.5647 133.924 25.199C133.783 25.4259 133.656 25.6227 133.545 25.8634C132.536 27.6597 131.496 29.4422 130.473 31.2686C129.939 32.1899 129.452 33.1689 128.918 34.0903C128.428 34.9953 127.893 35.8427 127.373 36.734C127.304 36.8844 127.218 36.9909 127.149 37.1414C127.038 37.382 127.072 37.5437 127.297 37.6841C128.378 38.3283 129.429 38.9587 130.51 39.6029C131.395 40.1205 132.31 40.6518 133.195 41.1694C133.255 41.197 133.315 41.2246 133.331 41.2685C133.391 41.296 133.451 41.3236 133.467 41.3675C134.26 41.7697 135.024 42.1583 135.817 42.5605C136.551 42.9353 137.284 43.31 138.018 43.6847C138.719 43.9717 139.451 44.2724 140.139 44.5895C140.87 44.8903 141.572 45.1772 142.287 45.4341C143.808 45.9893 145.372 46.5281 146.948 46.9629C147.721 47.1734 148.538 47.3677 149.339 47.518C150.139 47.6683 150.954 47.7886 151.767 47.8349C152.669 47.9226 153.555 47.9663 154.437 47.8622C154.584 47.8572 154.746 47.8221 154.863 47.8033C154.98 47.7845 155.142 47.7493 155.303 47.7142C155.434 47.6653 155.582 47.6603 155.713 47.6114C156.18 47.4622 156.676 47.2528 157.125 46.9858C157.662 46.6862 157.918 46.3665 158.099 45.9754ZM58.9758 187.049C59.0772 186.987 59.1626 186.88 59.2341 186.804C59.248 186.774 59.2917 186.757 59.3056 186.727C59.5201 186.498 59.7048 186.255 59.9332 185.995C60.1893 185.676 60.4156 185.342 60.6578 185.053C60.8425 184.809 61.0271 184.566 61.1957 184.279C61.3366 184.052 61.4935 183.869 61.6343 183.642C62.0729 183.005 62.5116 182.369 62.9502 181.732C64.4251 179.712 65.8541 177.635 67.2991 175.602C68.5595 173.812 69.79 172.008 71.0503 170.218C71.8998 169.005 72.7493 167.791 73.6288 166.592C74.0119 166.075 74.3651 165.545 74.7483 165.028C75.7109 163.648 76.6735 162.268 77.6361 160.888C77.7354 160.751 77.8346 160.615 77.9339 160.478C79.1228 158.764 80.3415 157.065 81.5304 155.351C81.715 155.108 81.8698 154.851 82.0405 154.638C82.9615 153.348 83.8826 152.058 84.7737 150.754C86.0063 149.024 87.209 147.281 88.4417 145.551C88.6679 145.217 88.8803 144.914 89.1066 144.581C89.2197 144.414 89.3189 144.277 89.4321 144.11C90.5217 142.534 91.6551 140.94 92.7447 139.363C94.0766 137.497 95.4223 135.6 96.7243 133.72C96.8513 133.523 97.0082 133.34 97.1352 133.143C98.0701 131.823 98.9751 130.489 99.9099 129.169C100.208 128.76 100.476 128.336 100.773 127.926C102.232 125.863 103.705 123.769 105.164 121.706C105.886 120.689 106.593 119.629 107.315 118.612C108.038 117.595 108.744 116.535 109.467 115.518C110.699 113.788 111.932 112.059 113.165 110.329C114.141 108.918 115.118 107.508 116.11 106.142C116.35 105.778 116.62 105.429 116.861 105.065C118.107 103.305 119.354 101.545 120.556 99.8014C120.57 99.7713 120.584 99.7412 120.598 99.7111C121.831 97.9812 123.033 96.2376 124.266 94.5077C125.725 92.4443 127.198 90.3509 128.656 88.2876C129.28 87.4076 129.889 86.5577 130.482 85.6639C131.106 84.7839 131.685 83.9202 132.308 83.0402C132.719 82.4636 133.116 81.9171 133.483 81.3567C134.192 80.3702 134.871 79.3699 135.579 78.3833C135.933 77.8531 136.316 77.3366 136.669 76.8064C137.745 75.2595 138.821 73.7126 139.896 72.1657C140.25 71.6355 140.619 71.1491 140.972 70.6189C141.256 70.239 141.524 69.8153 141.808 69.4355C142.756 68.0854 143.691 66.7655 144.64 65.4154C145.263 64.5354 145.887 63.6554 146.51 62.7754C147.133 61.8954 147.756 61.0154 148.35 60.1217C149.61 58.3316 150.87 56.5415 152.117 54.7816C153.123 53.3851 154.114 51.9448 155.12 50.5483C155.148 50.4882 155.162 50.4581 155.189 50.3979C155.203 50.3678 155.217 50.3377 155.231 50.3077C155.287 50.1873 155.284 50.1134 155.225 50.0858C155.225 50.0858 155.195 50.072 155.165 50.0582C155.135 50.0444 155.061 50.047 154.988 50.0495C154.472 50.0671 153.97 50.0546 153.484 50.086C152.969 50.1036 152.467 50.0911 151.965 50.0786C150.015 49.9822 148.071 49.56 146.212 49.0312C145.022 48.7017 143.861 48.3119 142.699 47.9222C142.326 47.7869 141.924 47.6378 141.551 47.5024C140.18 47.0162 138.85 46.4397 137.535 45.8332C136.548 45.3783 135.575 44.8933 134.589 44.4383C134.26 44.2867 133.931 44.1351 133.616 43.9533C133.227 43.7741 132.838 43.5949 132.464 43.3856C131.7 42.9971 130.98 42.5923 130.245 42.1437C129.87 41.9344 129.495 41.7251 129.164 41.4995C129.104 41.4719 129.028 41.4005 128.968 41.3729C128.548 41.1059 128.113 40.8691 127.722 40.6159C127.301 40.349 126.851 40.0682 126.444 39.7712C125.497 39.1521 124.593 38.5167 123.718 37.8211C123.341 37.5378 122.964 37.2546 122.6 36.9412C121.996 36.4437 121.391 35.9461 120.801 35.4184C120.408 35.0913 120.059 34.7479 119.709 34.4045C119.087 33.7891 118.434 33.1599 117.825 32.5144C117.612 32.27 117.398 32.0256 117.185 31.7812C115.873 30.301 114.647 28.7142 113.697 26.9996C113.479 26.6073 113.291 26.2287 113.073 25.8364C112.885 25.4579 112.711 25.0493 112.537 24.6407C112.283 24.0127 112.058 23.3985 111.877 22.7681L111.859 22.6502C111.843 22.6064 111.827 22.5625 111.827 22.5625L111.811 22.5186C111.811 22.5186 111.781 22.5048 111.765 22.461C111.719 22.4033 111.689 22.3895 111.643 22.3319C111.586 22.3783 111.572 22.4083 111.514 22.4547C111.473 22.545 111.401 22.6214 111.346 22.7418C111.191 22.9988 111.022 23.2858 110.868 23.5428C110.031 25.1999 109.195 26.8571 108.314 28.5306C108.049 29.0282 107.769 29.5559 107.503 30.0536C106.958 31.079 106.413 32.1044 105.867 33.1297C105.84 33.1899 105.812 33.2501 105.784 33.3103C105.757 33.3704 105.729 33.4306 105.715 33.4607C105.297 34.2893 104.864 35.1479 104.446 35.9765C104 36.8652 103.54 37.7841 103.064 38.659C102.632 39.5177 102.17 40.3626 101.722 41.1774L99.3628 45.744L96.3889 51.4864L83.9877 75.3171C83.3315 76.5832 82.6753 77.8492 82.019 79.1153C81.6285 79.8837 81.2081 80.6383 80.8175 81.4067C79.7131 83.4876 78.6525 85.5521 77.5481 87.633C76.3604 89.8943 75.1728 92.1557 74.0151 94.4309C73.4282 95.5465 72.8552 96.632 72.3121 97.7314C71.7807 98.7267 71.2792 99.7358 70.7478 100.731C70.385 101.439 69.9784 102.164 69.6156 102.872C69.2229 103.567 68.8463 104.305 68.4536 104.999C68.412 105.09 68.3842 105.15 68.3426 105.24C67.4645 106.987 66.5863 108.735 65.6782 110.468C65.0914 111.584 64.4906 112.73 63.9336 113.859C63.3468 114.975 62.746 116.121 62.1591 117.236C61.1401 119.211 60.0912 121.171 59.0721 123.145C59.0167 123.266 58.975 123.356 58.9196 123.476C57.7319 125.738 56.5443 127.999 55.3866 130.274C54.3121 132.369 53.1938 134.48 52.0755 136.591C50.9018 138.822 49.7579 141.067 48.5841 143.298C47.5096 145.393 46.4191 147.444 45.3147 149.525C44.5453 150.957 43.776 152.39 43.0066 153.823C42.965 153.913 42.9373 153.973 42.8957 154.064C42.0314 155.781 41.1671 157.498 40.2729 159.202C39.7415 160.197 39.224 161.162 38.6926 162.158C38.4407 162.625 38.1889 163.093 37.9371 163.56C37.8816 163.681 37.84 163.771 37.7546 163.877C36.8764 165.625 35.9983 167.372 35.0902 169.106C35.0347 169.226 34.9494 169.333 34.8939 169.453C34.8384 169.573 34.753 169.68 34.6975 169.8C34.6559 169.891 34.6143 169.981 34.5727 170.071C34.4479 170.342 34.3391 170.656 34.2142 170.927C33.9944 171.482 33.8921 172.019 33.9371 172.55C33.9618 172.89 34.0164 173.244 34.1147 173.581C34.1788 173.756 34.213 173.918 34.291 174.063C34.4331 174.384 34.6051 174.719 34.7771 175.054C35.4149 176.187 36.2256 177.181 37.1078 178.098C37.2594 178.241 37.3972 178.414 37.5489 178.557C37.8682 178.886 38.2014 179.186 38.5645 179.499C38.776 179.67 38.9736 179.87 39.185 180.041C39.578 180.368 39.9711 180.695 40.3342 181.008C40.7112 181.291 41.0582 181.561 41.4352 181.844C41.511 181.916 41.5708 181.943 41.6467 182.015C42.1892 182.411 42.7157 182.763 43.2859 183.099C43.5411 183.253 43.8263 183.421 44.0954 183.545C44.4104 183.727 44.7393 183.878 45.0543 184.06C45.3394 184.228 45.6384 184.366 45.8937 184.52C46.0432 184.589 46.2087 184.702 46.3582 184.771C46.7928 185.007 47.1975 185.231 47.5724 185.44C50.2451 186.563 52.6904 187.471 55.3074 187.693C56.3132 187.792 57.3307 187.787 58.3075 187.398C58.5563 187.33 58.7591 187.205 58.9758 187.049ZM5.22655 225.779C5.18494 225.869 5.1572 225.929 5.15935 226.003C5.13161 226.063 5.13376 226.137 5.10602 226.198C5.09215 226.228 5.07828 226.258 5.09431 226.302C5.0826 226.406 5.08476 226.48 5.04315 226.57C5.02928 226.6 5.0453 226.644 5.01756 226.704C5.01973 226.778 5.00586 226.808 5.00801 226.882C4.99846 227.06 5.03483 227.296 5.05518 227.487C5.0894 227.649 5.12362 227.811 5.15783 227.973C5.24014 228.266 5.36621 228.543 5.72625 229.256C5.80423 229.401 5.89609 229.517 5.97408 229.662C6.18985 229.98 6.37572 230.285 6.64913 230.557C6.77089 230.686 6.87878 230.845 7.00054 230.974C7.1223 231.103 7.24405 231.233 7.39571 231.375C7.42561 231.389 7.44164 231.433 7.47154 231.447C7.54737 231.518 7.62319 231.59 7.66912 231.647C8.0643 232.049 8.47333 232.42 8.88237 232.79C9.03403 232.933 9.21559 233.09 9.38112 233.203C9.72819 233.472 10.0753 233.742 10.4224 234.011C10.5879 234.124 10.7833 234.251 10.9787 234.377C11.1742 234.504 11.3397 234.617 11.549 234.713C11.5789 234.727 11.6387 234.754 11.6686 234.768C12.5838 235.3 13.5128 235.801 14.428 236.332L14.4878 236.36C16.4152 237.212 18.396 237.87 20.509 238.005C20.5389 238.019 20.5827 238.003 20.6126 238.016C20.7898 238.025 20.997 238.048 21.1742 238.056C21.3813 238.079 21.5724 238.058 21.7636 238.036C21.8372 238.034 21.9109 238.031 21.9984 237.999C22.0721 237.996 22.1458 237.994 22.2333 237.961C22.307 237.959 22.3807 237.956 22.4682 237.923C22.5557 237.891 22.6732 237.872 22.7607 237.839C22.8483 237.807 22.9657 237.788 23.0671 237.725C23.461 237.579 23.809 237.374 24.063 236.981C24.984 235.691 25.905 234.401 26.8261 233.111C27.4493 232.231 28.0726 231.351 28.6958 230.471C29.3191 229.591 29.9423 228.711 30.5357 227.817C31.8099 225.997 33.0981 224.147 34.3862 222.297C35.6188 220.567 36.8515 218.837 38.0542 217.093C39.1161 215.576 40.178 214.06 41.2398 212.543C42.4287 210.829 43.6475 209.129 44.8363 207.416C45.9121 205.869 46.9878 204.322 48.0935 202.789C49.5385 200.756 50.9974 198.692 52.4424 196.659C53.675 194.929 54.8778 193.186 56.0805 191.442C56.1659 191.335 56.2651 191.199 56.3206 191.078C56.533 190.775 56.7315 190.502 56.9439 190.198C56.9855 190.108 57.041 189.988 57.0826 189.898C57.0089 189.9 56.9192 189.859 56.8455 189.861C55.5793 189.934 54.2927 189.815 53.0754 189.546C52.675 189.47 52.2586 189.351 51.8422 189.232C51.3659 189.086 50.8758 188.969 50.4135 188.793C49.6244 188.538 48.8192 188.24 48.0579 187.925C46.5949 187.324 45.1299 186.648 43.764 185.836C43.7341 185.822 43.6743 185.795 43.6444 185.781C43.4789 185.668 43.2696 185.572 43.1041 185.459C42.097 184.812 41.1199 184.179 40.1567 183.516C40.0808 183.445 39.9911 183.404 39.9452 183.346C39.6739 183.148 39.3728 182.936 39.1015 182.738C38.7245 182.455 38.3913 182.155 38.0144 181.872C37.8627 181.729 37.6972 181.616 37.5156 181.46C37.2743 181.275 37.0468 181.061 36.8492 180.861C36.7435 180.775 36.6217 180.646 36.4999 180.517C35.8773 179.902 35.2845 179.3 34.7334 178.608C34.7174 178.564 34.6875 178.551 34.6714 178.507C34.5037 178.32 34.3499 178.103 34.2121 177.93C33.9366 177.584 33.7048 177.222 33.4569 176.816C33.317 176.569 33.1471 176.308 33.0072 176.061C32.7754 175.699 32.5874 175.321 32.3556 174.958C32.3395 174.915 32.2797 174.887 32.2637 174.843C32.2039 174.816 32.1879 174.772 32.1281 174.744C32.0865 174.834 32.0288 174.881 31.9573 174.957C31.3288 176.163 30.7003 177.369 30.0857 178.545C29.4988 179.661 28.8682 180.792 28.2813 181.908C28.085 182.255 27.8747 182.633 27.7083 182.994C27.6667 183.084 27.6389 183.144 27.5973 183.234C27.1652 184.093 26.733 184.952 26.3009 185.81C25.8687 186.669 25.4366 187.528 24.9746 188.372C24.2212 189.849 23.422 191.268 22.6388 192.731C22.5833 192.851 22.5417 192.942 22.4563 193.048C21.5781 194.796 20.7 196.543 19.7919 198.277C19.0524 199.723 18.2532 201.142 17.4977 202.545C17.4422 202.665 17.4006 202.755 17.3451 202.876C16.467 204.623 15.5888 206.371 14.6807 208.104C14.0939 209.22 13.4931 210.366 12.9361 211.495C12.3354 212.641 11.7485 213.756 11.1616 214.872C10.1842 216.756 9.20679 218.64 8.1557 220.527C7.61044 221.552 7.00537 222.55 6.4302 223.561C6.14848 224.015 5.89664 224.483 5.60104 224.967C5.5018 225.103 5.43245 225.254 5.34922 225.434C5.28203 225.659 5.25429 225.719 5.22655 225.779Z" fill="#1A1A1A"/>
</g>
<defs>
<clipPath id="clip0_270_41753">
<rect width="67.8574" height="255.649" fill="white" transform="matrix(-0.908127 -0.418695 -0.418695 0.908127 168.662 28.4111)"/>
</clipPath>
</defs>
</svg>
