<svg width="162" height="139" viewBox="0 0 162 139" fill="none" xmlns="http://www.w3.org/2000/svg">
<path d="M55.3451 124.686C58.4044 123.69 64.5942 121.676 64.5942 121.676C65.1634 121.491 65.6615 121.329 66.2306 121.143C66.2306 121.143 107.327 104.051 110.889 101.943C111.151 101.779 111.435 101.686 111.72 101.593C112.005 101.501 112.195 101.36 112.385 101.219C113.263 100.775 114.142 100.331 115.02 99.8866C116.634 99.0448 118.32 98.1799 119.934 97.3381C121.739 96.3553 123.544 95.3725 125.371 94.4613C125.514 94.415 125.633 94.2971 125.846 94.2277C125.988 94.1814 126.107 94.0635 126.273 94.0888C126.344 94.0656 126.415 94.0424 126.51 94.0908C126.51 94.0908 126.581 94.0677 126.604 94.1392L126.699 94.1875C126.722 94.2591 126.816 94.3074 126.863 94.4505C126.886 94.522 127.004 94.6419 127.027 94.7134C127.05 94.7849 127.05 94.7849 127.074 94.8564C127.074 94.8564 127.097 94.928 127.12 94.9995C127.52 95.5022 127.943 96.0764 128.319 96.5076C128.437 96.6275 128.578 96.8189 128.719 97.0103C128.977 97.3216 129.307 97.6097 129.589 97.9925C129.707 98.1124 129.919 98.2807 130.037 98.4006C130.367 98.6887 130.696 98.9768 131.026 99.265C131.144 99.3849 131.356 99.5531 131.545 99.6498C131.851 99.8665 132.252 100.131 132.63 100.325C133.008 100.518 133.385 100.712 133.786 100.977C134.164 101.17 134.542 101.364 134.991 101.534C135.345 101.656 135.794 101.826 136.148 101.948C136.503 102.07 136.928 102.169 137.354 102.268C138.111 102.417 138.938 102.543 139.672 102.621C139.837 102.646 140.074 102.648 140.216 102.602C141.637 102.614 142.987 102.412 144.339 101.972C144.624 101.879 144.908 101.787 145.193 101.694C145.477 101.601 145.762 101.509 146.023 101.345C146.569 101.088 147.115 100.831 147.638 100.503C148.658 100.013 149.49 99.4254 150.37 98.7436C150.94 98.3207 151.416 97.8494 151.892 97.3781C152.607 96.6711 153.203 95.8442 153.728 95.0405C154.254 94.2368 154.732 93.2901 155.069 92.3896C155.212 92.1056 155.261 91.7732 155.382 91.4177C155.695 90.4457 155.914 89.4254 156.038 88.3567C156.087 88.0243 156.113 87.6204 156.162 87.288C156.239 86.314 156.292 85.2685 156.274 84.2461C156.258 82.7483 156.078 81.2252 155.825 79.7254C155.573 78.2255 155.179 76.7719 154.69 75.27C154.574 74.9124 154.434 74.4833 154.223 74.0773C153.757 72.8846 153.384 71.7403 152.798 70.6654C151.815 68.6124 150.69 66.6058 149.588 64.6706C149.072 63.8103 148.651 62.9983 148.135 62.138C147.619 61.2777 147.126 60.489 146.61 59.6286C145.601 57.9796 144.569 56.259 143.537 54.5384C142.716 53.2237 141.966 51.8859 141.121 50.4998C140.3 49.1852 139.55 47.8474 138.705 46.4612C137.603 44.5261 136.43 42.614 135.281 40.7735C134.179 38.8384 133.006 36.9264 131.927 35.0627C131.693 34.5852 131.364 34.0594 131.13 33.5819C130.896 33.1044 130.639 32.5554 130.334 32.1011C129.842 31.0746 129.351 30.0481 128.812 29.1163C128.554 28.5673 128.297 28.0182 128.063 27.5407C127.805 26.9917 127.548 26.4427 127.314 25.9652C126.683 24.5096 126.004 23.1487 125.373 21.693C125.092 21.0725 124.859 20.3573 124.65 19.7136C124.58 19.4991 124.51 19.2845 124.44 19.07C124.347 18.7839 124.254 18.4978 124.067 18.1633C123.974 17.8772 123.833 17.6859 123.74 17.3998C123.67 17.1852 123.623 17.0422 123.482 16.8508C123.225 16.3018 122.944 15.6812 122.616 15.1554C121.582 13.6725 120.311 12.4253 118.967 11.4389C118.778 11.3422 118.566 11.1739 118.354 11.0057C117.552 10.4757 116.631 10.0636 115.733 9.72293C115.285 9.55262 114.765 9.40546 114.316 9.23515C113.796 9.08799 113.299 9.01236 112.802 8.93672C112.542 8.86315 112.234 8.88424 111.974 8.81067C111.738 8.80861 111.407 8.75821 111.17 8.75616C110.294 8.72477 109.418 8.69336 108.637 8.71035C107.785 8.75048 106.956 8.86216 106.078 9.06849C104.301 9.40964 102.499 9.91696 100.908 10.8303C100.647 10.9944 100.362 11.087 100.101 11.2512C99.8395 11.4153 99.5782 11.5794 99.3169 11.7436C99.0556 11.9077 98.7464 12.1665 98.4139 12.3538C98.1526 12.518 97.8434 12.7768 97.511 12.9641C97.3208 13.105 97.1074 13.1745 96.9172 13.3155C95.0647 14.3929 93.2123 15.4704 91.3365 16.4763C90.7428 16.8278 90.0779 17.2023 89.4608 17.4822C88.4634 18.0441 87.3949 18.6292 86.3975 19.1911C85.4002 19.7529 84.3316 20.3379 83.3342 20.8998C81.8621 21.6953 80.3188 22.5139 78.7756 23.3326C77.9684 23.7535 77.2323 24.1512 76.4251 24.5721C75.6179 24.993 74.8818 25.3907 74.0746 25.8116C73.3864 26.1147 72.7215 26.4893 72.0566 26.8639C71.3684 27.1669 70.7034 27.5415 70.0152 27.8445C68.591 28.5454 67.1667 29.2462 65.7425 29.947C64.6507 30.4605 63.6533 31.0224 62.5615 31.5359C61.3274 32.0957 60.1644 32.6324 59.0015 33.169C58.5746 33.308 58.171 33.5184 57.7674 33.7289C57.3405 33.8678 56.8658 34.1014 56.391 34.335C55.0146 34.9411 53.6382 35.5472 52.333 36.1302C51.5736 36.4564 50.8143 36.7826 50.055 37.1089C49.5091 37.3656 49.011 37.5277 48.4651 37.7845C47.9192 38.0412 47.4212 38.2033 46.8753 38.4601C46.5907 38.5527 46.3061 38.6453 46.0448 38.8094C45.2143 39.1588 44.3606 39.4366 43.4589 39.8092C42.415 40.228 41.3711 40.6469 40.3504 41.1372C39.3065 41.5561 38.2626 41.9749 37.2186 42.3937C36.0324 42.8589 34.775 43.3472 33.5888 43.8123C32.4026 44.2774 31.1219 44.6942 29.9357 45.1594C28.5128 45.6225 27.1131 46.1571 25.6423 46.7149C24.2194 47.1779 22.8197 47.7125 21.3256 48.1988C19.1201 48.9166 16.9857 49.6112 14.7801 50.329C14.4955 50.4216 14.2821 50.4911 13.9975 50.5837C13.7129 50.6763 13.4994 50.7458 13.2149 50.8384C11.9109 51.1836 10.6303 51.6004 9.32637 51.9457C8.02243 52.2909 6.7418 52.7077 5.43788 53.053L5.22443 53.1225C4.7264 53.2846 4.41724 53.5434 4.20248 53.8505C4.15461 53.9452 4.10671 54.0399 4.08212 54.2061C4.08212 54.2061 15.909 77.2495 16.4742 77.7774C16.8493 78.4463 17.1532 79.1383 17.505 79.7357C17.88 80.4046 18.2784 81.1451 18.6534 81.8139L20.3877 84.967C20.6683 85.5876 21.0201 86.1849 21.3719 86.7823L21.2076 86.5194C21.2076 86.5194 44.9836 127.663 45.0754 128.186C45.4557 127.904 55.2973 124.781 55.3451 124.686ZM125.181 26.4222C125.252 26.399 125.275 26.4705 125.275 26.4705C125.556 27.091 125.86 27.7831 126.212 28.3805C126.492 29.001 126.796 29.6931 127.148 30.2904C128.107 32.2719 129.067 34.2534 130.146 36.117C131.669 38.8641 133.312 41.4934 134.906 44.2173C135.446 45.1492 135.962 46.0094 136.501 46.9413C137.251 48.2791 138.072 49.5937 138.894 50.9083C139.715 52.223 140.465 53.5607 141.286 54.8754C143.515 58.5795 145.72 62.2121 147.877 65.9394C148.111 66.4169 148.439 66.9428 148.745 67.3971C149.307 68.4005 149.87 69.4038 150.361 70.4303C150.595 70.9078 150.853 71.4568 151.087 71.9343C151.321 72.4118 151.507 72.9839 151.741 73.4614C151.927 74.0336 152.161 74.5111 152.348 75.0832L152.604 75.8699C152.86 76.6567 153.139 77.5149 153.324 78.3248C153.787 80.2306 154.013 82.1344 154.002 84.0362C154.046 84.6546 154.019 85.2962 153.992 85.9379C154.014 86.2471 153.965 86.5795 153.892 86.8404C153.743 88.0753 153.548 89.1671 153.21 90.3052C153.138 90.5661 153.065 90.827 152.922 91.111C152.705 91.6559 152.466 92.1293 152.156 92.6258C151.989 92.8383 151.916 93.0992 151.749 93.3117C151.439 93.8082 151.105 94.2332 150.7 94.6814C150.533 94.8939 150.366 95.1064 150.105 95.2705C149.272 96.0953 148.344 96.8718 147.299 97.5283C147.157 97.5746 147.038 97.6925 146.895 97.7388C146.492 97.9492 146.017 98.1828 145.614 98.3933C145.329 98.4859 145.068 98.65 144.783 98.7427C144.498 98.8353 144.308 98.9762 144.095 99.0457C143.076 99.2983 142.104 99.4563 141.109 99.5428C139.499 99.6714 138.009 99.4445 136.591 98.9568C135.977 98.7612 135.41 98.471 134.772 98.204C134.206 97.9138 133.71 97.6004 133.192 97.2156C132.178 96.5173 131.259 95.6298 130.46 94.6244C129.449 93.4507 128.508 92.2539 127.711 91.0108C127.335 90.3419 126.889 89.6961 126.537 89.0988C126.162 88.4299 125.859 87.7378 125.483 87.0689C124.477 84.9444 123.542 82.7967 122.631 80.7206C122.257 79.814 121.954 78.8842 121.486 77.9292C120.574 75.8531 119.568 73.7286 118.657 71.6525C117.908 70.0769 117.207 68.4068 116.364 66.7829C116.083 66.1624 115.779 65.4703 115.522 64.9213C115.241 64.3008 114.937 63.6087 114.68 63.0597C114.422 62.5107 114.165 61.9617 113.908 61.4127C113.65 60.8637 113.393 60.3147 113.136 59.7657C112.809 59.0021 112.433 58.3332 112.035 57.5928C111.708 56.8292 111.31 56.0888 110.935 55.4199C110.256 54.059 109.6 52.7696 108.921 51.4086C108.219 49.9761 107.493 48.4721 106.72 47.0628C106.627 46.7768 106.463 46.5138 106.393 46.2993C106.065 45.5357 105.644 44.7238 105.246 43.9833C104.942 43.2913 104.567 42.6224 104.263 41.9304C103.959 41.2383 103.584 40.5694 103.209 39.9005C103.185 39.829 103.185 39.829 103.162 39.7575C102.951 39.3515 102.788 38.8509 102.554 38.3734C102.743 38.4701 103.003 38.5437 103.192 38.6404C103.381 38.7372 103.641 38.8107 103.83 38.9075C104.207 39.1009 104.562 39.2228 104.939 39.4163C105.483 39.635 106.026 39.8537 106.617 39.9777C106.783 40.0029 106.972 40.0996 107.137 40.1249C107.468 40.1753 107.894 40.274 108.296 40.3013C108.462 40.3265 108.627 40.3518 108.864 40.3538C109.266 40.3811 109.597 40.4315 109.976 40.3873C110.923 40.3955 111.918 40.309 112.937 40.0564C113.459 39.9658 113.957 39.8037 114.455 39.6416C114.953 39.4796 115.38 39.3407 115.854 39.1071C116.4 38.8503 116.946 38.5935 117.398 38.2884C117.73 38.1011 118.039 37.8423 118.348 37.5835C118.99 37.1374 119.585 36.5482 120.109 35.9823C120.418 35.7234 120.633 35.4163 120.919 35.0859C122.063 33.7646 122.994 32.275 123.76 30.7602C124.168 29.8366 124.552 28.8415 124.842 27.798C124.962 27.4425 125.059 27.0154 125.156 26.5884C125.204 26.4937 125.229 26.3275 125.277 26.2328C125.253 26.1613 125.324 26.1381 125.372 26.0434C125.158 26.3506 125.181 26.4222 125.181 26.4222ZM105.782 36.9275C105.545 36.9254 105.285 36.8519 105.002 36.7068C104.742 36.6332 104.482 36.5596 104.27 36.3914C104.01 36.3178 103.798 36.1496 103.514 36.0045C103.443 36.0276 103.349 35.9793 103.231 35.8594C103.019 35.6911 102.712 35.4745 102.477 35.2347C102.03 34.8267 101.488 34.3703 101.111 33.9391C100.029 32.7886 99.1362 31.4971 98.4819 29.97C98.3655 29.6124 98.178 29.278 98.0383 28.8488L97.8521 28.2766C97.8055 28.1336 97.7357 27.9191 97.6892 27.776C97.5728 27.4184 97.5276 27.0377 97.4823 26.6569C97.4358 26.5139 97.4371 26.2762 97.3905 26.1331C97.3699 25.5862 97.3493 25.0392 97.3998 24.4691C97.4244 24.3029 97.449 24.1367 97.4503 23.899C97.5008 23.3289 97.6457 22.8072 97.7674 22.2139C97.8877 21.8584 98.0081 21.5028 98.1051 21.0757C98.4661 20.0091 99.2281 19.2074 100.507 19.0284C100.886 18.9841 101.194 18.963 101.573 18.9188C101.881 18.8977 102.236 19.0196 102.496 19.0932C102.944 19.2635 103.345 19.5285 103.722 19.9597C103.839 20.0796 103.957 20.1995 104.027 20.414C104.45 20.9882 104.754 21.6803 105.034 22.3008C106.346 24.8797 107.657 27.4585 109.063 30.0857C109.578 31.1837 110.164 32.2586 110.749 33.3334C110.796 33.4765 110.843 33.6196 110.96 33.7394C111.007 33.8825 111.053 34.0255 111.1 34.1685C111.17 34.3831 111.168 34.6208 111.144 34.787C111.167 34.8585 111.142 35.0247 111.166 35.0963C111.117 35.4287 111.044 35.6895 110.806 35.9252C110.616 36.0661 110.355 36.2303 109.928 36.3692L109.43 36.5313C108.196 37.0911 106.964 37.1755 105.782 36.9275ZM119.758 26.6841C119.97 26.8523 120.158 27.1868 120.251 27.4728C120.274 27.5444 120.321 27.6874 120.415 27.7358C120.485 27.9504 120.649 28.2133 120.814 28.4762C120.978 28.7391 121.048 28.9537 121.212 29.2166C121.235 29.2881 121.259 29.3597 121.282 29.4312C121.328 29.5742 121.375 29.7173 121.231 30.0013C119.962 32.629 118.269 34.9203 115.821 36.5868C115.75 36.61 115.75 36.61 115.679 36.6332C115.417 36.7973 115.323 36.7489 115.182 36.5575C115.182 36.5575 115.159 36.486 115.135 36.4145C114.76 35.7456 114.385 35.0767 114.01 34.4078C113.635 33.7389 113.26 33.07 112.885 32.4011C112.628 31.8521 112.276 31.2547 112.042 30.7772C111.995 30.6342 111.854 30.4428 111.785 30.2282C111.761 30.1567 111.809 30.062 111.857 29.9674L111.928 29.9442C111.928 29.9442 111.928 29.9442 112.023 29.9926C112.66 30.2596 113.417 30.4088 114.104 30.3435C114.483 30.2992 114.791 30.2781 115.146 30.1623L115.645 30.0003C116 29.8845 116.356 29.7687 116.617 29.6046C117.425 29.1837 118.091 28.5714 118.591 27.9339C118.758 27.7214 118.973 27.4142 119.093 27.0586C119.141 26.964 119.189 26.8693 119.285 26.68C119.285 26.68 119.285 26.6799 119.333 26.5853C119.333 26.5853 119.333 26.5853 119.404 26.5621C119.617 26.4927 119.735 26.6125 119.758 26.6841ZM117.16 25.7106C117.064 25.8999 116.968 26.0893 116.801 26.3018C116.468 26.7268 116.039 27.1034 115.493 27.3602L115.351 27.4065C115.28 27.4297 115.209 27.4528 115.186 27.3813C115.186 27.3813 115.162 27.3098 115.139 27.2383C114.717 26.4263 114.319 25.6859 113.826 24.8971C113.428 24.1567 112.935 23.3679 112.514 22.556C112.092 21.7441 111.67 20.9321 111.249 20.1202C110.827 19.3082 110.406 18.4963 109.984 17.6844C109.937 17.5413 109.797 17.3499 109.75 17.2069C109.516 16.7294 109.259 16.1804 109.024 15.7029L108.978 15.5598C108.955 15.4883 109.002 15.3937 109.145 15.3474C109.145 15.3474 109.145 15.3474 109.216 15.3242C109.287 15.3011 109.429 15.2548 109.501 15.2316C109.643 15.1853 109.88 15.1873 110.022 15.141C110.187 15.1662 110.33 15.1199 110.59 15.1935C110.921 15.2439 111.252 15.2943 111.606 15.4163C111.772 15.4415 111.89 15.5614 112.055 15.5866C112.504 15.7569 112.999 16.0703 113.424 16.4068C113.541 16.5266 113.659 16.6465 113.848 16.7433C114.531 17.391 115.143 18.062 115.707 18.8276C116.012 19.282 116.246 19.7595 116.503 20.3085C116.55 20.4515 116.596 20.5945 116.714 20.7144C116.925 21.1204 117.136 21.5264 117.299 22.027C117.345 22.1701 117.392 22.3131 117.438 22.4561C117.578 22.8853 117.646 23.3375 117.62 23.7415C117.619 23.9792 117.641 24.2884 117.592 24.6208C117.519 24.8816 117.47 25.214 117.398 25.4749C117.255 25.5212 117.208 25.6159 117.16 25.7106Z" fill="#1A1A1A"/>
<path d="M14.5378 68.4423C14.1628 67.7734 13.7877 67.1045 13.4127 66.4356C12.6393 65.0263 11.8659 63.6171 11.0693 62.1362C9.92083 60.058 8.7724 57.9798 7.62397 55.9016C7.60069 55.8301 7.50626 55.7817 7.45971 55.6387C7.41316 55.4956 7.3666 55.3526 7.34333 55.2811L7.32006 55.2096C7.32006 55.2096 7.32005 55.2095 7.29677 55.138C7.2735 55.0665 7.2735 55.0665 7.32137 54.9718C7.39252 54.9487 7.44039 54.854 7.58268 54.8077L7.93842 54.6919C9.45578 54.2772 10.9499 53.791 12.4672 53.3762C13.9613 52.89 15.4787 52.4753 16.9728 51.989L22.1665 50.2987C23.874 49.743 25.6527 49.1642 27.3602 48.6085C28.3563 48.2843 29.2579 47.9118 30.254 47.5876C31.25 47.2635 32.1517 46.8909 33.1477 46.5668C34.2628 46.1248 35.33 45.7775 36.374 45.3587C37.489 44.9167 38.5329 44.4978 39.5769 44.079C40.0749 43.9169 40.6208 43.6601 41.1188 43.4981C42.1628 43.0792 43.2067 42.6604 44.1562 42.1932C44.6309 41.9596 45.2001 41.7744 45.6749 41.5408C46.79 41.0988 47.9762 40.6336 49.0912 40.1916C49.4949 39.9811 49.8506 39.8654 50.2542 39.655C51.4404 39.1898 52.6034 38.6532 53.7663 38.1165C54.4545 37.8134 55.1427 37.5103 55.8309 37.2073C57.3496 36.5548 58.9161 35.8077 60.4827 35.0606C60.9807 34.8985 61.5266 34.6418 62.0014 34.4082C62.4994 34.2461 63.0453 33.9894 63.5201 33.7558C65.0155 33.0318 66.6053 32.3562 68.1486 31.5376C69.4305 30.8831 70.7125 30.2285 71.9945 29.574C73.2764 28.9196 74.5584 28.2651 75.8404 27.6106C77.2646 26.9098 78.7368 26.1143 80.1377 25.342C81.6331 24.618 83.0341 23.8457 84.5063 23.0502C87.783 21.272 91.0843 19.3275 94.3843 17.6208C94.5977 17.5513 94.859 17.3872 95.1204 17.223C95.5951 16.9894 96.0466 16.6843 96.4981 16.3792C97.4243 15.8405 98.304 15.1587 99.3014 14.5969C99.4915 14.4559 99.7761 14.3632 100.037 14.1991C100.228 14.0581 100.512 13.9655 100.702 13.8245C101.154 13.5194 101.605 13.2143 102.08 12.9807C102.293 12.9112 102.555 12.7471 102.745 12.6061C103.077 12.4188 103.433 12.303 103.837 12.0926C104.192 11.9768 104.548 11.861 104.975 11.7221C106.279 11.3768 107.558 11.1978 108.884 11.1618C109.5 11.1196 110.21 11.1257 110.849 11.1551C111.157 11.134 111.488 11.1844 111.819 11.2348C112.15 11.2852 112.482 11.3357 112.813 11.3861C112.978 11.4113 113.238 11.4849 113.404 11.5101C113.995 11.6341 114.609 11.8296 115.176 12.1198C115.53 12.2417 115.908 12.4352 116.286 12.6287C116.97 13.0388 117.654 13.4488 118.291 13.9536C119.257 14.7465 120.009 15.6089 120.761 16.7089C120.948 17.0434 121.136 17.3778 121.3 17.6407C121.464 17.9037 121.581 18.2613 121.697 18.6189C121.767 18.8334 121.837 19.048 121.859 19.3572C121.905 19.5003 121.975 19.7148 122.045 19.9294C122.092 20.0724 122.161 20.287 122.231 20.5015C122.255 20.5731 122.301 20.7161 122.276 20.8823C122.437 21.8584 122.266 22.784 121.67 23.6109C121.503 23.8234 121.384 23.9412 121.241 23.9875C121.241 23.9875 121.241 23.9875 121.17 24.0107C121.147 23.9392 121.052 23.8908 121.029 23.8193C121.029 23.8193 121.006 23.7478 120.983 23.6762C120.608 23.0073 120.28 22.2438 119.905 21.5749C119.789 21.2173 119.601 20.8828 119.414 20.5484C119.226 20.2139 119.039 19.8795 118.851 19.5451C118.71 19.3536 118.641 19.1391 118.5 18.9477C118.148 18.3503 117.773 17.6814 117.279 17.1303C116.973 16.676 116.62 16.3163 116.267 15.9567C116.032 15.7169 115.702 15.4288 115.467 15.189C114.807 14.6127 114.005 14.0828 113.107 13.7421C112.942 13.7169 112.753 13.6202 112.564 13.5235C111.406 13.1093 110.247 12.9328 109.039 13.0887C108.66 13.1329 108.233 13.2719 107.878 13.3877L107.664 13.4571C107.593 13.4803 107.522 13.5034 107.451 13.5266C107.166 13.6192 106.905 13.7833 106.738 13.9958C106.239 14.3956 105.999 14.869 106.114 15.4643L106.207 15.7504C106.231 15.8219 106.277 15.9649 106.301 16.0365C106.628 16.8 107.026 17.5405 107.424 18.2809C108.409 20.0962 109.416 21.983 110.423 23.8698L110.447 23.9413C110.517 24.1558 110.469 24.2505 110.161 24.2716C109.924 24.2695 109.711 24.339 109.545 24.3138C109.38 24.2886 109.214 24.2634 109.12 24.215C109.025 24.1666 109.025 24.1667 108.931 24.1183C108.79 23.9269 108.649 23.7355 108.438 23.3295C107.806 22.1116 107.173 20.8937 106.47 19.6989C106.118 19.1016 105.624 18.5505 105.105 18.1656C104.822 18.0205 104.586 17.7808 104.232 17.6588C103.949 17.5137 103.665 17.3686 103.311 17.2467C102.957 17.1248 102.625 17.0743 102.294 17.0239C101.798 16.9483 101.276 17.0388 100.778 17.2009C100.28 17.363 99.7822 17.5251 99.2842 17.6871C98.9996 17.7797 98.7383 17.9439 98.477 18.108C98.0255 18.4132 97.5973 18.7898 97.2157 19.3095C96.477 20.1827 95.9983 21.1294 95.6851 22.1014C95.4923 22.7178 95.3939 23.3826 95.2955 24.0473C95.1972 24.7121 95.1932 25.4253 95.2604 26.1152C95.2823 26.4245 95.3276 26.8053 95.3728 27.186C95.3728 27.186 95.3961 27.2575 95.4194 27.3291C95.4427 27.4006 95.4426 27.4005 95.3948 27.4952C95.418 27.5667 95.3702 27.6615 95.3223 27.7561C95.2266 27.9455 95.1075 28.0633 95.0118 28.2527C94.7492 28.6545 94.5098 29.1279 94.3416 29.5781C93.837 30.9287 93.7579 32.3782 94.1523 33.8317C94.2221 34.0463 94.2919 34.2609 94.3618 34.4754C94.5014 34.9046 94.7122 35.3105 94.923 35.7165C94.9929 35.931 95.1338 36.1225 95.2037 36.337C95.5541 37.1721 95.9525 37.9125 96.3508 38.6529C96.7012 39.488 97.0996 40.2284 97.4979 40.9689C97.8018 41.6609 98.2001 42.4013 98.5985 43.1418C98.9024 43.8338 99.3007 44.5742 99.699 45.3146C100.401 46.7471 101.104 48.1796 101.806 49.612C102.531 51.116 103.305 52.5253 104.007 53.9578C104.498 54.9843 105.013 56.0823 105.576 57.0856C105.763 57.4201 105.879 57.7777 106.067 58.1121C106.394 58.8757 106.793 59.6161 107.191 60.3565C107.518 61.1201 107.916 61.8605 108.315 62.6009C108.619 63.293 108.994 63.9619 109.298 64.6539C109.601 65.346 109.977 66.0149 110.28 66.7069C110.631 67.542 111.029 68.2824 111.428 69.0228C111.778 69.8579 112.176 70.5983 112.575 71.3387C113.277 72.7712 113.956 74.1322 114.658 75.5646C114.985 76.3282 115.384 77.0686 115.782 77.809C116.109 78.5726 116.507 79.313 116.906 80.0535C117.21 80.7455 117.608 81.4859 117.912 82.178C118.216 82.87 118.614 83.6104 118.918 84.3024C119.245 85.066 119.644 85.8065 120.042 86.5469C120.369 87.3105 120.767 88.0509 121.166 88.7913C121.821 90.0807 122.429 91.4648 123.085 92.7542L123.155 92.9688C123.201 93.1118 123.082 93.2296 122.892 93.3706C121.61 94.0251 120.423 94.728 119.141 95.3825C118.333 95.8034 117.597 96.2011 116.79 96.622C115.983 97.0429 115.247 97.4407 114.44 97.8615C114.107 98.0488 113.751 98.1646 113.49 98.3287C113.3 98.4697 113.087 98.5392 112.896 98.6802L77.1814 114.416C70.8946 116.858 64.5366 119.323 58.2497 121.764C58.2497 121.764 58.2497 121.764 58.1786 121.787L55.8307 122.551L47.0085 125.422C46.6554 125.063 15.4755 70.1146 14.5378 68.4423Z" fill="#F9F5F2"/>
<path d="M124.965 26.9676C124.868 27.3946 124.819 27.727 124.65 28.1773C123.878 30.8806 122.562 33.3653 120.728 35.4651C120.513 35.7723 120.204 36.0312 119.918 36.3615C119.394 36.9275 118.775 37.4451 118.157 37.9627C117.848 38.2216 117.515 38.4088 117.206 38.6677C116.755 38.9728 116.209 39.2295 115.663 39.4863C114.761 39.8588 113.836 40.1598 112.746 40.4356C111.775 40.5936 110.803 40.7515 109.785 40.7665C109.406 40.8107 109.004 40.7835 108.673 40.733C108.507 40.7078 108.27 40.7058 108.105 40.6806C107.774 40.6301 107.371 40.6029 106.946 40.5041C106.78 40.4789 106.615 40.4537 106.426 40.3569C105.906 40.2098 105.291 40.0142 104.748 39.7956C104.394 39.6736 104.016 39.4802 103.638 39.2867C103.449 39.19 103.189 39.1164 103.001 39.0196C102.812 38.9229 102.552 38.8494 102.363 38.7526C102.503 39.1817 102.737 39.6592 102.971 40.1367C102.994 40.2082 102.994 40.2083 103.017 40.2798C103.321 40.9718 103.696 41.6407 104.071 42.3096C104.375 43.0017 104.75 43.6706 105.054 44.3626C105.381 45.1262 105.803 45.9381 106.201 46.6785C106.294 46.9646 106.459 47.2275 106.528 47.4421C107.254 48.9461 107.956 50.3785 108.73 51.7878C109.409 53.1488 110.064 54.4382 110.743 55.7992C111.07 56.5627 111.469 57.3031 111.844 57.972C112.171 58.7356 112.546 59.4045 112.944 60.1449C113.202 60.6939 113.459 61.2429 113.716 61.7919C113.974 62.3409 114.231 62.89 114.488 63.439C114.769 64.0595 115.073 64.7515 115.33 65.3005C115.611 65.9211 115.915 66.6131 116.172 67.1621C116.921 68.7376 117.693 70.3847 118.465 72.0317C119.377 74.1079 120.383 76.2323 121.295 78.3085C121.668 79.2151 121.971 80.1449 122.439 81.0999C123.374 83.2475 124.309 85.3952 125.292 87.4482C125.408 87.8058 125.596 88.1402 125.784 88.4747C125.9 88.8323 126.087 89.1667 126.275 89.5012C126.65 90.1701 127.025 90.8389 127.448 91.4132C127.636 91.7476 127.894 92.0589 128.082 92.3934C128.715 93.3735 129.468 94.2359 130.221 95.0983C131.091 96.0805 131.986 96.8966 132.953 97.6895C133.471 98.0743 133.967 98.3877 134.533 98.6779C135.1 98.9681 135.643 99.1868 136.352 99.4307C137.841 99.8953 139.331 100.122 140.87 100.017C141.794 99.9534 142.765 99.7954 143.856 99.5196C144.069 99.4501 144.33 99.286 144.544 99.2166C144.828 99.1239 145.09 98.9598 145.374 98.8672C145.778 98.6568 146.253 98.4231 146.656 98.2127C146.799 98.1664 146.918 98.0486 147.06 98.0022C147.582 97.674 148.105 97.3457 148.604 96.9459C149.033 96.5692 149.532 96.1695 149.96 95.7928C150.127 95.5803 150.388 95.4162 150.555 95.2037C150.889 94.7787 151.294 94.3305 151.605 93.834C151.771 93.6214 151.915 93.3375 152.011 93.1481C152.25 92.6747 152.561 92.1782 152.777 91.6333C152.849 91.3724 152.993 91.0884 153.065 90.8275C153.426 89.7609 153.67 88.5744 153.747 87.3626C153.725 87.0534 153.798 86.7925 153.847 86.4602C153.874 85.8185 153.901 85.1769 153.858 84.5584C153.797 82.6798 153.571 80.7761 153.179 78.8471C152.971 77.9657 152.715 77.179 152.459 76.3922C152.366 76.1062 152.273 75.8201 152.203 75.6055C152.017 75.0333 151.854 74.5327 151.596 73.9837C151.41 73.4115 151.176 72.934 150.942 72.4565C150.708 71.9791 150.451 71.43 150.216 70.9526C149.725 69.9261 149.162 68.9227 148.6 67.9194C148.366 67.4419 148.037 66.9161 147.732 66.4617C145.575 62.7344 143.37 59.1018 141.141 55.3977C140.391 54.0599 139.57 52.7453 138.749 51.4306C137.928 50.116 137.177 48.7782 136.356 47.4636C135.817 46.5317 135.301 45.6714 134.762 44.7396C133.167 42.0156 131.524 39.3864 130.001 36.6393C128.922 34.7757 127.963 32.7942 127.003 30.8127C126.722 30.1922 126.347 29.5233 126.067 28.9028C125.786 28.2822 125.482 27.5902 125.13 26.9928C125.107 26.9213 125.107 26.9213 125.013 26.8729C124.942 26.8961 124.894 26.9908 124.917 27.0623C125.014 26.6352 124.989 26.8014 124.965 26.9676Z" fill="#F9F5F2"/>
<path d="M109.95 36.6789C110.163 36.6094 110.305 36.5631 110.424 36.4452C110.567 36.3989 110.686 36.2811 110.805 36.1633C111.043 35.9277 111.115 35.6668 111.164 35.3344C111.141 35.2629 111.166 35.0966 111.142 35.0251C111.096 34.8821 111.097 34.6444 111.099 34.4067C111.052 34.2636 111.005 34.1206 110.959 33.9776C110.912 33.8345 110.866 33.6914 110.748 33.5716C110.233 32.4735 109.648 31.3987 109.062 30.3238C107.75 27.745 106.439 25.1661 105.033 22.5389C104.729 21.8469 104.377 21.2495 104.026 20.6521C103.979 20.5091 103.838 20.3177 103.72 20.1978C103.367 19.8381 102.943 19.5016 102.494 19.3313C102.234 19.2578 101.88 19.1358 101.572 19.1569C101.264 19.178 100.862 19.1507 100.506 19.2665C99.3212 19.4939 98.536 20.2241 98.1038 21.3139C97.9835 21.6694 97.8631 22.0249 97.7661 22.452C97.6211 22.9737 97.4995 23.567 97.449 24.1371C97.4244 24.3033 97.3998 24.4695 97.3984 24.7072C97.3479 25.2773 97.3686 25.8243 97.3892 26.3712C97.4358 26.5143 97.4344 26.752 97.481 26.895C97.5262 27.2758 97.5715 27.6565 97.6878 28.0141C97.7344 28.1572 97.8042 28.3718 97.8508 28.5148C97.8973 28.6578 97.9672 28.8724 98.037 29.0869C98.1534 29.4446 98.2697 29.8021 98.4805 30.2081C99.1349 31.7352 100.027 33.0267 101.11 34.1772C101.51 34.6799 102.028 35.0648 102.476 35.4728C102.688 35.6411 102.994 35.8577 103.23 36.0975C103.324 36.1458 103.442 36.2657 103.56 36.3856C103.772 36.5539 104.055 36.699 104.315 36.7725C104.575 36.8461 104.787 37.0144 105.047 37.0879C105.307 37.1615 105.567 37.2351 105.827 37.3087C106.418 37.4327 107.034 37.3905 107.602 37.443C108.218 37.4008 108.81 37.287 109.474 37.1502C109.665 36.7715 109.807 36.7252 109.95 36.6789Z" fill="#F9F5F2"/>
<path d="M117.549 23.7639C117.503 23.3832 117.435 22.9309 117.366 22.4786C117.32 22.3356 117.273 22.1925 117.227 22.0495C117.016 21.6435 116.805 21.2375 116.642 20.7369C116.596 20.5939 116.549 20.4508 116.431 20.331C116.197 19.8535 115.94 19.3045 115.635 18.8501C115.142 18.0613 114.53 17.3904 113.776 16.7657C113.658 16.6458 113.541 16.526 113.352 16.4292C112.928 16.0927 112.527 15.8278 111.983 15.6091C111.889 15.5607 111.7 15.464 111.535 15.4388C111.203 15.3883 110.849 15.2664 110.518 15.216C110.352 15.1908 110.187 15.1655 109.95 15.1635C109.785 15.1383 109.571 15.2078 109.429 15.2541C109.358 15.2772 109.215 15.3235 109.144 15.3467C109.144 15.3467 109.144 15.3467 109.073 15.3698C109.002 15.393 108.86 15.4393 108.906 15.5823C108.906 15.5823 108.929 15.6538 108.953 15.7254C109.187 16.2028 109.444 16.7519 109.678 17.2294C109.725 17.3724 109.795 17.587 109.912 17.7069C110.334 18.5188 110.756 19.3307 111.177 20.1426C111.599 20.9546 112.02 21.7665 112.442 22.5785C112.864 23.3904 113.262 24.1308 113.683 24.9428C114.105 25.7547 114.503 26.4951 114.996 27.2839C115.019 27.3554 115.019 27.3554 115.043 27.4269C115.066 27.4984 115.137 27.4753 115.208 27.4521C115.208 27.4521 115.279 27.429 115.351 27.4058C115.635 27.3132 115.825 27.1722 116.063 26.9366C116.254 26.7956 116.42 26.5831 116.587 26.3706C116.683 26.1812 116.779 25.9919 116.946 25.7794C116.994 25.6847 117.041 25.59 117.089 25.4953C117.162 25.2345 117.234 24.9736 117.283 24.6412C117.546 24.2394 117.547 24.0016 117.549 23.7639Z" fill="#F9F5F2"/>
<path d="M119.427 26.6337C119.379 26.7283 119.331 26.823 119.235 27.0123C119.092 27.2964 118.948 27.5804 118.733 27.8876C118.233 28.5251 117.566 29.1374 116.759 29.5583C116.427 29.7456 116.142 29.8382 115.786 29.9539C115.644 30.0003 115.431 30.0697 115.288 30.116C114.933 30.2318 114.554 30.2761 114.246 30.2972C113.559 30.3625 112.802 30.2133 112.165 29.9462C112.165 29.9462 112.165 29.9463 112.07 29.8979C112.07 29.8979 111.976 29.8495 111.999 29.9211C112.022 29.9926 111.974 30.0872 111.927 30.1819C111.973 30.325 112.114 30.5164 112.184 30.7309C112.441 31.2799 112.793 31.8773 113.027 32.3548C113.402 33.0237 113.777 33.6926 114.152 34.3615C114.527 35.0304 114.902 35.6993 115.277 36.3682C115.301 36.4397 115.301 36.4397 115.324 36.5112C115.488 36.7741 115.559 36.751 115.821 36.5868C115.821 36.5868 115.892 36.5637 115.963 36.5405C118.505 34.9223 120.104 32.5827 121.373 29.955C121.469 29.7656 121.494 29.5994 121.424 29.3849C121.401 29.3134 121.377 29.2418 121.354 29.1703C121.213 28.9789 121.049 28.716 120.956 28.4299C120.863 28.1438 120.722 27.9524 120.557 27.6895C120.534 27.618 120.487 27.4749 120.393 27.4265C120.3 27.1405 120.136 26.8775 119.948 26.5431C119.902 26.4 119.713 26.3033 119.617 26.4927C119.498 26.6105 119.427 26.6337 119.427 26.6337Z" fill="#F9F5F2"/>
</svg>
