<svg width="60" height="64" viewBox="0 0 60 64" fill="none" xmlns="http://www.w3.org/2000/svg">
<g clip-path="url(#clip0_341_44046)">
<path d="M2.02748 23.9649C2.07427 23.9337 2.13666 23.918 2.18345 23.9024C2.43299 23.8086 2.60456 23.3084 2.433 23.1208C2.35501 23.0426 2.18345 22.9644 2.12106 22.9957C1.88712 23.1208 1.54399 23.1833 1.52839 23.5585C1.52839 23.621 1.46601 23.6835 1.43481 23.7304C1.43481 23.793 1.43481 23.8399 1.43481 23.9024C1.62197 24.0744 1.80913 24.09 2.02748 23.9649Z" fill="#1A1A1A"/>
<path d="M2.18342 22.6204C2.24581 22.5423 2.32379 22.4329 2.30819 22.3391C2.30819 22.214 2.24581 22.1046 2.18342 21.9951C2.05865 21.745 1.77791 21.7294 1.59075 21.9482C1.54396 22.0108 1.48158 22.0577 1.41919 22.1202C1.41919 22.1984 1.41919 22.2922 1.41919 22.3703C1.57516 22.4641 1.73112 22.5267 1.87149 22.6361C2.01186 22.7299 2.10544 22.6986 2.18342 22.6204Z" fill="#1A1A1A"/>
<path d="M2.19905 20.9165C2.23024 20.8071 2.33942 20.6977 2.19905 20.5882C2.05868 20.4944 1.91831 20.385 1.74675 20.5257C1.63757 20.6039 1.54399 20.6977 1.43481 20.7758C1.43481 20.8853 1.43481 21.0103 1.43481 21.1198C1.90271 21.3855 2.05868 21.3542 2.19905 20.9165Z" fill="#1A1A1A"/>
<path d="M4.11748 33.0319C4.24225 32.9538 4.36702 32.8443 4.4606 32.7505C4.56978 32.6411 4.50739 32.3128 4.39821 32.2816C4.14867 32.2034 3.88353 32.1409 3.68077 32.094C3.38444 32.0783 3.32205 32.1252 3.22847 32.2503C3.1037 32.4223 3.29086 32.5004 3.33765 32.6098C3.35324 32.6567 3.36884 32.7193 3.40003 32.7662C3.556 33.0007 3.93032 33.157 4.11748 33.0319Z" fill="#1A1A1A"/>
<path d="M22.3341 12.9909C22.5213 13.0065 22.88 12.8345 22.9112 12.7251C22.9112 12.6938 22.9112 12.6626 22.9268 12.5844C22.88 12.4594 22.8021 12.2718 22.7241 12.0998C22.6149 11.8497 22.4433 11.7872 22.1626 11.8966C21.8663 12.006 21.8507 12.0685 21.9598 12.3968C21.991 12.4906 21.991 12.5844 22.0066 12.6782C22.0222 12.8814 22.147 12.9909 22.3341 12.9909Z" fill="#1A1A1A"/>
<path d="M27.3409 62.2962C27.6372 62.2962 27.762 62.2024 27.8088 61.9366C27.8399 61.7959 27.6372 61.3269 27.528 61.28C27.4968 61.2644 27.45 61.2644 27.4188 61.2488C27.1693 61.155 27.0289 61.3426 26.9042 61.4989C26.7482 61.7178 26.9042 61.921 26.9353 62.1242C26.9977 62.3431 27.1849 62.2805 27.3409 62.2962Z" fill="#1A1A1A"/>
<path d="M43.8109 47.4608C43.7329 47.4608 43.6549 47.4296 43.4989 47.3983C43.4366 47.4452 43.3118 47.5234 43.2338 47.6172C43.1714 47.6797 43.1558 47.7891 43.109 47.8673C42.9999 48.0861 43.1402 48.3363 43.4054 48.3206C43.5613 48.305 43.7017 48.2737 43.8577 48.2425C44.0604 48.2112 44.2164 47.9767 44.2008 47.7266C44.1852 47.5703 44.0448 47.4765 43.8109 47.4608Z" fill="#1A1A1A"/>
<path d="M22.0691 58.5287C21.8196 58.5131 21.6636 58.7007 21.648 59.0446C21.6324 59.3573 21.7884 59.5136 22.1471 59.5448C22.3343 59.5605 22.5994 59.2947 22.615 59.0759C22.6306 58.9352 22.2251 58.5287 22.0691 58.5287Z" fill="#1A1A1A"/>
<path d="M5.39644 35.0798C5.36525 34.986 5.22488 34.9235 5.17809 34.8766C4.99093 34.9235 4.88175 34.9704 4.75698 34.986C4.55423 35.0016 4.44505 35.1111 4.42945 35.2987C4.41386 35.4394 4.64781 35.8771 4.74139 35.8927C4.78817 35.9084 4.81937 35.9084 4.86616 35.8927C5.17809 35.8458 5.50562 35.3768 5.39644 35.0798Z" fill="#1A1A1A"/>
<path d="M9.79471 44.3499C9.95068 44.1467 9.8415 44.006 9.68554 43.9122C9.59196 43.8653 9.46718 43.9122 9.34241 43.9122C9.09287 43.8966 8.98369 44.0685 8.87452 44.2405C8.73415 44.475 8.9369 44.8345 9.21764 44.8502C9.32681 44.8189 9.49838 44.7876 9.60755 44.7095C9.70113 44.6313 9.71673 44.4593 9.79471 44.3499Z" fill="#1A1A1A"/>
<path d="M6.09816 38.2063C6.14495 38.175 6.19174 38.1281 6.23852 38.1125C6.37889 38.0656 6.45688 37.9874 6.42568 37.8311C6.39449 37.6748 6.39449 37.4872 6.19174 37.4403C6.06696 37.409 5.95779 37.3777 5.911 37.3621C5.80182 37.3621 5.77063 37.3621 5.73943 37.3621C5.58347 37.3465 5.48989 37.3934 5.41191 37.5497C5.31833 37.706 5.39631 37.7686 5.47429 37.878C5.52108 37.9249 5.53668 38.003 5.56787 38.0656C5.73943 38.3782 5.80182 38.4095 6.09816 38.2063Z" fill="#1A1A1A"/>
<path d="M21.3671 58.0441C21.2736 57.9035 21.1488 57.7471 21.0084 57.6377C20.9616 57.5908 20.7589 57.6377 20.7277 57.7002C20.6341 57.8722 20.5873 58.0598 20.5405 58.2005C20.5405 58.4819 20.6653 58.6069 20.9928 58.6851C21.2892 58.7632 21.4763 58.5913 21.3983 58.2786C21.3983 58.2161 21.4139 58.1067 21.3671 58.0441Z" fill="#1A1A1A"/>
<path d="M8.26599 41.7705C8.37517 41.6142 8.31278 41.411 8.14122 41.3797C8.00085 41.3484 7.84488 41.3328 7.68892 41.3172C7.68892 41.3015 7.67332 41.2703 7.67332 41.2546C7.56414 41.3172 7.42377 41.3641 7.3302 41.4422C7.23662 41.536 7.20542 42.0206 7.26781 42.0675C7.34579 42.1301 7.45497 42.2082 7.51735 42.177C7.79809 42.0832 8.07883 42.0206 8.26599 41.7705Z" fill="#1A1A1A"/>
<path d="M18.4507 55.1988C18.3415 55.1676 18.17 55.0738 18.1232 55.1207C17.9516 55.277 17.6397 55.3395 17.6709 55.6522C17.6709 55.9023 17.7801 56.0274 18.0296 56.0899C18.2324 56.1524 18.4195 56.0743 18.4975 55.9023C18.6067 55.6835 18.5911 55.3395 18.4819 55.2301C18.4663 55.2145 18.4663 55.1988 18.4507 55.1988Z" fill="#1A1A1A"/>
<path d="M24.393 60.0137C24.2682 60.0294 23.9563 60.4046 23.9563 60.5609C23.9563 60.8423 24.1279 61.0143 24.393 61.0143C24.6737 61.0143 24.9545 60.7172 24.9389 60.4515C24.9389 60.3108 24.549 59.9981 24.393 60.0137Z" fill="#1A1A1A"/>
<path d="M39.5996 44.178C39.3345 44.1467 39.0693 44.3968 39.0693 44.6C39.0693 44.8345 39.3189 45.1003 39.584 45.1003C39.818 45.1003 40.0519 44.8971 40.0675 44.6782C40.0675 44.4124 39.8492 44.2092 39.5996 44.178Z" fill="#1A1A1A"/>
<path d="M40.3794 45.1472C40.3171 45.1785 40.2235 45.2566 40.2079 45.3192C40.1299 45.6474 40.3638 45.9601 40.7226 46.007C40.785 46.0226 40.8473 46.007 40.9253 46.007C41.1437 46.0383 41.2996 45.8663 41.2685 45.6474C41.2217 45.3817 40.629 45.0378 40.3794 45.1472Z" fill="#1A1A1A"/>
<path d="M25.7967 23.9806C25.7811 23.793 25.5316 23.5741 25.3288 23.5898C25.1105 23.5898 24.7517 23.8868 24.7673 24.0431C24.7829 24.1369 24.8141 24.2776 24.8921 24.3245C25.0325 24.4339 25.204 24.5121 25.3756 24.5434C25.516 24.5746 25.7967 24.1526 25.7967 23.9806Z" fill="#1A1A1A"/>
<path d="M2.37073 25.5126C2.57348 25.372 2.62027 25.1531 2.52669 24.9342C2.46431 24.7935 2.12118 24.6685 1.94962 24.731C1.68448 24.8092 1.68448 25.0124 1.70007 25.2C1.68448 25.5908 1.73127 25.7002 2.01201 25.7159C2.12118 25.7002 2.26155 25.5908 2.37073 25.5126Z" fill="#1A1A1A"/>
<path d="M5.92656 36.643C5.91097 36.6117 5.86418 36.5492 5.81739 36.5023C5.70821 36.4085 5.59904 36.3147 5.48986 36.2209C5.36509 36.1115 5.11554 36.1427 5.03756 36.2991C4.8504 36.643 4.92838 36.94 5.27151 37.1276C5.47426 37.2214 5.92656 36.9556 5.92656 36.643Z" fill="#1A1A1A"/>
<path d="M31.7392 35.3299C31.7392 34.9078 31.4584 34.6733 31.1309 34.7984C30.9125 34.8765 30.9281 35.0641 30.8969 35.2361C30.8657 35.4393 30.8657 35.6269 31.0685 35.7676C31.2713 35.9083 31.3648 35.6894 31.5052 35.6425C31.6612 35.5956 31.8015 35.5018 31.7392 35.3299Z" fill="#1A1A1A"/>
<path d="M26.2178 25.4658C26.2178 25.1218 26.0619 24.8561 25.8435 24.8561C25.6096 24.8405 25.3132 25.2 25.3132 25.5127C25.3132 25.669 25.516 25.8878 25.6875 25.8878C25.9527 25.9035 26.2178 25.6846 26.2178 25.4658Z" fill="#1A1A1A"/>
<path d="M30.6003 33.7041C30.2884 33.6885 30.0544 33.8917 30.0544 34.1887C30.0544 34.4545 30.1792 34.6108 30.3976 34.6108C30.7095 34.6108 30.959 34.4076 30.9746 34.1262C30.9746 33.8448 30.8811 33.7197 30.6003 33.7041Z" fill="#1A1A1A"/>
<path d="M31.864 35.8301C31.6768 35.8458 31.5832 36.049 31.552 36.3616C31.5364 36.5492 31.708 36.5492 31.7392 36.643C31.8484 36.8775 32.0511 36.8775 32.2227 36.815C32.3319 36.7681 32.3786 36.5961 32.3942 36.5492C32.4566 36.0802 32.2071 35.8145 31.864 35.8301Z" fill="#1A1A1A"/>
<path d="M22.3654 9.89563C22.5994 9.89563 22.8957 9.62987 22.9113 9.39538C22.9113 9.17653 22.6462 8.89514 22.4434 8.89514C22.2407 8.89514 21.9443 9.22343 21.9443 9.41102C21.9443 9.59861 22.2095 9.89563 22.3654 9.89563Z" fill="#1A1A1A"/>
<path d="M7.70488 40.3479C7.68928 40.1134 7.40854 39.8164 7.1434 39.832C7.11221 39.8476 6.98744 39.8633 6.98744 39.9102C6.97184 40.0821 6.84707 40.1603 6.75349 40.2854C6.6911 40.3635 6.7223 40.598 6.78468 40.6449C6.89386 40.7387 7.06542 40.7543 7.22138 40.7543C7.45533 40.77 7.72047 40.5511 7.70488 40.3479Z" fill="#1A1A1A"/>
<path d="M15.9865 53.026C15.7994 53.026 15.5498 53.2449 15.5498 53.4012C15.5498 53.6513 15.8773 54.0108 16.1269 54.0108C16.3296 54.0108 16.4544 53.8233 16.4544 53.4637C16.4388 53.2761 16.1893 53.026 15.9865 53.026Z" fill="#1A1A1A"/>
<path d="M25.0793 23.2614C25.0949 23.2458 25.0949 23.2458 25.1105 23.2302C25.2976 23.0113 25.1885 22.7925 25.0793 22.6049C25.0169 22.4798 24.8297 22.4016 24.7673 22.3547C24.4242 22.3704 24.2371 22.6518 24.2683 22.9488C24.315 23.152 24.9233 23.4021 25.0793 23.2614Z" fill="#1A1A1A"/>
<path d="M17.3589 54.1203C17.1874 54.1047 16.9846 54.0266 16.8442 54.0891C16.7195 54.136 16.6727 54.3548 16.5791 54.5112C16.6415 54.6675 16.6727 54.8394 16.7663 54.9332C16.8754 55.0583 17.2498 55.027 17.3433 54.9176C17.4213 54.8238 17.4993 54.2298 17.4213 54.1516C17.4057 54.1516 17.3901 54.1203 17.3589 54.1203Z" fill="#1A1A1A"/>
<path d="M42.6723 46.8198C42.4851 46.8198 42.2356 47.0856 42.2044 47.3201C42.1732 47.5389 42.3915 47.7422 42.6879 47.7578C42.8906 47.7734 43.1714 47.4764 43.187 47.2419C43.2026 47.1012 42.8594 46.8198 42.6723 46.8198Z" fill="#1A1A1A"/>
<path d="M19.1683 56.0118C18.9967 56.0118 18.7004 56.3089 18.6848 56.5121C18.6692 56.7153 18.9187 57.0123 19.1059 57.0123C19.293 57.0123 19.5738 56.684 19.5894 56.4496C19.605 56.262 19.371 56.0118 19.1683 56.0118Z" fill="#1A1A1A"/>
<path d="M4.74134 33.9699C4.74134 33.751 4.56978 33.5478 4.38262 33.5478C4.0395 33.5322 3.75876 33.7197 3.74316 33.9542C3.74316 34.048 4.11748 34.4545 4.22666 34.4701C4.44501 34.4701 4.72575 34.2044 4.74134 33.9699Z" fill="#1A1A1A"/>
<path d="M3.46243 29.9679C3.47803 29.6083 3.30647 29.3738 3.02573 29.3738C2.76059 29.3582 2.54224 29.5771 2.54224 29.8428C2.54224 30.0929 2.76059 30.2805 3.08812 30.2962C3.29087 30.2962 3.44684 30.1555 3.46243 29.9679Z" fill="#1A1A1A"/>
<path d="M29.7583 32.5161C29.3527 32.5161 29.1968 32.6412 29.1968 32.9538C29.1968 33.1883 29.3683 33.3603 29.6335 33.3603C29.9454 33.3603 30.117 33.2039 30.1326 32.9226C30.1326 32.5786 30.0702 32.5161 29.7583 32.5161Z" fill="#1A1A1A"/>
<path d="M23.3325 15.5389C23.3481 15.3044 23.0674 15.0073 22.8022 14.9761C22.5683 14.9448 22.3499 15.1324 22.3343 15.3513C22.3187 15.6014 22.6151 15.8515 22.9582 15.8671C23.083 15.8828 23.3169 15.6795 23.3325 15.5389Z" fill="#1A1A1A"/>
<path d="M26.8106 26.4036C26.8106 26.2317 26.4986 25.9816 26.2647 25.9816C26.1087 25.9816 25.8436 26.2786 25.828 26.4505C25.8124 26.6225 26.1087 26.9508 26.2803 26.9508C26.4207 26.9664 26.8106 26.56 26.8106 26.4036Z" fill="#1A1A1A"/>
<path d="M12.3525 48.3987C12.1654 48.3987 11.8066 48.7113 11.8066 48.8677C11.8066 49.1647 12.025 49.3679 12.3213 49.3523C12.5865 49.3367 12.7268 49.2116 12.7112 48.9771C12.7112 48.5706 12.5865 48.3987 12.3525 48.3987Z" fill="#1A1A1A"/>
<path d="M19.9325 56.9498C19.7454 56.9498 19.4802 57.2937 19.4802 57.5595C19.4802 57.6689 19.8078 57.8722 20.0105 57.8722C20.2133 57.8722 20.4316 57.6377 20.4472 57.3875C20.4628 57.1687 20.1977 56.9498 19.9325 56.9498Z" fill="#1A1A1A"/>
<path d="M24.2369 20.2131C24.2837 20.1662 24.3149 20.1037 24.3305 20.1037C24.2837 19.9005 24.2993 19.7129 24.2213 19.5878C24.1434 19.4784 23.9718 19.4315 23.8314 19.3846C23.6287 19.3064 23.4259 19.4315 23.4415 19.6504C23.4571 19.8067 23.4883 19.963 23.5507 20.0881C23.6131 20.26 24.0966 20.3382 24.2369 20.2131Z" fill="#1A1A1A"/>
<path d="M29.5243 31.8907C29.5555 31.6249 29.2748 31.2498 29.0408 31.2498C28.8537 31.2498 28.5261 31.5155 28.5261 31.6875C28.5261 31.9063 28.8381 32.1252 29.1812 32.1565C29.3371 32.1565 29.5087 32.0158 29.5243 31.8907Z" fill="#1A1A1A"/>
<path d="M23.5821 17.1179C23.7069 17.0397 23.7225 16.8678 23.5977 16.7896C23.4106 16.6645 23.2078 16.5864 23.0051 16.5082C22.9427 16.4926 22.8023 16.5238 22.7867 16.5707C22.7243 16.7427 22.6463 16.9303 22.6619 17.1023C22.6775 17.2899 22.8803 17.3367 23.161 17.3211C23.2546 17.2899 23.4262 17.2273 23.5821 17.1179Z" fill="#1A1A1A"/>
<path d="M23.0362 5.73735C23.0674 5.73735 23.083 5.75298 23.1765 5.78425C23.2389 5.75298 23.3793 5.72171 23.4573 5.62792C23.66 5.42469 23.4885 5.00261 23.1453 4.87755C22.9894 4.81502 22.8646 4.86192 22.771 4.98698C22.4279 5.44033 22.4903 5.61229 23.0362 5.73735Z" fill="#1A1A1A"/>
<path d="M14.1928 50.7123C14.0836 50.5872 13.8029 50.5716 13.7405 50.7123C13.6625 50.8843 13.6157 51.0875 13.6001 51.2751C13.6001 51.3532 13.7561 51.447 13.834 51.5252C13.99 51.6972 14.1148 51.5721 14.224 51.4939C14.3331 51.4001 14.4267 51.2907 14.5047 51.1969C14.4735 51.1188 14.4579 51.0875 14.4423 51.0719C14.3643 50.9468 14.2863 50.8374 14.1928 50.7123Z" fill="#1A1A1A"/>
<path d="M27.2315 27.9356C27.2783 27.8418 27.4031 27.7167 27.2627 27.5917C27.1224 27.4823 26.982 27.3885 26.8728 27.3259C26.5921 27.3416 26.3269 27.6698 26.4205 27.8418C26.5141 28.0294 26.5609 28.2795 26.826 28.3264C27.1692 28.3889 27.138 28.0919 27.2315 27.9356Z" fill="#1A1A1A"/>
<path d="M45.9944 48.7741C45.8072 48.7584 45.6512 48.9929 45.6045 49.3525C45.5733 49.5244 45.698 49.7589 45.8228 49.7433C45.9944 49.7276 46.1659 49.6495 46.3063 49.5557C46.3843 49.5088 46.3999 49.3837 46.4155 49.3525C46.4311 49.0242 46.2439 48.7897 45.9944 48.7741Z" fill="#1A1A1A"/>
<path d="M23.0049 13.9288C23.0049 13.8975 22.9893 13.8662 23.0049 13.8506C23.0205 13.663 22.9269 13.5848 22.771 13.491C22.5838 13.3972 22.5526 13.5536 22.459 13.6161C22.3654 13.6786 22.2875 13.7412 22.1939 13.8193C22.0535 13.9288 22.0379 14.1007 22.1315 14.1945C22.2875 14.3196 22.4902 14.3977 22.693 14.429C22.8489 14.429 23.0049 14.1476 23.0049 13.9288Z" fill="#1A1A1A"/>
<path d="M3.71209 31.0935C3.71209 30.7965 3.57172 30.6401 3.29098 30.6401C3.01024 30.6401 2.86987 30.7808 2.86987 31.0466C2.88547 31.3749 3.05703 31.6406 3.27538 31.625C3.40016 31.6406 3.71209 31.2342 3.71209 31.0935Z" fill="#1A1A1A"/>
<path d="M44.6998 48.1799C44.4502 48.1799 44.3254 48.3206 44.3254 48.5864C44.3254 48.9147 44.4346 49.0241 44.7465 49.0241C45.0741 49.0241 45.2456 48.899 45.2456 48.6489C45.2456 48.3832 44.9805 48.1799 44.6998 48.1799Z" fill="#1A1A1A"/>
<path d="M11.9468 47.6797C11.9312 47.4296 11.7441 47.3202 11.3229 47.3202C11.1358 47.3202 11.0266 47.4296 11.0266 47.6485C11.0266 47.8517 11.3073 48.2113 11.4789 48.2113C11.7596 48.2113 11.9624 47.9768 11.9468 47.6797Z" fill="#1A1A1A"/>
<path d="M38.6796 43.4901C38.3833 43.3494 38.1181 43.5214 38.1337 43.8653C38.1649 44.0216 38.1493 44.2405 38.3677 44.3187C38.5548 44.3812 39.0227 44.0373 39.0539 43.8341C39.1007 43.5214 38.82 43.5683 38.6796 43.4901Z" fill="#1A1A1A"/>
<path d="M24.783 21.3074C24.783 21.0572 24.5335 20.8384 24.2059 20.8228C24.05 20.8228 23.894 21.0103 23.8784 21.2292C23.8628 21.4324 24.2215 21.7763 24.4399 21.7607C24.5803 21.7607 24.783 21.5106 24.783 21.3074Z" fill="#1A1A1A"/>
<path d="M22.1626 8.31666C22.2562 8.56678 22.4745 8.61368 22.6617 8.41046C22.7241 8.34792 22.7864 8.26976 22.8488 8.1916C22.958 8.03527 22.9268 7.86331 22.8332 7.72262C22.7709 7.62882 22.6461 7.58192 22.6149 7.55066C22.1782 7.56629 22.0534 7.73825 22.1314 8.0978C22.147 8.17597 22.147 8.25413 22.1626 8.31666Z" fill="#1A1A1A"/>
<path d="M36.3401 41.3641C36.075 41.3641 35.9502 41.5517 35.9502 41.8644C35.9502 42.0989 36.0906 42.2239 36.3401 42.2083C36.6364 42.1927 36.8548 42.052 36.8548 41.8487C36.8704 41.6924 36.5117 41.3641 36.3401 41.3641Z" fill="#1A1A1A"/>
<path d="M2.69826 26.5756C2.69826 26.2785 2.52669 26.0909 2.24596 26.0909C2.0276 26.0909 1.90283 26.2785 1.90283 26.5756C1.90283 26.8726 2.07439 27.0602 2.35513 27.0445C2.58908 27.0289 2.69826 26.8726 2.69826 26.5756Z" fill="#1A1A1A"/>
<path d="M34.2812 38.5189C34.2812 38.2218 34.2032 38.1437 33.9224 38.1281C33.7509 38.1281 33.4233 38.4094 33.4233 38.5814C33.4233 38.8628 33.5949 39.0347 33.9224 39.0035C34.2188 38.9722 34.2968 38.9253 34.2812 38.5189Z" fill="#1A1A1A"/>
<path d="M37.4787 42.2239C37.3539 42.2239 37.0264 42.5834 37.0264 42.7241C37.0108 42.9586 37.1823 43.1462 37.4319 43.1462C37.7282 43.1462 37.9154 43.0211 37.9154 42.8023C37.931 42.5052 37.7126 42.2082 37.4787 42.2239Z" fill="#1A1A1A"/>
<path d="M2.94761 28.0138C2.90082 27.9356 2.82284 27.7949 2.71366 27.6855C2.57329 27.5292 2.38613 27.5448 2.30815 27.748C2.23017 27.9512 2.23017 28.1701 2.19897 28.389C2.19897 28.4202 2.26136 28.4671 2.29255 28.4984C2.41733 28.6078 2.5421 28.6547 2.69806 28.5453C2.88522 28.4358 2.96321 28.2952 2.94761 28.0138Z" fill="#1A1A1A"/>
<path d="M1.93383 20.0099C2.18338 20.0099 2.5109 19.7754 2.5265 19.5878C2.5421 19.4315 2.23017 19.2283 2.01181 19.2283C1.73108 19.2283 1.54392 19.3533 1.52832 19.5253C1.52832 19.7129 1.77787 20.0099 1.93383 20.0099Z" fill="#1A1A1A"/>
<path d="M47.3044 49.4618C47.086 49.4774 46.8833 49.7119 46.8677 49.962C46.8521 50.134 47.086 50.3685 47.2732 50.3841C47.5539 50.3997 47.7099 50.2121 47.6943 49.8995C47.6943 49.6025 47.5539 49.4461 47.3044 49.4618Z" fill="#1A1A1A"/>
<path d="M34.749 39.3006C34.5931 39.2224 34.4683 39.1911 34.3279 39.3318C34.2655 39.3944 34.1719 39.4569 34.1252 39.5351C34.0784 39.6132 34.0784 39.707 34.0784 39.8008C34.1096 40.0822 34.3591 39.9571 34.5151 40.0197C34.9206 40.176 34.9362 40.0197 34.983 39.6758C35.0142 39.4882 34.9206 39.3787 34.749 39.3006Z" fill="#1A1A1A"/>
<path d="M8.96812 42.9743C8.81215 42.8336 8.6094 42.7398 8.46903 42.646C8.21948 42.6304 8.1259 42.7398 8.1415 42.943C8.1415 43.0212 8.17269 43.115 8.1415 43.1931C8.09471 43.3495 8.18829 43.3964 8.29747 43.4589C8.53142 43.584 8.70298 43.4433 8.90573 43.3338C9.09289 43.2088 9.01491 43.0368 8.96812 42.9743Z" fill="#1A1A1A"/>
<path d="M9.96616 45.0377C9.8102 45.0377 9.49827 45.3816 9.49827 45.5536C9.48267 45.7881 9.59185 45.8662 9.91937 45.8662C10.2157 45.8662 10.4185 45.7256 10.4185 45.5067C10.4185 45.3347 10.1377 45.0377 9.96616 45.0377Z" fill="#1A1A1A"/>
<path d="M25.9371 60.9049C25.6563 60.9049 25.5627 60.9831 25.5627 61.2645C25.5627 61.5927 25.6875 61.7491 25.9371 61.7647C26.171 61.7803 26.3582 61.5458 26.3738 61.2176C26.3738 61.0612 26.1866 60.9049 25.9371 60.9049Z" fill="#1A1A1A"/>
<path d="M6.83131 39.0191C6.73773 38.8941 6.61296 38.7065 6.47259 38.6909C6.34782 38.6596 6.19185 38.8003 6.03589 38.8785C6.00469 38.8941 6.00469 38.9566 5.9735 38.9879C5.84873 39.0973 5.80194 39.238 5.87992 39.3631C5.94231 39.4412 6.08268 39.4725 6.19185 39.5194C6.45699 39.5507 6.59736 39.3631 6.75333 39.2536C6.81572 39.2067 6.86251 39.066 6.83131 39.0191Z" fill="#1A1A1A"/>
<path d="M35.5912 40.1603C35.3885 40.1759 35.1389 40.4729 35.1545 40.6918C35.1701 40.8794 35.3573 41.0826 35.5132 41.0826C35.7628 41.067 35.9967 40.8481 35.9811 40.6449C35.9343 40.301 35.8252 40.1603 35.5912 40.1603Z" fill="#1A1A1A"/>
<path d="M23.3637 59.2479C23.1142 59.2323 22.8491 59.4668 22.8491 59.6856C22.8335 59.9045 23.0206 60.0765 23.2858 60.0765C23.5509 60.0765 23.7381 59.9514 23.7537 59.7638C23.7537 59.6388 23.4729 59.2479 23.3637 59.2479Z" fill="#1A1A1A"/>
<path d="M27.4655 28.514C27.3407 28.4984 27.0288 28.811 27.0288 28.9517C27.0132 29.2175 27.1535 29.3425 27.4343 29.3425C27.7618 29.3582 27.8554 29.28 27.8866 29.0142C27.9022 28.8579 27.6214 28.5296 27.4655 28.514Z" fill="#1A1A1A"/>
<path d="M11.1828 46.7417C11.1984 46.5385 10.9177 46.2727 10.6837 46.2727C10.481 46.2727 10.3562 46.3821 10.3562 46.5697C10.3562 46.9918 10.4498 47.1325 10.7149 47.1481C10.9333 47.1481 11.1672 46.9449 11.1828 46.7417Z" fill="#1A1A1A"/>
<path d="M2.29273 18.6186C2.57347 18.6186 2.69824 18.5091 2.69824 18.259C2.69824 18.0558 2.44869 17.79 2.24594 17.79C2.04318 17.79 1.87162 18.0558 1.88722 18.3528C1.88722 18.5091 2.05878 18.6186 2.29273 18.6186Z" fill="#1A1A1A"/>
<path d="M22.8645 6.95667C23.114 6.95667 23.1608 6.89414 23.1608 6.58148C23.1608 6.28446 23.0829 6.2063 22.7553 6.2063C22.537 6.2063 22.3498 6.37826 22.3654 6.58148C22.3654 6.80034 22.5838 6.9723 22.8645 6.95667Z" fill="#1A1A1A"/>
<path d="M14.8323 51.838C14.8011 51.838 14.7699 51.8536 14.7543 51.8692C14.7075 52.0256 14.5983 52.1819 14.6295 52.3382C14.6451 52.4633 14.8011 52.5883 14.9103 52.6665C15.0662 52.7603 15.4406 52.5102 15.4406 52.3382C15.4562 52.135 15.0351 51.7911 14.8323 51.838Z" fill="#1A1A1A"/>
<path d="M32.862 37.0494C32.6749 36.9712 32.4409 37.3151 32.4409 37.5965C32.4409 37.7841 32.5189 37.8623 32.784 37.8623C33.0648 37.8623 33.3299 37.6747 33.2519 37.4714C33.1895 37.2995 33.0336 37.1119 32.862 37.0494Z" fill="#1A1A1A"/>
<path d="M23.9251 18.4934C23.9251 18.3371 23.6911 18.1026 23.504 18.087C23.3012 18.0713 23.0828 18.2589 23.0984 18.4622C23.114 18.681 23.3168 18.9311 23.504 18.9311C23.6443 18.9468 23.9251 18.6497 23.9251 18.4934Z" fill="#1A1A1A"/>
<path d="M41.8924 46.2258C41.6741 46.2258 41.4246 46.4447 41.4401 46.6166C41.4557 46.8824 41.5961 47.0544 41.7833 47.0544C42.0016 47.0387 42.2668 46.7417 42.2512 46.5072C42.2356 46.3509 42.0796 46.2258 41.8924 46.2258Z" fill="#1A1A1A"/>
<path d="M22.4123 10.3959C22.2564 10.4272 22.0848 10.7242 22.116 10.9431C22.1316 11.0838 22.4747 11.3182 22.6307 11.3026C22.8023 11.287 22.8646 11.1619 22.8334 10.9431C22.7867 10.5991 22.5995 10.349 22.4123 10.3959Z" fill="#1A1A1A"/>
<path d="M13.4131 49.5712C13.2572 49.5712 13.1012 49.665 12.9608 49.7431C12.914 49.7744 12.914 49.8994 12.8984 49.9307C12.8984 50.2434 13.0232 50.3841 13.3039 50.3841C13.5067 50.3997 13.6471 50.1965 13.6627 49.9151C13.6627 49.7119 13.5535 49.5712 13.4131 49.5712Z" fill="#1A1A1A"/>
<path d="M28.1985 29.874C28.1829 29.874 28.1361 29.8897 28.1049 29.9053C28.0113 29.9522 27.8709 30.2961 27.9021 30.4212C27.9333 30.5462 28.2453 30.812 28.37 30.7807C28.4168 30.7651 28.4792 30.7182 28.5104 30.6713C28.5572 30.5931 28.5884 30.4993 28.6196 30.4055C28.6664 30.2179 28.4012 29.874 28.1985 29.874Z" fill="#1A1A1A"/>
<path d="M2.80744 17.4461C2.93221 17.4618 3.27534 17.1804 3.29093 17.0553C3.30653 16.899 3.07258 16.7427 2.80744 16.7114C2.63588 16.6958 2.47991 16.8208 2.46431 16.9928C2.44872 17.2273 2.58909 17.4305 2.80744 17.4461Z" fill="#1A1A1A"/>
<path d="M23.4885 4.56493C23.5977 4.56493 23.9252 4.26791 23.9252 4.17412C23.9408 3.98653 23.7536 3.84583 23.5197 3.8302C23.3949 3.8302 23.1921 4.01779 23.1921 4.15849C23.2077 4.29918 23.3793 4.56493 23.4885 4.56493Z" fill="#1A1A1A"/>
<path d="M35.03 53.7921C32.8464 52.6353 30.9281 51.1033 29.1345 49.3993C28.1051 48.4301 27.1381 47.3983 26.2023 46.3197C24.783 44.6782 23.4729 42.9587 22.2564 41.1765C20.5875 38.7222 19.1215 36.1428 17.8425 33.454C16.7508 31.1873 15.8306 28.858 15.0664 26.4506C14.6297 25.0436 14.2553 23.6054 13.959 22.1516C13.803 21.3387 13.6939 20.5102 13.5847 19.6817C13.5067 19.1032 13.4443 18.5248 13.4287 17.9464C13.3975 17.1648 13.3975 16.3832 13.4287 15.6015C13.4599 14.9762 13.5535 14.3666 13.6315 13.7569C13.6783 13.4286 13.7718 13.1003 13.8342 12.772C13.8342 12.7408 13.8342 12.6782 13.803 12.6626C13.7874 12.647 13.7251 12.6626 13.6939 12.6782C13.6315 12.7095 13.5691 12.7408 13.5067 12.7877C12.3526 13.4442 11.214 14.1164 10.0599 14.773C9.35801 15.1795 8.81213 15.7422 8.40662 16.4457C7.78276 17.54 7.53322 18.7437 7.45523 19.963C7.36165 21.5107 7.42404 23.0427 7.68918 24.5747C7.86074 25.6377 8.0635 26.6851 8.32864 27.7168C9.07728 30.6401 10.1378 33.4384 11.4012 36.1741C13.0232 39.6758 14.9572 42.9899 17.1875 46.1321C18.2481 47.6172 19.3866 49.0554 20.5875 50.4154C21.5389 51.4784 22.5371 52.5102 23.5977 53.4638C24.6271 54.3861 25.7032 55.2615 26.8574 56.0275C27.9959 56.7779 29.1968 57.4345 30.5226 57.8253C30.7409 57.8878 30.9593 57.9347 31.1308 57.9816C31.9574 57.8722 32.6905 57.7002 33.3767 57.2938C33.8914 56.9968 34.3905 56.6685 34.8896 56.3558C35.6382 55.8868 36.4025 55.4179 37.1511 54.9489C37.1979 54.9176 37.2291 54.8863 37.2759 54.8395C37.2291 54.8082 37.1823 54.7769 37.1355 54.7613C36.4648 54.4486 35.7318 54.1516 35.03 53.7921Z" fill="#F9F5F2"/>
<path d="M41.7676 52.1507C42.2043 51.8693 42.6566 51.6035 43.0933 51.3222C43.4832 51.072 43.4832 51.072 43.0621 50.8375C42.9061 50.7438 42.7346 50.6656 42.5786 50.5718C39.662 48.8678 37.073 46.7574 34.6711 44.4125C32.9555 42.7398 31.3803 40.9421 29.8986 39.0662C28.0426 36.7056 26.3894 34.2044 24.9233 31.5938C23.27 28.6392 21.8819 25.5752 20.8526 22.3392C20.3379 20.7603 19.9012 19.1502 19.6204 17.5088C19.4957 16.7271 19.3865 15.9455 19.2773 15.1639C19.1681 14.4135 19.1058 13.6788 19.1214 12.9284C19.1214 12.522 19.1058 12.0999 19.1214 11.6934C19.1369 11.2244 19.1681 10.7555 19.1993 10.3021C19.2149 10.1458 19.1681 10.0676 18.9966 10.0676C18.5443 10.0676 18.1388 10.1771 17.7489 10.3959C17.0782 10.7867 16.4076 11.1932 15.7213 11.5527C15.3938 11.7247 15.2222 11.9592 15.113 12.3031C14.6139 13.7882 14.4736 15.3046 14.4424 16.8522C14.458 17.9152 14.5516 18.9626 14.6919 20.0256C14.8167 21.0574 15.0039 22.0891 15.2378 23.1052C15.9085 25.9817 16.8754 28.7643 18.0608 31.4687C19.1525 33.9699 20.4315 36.3774 21.8819 38.691C23.8159 41.8019 25.9994 44.7252 28.5573 47.3515C30.1793 49.0398 31.9261 50.5874 33.8757 51.8849C35.217 52.776 36.6363 53.542 38.1804 54.0266C38.4611 54.1204 38.6794 54.1048 38.929 53.9484C39.8648 53.3075 40.8162 52.7291 41.7676 52.1507Z" fill="#F9F5F2"/>
<path d="M21.3829 14.6323C21.5857 15.9767 21.8664 17.2898 22.2251 18.603C23.0362 21.6513 24.1747 24.5746 25.5316 27.4198C27.0757 30.687 28.9161 33.7823 30.9904 36.7368C32.3317 38.644 33.7666 40.4574 35.3262 42.177C36.418 43.3807 37.5566 44.5063 38.7731 45.5849C40.1612 46.8199 41.6273 47.9454 43.2181 48.899C44.8557 49.8839 46.5558 50.6655 48.4585 50.9625C48.5053 50.9782 48.5677 50.9782 48.6145 50.9782C48.5989 50.9782 48.5989 50.9625 48.5833 50.9625C48.5365 50.9313 48.5053 50.8687 48.4585 50.8531C48.3494 50.7749 48.1622 50.7124 48.2402 50.5404C48.3182 50.3685 48.3182 50.1027 48.6145 50.1184C48.7081 50.1184 48.8017 50.0558 48.8641 50.0402C49.0512 50.0402 49.2384 50.2278 49.2072 50.3685C49.1448 50.5561 49.0668 50.7593 48.9732 50.9313C48.942 50.9625 48.9264 50.9938 48.8953 51.0251C49.1604 51.0407 49.4255 51.0094 49.6751 50.9469C49.6595 50.9156 49.6595 50.8844 49.6595 50.8531C49.6595 50.7124 49.9246 50.4779 50.065 50.4936C50.143 50.4936 50.2677 50.5561 50.3769 50.6342C50.4705 50.5717 50.5485 50.4936 50.6265 50.4154C50.6889 50.3685 50.6889 50.2903 50.5953 50.2591C50.5017 50.2278 50.4081 50.1965 50.3145 50.1809C49.0512 49.8213 47.8503 49.2742 46.7117 48.6333C44.4034 47.3358 42.3603 45.6943 40.4419 43.8653C39.3346 42.8023 38.274 41.708 37.2758 40.5512C36.1373 39.2381 35.0455 37.878 34.0317 36.4711C32.4565 34.3138 31.0372 32.047 29.7427 29.7021C27.8243 26.2161 26.2334 22.5893 25.0637 18.7906C24.627 17.368 24.2527 15.9454 24.0031 14.476C23.8784 13.6943 23.7536 12.9127 23.66 12.1311C23.582 11.5214 23.5352 10.8961 23.5041 10.2708C23.4729 9.70801 23.4729 9.1296 23.5041 8.56683C23.5508 7.91026 23.6444 7.25369 23.7224 6.58148C23.738 6.37826 23.738 6.14377 23.8004 5.95618C24.0967 5.06512 24.3307 4.14279 24.7986 3.31426C24.8142 3.283 24.7986 3.25173 24.7986 3.20483C24.7518 3.20483 24.7206 3.20483 24.6738 3.22047C24.2995 3.39243 23.9252 3.56438 23.5664 3.75198C23.4417 3.81451 23.3325 3.9083 23.2389 4.0021C22.5059 4.73683 22.0224 5.62789 21.6949 6.59712C21.1958 8.01969 21.0866 9.48915 21.0398 11.0993C21.0554 11.2713 21.1022 11.5683 21.1022 11.8653C21.1334 12.7876 21.2581 13.71 21.3829 14.6323ZM47.3044 49.4618C47.5383 49.4462 47.6943 49.6181 47.6943 49.8839C47.6943 50.2122 47.5384 50.3841 47.2732 50.3685C47.0861 50.3685 46.8677 50.134 46.8677 49.9464C46.8989 49.6963 47.086 49.4774 47.3044 49.4618ZM45.6044 49.368C45.6512 48.9928 45.8071 48.774 45.9943 48.7896C46.2438 48.8052 46.431 49.0241 46.4154 49.3836C46.3998 49.3993 46.3842 49.54 46.3062 49.5869C46.1659 49.6807 45.9787 49.7588 45.8227 49.7744C45.698 49.7744 45.5732 49.5243 45.6044 49.368ZM44.6998 48.1799C44.9961 48.1799 45.2457 48.3831 45.2457 48.6333C45.2457 48.8834 45.0741 49.0084 44.7466 49.0084C44.4346 49.0084 44.3255 48.899 44.3255 48.5707C44.3099 48.3206 44.4346 48.1799 44.6998 48.1799ZM43.5144 47.3983C43.6548 47.4296 43.7484 47.4452 43.8264 47.4608C44.0603 47.4765 44.2007 47.5702 44.2007 47.7422C44.2163 47.9923 44.0603 48.2268 43.8576 48.2581C43.7016 48.2894 43.5612 48.3206 43.4053 48.3363C43.1557 48.3519 42.9998 48.1174 43.1089 47.8829C43.1557 47.8047 43.1713 47.6953 43.2337 47.6328C43.3273 47.5234 43.4365 47.4452 43.5144 47.3983ZM42.6722 46.8199C42.8594 46.8199 43.1869 47.1013 43.1869 47.2576C43.1713 47.4921 42.8906 47.7891 42.6878 47.7735C42.3915 47.7422 42.1731 47.5546 42.2043 47.3358C42.2511 47.0856 42.5007 46.8042 42.6722 46.8199ZM41.8924 46.2258C42.064 46.2258 42.2355 46.3665 42.2511 46.5072C42.2667 46.7417 42.0016 47.0387 41.7832 47.0544C41.5961 47.07 41.4557 46.8824 41.4401 46.6167C41.4401 46.4447 41.6896 46.2258 41.8924 46.2258ZM40.208 45.3191C40.2236 45.2566 40.3015 45.1785 40.3795 45.1472C40.6291 45.0378 41.2217 45.3817 41.2529 45.6474C41.2841 45.8507 41.1282 46.0226 40.9098 46.007C40.8474 46.007 40.7694 46.007 40.7071 46.007C40.3795 45.9601 40.13 45.6474 40.208 45.3191ZM39.5997 44.178C39.8492 44.2092 40.0676 44.4281 40.0676 44.6782C40.052 44.9127 39.8337 45.1159 39.5841 45.1003C39.3346 45.1003 39.0694 44.8345 39.0694 44.6C39.0694 44.3968 39.319 44.1311 39.5997 44.178ZM38.6795 43.4901C38.8355 43.5683 39.1006 43.5214 39.0538 43.834C39.0226 44.0373 38.5703 44.3812 38.3676 44.3187C38.1492 44.2405 38.1492 44.0216 38.1336 43.8653C38.118 43.5214 38.3832 43.3494 38.6795 43.4901ZM37.4786 42.2239C37.7125 42.2239 37.9309 42.5053 37.9153 42.7867C37.9153 43.0055 37.7281 43.1306 37.4318 43.1306C37.1822 43.1306 37.0107 42.943 37.0263 42.7085C37.0419 42.5678 37.3538 42.2239 37.4786 42.2239ZM22.116 14.1789C22.0068 14.1008 22.038 13.9132 22.1783 13.8038C22.2719 13.7412 22.3499 13.6631 22.4435 13.6005C22.5371 13.538 22.5683 13.3817 22.7554 13.4755C22.9114 13.5536 23.005 13.6474 22.9894 13.835C22.9894 13.8663 22.9894 13.8976 22.9894 13.9132C22.9894 14.132 22.8334 14.4134 22.6774 14.3978C22.4903 14.3822 22.2719 14.304 22.116 14.1789ZM22.3343 15.367C22.3499 15.1482 22.5683 14.9606 22.8022 14.9918C23.0673 15.0231 23.3481 15.3201 23.3325 15.5546C23.3169 15.6797 23.0829 15.8985 22.9582 15.8985C22.615 15.8516 22.3187 15.6015 22.3343 15.367ZM36.34 41.3641C36.5272 41.3641 36.8703 41.6924 36.8703 41.8643C36.8703 42.0519 36.652 42.2083 36.3556 42.2239C36.1061 42.2395 35.9657 42.1145 35.9657 41.88C35.9501 41.5517 36.0749 41.3797 36.34 41.3641ZM35.5914 40.1604C35.8253 40.1447 35.9345 40.3011 35.9813 40.645C36.0125 40.8482 35.7629 41.0671 35.5134 41.0827C35.3574 41.0983 35.1703 40.8951 35.1547 40.6919C35.1391 40.473 35.3886 40.176 35.5914 40.1604ZM34.7492 39.3006C34.9207 39.3787 35.0143 39.4882 34.9987 39.6758C34.9363 40.0197 34.9207 40.176 34.5308 40.0197C34.3749 39.9572 34.1253 40.0822 34.0941 39.8008C34.0785 39.7227 34.0941 39.6132 34.1409 39.5351C34.1877 39.4569 34.2813 39.3944 34.3437 39.3319C34.4684 39.1912 34.5932 39.2381 34.7492 39.3006ZM33.9226 38.1281C34.2033 38.1281 34.2813 38.2219 34.2813 38.519C34.2969 38.9254 34.2189 38.9723 33.9226 39.0036C33.6106 39.0348 33.4235 38.8629 33.4235 38.5815C33.4235 38.4252 33.751 38.1281 33.9226 38.1281ZM32.862 37.0495C33.018 37.112 33.1895 37.2996 33.2519 37.4716C33.3299 37.6748 33.0647 37.8624 32.784 37.8624C32.5345 37.8624 32.4409 37.7999 32.4409 37.5966C32.4409 37.2996 32.6748 36.9713 32.862 37.0495ZM32.4253 36.5492C32.4097 36.5805 32.3473 36.7681 32.2537 36.815C32.0822 36.8932 31.8638 36.8932 31.7702 36.643C31.7234 36.5492 31.5519 36.5492 31.5831 36.3617C31.6143 36.049 31.7078 35.8458 31.895 35.8301C32.2069 35.8145 32.4565 36.0803 32.4253 36.5492ZM31.1308 34.7984C31.4583 34.6733 31.739 34.8922 31.739 35.3299C31.8014 35.5175 31.6455 35.5956 31.5051 35.6425C31.3647 35.6894 31.2711 35.9239 31.0684 35.7676C30.8656 35.6269 30.8812 35.4393 30.8968 35.2361C30.928 35.0641 30.9124 34.8922 31.1308 34.7984ZM30.6005 33.7041C30.8812 33.7197 30.9904 33.8448 30.9748 34.1418C30.9748 34.4076 30.7253 34.6264 30.3977 34.6264C30.1794 34.6264 30.0546 34.4701 30.0546 34.2043C30.0546 33.9073 30.2886 33.6885 30.6005 33.7041ZM30.1326 32.9381C30.1326 33.2195 29.9454 33.3758 29.6335 33.3758C29.384 33.3758 29.2124 33.2039 29.1968 32.9694C29.1968 32.6411 29.3528 32.516 29.7583 32.5317C30.0702 32.516 30.1326 32.5786 30.1326 32.9381ZM29.0408 31.2341C29.2748 31.2498 29.5555 31.6093 29.5243 31.8751C29.5087 32.0158 29.3372 32.1565 29.1968 32.1408C28.8537 32.1096 28.5417 31.8751 28.5417 31.6719C28.5417 31.5155 28.8693 31.2341 29.0408 31.2341ZM28.105 29.9054C28.1362 29.8897 28.183 29.8741 28.1986 29.8741C28.4014 29.8741 28.6665 30.218 28.6041 30.4056C28.5729 30.4994 28.5417 30.5932 28.495 30.6714C28.4638 30.7183 28.4014 30.7652 28.3546 30.7808C28.2298 30.8121 27.9179 30.5463 27.8867 30.4213C27.8711 30.2962 27.9959 29.9679 28.105 29.9054ZM27.8867 29.0143C27.8711 29.2801 27.7619 29.3582 27.4344 29.3426C27.138 29.327 27.0133 29.2175 27.0289 28.9518C27.0289 28.8111 27.3408 28.5141 27.4656 28.5141C27.6215 28.5297 27.9023 28.858 27.8867 29.0143ZM27.2628 27.5917C27.4032 27.7012 27.2784 27.8262 27.2316 27.9357C27.1381 28.092 27.1692 28.389 26.8417 28.3265C26.561 28.2796 26.5298 28.0295 26.4362 27.8419C26.3426 27.6699 26.5922 27.3416 26.8885 27.326C26.9821 27.3885 27.1225 27.4823 27.2628 27.5917ZM26.8105 26.4037C26.8105 26.56 26.4206 26.9508 26.2802 26.9508C26.1087 26.9508 25.8123 26.6069 25.8279 26.4506C25.8435 26.2786 26.1243 25.9816 26.2646 25.9816C26.4986 25.9816 26.8261 26.2317 26.8105 26.4037ZM26.2179 25.4657C26.2179 25.6846 25.9527 25.8878 25.6876 25.8878C25.516 25.8878 25.2977 25.6689 25.3133 25.5126C25.3289 25.1999 25.6096 24.8404 25.8435 24.856C26.0619 24.856 26.2179 25.1218 26.2179 25.4657ZM25.7967 23.9806C25.8123 24.1682 25.516 24.5746 25.3756 24.5434C25.2041 24.5121 25.0325 24.4183 24.8921 24.3245C24.8142 24.2776 24.783 24.1369 24.7674 24.0431C24.7362 23.8868 25.1105 23.5898 25.3288 23.5898C25.5316 23.5742 25.7811 23.7774 25.7967 23.9806ZM25.0949 22.6049C25.1885 22.7925 25.2977 23.027 25.1261 23.2302C25.1105 23.2459 25.1105 23.2459 25.0949 23.2615C24.9389 23.3866 24.3307 23.1521 24.2995 22.9489C24.2527 22.6518 24.4554 22.3704 24.7986 22.3548C24.8454 22.4017 25.0169 22.4799 25.0949 22.6049ZM24.783 21.3074C24.783 21.5106 24.5958 21.7608 24.4398 21.7608C24.2215 21.7764 23.8784 21.4325 23.8784 21.2293C23.894 21.0104 24.0499 20.8228 24.2059 20.8228C24.5334 20.8541 24.783 21.0573 24.783 21.3074ZM24.2215 19.5878C24.2995 19.6973 24.2995 19.8849 24.3307 20.1037C24.3151 20.1193 24.2839 20.1819 24.2371 20.2131C24.0967 20.3226 23.6132 20.2444 23.5352 20.0881C23.4729 19.9474 23.4417 19.7911 23.4261 19.6504C23.4105 19.4471 23.6132 19.3064 23.816 19.3846C23.9719 19.4315 24.1435 19.4784 24.2215 19.5878ZM23.9252 18.4936C23.9252 18.6499 23.6444 18.9469 23.5041 18.9469C23.3169 18.9469 23.1141 18.6968 23.0985 18.4779C23.0985 18.2747 23.3013 18.0871 23.5041 18.1027C23.6912 18.1027 23.9252 18.3372 23.9252 18.4936ZM23.5976 16.8052C23.7224 16.8834 23.7068 17.0553 23.582 17.1335C23.4261 17.2429 23.2389 17.3055 23.1609 17.3524C22.8802 17.368 22.693 17.3055 22.6618 17.1335C22.6462 16.9616 22.7242 16.774 22.7866 16.602C22.8022 16.5551 22.9426 16.5238 23.005 16.5395C23.2077 16.602 23.4261 16.6802 23.5976 16.8052ZM23.5196 3.83014C23.7536 3.83014 23.9252 3.98647 23.9252 4.17406C23.9252 4.26785 23.5976 4.54924 23.4885 4.56487C23.3793 4.56487 23.2077 4.29912 23.2077 4.15842C23.2077 4.01773 23.3949 3.83014 23.5196 3.83014ZM22.771 4.98695C22.8646 4.86189 22.9738 4.815 23.1453 4.87753C23.4729 5.00259 23.66 5.42467 23.4573 5.62789C23.3793 5.70606 23.2545 5.73732 23.1765 5.78422C23.0985 5.75295 23.0673 5.75295 23.0362 5.73732C22.4903 5.61226 22.4279 5.4403 22.771 4.98695ZM22.7554 6.2063C23.0829 6.2063 23.1609 6.28446 23.1609 6.58148C23.1609 6.89414 23.1141 6.95667 22.8646 6.95667C22.5683 6.95667 22.3499 6.80034 22.3499 6.58148C22.3499 6.37826 22.5215 6.2063 22.7554 6.2063ZM22.5995 7.56634C22.6462 7.5976 22.7554 7.6445 22.8178 7.7383C22.927 7.87899 22.9582 8.05095 22.8334 8.20728C22.771 8.28544 22.7086 8.34797 22.6462 8.42613C22.4747 8.61373 22.2407 8.56683 22.1472 8.33234C22.1316 8.26981 22.1316 8.19164 22.116 8.12911C22.038 7.76956 22.1783 7.58197 22.5995 7.56634ZM22.4279 8.89511C22.6462 8.89511 22.9114 9.1765 22.8958 9.39536C22.8958 9.61421 22.5839 9.8956 22.3499 9.8956C22.1939 9.8956 21.9288 9.59858 21.9288 9.42662C21.9288 9.2234 22.2251 8.91075 22.4279 8.89511ZM22.6306 11.3025C22.4747 11.3182 22.1316 11.068 22.116 10.943C22.0848 10.7398 22.2563 10.4271 22.4123 10.3958C22.5995 10.3489 22.7866 10.5991 22.8334 10.9586C22.8646 11.1618 22.7866 11.2869 22.6306 11.3025ZM22.1472 11.9122C22.4279 11.8028 22.5995 11.8653 22.7086 12.1154C22.7866 12.2874 22.849 12.4594 22.9114 12.6C22.9114 12.6782 22.9114 12.7095 22.8958 12.7407C22.8646 12.8502 22.5215 13.0221 22.3187 13.0065C22.1316 12.9909 22.0068 12.8971 21.9756 12.6938C21.96 12.6 21.96 12.5063 21.9288 12.4125C21.8352 12.0685 21.8508 12.0216 22.1472 11.9122Z" fill="#F9F5F2"/>
<path d="M4.32033 25.1842C4.50749 26.3254 4.75704 27.451 5.05337 28.5765C5.87999 31.6561 7.01854 34.6107 8.39104 37.4715C10.0443 40.9576 12.0094 44.2561 14.2709 47.3826C15.4875 49.0709 16.7976 50.6967 18.2013 52.2287C19.2774 53.4168 20.416 54.5423 21.6169 55.6053C22.6619 56.5277 23.7381 57.3875 24.8766 58.1691C26.4051 59.2165 28.0271 60.1075 29.8051 60.6547C31.0996 61.0455 32.4098 61.2487 33.7667 60.9517C34.141 60.8735 34.4841 60.7172 34.8428 60.5922C34.952 60.5453 34.9832 60.4827 34.8896 60.3733C34.6089 59.9825 34.3281 59.5917 34.0786 59.1852C33.985 59.0445 33.8914 58.9976 33.7199 59.0602C33.6575 59.0914 33.5795 59.0758 33.5171 59.0914C32.6749 59.2477 31.8327 59.2165 30.9905 59.0289C29.5868 58.7319 28.2923 58.1222 27.0757 57.3875C25.1418 56.2306 23.4261 54.7768 21.8197 53.1979C20.6811 52.0724 19.605 50.8843 18.6068 49.6493C17.2343 47.961 15.9554 46.1945 14.77 44.3655C12.7737 41.2546 11.0269 38.0186 9.60757 34.5951C8.23507 31.281 7.12772 27.8887 6.64422 24.3088C6.55064 23.5897 6.45706 22.8862 6.41027 22.1671C6.34789 20.9009 6.39468 19.6503 6.65982 18.4153C6.95615 17.024 7.45524 15.7265 8.50021 14.726C8.64058 14.5853 8.74976 14.4134 8.90572 14.3039C9.15527 14.1163 9.42041 13.96 9.66996 13.788C9.88831 13.6317 9.95069 13.4754 9.82592 13.2565C9.76354 13.1315 9.63876 13.0064 9.51399 12.9283C9.15527 12.6938 8.73416 12.7563 8.35984 12.8501C7.40845 13.0689 6.58184 13.5536 5.92678 14.3039C5.31851 14.9918 4.89741 15.789 4.60107 16.6488C4.10198 18.087 3.99281 19.5721 3.93042 21.1979C3.94602 21.3699 3.97721 21.6669 3.99281 21.9639C3.99281 23.0113 4.14877 24.1056 4.32033 25.1842Z" fill="#F9F5F2"/>
<path d="M22.2562 60.217C23.7223 61.1863 25.2508 62.0148 26.9508 62.5307C27.0132 62.5463 27.06 62.5619 27.1224 62.5776C27.4187 62.6557 27.6994 62.7183 27.9334 62.7808C28.1517 62.7651 28.2921 62.7339 28.4325 62.7339C28.5572 62.7339 28.6664 62.7183 28.7756 62.7026C28.8068 62.7026 28.838 62.687 28.8692 62.687C28.838 62.687 28.8068 62.7026 28.7756 62.7026C28.7756 62.7026 28.7756 62.7026 28.76 62.7026C28.4637 62.7183 28.2765 62.5776 28.2765 62.3587C28.2765 62.2962 28.2921 62.2336 28.3233 62.1711C28.4169 61.9835 28.6196 61.8272 28.8536 61.8116C28.916 61.8116 28.9939 61.8272 29.0875 61.8741C29.2279 61.9523 29.3371 62.0773 29.3527 62.1555C29.3527 62.218 29.3527 62.2805 29.3371 62.3431C29.2903 62.4681 29.1967 62.5776 29.0407 62.6245C29.2123 62.5776 29.3839 62.515 29.5554 62.4369C29.6646 62.39 29.7894 62.3118 29.8674 62.218C29.8986 62.1711 29.9297 62.1398 29.9453 62.0929C30.0077 61.921 29.9297 61.749 29.727 61.6709C29.6958 61.6552 29.649 61.6396 29.6022 61.6396C29.571 61.6396 29.5398 61.624 29.5242 61.624C28.3233 61.2644 27.1847 60.7329 26.093 60.1232C23.8159 58.8414 21.7883 57.2156 19.8856 55.4178C18.014 53.6357 16.2827 51.6972 14.6919 49.6494C12.4616 46.7886 10.4964 43.7559 8.7808 40.5512C6.78443 36.8619 5.1468 32.9693 4.05504 28.8736C3.7587 27.7637 3.49356 26.6694 3.322 25.5282C3.22842 24.8873 3.13484 24.2463 3.05686 23.6054C2.99447 23.0426 2.93208 22.4798 2.91649 21.9171C2.88529 21.323 2.88529 20.729 2.91649 20.1349C2.94768 19.494 3.01007 18.8374 3.11924 18.1965C3.25961 17.3523 3.47796 16.5082 3.80549 15.7109C3.83668 15.6484 3.80549 15.5858 3.80549 15.5233C3.7431 15.5546 3.68072 15.5702 3.61833 15.6171C3.05686 16.1017 2.55777 16.6332 2.21464 17.2898C1.54399 18.5717 1.23206 19.963 1.12288 21.3856C1.06049 22.1828 1.0137 22.9957 1.07609 23.8086C1.15407 24.7309 1.21646 25.6376 1.35683 26.5443C1.55958 27.8887 1.84032 29.2019 2.19904 30.515C3.01007 33.5634 4.14861 36.4867 5.50552 39.3318C7.04958 42.599 8.88997 45.6943 10.9643 48.6489C12.3056 50.5561 13.7405 52.3694 15.3002 54.089C16.3763 55.2771 17.5149 56.4027 18.7158 57.4657C19.8388 58.4505 21.0085 59.3885 22.2562 60.217ZM26.9196 61.4989C27.0444 61.3426 27.1691 61.155 27.4343 61.2488C27.4655 61.2644 27.5123 61.2644 27.5435 61.28C27.6526 61.3269 27.8398 61.7959 27.8242 61.9366C27.7774 62.2024 27.6526 62.2962 27.3563 62.2962C27.2159 62.2805 27.0132 62.3431 26.9664 62.1398C26.9196 61.921 26.748 61.7178 26.9196 61.4989ZM25.937 60.9049C26.1866 60.9049 26.3893 61.0456 26.3737 61.2332C26.3581 61.5614 26.171 61.7959 25.937 61.7803C25.6875 61.7647 25.5627 61.5927 25.5627 61.28C25.5627 60.9987 25.6407 60.9205 25.937 60.9049ZM24.393 60.0138C24.5489 59.9982 24.9388 60.3108 24.9388 60.4515C24.9544 60.7329 24.6737 61.0143 24.393 61.0143C24.1278 61.0143 23.9563 60.8423 23.9563 60.5609C23.9563 60.4046 24.2526 60.0294 24.393 60.0138ZM23.3636 59.2478C23.4728 59.2478 23.7535 59.6386 23.7535 59.7637C23.7379 59.9513 23.5352 60.0763 23.2856 60.0763C23.0205 60.0763 22.8489 59.92 22.8489 59.6855C22.8489 59.451 23.114 59.2322 23.3636 59.2478ZM22.0691 58.5287C22.225 58.5443 22.6306 58.9508 22.6306 59.0915C22.615 59.2947 22.3342 59.5761 22.1627 59.5605C21.7883 59.5292 21.6324 59.3729 21.6636 59.0602C21.6636 58.685 21.8195 58.4974 22.0691 58.5287ZM20.7278 57.7002C20.759 57.6376 20.9617 57.5907 21.0085 57.6376C21.1489 57.7471 21.2581 57.9034 21.3672 58.0441C21.414 58.1066 21.3828 58.2004 21.414 58.2942C21.4764 58.5912 21.3048 58.7788 21.0085 58.7007C20.681 58.6225 20.5406 58.4974 20.5562 58.216C20.603 58.0597 20.6342 57.8721 20.7278 57.7002ZM19.9323 56.9498C20.2131 56.9654 20.4626 57.1687 20.447 57.3875C20.4314 57.6376 20.2287 57.8721 20.0103 57.8721C19.8076 57.8721 19.48 57.6845 19.48 57.5595C19.4644 57.2937 19.7296 56.9342 19.9323 56.9498ZM2.79171 16.7114C3.05686 16.727 3.2908 16.8834 3.27521 17.0553C3.25961 17.1804 2.91649 17.4461 2.79171 17.4461C2.58896 17.4305 2.43299 17.2273 2.44859 17.0084C2.47978 16.8208 2.62015 16.6958 2.79171 16.7114ZM2.24583 17.79C2.44859 17.79 2.69813 18.0558 2.69813 18.259C2.69813 18.5091 2.57336 18.6186 2.29262 18.6186C2.07427 18.6186 1.88711 18.5091 1.88711 18.3528C1.87152 18.0558 2.04308 17.79 2.24583 17.79ZM2.01189 19.2283C2.24583 19.2283 2.54217 19.4471 2.52657 19.5878C2.51098 19.7754 2.18345 20.0099 1.9339 20.0099C1.76234 20.0099 1.52839 19.7129 1.52839 19.5253C1.52839 19.3533 1.73115 19.2283 2.01189 19.2283ZM1.43481 20.7602C1.54399 20.6821 1.63757 20.5883 1.74674 20.5101C1.91831 20.3694 2.05867 20.4789 2.19904 20.5727C2.33941 20.6821 2.24583 20.7915 2.19904 20.9009C2.05867 21.3387 1.91831 21.3856 1.43481 21.0885C1.43481 20.9791 1.43481 20.8697 1.43481 20.7602ZM1.43481 22.1203C1.4972 22.0578 1.55958 22.0109 1.60637 21.9483C1.79353 21.7138 2.05867 21.7295 2.19904 21.9952C2.26143 22.1047 2.32382 22.2297 2.32382 22.3391C2.32382 22.4329 2.26143 22.5424 2.19904 22.6205C2.12106 22.6987 2.02748 22.73 1.90271 22.6362C1.76234 22.5267 1.60637 22.4486 1.45041 22.3704C1.43481 22.2922 1.43481 22.1985 1.43481 22.1203ZM1.43481 23.7305C1.46601 23.6679 1.5128 23.6054 1.52839 23.5585C1.54399 23.1833 1.87152 23.1208 2.12106 22.9957C2.18345 22.9645 2.37061 23.0426 2.43299 23.1208C2.60455 23.3084 2.43299 23.8086 2.18345 23.9024C2.13666 23.918 2.07427 23.9337 2.02748 23.9649C1.80913 24.09 1.62197 24.0744 1.43481 23.9024C1.43481 23.8555 1.43481 23.793 1.43481 23.7305ZM1.69995 25.1843C1.68436 24.9967 1.68436 24.7935 1.9495 24.7153C2.10546 24.6684 2.46419 24.7935 2.52657 24.9185C2.63575 25.1374 2.57336 25.3562 2.37061 25.4969C2.26143 25.5751 2.12106 25.6845 1.99629 25.6845C1.73115 25.6845 1.68436 25.5907 1.69995 25.1843ZM1.90271 26.5756C1.90271 26.2786 2.04308 26.091 2.24583 26.091C2.52657 26.0753 2.69813 26.2629 2.69813 26.5756C2.69813 26.8726 2.58896 27.0289 2.35501 27.0446C2.07427 27.0602 1.88711 26.8726 1.90271 26.5756ZM2.29262 28.4984C2.26143 28.4671 2.18345 28.4202 2.19904 28.389C2.21464 28.1701 2.23024 27.9356 2.30822 27.748C2.3862 27.5604 2.57336 27.5448 2.71373 27.6855C2.82291 27.7949 2.90089 27.9513 2.94768 28.0138C2.96328 28.2952 2.88529 28.4359 2.71373 28.5453C2.54217 28.6391 2.4174 28.6078 2.29262 28.4984ZM2.54217 29.8272C2.54217 29.5614 2.76052 29.3582 3.02566 29.3582C3.3064 29.3738 3.46237 29.5927 3.46237 29.9522C3.46237 30.1398 3.2908 30.2962 3.10364 30.2805C2.76052 30.2649 2.54217 30.0773 2.54217 29.8272ZM2.88529 31.0465C2.8697 30.7808 3.02566 30.6401 3.3064 30.6401C3.58714 30.6401 3.72751 30.7808 3.72751 31.0934C3.72751 31.2341 3.39998 31.6406 3.2908 31.6406C3.07245 31.6406 2.88529 31.3748 2.88529 31.0465ZM3.39998 32.7505C3.36879 32.7036 3.35319 32.6411 3.33759 32.5942C3.2908 32.4847 3.10365 32.4066 3.22842 32.2346C3.322 32.1095 3.38438 32.0626 3.68072 32.0783C3.88347 32.1408 4.14862 32.1877 4.39816 32.2659C4.52293 32.2971 4.56972 32.6411 4.46055 32.7348C4.35137 32.8443 4.24219 32.9381 4.11742 33.0162C3.93026 33.1569 3.55595 33.0006 3.39998 32.7505ZM3.7431 33.9386C3.7431 33.7041 4.03944 33.5321 4.38256 33.5321C4.56972 33.5321 4.75688 33.751 4.74128 33.9542C4.74128 34.2043 4.46055 34.4701 4.2266 34.4388C4.11742 34.4388 3.72751 34.0324 3.7431 33.9386ZM4.74128 35.8926C4.63211 35.8614 4.39816 35.4237 4.42935 35.2986C4.46055 35.111 4.56972 35.0016 4.75688 34.986C4.88165 34.9703 5.00643 34.9234 5.17799 34.8765C5.24038 34.9234 5.36515 34.9859 5.39634 35.0797C5.50552 35.3768 5.17799 35.8614 4.85046 35.8926C4.81927 35.9083 4.77248 35.9083 4.74128 35.8926ZM5.02202 36.2835C5.10001 36.1271 5.34955 36.0959 5.47432 36.2053C5.5835 36.2991 5.70827 36.3929 5.80185 36.4867C5.84864 36.5336 5.89543 36.5961 5.91103 36.6274C5.91103 36.94 5.45873 37.2058 5.24037 37.0964C4.91285 36.9244 4.83486 36.6274 5.02202 36.2835ZM5.5835 38.0499C5.55231 37.9874 5.52111 37.9249 5.48992 37.8624C5.41194 37.7686 5.33395 37.706 5.42753 37.5341C5.52111 37.3934 5.61469 37.3465 5.75506 37.3465C5.78625 37.3465 5.81745 37.3465 5.92662 37.3465C5.97341 37.3621 6.08259 37.3934 6.20736 37.4246C6.41012 37.4872 6.41012 37.6591 6.44131 37.8155C6.4725 37.9718 6.39452 38.0499 6.25415 38.0968C6.20736 38.1125 6.16057 38.1594 6.11378 38.1906C5.80185 38.4095 5.73946 38.3782 5.5835 38.0499ZM6.19177 39.5194C6.08259 39.4725 5.94222 39.4413 5.87983 39.3631C5.78625 39.238 5.84864 39.0973 5.97341 38.9879C6.00461 38.9566 6.00461 38.9097 6.0358 38.8785C6.17617 38.8003 6.33213 38.6596 6.4725 38.6909C6.61287 38.7222 6.72205 38.8941 6.83122 39.0192C6.86242 39.0504 6.81563 39.1911 6.75324 39.238C6.59728 39.3631 6.45691 39.5507 6.19177 39.5194ZM6.78443 40.645C6.70645 40.5824 6.69086 40.3479 6.75324 40.2854C6.84682 40.1604 6.97159 40.0822 6.98719 39.9102C6.98719 39.879 7.12756 39.8477 7.14316 39.8321C7.4083 39.8321 7.68904 40.1291 7.70463 40.3479C7.72023 40.5512 7.45509 40.77 7.22114 40.7544C7.06517 40.7544 6.89361 40.7388 6.78443 40.645ZM7.26793 42.0675C7.20554 42.0206 7.23674 41.5204 7.33031 41.4422C7.42389 41.3484 7.56426 41.3172 7.67344 41.2546C7.67344 41.2703 7.68904 41.3015 7.68904 41.3172C7.845 41.3328 7.98537 41.3484 8.14134 41.3797C8.3129 41.4266 8.37528 41.6298 8.26611 41.7705C8.07895 42.0206 7.79821 42.0832 7.51747 42.1926C7.45509 42.2082 7.34591 42.1301 7.26793 42.0675ZM8.28171 43.4588C8.18813 43.4119 8.09455 43.3494 8.12574 43.1931C8.14134 43.1149 8.12574 43.0211 8.12574 42.943C8.11014 42.7397 8.20372 42.6303 8.45327 42.6459C8.59364 42.7397 8.79639 42.8335 8.95236 42.9742C9.01474 43.0211 9.07713 43.2087 8.87438 43.3181C8.68722 43.4432 8.51565 43.5839 8.28171 43.4588ZM8.87438 44.2561C8.98355 44.0841 9.10832 43.9122 9.34227 43.9278C9.45145 43.9278 9.59182 43.8809 9.6854 43.9278C9.85696 44.0216 9.96614 44.1623 9.79457 44.3655C9.71659 44.475 9.70099 44.6469 9.60741 44.7251C9.49824 44.8189 9.32668 44.8345 9.2175 44.8658C8.93676 44.8501 8.7496 44.4906 8.87438 44.2561ZM9.91934 45.8663C9.59182 45.8663 9.48264 45.7881 9.49824 45.5536C9.51383 45.3817 9.82577 45.0377 9.96614 45.0377C10.1377 45.0377 10.4184 45.3348 10.4184 45.5067C10.4184 45.7256 10.2157 45.8663 9.91934 45.8663ZM10.7148 47.1325C10.4496 47.1325 10.356 46.9762 10.356 46.5541C10.356 46.3665 10.4808 46.2571 10.6836 46.2571C10.9175 46.2571 11.1983 46.5228 11.1827 46.7261C11.1671 46.9449 10.9331 47.1481 10.7148 47.1325ZM11.0423 47.6484C11.0423 47.4452 11.1515 47.3357 11.3386 47.3201C11.7597 47.3201 11.9469 47.4295 11.9625 47.6797C11.9781 47.9767 11.7753 48.2112 11.5102 48.2112C11.323 48.2112 11.0423 47.8516 11.0423 47.6484ZM12.3212 49.3523C12.0249 49.368 11.8221 49.1648 11.8065 48.8677C11.8065 48.727 12.1653 48.4144 12.3524 48.3988C12.5864 48.3831 12.7111 48.5707 12.7111 48.9615C12.7267 49.2117 12.5864 49.3367 12.3212 49.3523ZM13.3038 50.3685C13.0231 50.3528 12.8827 50.2278 12.8983 49.9151C12.9139 49.8839 12.9139 49.7588 12.9607 49.7275C13.101 49.6494 13.2726 49.5556 13.413 49.5556C13.5533 49.5556 13.6625 49.7119 13.6625 49.8839C13.6469 50.1809 13.5066 50.3841 13.3038 50.3685ZM14.2396 51.494C14.1304 51.5878 13.9901 51.6972 13.8497 51.5253C13.7717 51.4315 13.6157 51.3533 13.6157 51.2752C13.6157 51.0876 13.6625 50.8843 13.7561 50.7124C13.8185 50.5717 14.1148 50.5873 14.2084 50.7124C14.302 50.8218 14.38 50.9469 14.4735 51.0563C14.4891 51.0719 14.5047 51.1032 14.5359 51.1814C14.4423 51.2908 14.3488 51.4002 14.2396 51.494ZM14.9102 52.6665C14.7855 52.6039 14.6451 52.4632 14.6295 52.3382C14.6139 52.1975 14.7075 52.0255 14.7543 51.8692C14.7543 51.8536 14.8011 51.8379 14.8323 51.8379C15.035 51.7754 15.4561 52.135 15.4561 52.3382C15.4405 52.5101 15.0818 52.7603 14.9102 52.6665ZM16.1112 54.0265C15.8772 54.0265 15.5341 53.667 15.5341 53.4168C15.5341 53.2605 15.7837 53.0416 15.9708 53.0416C16.1736 53.0416 16.4231 53.2918 16.4231 53.495C16.4387 53.8389 16.3139 54.0265 16.1112 54.0265ZM17.3433 54.9332C17.2497 55.0426 16.891 55.0739 16.7662 54.9488C16.6727 54.855 16.6571 54.6831 16.5791 54.5267C16.6727 54.3704 16.7194 54.1672 16.8442 54.1047C16.9846 54.0421 17.1873 54.1203 17.3589 54.1359C17.3901 54.1359 17.4057 54.1672 17.4213 54.1828C17.4993 54.2454 17.4213 54.8394 17.3433 54.9332ZM18.4975 55.9024C18.4195 56.0744 18.2323 56.1525 18.0296 56.09C17.7644 56.0118 17.6708 55.8868 17.6708 55.6523C17.6552 55.3396 17.9516 55.2771 18.1231 55.1208C18.1699 55.0739 18.3415 55.1677 18.4507 55.199C18.4663 55.199 18.4663 55.2146 18.4819 55.2302C18.591 55.324 18.6066 55.6836 18.4975 55.9024ZM19.1681 56.0118C19.3709 56.0275 19.6048 56.262 19.5892 56.4496C19.5736 56.6841 19.2929 57.0123 19.1057 57.0123C18.9186 57.0123 18.669 56.7153 18.6846 56.5121C18.7002 56.2932 18.9965 55.9962 19.1681 56.0118Z" fill="#F9F5F2"/>
<path d="M59.7816 38.1125C59.6256 37.1745 59.5008 36.2209 59.3137 35.283C59.0017 33.7666 58.5806 32.2815 58.0971 30.7964C57.8632 30.0929 57.6136 29.3895 57.3485 28.686C55.5393 23.5116 52.9347 19.1188 50.9851 16.2424L49.0199 13.5223C48.5832 12.9596 48.3181 12.6625 48.3181 12.6625C47.0859 11.068 45.7758 9.53602 44.3721 8.08218C42.7657 6.40949 41.0501 4.87749 39.1785 3.53308C37.572 2.345 35.8564 1.34452 33.9692 0.672312C33.0958 0.359659 32.1912 0.12517 31.271 0.0470065C30.5224 -0.015524 29.7738 0.0157413 29.0251 0.12517C28.4636 0.203333 27.9646 0.42219 27.4811 0.672312C26.4829 1.15692 25.4847 1.65717 24.4865 2.15741C24.4241 2.18868 24.3773 2.21994 24.3306 2.23558L24.315 2.25121C24.2838 2.26684 24.2526 2.28247 24.2214 2.29811C24.1746 2.32937 24.1278 2.345 24.081 2.37627C23.6911 2.5326 23.3012 2.73582 22.9269 2.93904C22.4746 3.31423 22.0847 3.75194 21.7415 4.23655C21.0865 5.17451 20.6966 6.23753 20.447 7.34745C20.3846 7.59757 20.2754 7.73826 20.0727 7.84769C18.669 8.66059 17.2653 9.47348 15.846 10.2707C15.7368 10.3333 15.6277 10.4114 15.5029 10.474C15.3313 10.6147 15.1286 10.7085 14.9414 10.8179C14.6451 10.9742 14.3799 11.1462 14.0836 11.3025C14.068 11.3181 14.0368 11.3181 14.0212 11.3338C13.6625 11.537 13.3038 11.7402 12.9451 11.9591C12.8203 12.0372 12.6955 12.0372 12.5395 12.006C12.0093 11.8809 11.4634 11.7871 10.9331 11.6777C10.2936 11.5526 9.63859 11.5683 8.98353 11.6308C7.92297 11.7402 6.92479 12.1154 6.02018 12.6782C5.72385 12.8658 5.41192 13.0377 5.11558 13.2409C4.30456 13.8194 3.49354 14.3821 2.72931 14.9918C2.12104 15.4608 1.65315 16.0861 1.32562 16.7896C0.998089 17.4618 0.732948 18.1652 0.467806 18.8531C0.389823 19.0563 0.40542 19.2908 0.35863 19.5096C0.155875 20.3225 0.077892 21.1511 0.0466988 21.9796C0.0155057 22.8707 -0.0156875 23.7617 0.109085 24.6528C0.218261 25.3875 0.280647 26.1379 0.374227 26.8726C0.545789 28.1857 0.85772 29.4833 1.18525 30.7495C2.02746 33.8917 3.19721 36.9244 4.6009 39.8477C6.16055 43.0993 7.96976 46.1945 10.0285 49.1335C11.5414 51.2908 13.179 53.3543 14.9882 55.2771C16.1112 56.4808 17.2809 57.622 18.5286 58.7006C20.0259 59.9825 21.6012 61.155 23.3324 62.1086C23.8315 62.3743 24.3306 62.6401 24.8296 62.8589C24.8296 62.8589 25.3287 63.1247 26.093 63.3904C26.1086 63.3904 26.1242 63.3904 26.1398 63.3904C26.5141 63.5155 26.8884 63.6249 27.2783 63.7187C27.2939 63.7344 27.3095 63.75 27.3251 63.7656C27.7774 63.875 28.2765 63.9688 28.7756 64.0001C28.7756 63.9845 28.76 63.9845 28.76 63.9688C29.1811 64.0157 29.6022 64.0157 30.0233 63.9845C30.2105 63.9688 30.382 63.9532 30.538 63.9376C30.8655 63.8907 31.193 63.8282 31.505 63.75C31.9729 63.6249 32.3784 63.3748 32.7995 63.1559C32.8775 63.1247 32.9555 63.0778 33.0334 63.0309L33.8913 62.5775C33.8913 62.5775 33.8913 62.5775 33.8913 62.5619C34.7959 62.046 35.6849 61.4833 36.5271 60.8736C36.7454 60.7173 36.9794 60.5609 37.1353 60.3577C37.6344 59.7011 38.0867 59.0133 38.3675 58.2473C38.6014 57.622 38.851 56.9811 38.8978 56.2932C38.8978 56.1994 38.9601 56.09 39.0225 56.0431C39.3501 55.8242 39.6932 55.6367 40.0363 55.4334C40.2391 55.3084 40.4574 55.2146 40.6602 55.0895C40.9409 54.9019 41.1904 54.6831 41.4868 54.5111C43.0308 53.5262 44.5905 52.557 46.1502 51.5878C46.2125 51.5565 46.3061 51.5409 46.3685 51.5409C46.4777 51.5565 46.5869 51.6034 46.696 51.6347C47.7566 51.9161 48.8172 52.1975 49.9245 52.088C50.2832 52.0568 50.6576 52.0411 51.0163 51.9786C51.2502 51.9473 51.4842 51.8536 51.7025 51.7598C52.3732 51.4471 53.0126 51.1188 53.6989 50.8218C54.2136 50.6029 54.7439 50.3997 55.2741 50.2121C55.9448 49.9776 56.5843 49.665 57.1145 49.2116C57.7072 48.7114 58.2063 48.1017 58.5962 47.4139C59.3137 46.1633 59.6724 44.8032 59.8439 43.3963C59.9375 42.6303 59.9531 41.8487 59.9999 41.067C59.9531 40.0978 59.9375 39.0973 59.7816 38.1125ZM29.9453 62.1398C29.9297 62.1867 29.9141 62.218 29.8673 62.2649C29.7894 62.3587 29.6646 62.4369 29.5554 62.4837C29.3838 62.5619 29.2123 62.6244 29.0407 62.6713C29.1967 62.6088 29.2903 62.515 29.3371 62.39C29.3527 62.3274 29.3682 62.2649 29.3527 62.2024C29.3371 62.1086 29.2123 61.9835 29.0875 61.921C29.0095 61.8741 28.9315 61.8428 28.8692 61.8584C28.6352 61.8741 28.4325 62.0304 28.3389 62.218C28.3077 62.2805 28.2921 62.3431 28.2921 62.4056C28.2921 62.6244 28.4792 62.7495 28.7756 62.7339C28.7756 62.7339 28.7756 62.7339 28.7912 62.7339C28.8224 62.7339 28.8536 62.7339 28.8848 62.7182C28.8536 62.7182 28.8224 62.7339 28.7756 62.7339C28.6664 62.7495 28.5572 62.7651 28.4325 62.7651C28.2921 62.7651 28.1517 62.7964 27.9334 62.812C27.6994 62.7495 27.4187 62.687 27.1223 62.6088C27.06 62.5932 27.0132 62.5775 26.9508 62.5619C25.2664 62.046 23.7223 61.2175 22.2562 60.2483C21.0085 59.4198 19.8387 58.4818 18.7158 57.4969C17.5149 56.4339 16.3763 55.3084 15.3001 54.1203C13.7405 52.4007 12.29 50.5873 10.9643 48.6801C8.88995 45.7256 7.04956 42.6303 5.5055 39.3631C4.1486 36.5179 3.01005 33.5946 2.19903 30.5463C1.8559 29.2331 1.55957 27.92 1.35681 26.5756C1.21644 25.6689 1.15406 24.7466 1.07607 23.8399C1.01369 23.027 1.06048 22.2297 1.10727 21.4168C1.21644 19.9942 1.52837 18.6029 2.19903 17.3211C2.55775 16.6645 3.04124 16.1174 3.60272 15.6484C3.64951 15.6015 3.72749 15.5858 3.78988 15.5546C3.78988 15.6171 3.80547 15.6953 3.78988 15.7422C3.44675 16.5394 3.244 17.368 3.10363 18.2278C3.01005 18.8687 2.94766 19.5096 2.90087 20.1662C2.86968 20.7602 2.86968 21.3543 2.90087 21.9483C2.93206 22.5111 2.97885 23.0739 3.05684 23.6367C3.13482 24.2776 3.2284 24.9185 3.32198 25.5595C3.49354 26.685 3.75868 27.7949 4.05502 28.9048C5.16237 33.0006 6.78442 36.8775 8.78078 40.6137C10.4964 43.8184 12.4616 46.8511 14.6919 49.7119C16.2827 51.7598 18.0139 53.6982 19.8855 55.4803C21.7727 57.2781 23.8003 58.9039 26.093 60.1857C27.1847 60.8111 28.3233 61.3269 29.5242 61.6865C29.5554 61.7021 29.5866 61.7021 29.6022 61.7021C29.649 61.7178 29.6802 61.7177 29.727 61.7334C29.9297 61.7959 30.0233 61.9679 29.9453 62.1398ZM34.827 60.5922C34.4683 60.7173 34.1252 60.8736 33.7509 60.9517C32.4096 61.2488 31.0839 61.0455 29.7894 60.6547C27.9958 60.1076 26.3893 59.2165 24.8608 58.1691C23.7067 57.3875 22.6305 56.5121 21.6012 55.6054C20.4002 54.5424 19.2617 53.4168 18.1855 52.2287C16.7818 50.6811 15.4873 49.0709 14.2552 47.3826C11.9937 44.2561 10.0285 40.9576 8.37527 37.4872C7.00277 34.6108 5.86422 31.6562 5.0376 28.5922C4.74127 27.4823 4.49172 26.3411 4.30456 25.1999C4.133 24.1056 3.97703 23.027 3.96144 21.9171C3.96144 21.62 3.91465 21.323 3.89905 21.1511C3.96144 19.5253 4.07061 18.0402 4.5697 16.602C4.86604 15.7422 5.28715 14.9449 5.89541 14.2571C6.55047 13.5223 7.37709 13.0377 8.32848 12.8032C8.7028 12.7094 9.1239 12.6469 9.48262 12.8814C9.6074 12.9596 9.73217 13.069 9.79455 13.2097C9.91933 13.4442 9.85694 13.6005 9.63859 13.7412C9.40464 13.9132 9.1395 14.0695 8.88995 14.2571C8.73399 14.3821 8.62481 14.5541 8.48444 14.6792C7.42388 15.6953 6.94038 16.9771 6.64405 18.3685C6.37891 19.6034 6.33212 20.8697 6.3945 22.1203C6.4257 22.8394 6.51928 23.5585 6.62845 24.262C7.09635 27.8418 8.2037 31.2341 9.5918 34.5482C11.0111 37.9561 12.7423 41.2077 14.7543 44.3186C15.9396 46.1476 17.2185 47.9141 18.591 49.6025C19.6048 50.8374 20.6654 52.0411 21.8195 53.1667C23.426 54.7456 25.1416 56.1994 27.0756 57.3562C28.3077 58.091 29.5866 58.7006 30.9903 58.9977C31.8325 59.1696 32.6747 59.2165 33.5169 59.0602C33.5793 59.0446 33.6573 59.0602 33.7197 59.0289C33.8757 58.9664 33.9848 59.0133 34.0784 59.154C34.3436 59.5604 34.6087 59.9513 34.8894 60.3421C34.9674 60.4828 34.9518 60.5453 34.827 60.5922ZM37.2133 54.9645C36.4647 55.4334 35.7005 55.9024 34.9518 56.3714C34.4527 56.684 33.9536 56.9967 33.439 57.3093C32.7683 57.7002 32.0197 57.8878 31.193 57.9972C31.0059 57.9503 30.7875 57.9034 30.5848 57.8409C29.2591 57.45 28.0581 56.8091 26.9196 56.0431C25.7654 55.2771 24.6893 54.4017 23.6599 53.4637C22.5993 52.5101 21.6012 51.4784 20.6498 50.4154C19.4332 49.0553 18.3103 47.6171 17.2497 46.132C15.0038 43.0055 13.0698 39.6757 11.4478 36.174C10.1689 33.4539 9.1083 30.6401 8.35967 27.7168C8.09453 26.685 7.89177 25.6376 7.72021 24.5746C7.47067 23.0426 7.39268 21.5106 7.48626 19.963C7.56425 18.728 7.81379 17.5399 8.43765 16.4456C8.84316 15.7422 9.38904 15.1794 10.0909 14.7729C11.245 14.1164 12.3836 13.4442 13.5377 12.7876C13.6001 12.7563 13.6625 12.7094 13.7249 12.6938C13.7561 12.6782 13.8185 12.6625 13.8341 12.6782C13.8497 12.7094 13.8653 12.7563 13.8653 12.8032C13.8029 13.1315 13.7093 13.4598 13.6625 13.8037C13.5689 14.3978 13.4597 15.0074 13.4441 15.6327C13.413 16.4144 13.413 17.196 13.4441 17.9776C13.4597 18.556 13.5221 19.1345 13.6001 19.7129C13.7093 20.5414 13.8029 21.3699 13.9744 22.1828C14.2552 23.6367 14.6295 25.0592 15.0662 26.4818C15.8148 28.8736 16.7506 31.2028 17.8424 33.4852C19.1213 36.174 20.5874 38.7378 22.2562 41.2077C23.4727 43.0055 24.7829 44.7251 26.2021 46.3509C27.1379 47.4139 28.1049 48.4456 29.1343 49.4149C30.9279 51.1188 32.8463 52.6508 35.0298 53.8076C35.7317 54.1828 36.4647 54.4642 37.1821 54.7925C37.2289 54.8238 37.2757 54.8394 37.3381 54.8707C37.2913 54.8863 37.2601 54.9332 37.2133 54.9645ZM43.0932 51.322C42.6565 51.6034 42.2042 51.8692 41.7675 52.1506C40.8161 52.7446 39.8647 53.323 38.9289 53.9171C38.6794 54.0734 38.461 54.089 38.1803 53.9952C36.6362 53.5106 35.217 52.7603 33.8757 51.8536C31.9261 50.556 30.1793 48.9928 28.5572 47.3201C25.9994 44.6938 23.8159 41.7705 21.8819 38.6596C20.447 36.346 19.1681 33.9386 18.0607 31.4373C16.8754 28.7329 15.8928 25.9503 15.2222 23.0739C14.9882 22.0578 14.8011 21.026 14.6763 19.9942C14.5515 18.9469 14.4579 17.8838 14.4267 16.8208C14.4579 15.2732 14.5983 13.7568 15.0974 12.2717C15.2066 11.9278 15.3781 11.6933 15.7057 11.5214C16.3919 11.1618 17.047 10.7554 17.7332 10.3645C18.1231 10.1457 18.5442 10.0363 18.9809 10.0363C19.1525 10.0363 19.1993 10.1144 19.1837 10.2707C19.1525 10.7397 19.1213 11.2087 19.1057 11.6621C19.0901 12.0685 19.1057 12.4906 19.1057 12.897C19.1057 13.6474 19.1525 14.3978 19.2617 15.1325C19.3708 15.9141 19.48 16.6958 19.6048 17.4774C19.8855 19.1188 20.3222 20.729 20.8369 22.3079C21.8819 25.5282 23.2544 28.6078 24.9076 31.5624C26.3737 34.1887 28.0269 36.6743 29.8829 39.0504C31.3646 40.942 32.9399 42.7241 34.6555 44.3968C37.073 46.7417 39.662 48.8521 42.5785 50.556C42.7345 50.6498 42.9061 50.7436 43.062 50.8218C43.4831 51.0719 43.4831 51.0719 43.0932 51.322ZM50.6576 50.3841C50.5796 50.4622 50.486 50.5404 50.408 50.6029C50.2988 50.5248 50.1897 50.4779 50.0961 50.4622C49.9401 50.4622 49.6906 50.6811 49.6906 50.8218C49.6906 50.8531 49.6906 50.8843 49.7062 50.9156C49.4566 50.9781 49.1915 51.0094 48.9263 50.9938L48.9419 50.9781L48.9575 50.9625C48.9731 50.9469 48.9887 50.9312 48.9887 50.9156C49.0979 50.7436 49.1759 50.556 49.2227 50.3685C49.2695 50.2278 49.0667 50.0402 48.8796 50.0402C48.8016 50.0714 48.708 50.134 48.63 50.1183C48.3181 50.1027 48.3181 50.3685 48.2557 50.5404C48.1777 50.7124 48.3649 50.7749 48.474 50.8531C48.5208 50.8843 48.552 50.9312 48.5988 50.9781C48.5988 50.9781 48.6144 50.9938 48.63 50.9938C48.5832 50.9938 48.5208 50.9781 48.474 50.9781C46.5869 50.6655 44.8712 49.8838 43.2336 48.9146C41.6427 47.961 40.1767 46.8199 38.7886 45.6005C37.572 44.5219 36.4335 43.3963 35.3417 42.1926C33.7821 40.473 32.3316 38.6596 31.0059 36.7524C28.9315 33.7979 27.0912 30.7026 25.5471 27.4354C24.1902 24.5902 23.0516 21.6669 22.2406 18.6186C21.8975 17.3054 21.6012 15.9923 21.3984 14.6479C21.258 13.7256 21.1489 12.8032 21.1333 11.8653C21.1333 11.5683 21.0865 11.2712 21.0709 11.0993C21.1333 9.48912 21.2424 8.01965 21.7259 6.59708C22.0691 5.62786 22.5525 4.7368 23.27 4.00206C23.2856 3.98643 23.3012 3.9708 23.3012 3.9708C23.3948 3.89263 23.4883 3.81447 23.5975 3.75194C23.9562 3.56435 24.3306 3.39239 24.7049 3.22043C24.7361 3.2048 24.7829 3.2048 24.8296 3.2048C24.8296 3.23606 24.8452 3.28296 24.8296 3.31423C24.3617 4.14276 24.1278 5.06508 23.8315 5.95614C23.7691 6.15937 23.7847 6.37822 23.7535 6.58145C23.6755 7.23802 23.5819 7.89459 23.5351 8.56679C23.5039 9.12957 23.5039 9.70797 23.5351 10.2707C23.5663 10.8961 23.6131 11.5057 23.6911 12.131C23.7847 12.9127 23.9095 13.6943 24.0342 14.4759C24.2682 15.9454 24.6581 17.368 25.0948 18.7749C26.2645 22.5893 27.8554 26.216 29.7738 29.6865C31.0683 32.0314 32.4876 34.2981 34.0628 36.4554C35.0922 37.8623 36.1684 39.2224 37.3069 40.5355C38.3051 41.6923 39.3656 42.8023 40.473 43.8496C42.3758 45.6787 44.4345 47.3201 46.7428 48.6176C47.897 49.2585 49.0823 49.8057 50.3456 50.1652C50.4392 50.1965 50.5328 50.2278 50.6264 50.2434C50.7199 50.259 50.7043 50.3372 50.6576 50.3841ZM58.3311 45.3973C58.0035 46.4134 57.5201 47.3514 56.7402 48.1017C56.5375 48.2893 56.3035 48.4613 56.054 48.5863C55.5549 48.8365 55.0246 49.0553 54.5099 49.2898C53.9484 49.5243 53.3558 49.5399 52.7631 49.5087C50.2676 49.3523 48.0997 48.2737 46.041 46.9605C44.6841 46.1007 43.4208 45.0846 42.2042 44.0216C41.0033 42.9586 39.8647 41.833 38.7886 40.645C37.1977 38.8785 35.7161 37.0182 34.3436 35.0641C32.3004 32.1564 30.5068 29.0924 28.9783 25.8878C27.6214 23.027 26.4673 20.088 25.6563 17.024C25.3131 15.7265 25.0324 14.429 24.8296 13.1003C24.7049 12.2092 24.6269 11.3025 24.5645 10.4114C24.5021 9.58291 24.5333 8.77002 24.5957 7.95712C24.7049 6.55018 25.0012 5.17451 25.6719 3.89263C26.4361 2.4388 27.6214 1.53211 29.2123 1.18819C29.7894 1.06313 30.382 1.03186 30.9747 1.09439C33.3142 1.32888 35.3417 2.32937 37.2913 3.56435C38.8354 4.53357 40.2391 5.67475 41.5804 6.8941C42.8125 8.00402 43.9666 9.1921 45.074 10.4271C45.9006 11.365 46.7116 12.3343 47.4759 13.3347C47.7098 13.6318 47.9438 13.9288 48.1777 14.2414L50.3924 17.3367C55.1026 24.4027 56.6934 30.1398 56.6934 30.1398C56.9742 30.9215 57.2237 31.7031 57.4733 32.5004C57.9256 33.9855 58.2687 35.5018 58.5338 37.0182C58.6742 37.8467 58.7366 38.7065 58.8146 39.5507C58.8614 40.0666 58.8925 40.5981 58.9237 41.1139C58.9393 42.5521 58.7834 44.006 58.3311 45.3973Z" fill="#1A1A1A"/>
<path d="M58.9706 41.0983C58.955 42.5678 58.799 44.006 58.3467 45.3973C58.0192 46.4134 57.5357 47.3513 56.7559 48.1017C56.5531 48.2893 56.3192 48.4613 56.0696 48.5863C55.5705 48.8364 55.0402 49.0553 54.5256 49.2898C53.9641 49.5243 53.3714 49.5399 52.7787 49.5087C50.2833 49.3523 48.1154 48.2737 46.0566 46.9605C44.6997 46.1007 43.4364 45.0846 42.2199 44.0216C41.0189 42.9586 39.8804 41.833 38.8042 40.6449C37.2134 38.8785 35.7317 37.0182 34.3592 35.0641C32.316 32.1564 30.5224 29.0924 28.994 25.8877C27.6371 23.027 26.4829 20.088 25.6719 17.024C25.3288 15.7265 25.048 14.429 24.8453 13.1002C24.7205 12.2092 24.6425 11.3025 24.5801 10.4114C24.5178 9.5829 24.549 8.77 24.6113 7.9571C24.7205 6.55017 25.0169 5.17449 25.6875 3.89262C26.4517 2.43878 27.6371 1.53209 29.2279 1.18817C29.805 1.06311 30.3977 1.03185 30.9903 1.09438C33.3298 1.32887 35.3574 2.32935 37.3069 3.56433C38.851 4.53356 40.2547 5.67474 41.596 6.89408C42.8281 8.004 43.9823 9.19208 45.0896 10.4271C45.9163 11.365 46.7273 12.3342 47.4915 13.3347C47.7255 13.6317 47.9594 13.9288 48.1934 14.2414L50.4081 17.3367C55.1182 24.4026 56.7091 30.1398 56.7091 30.1398C56.9898 30.9214 57.2394 31.7031 57.4889 32.5003C57.9412 33.9854 58.2843 35.5018 58.5495 37.0182C58.6898 37.8467 58.7522 38.7065 58.8302 39.5507C58.9082 40.0509 58.9238 40.5668 58.9706 41.0983Z" fill="#F9F5F2"/>
</g>
<defs>
<clipPath id="clip0_341_44046">
<rect width="60" height="64" fill="white"/>
</clipPath>
</defs>
</svg>
