<svg width="145" height="17" viewBox="0 0 145 17" fill="none" xmlns="http://www.w3.org/2000/svg">
<path d="M78.7661 0.41988C81.9342 0.41988 83.5082 1.12747 83.5082 5.53474C83.5082 9.94153 82.6591 11.245 77.6687 11.245H76.5885C76.6237 12.1837 76.6781 13.0155 76.7479 13.7057H70.3769C70.4116 11.7765 70.4289 9.90206 70.4289 7.06881C70.4289 4.23605 70.4116 2.35155 70.3769 0.432395L78.7661 0.41988ZM76.4822 3.20066C76.4822 4.59851 76.4995 6.92489 76.4995 8.1663H76.7127C77.4405 8.1663 77.6663 7.84379 77.6836 6.42861V4.95567C77.6836 3.20547 77.4352 3.20547 76.7801 3.20547L76.4822 3.20066ZM90.3778 6.522C90.3778 5.26326 90.4351 4.3766 89.7747 4.3766C88.9256 4.3766 88.9978 5.92127 89.1566 6.92922C88.6079 6.87724 87.7386 6.85702 86.8202 6.85702C85.7575 6.85702 84.66 6.89456 84.0892 6.92922C83.9823 2.92918 85.5389 1.79703 90.1944 1.79703C94.3728 1.79703 96.1778 2.9465 96.1778 5.92127C96.1778 7.72634 96.1432 8.87581 96.1432 10.4152C96.1432 11.6195 96.2125 13.196 96.3911 13.6898H91.7212C90.6613 13.6898 90.4798 13.6378 90.4798 12.4162C90.4798 12.24 90.4798 12.0089 90.4995 11.761H90.4452C90.0206 13.1762 88.8163 13.814 87.0113 13.814C84.8516 13.814 83.784 13.1589 83.784 10.6982C83.784 8.23754 85.2882 7.35378 89.0223 7.35378C89.5711 7.35378 90.0153 7.3711 90.3855 7.40576L90.3778 6.522ZM90.3778 8.12346C90.2814 8.11298 90.1843 8.1104 90.0875 8.11576C89.417 8.11576 89.1687 8.40938 89.1687 8.99471V9.67294C89.1913 10.3757 89.4021 10.549 89.8242 10.549C90.1395 10.549 90.2984 10.343 90.3604 9.67294C90.3681 9.43467 90.3778 8.471 90.3778 8.11624V8.12346ZM103.44 3.6719C103.748 3.09654 104.212 2.61918 104.778 2.294C105.344 1.96881 105.99 1.80882 106.643 1.83217C109.103 1.83217 110.379 3.38887 110.379 7.86834C110.379 12.3473 109.086 13.8694 106.591 13.8694C104.485 13.8694 103.634 13.0352 103.246 11.903L103.174 11.9204C103.191 12.382 103.191 12.8239 103.191 13.3553C103.191 14.2564 103.209 15.0535 103.246 15.9026H96.9451C96.9971 13.4795 96.9797 11.2845 96.9797 8.36221C96.9797 5.53185 96.9971 3.76144 96.9624 2.00835H103.246C103.229 2.34626 103.229 2.66395 103.229 3.05385V3.61992L103.44 3.6719ZM103.085 10.5254C103.191 10.5254 103.298 10.5427 103.405 10.5427C103.961 10.5427 104.212 10.0932 104.234 8.70301V6.61682C104.234 5.25363 104.038 4.98792 103.703 4.98792C103.296 4.98792 103.082 5.41248 103.082 6.50996L103.085 10.5244V10.5254ZM123.282 8.55331C123.406 12.5259 122.803 13.9209 117.075 13.9209C112.385 13.9209 110.774 12.486 110.774 7.86786C110.774 2.85697 112.613 1.7773 117.341 1.7773C122.348 1.7773 123.394 2.98164 123.394 6.24666C123.405 6.80209 123.363 7.35728 123.27 7.90492C121.835 7.87027 120.136 7.87027 118.756 7.87027C117.976 7.87027 117.304 7.87027 116.81 7.8876C116.81 10.589 116.81 11.4852 117.341 11.4852C117.872 11.4852 117.783 10.5196 117.783 8.56053C118.242 8.59519 119.181 8.6154 120.189 8.6154C121.263 8.61251 122.363 8.58845 123.282 8.55331ZM116.827 6.81514H117.924V6.37326C117.924 4.60765 117.924 3.87503 117.41 3.87503C116.896 3.87503 116.84 4.61536 116.84 6.80503L116.827 6.81514ZM128.858 4.52149C129.372 2.5749 130.432 1.90197 131.619 1.90197C131.937 1.90197 132.15 1.9217 132.379 1.93903C132.22 4.4517 132.168 6.43295 132.168 9.23153C131.918 9.14142 131.654 9.0936 131.388 9.09002C130.735 9.09002 130.505 9.51457 130.505 10.3314C130.505 11.3914 130.522 12.4715 130.611 13.6932H123.937C123.99 12.0643 123.99 10.2939 123.99 7.76389C123.99 5.32102 124.009 3.65746 123.937 2.01123H128.876C128.824 2.89741 128.769 3.67479 128.717 4.5239L128.858 4.52149ZM144.895 10.1374C144.895 9.58389 144.835 8.9976 144.502 8.53309C144.095 7.96702 143.385 7.7533 142.727 7.65414C141.486 7.46545 140.18 7.62959 138.986 7.17279C138.429 6.95907 138.273 6.57928 138.273 6.0055C138.273 5.67048 138.273 5.33305 138.293 4.99755C138.313 4.66253 138.358 4.11379 138.789 4.11379C139.39 4.03196 139.343 5.51164 139.338 6.73572C141.12 6.66811 142.905 6.70379 144.684 6.84258C144.855 3.16793 144.954 1.76478 138.703 1.79703C135.545 1.79703 131.95 2.0329 132.684 6.20912C132.684 6.22163 132.684 6.23655 132.697 6.25148C132.751 6.48638 132.85 6.70876 132.987 6.90708C133.395 7.47315 134.105 7.68687 134.762 7.78603C135.2 7.85294 135.641 7.87508 136.081 7.90252C136.98 8.00697 138.906 7.92514 139.11 9.0645C139.134 9.4958 139.124 9.92853 139.08 10.3584C139.057 10.6664 139.042 11.478 138.583 11.4804C137.972 11.5719 137.923 9.96319 137.983 8.68472C136.244 8.74729 134.503 8.71119 132.769 8.57786C132.734 8.9331 132.717 10.3459 132.717 10.6636C132.717 13.0896 133.796 13.9036 138.752 13.9036C143.313 13.906 144.927 13.0501 144.895 10.1374ZM7.16343 6.00839V6.57446C8.36484 6.57446 9.53448 6.53981 10.5968 6.48782C10.5795 7.65462 10.5795 9.34032 10.5795 10.5967C9.56913 10.5793 8.43704 10.5447 7.28713 10.5273C7.32227 11.324 7.35693 12.8412 7.40891 13.6903H0.506592C0.541729 11.8159 0.578792 9.86692 0.578792 7.05389C0.578792 4.24038 0.561945 2.29138 0.541729 0.416992H10.7734C10.7556 1.17657 10.721 2.34626 10.721 3.33688C10.721 4.18599 10.7383 5.12463 10.7383 5.72536C9.49693 5.70803 8.25558 5.70803 7.16343 5.6907V6.00839ZM31.7572 13.6903C31.8269 12.0094 31.8096 9.7798 31.8096 7.61948C31.8096 5.60069 31.7923 3.7263 31.7576 2.00835H38.0583C37.9866 3.77828 37.9866 5.58336 37.9866 8.15041C37.9866 10.5394 38.0044 12.0985 38.0588 13.6903H31.7572ZM45.9266 13.6903C45.9637 12.0787 45.9637 8.94802 45.9637 6.24185C45.9637 5.81489 45.7577 5.60357 45.5093 5.60357C45.209 5.60357 44.8961 5.86928 44.8961 6.93211C44.8961 10.3285 44.8961 12.5235 44.9312 13.6903H38.801C38.8207 11.9526 38.8385 10.2568 38.8385 7.73116C38.8385 5.30562 38.8207 3.65939 38.801 2.02086H44.8788C44.8615 2.78333 44.8615 3.38405 44.8417 4.05699L45.0901 4.09164C45.7279 2.51762 46.9124 1.84469 48.7371 1.84469C50.7905 1.84469 52.0641 2.65914 52.0641 4.76458C52.0641 7.11839 52.0468 8.30493 52.0468 9.87895C52.0468 11.349 52.0468 12.5182 52.1161 13.7028L45.9266 13.6903ZM11.327 0.41988C11.364 2.20233 11.3814 4.12438 11.3814 6.24955C11.3814 8.85656 11.3992 11.6176 11.327 13.698H17.6281C17.5761 11.8111 17.5761 9.77017 17.5761 6.95714C17.5761 4.21343 17.5761 2.25961 17.6281 0.425175L11.327 0.419399V0.41988ZM38.0414 1.44516H31.7745V1.41339C31.8049 1.08308 31.8049 0.750674 31.7745 0.420362H38.0414C38.0068 0.762123 38.0068 1.10629 38.0414 1.44805V1.44564V1.44516ZM31.0602 5.95881C31.0602 5.95881 30.9976 2.85023 31.0602 2.01123H25.1754C25.2375 2.96431 25.1754 5.06783 25.1754 6.92441C25.1754 7.94488 24.9044 8.19326 24.6142 8.19326C24.3658 8.19326 24.1449 7.99734 24.1449 7.58771C24.1449 5.80719 24.0828 3.24735 24.1449 2.01123H18.2813C18.4079 2.79103 18.2813 6.52488 18.2813 6.52488C18.2813 8.8787 19.5919 9.58629 24.7359 9.58629C25.3395 9.58629 25.8883 9.56896 26.3999 9.53431C26.4493 9.61396 26.4744 9.7063 26.4721 9.80001C26.4721 10.1524 26.2233 10.2963 25.6924 10.2963C23.6934 10.2963 22.4645 9.92661 21.1341 9.92661C19.0808 9.92661 18.2837 10.7035 18.2837 12.794C18.2808 13.1016 18.302 13.4087 18.3482 13.7129H22.1247V13.6605C22.1182 13.5697 22.1319 13.4787 22.1647 13.3939C22.1976 13.309 22.2488 13.2326 22.3148 13.1699C22.3808 13.1073 22.4598 13.06 22.5462 13.0316C22.6326 13.0031 22.7242 12.9942 22.8145 13.0053C23.6135 13.0463 24.4038 13.1854 25.1682 13.4198C25.9865 13.6321 26.8312 13.723 27.6759 13.6903C28.9173 13.6383 30.4888 13.3356 30.9509 11.9873C31.0172 11.7963 31.0523 11.5959 31.0549 11.3938C31.0549 10.1721 29.9228 9.64357 28.294 9.36054V9.30566C30.3223 8.84645 31.0506 7.82839 31.0602 5.95881ZM63.4202 4.73473C64.8007 5.0351 65.2796 5.45965 65.2796 6.52248C65.2796 8.8763 63.9689 9.58389 58.8245 9.58389C58.2695 9.58515 57.7147 9.56765 57.161 9.53142C57.1133 9.61168 57.0893 9.70379 57.0917 9.79712C57.0917 10.15 57.34 10.2939 57.869 10.2939C59.8699 10.2939 61.5705 9.92372 62.8965 9.92372C64.9494 9.92372 65.7465 10.7011 65.7465 12.7916C65.7465 15.5228 64.4532 16.1361 58.914 16.1361C53.2333 16.1361 52.4887 15.7115 52.4887 14.5794C52.4887 13.7274 53.0571 13.2855 54.4005 13.1266V13.0203C53.0744 12.7372 52.7197 12.136 52.7197 11.3914C52.7197 10.3136 53.6405 9.64069 55.2693 9.35765V9.30326C53.2333 8.84405 52.5084 7.81347 52.5084 5.92416C52.5084 3.16311 54.0824 2.01075 58.8447 2.01075C59.2519 2.01075 62.8171 2.02856 65.4808 2.02856C65.4635 2.47045 65.4635 4.20572 65.4808 4.71981C65.0216 4.71981 64.277 4.68515 63.4274 4.64761L63.4202 4.73473ZM61.8982 13.3303C61.8982 13.0819 61.7914 12.9928 61.208 12.9928C59.7929 12.9928 57.9682 13.2061 56.7119 13.2061H56.1632C56.1488 13.2458 56.1429 13.2881 56.1458 13.3303C56.1458 13.7548 56.4808 13.8419 59.0829 13.8419C61.5806 13.8492 61.8982 13.6557 61.8982 13.3303ZM58.1742 5.9487C58.1742 6.90467 58.3503 7.11599 58.8644 7.11599C59.3785 7.11599 59.5546 6.90467 59.5546 5.9487V5.38552C59.5421 4.49117 59.3284 4.22305 58.8644 4.22305C58.3999 4.22305 58.1843 4.49117 58.1742 5.39033V5.9487Z" fill="black"/>
</svg>
