<svg width="224" height="267" viewBox="0 0 224 267" fill="none" xmlns="http://www.w3.org/2000/svg">
<path d="M176.595 226.582C180.253 222.764 183.842 218.984 187.431 215.205C193.476 208.748 199.7 202.281 205.815 195.784C206.977 194.573 208.07 193.403 209.163 192.232C209.473 191.965 209.674 191.667 209.508 191.212C209.176 190.3 208.843 189.389 208.472 188.409C207.864 187.013 207.256 185.616 206.648 184.22C206.04 182.824 205.432 181.427 204.684 180.11C203.928 178.615 202.472 176.051 201.912 174.902C201.636 174.417 201.4 174.001 201.125 173.516C199.498 171.14 197.981 168.794 196.354 166.418L166.704 128.535C165.637 127.308 164.539 126.19 163.402 125.002C156.761 117.867 149.778 111.108 142.625 104.537C136.412 98.8081 130.028 93.2672 123.474 87.9148C115.456 81.2861 107.166 74.9945 98.5659 68.9708C91.977 64.3715 85.1477 60.0003 78.1174 55.9266C72.049 52.4066 65.9193 49.1047 59.4881 46.2489C58.9722 45.9919 58.3776 45.5963 57.9492 45.6563C57.5208 45.7163 57.1581 46.3805 56.7472 46.7971C48.7877 55.2581 40.7889 63.6497 32.8294 72.1106C28.7295 76.4552 24.6295 80.7998 20.4596 85.184C19.9788 85.6404 19.6073 86.1263 19.1964 86.5429C19.026 86.7314 19.0347 86.9097 19.2927 87.0382C19.4413 87.1371 19.5506 87.1667 19.7692 87.2259C27.4508 90.6548 34.691 94.6094 41.9093 98.8513C47.9865 102.55 53.9632 106.397 59.8088 110.501C65.6151 114.537 71.2508 118.761 76.8167 123.025C87.6992 131.602 98.2101 140.665 108.28 150.254C113.107 154.845 117.903 159.546 122.42 164.405C125.415 167.562 128.38 170.828 131.305 174.025C133.32 176.272 135.336 178.519 137.282 180.805C138.615 182.339 139.919 183.982 141.291 185.586C142.595 187.229 143.967 188.832 145.27 190.476C146.307 191.812 147.304 193.079 148.27 194.455C149.118 195.623 149.967 196.791 150.815 197.959C152.205 199.92 153.705 201.909 155.096 203.869C156.18 205.453 157.265 207.037 158.319 208.73C159.451 210.562 160.654 212.354 161.716 214.225C163.212 216.859 164.637 219.532 166.063 222.206C166.889 223.661 167.537 225.127 168.254 226.553C168.608 227.177 169.3 234.585 169.515 235.289" fill="#F9F5F2"/>
<path d="M160.56 118.367C154.513 111.627 147.745 105.571 140.906 99.5556C136.324 95.5582 131.812 91.5211 127.199 87.6328C118.201 80.0937 108.902 73.0008 99.1909 66.3245C91.1155 60.7361 82.7298 55.4157 74.0512 50.7197C69.0627 47.9614 64.013 45.421 58.8016 43.2475C57.6999 42.7732 57.3108 42.9025 56.4585 43.8448C55.4663 44.8665 54.4041 45.9279 53.4513 47.0189C50.6845 49.9648 47.8477 52.9505 45.0809 55.8965C44.6001 56.3528 44.4602 56.4322 43.835 56.1456C41.7015 55.1574 39.568 54.1691 37.4738 53.2502C34.3566 51.9956 31.2088 50.85 28.0217 49.6351C26.7407 49.171 25.4203 48.6375 24.0694 48.2131C22.8278 47.8183 22.0672 48.4335 22.0587 49.7215C22.0675 49.8998 22.0762 50.0782 22.1549 50.2168C22.2993 50.9597 22.4131 51.8116 22.4876 52.5943C23.0696 56.3883 23.1839 60.173 22.8697 64.0177C22.4202 68.7641 21.3936 73.4716 19.8206 78.0311C18.8461 80.8759 17.7624 83.691 16.1628 86.2492C15.328 87.5481 15.7785 88.6671 17.1775 89.3392C19.123 90.1593 21.038 91.0883 22.9529 92.0174C31.3472 96.0498 39.3 100.608 47.1698 105.671C56.9328 111.951 66.3548 118.608 75.4054 125.751C86.8125 134.763 97.8482 144.262 108.263 154.296C116.641 162.371 124.708 170.714 132.364 179.473C135.98 183.561 139.386 187.768 142.832 192.044C144.786 194.509 146.71 197.082 148.595 199.587C150.025 201.616 151.454 203.646 152.845 205.606C153.811 206.982 154.668 208.328 155.525 209.675C156.304 210.883 157.152 212.051 157.9 213.368C159.868 216.833 161.875 220.368 163.843 223.833C164.787 225.497 165.561 227.348 166.366 229.091C166.642 229.576 168.575 235.261 169.087 237.629C173.593 234.978 206.734 198.378 209.841 195.055C209.811 195.164 211.817 192.834 213.098 191.831C212.538 190.683 209.022 183.514 208.226 181.949C207.343 180.068 206.389 178.226 205.506 176.344C205.27 175.929 204.916 175.305 204.631 174.641C204.12 173.74 203.647 172.909 203.175 172.077C202.782 171.384 179.847 139.953 160.56 118.367ZM22.4567 78.2757C22.5179 78.0576 22.579 77.8396 22.7101 77.5818C24.3268 72.4476 25.3577 67.0961 25.5929 61.6464C25.7236 58.4559 25.605 55.3153 25.0886 52.1255C24.9355 51.2043 25.0054 51.1645 25.8492 51.5103C30.3873 53.1496 34.9254 54.7889 39.2318 56.8348C39.9663 57.1509 40.7008 57.4671 41.4353 57.7833C42.6857 58.3565 42.4977 58.1883 41.7153 59.0908C39.7702 61.2035 37.8558 63.2072 35.8713 65.2506C31.9419 69.4067 27.9818 73.6718 23.9824 77.8676C23.7419 78.0958 23.5016 78.324 23.1606 78.7009C22.9814 78.711 22.6928 78.6915 22.3649 78.6028C22.5748 78.4836 22.4961 78.345 22.4567 78.2757ZM201.645 174.595C201.812 175.051 203.74 178.447 204.693 180.289C205.441 181.606 205.979 183.042 206.657 184.398C207.265 185.794 207.943 187.151 208.481 188.587C208.883 189.458 209.215 190.37 209.517 191.39C209.644 191.776 209.482 192.143 209.172 192.411C208.009 193.621 206.917 194.791 205.824 195.962C199.709 202.459 193.555 208.886 187.44 215.383C183.781 219.202 180.193 222.981 176.604 226.761C174.93 228.536 173.326 230.272 171.612 231.978C171.442 232.167 171.272 232.355 171.062 232.474C170.992 232.514 170.703 232.494 170.664 232.425C170.253 231.375 169.842 230.326 169.431 229.276C169.352 229.137 169.273 228.999 169.194 228.86C168.91 228.197 168.665 227.602 168.381 226.939C167.624 225.444 166.907 224.018 166.19 222.592C164.764 219.918 163.339 217.245 161.843 214.611C160.781 212.74 159.648 210.908 158.446 209.116C157.431 207.493 156.347 205.909 155.223 204.255C153.832 202.295 152.403 200.266 150.942 198.346C150.094 197.177 149.246 196.009 148.397 194.841C147.431 193.465 146.434 192.198 145.398 190.862C144.125 189.11 142.822 187.466 141.449 185.863C140.186 184.289 138.813 182.686 137.44 181.082C135.494 178.796 133.478 176.549 131.462 174.302C128.537 171.106 125.573 167.84 122.578 164.682C117.952 159.793 113.195 155.162 108.437 150.531C98.3679 140.942 87.8963 131.948 76.9744 123.302C71.4392 118.929 65.7335 114.745 59.9666 110.779C54.121 106.674 48.1443 102.827 42.067 99.1284C34.9186 94.8467 27.5692 90.8626 19.927 87.503C19.7783 87.4041 19.5991 87.4142 19.4504 87.3153C19.2624 87.1471 19.1837 87.0085 19.3542 86.82C19.835 86.3637 20.2065 85.8777 20.6174 85.4611C24.7173 81.1166 28.8173 76.772 32.9872 72.3877C40.9466 63.9268 48.9455 55.5352 56.9049 47.0742C57.3158 46.6576 57.6785 45.9933 58.107 45.9334C58.5354 45.8734 59.13 46.269 59.6459 46.526C66.0771 49.3818 72.2067 52.6837 78.2752 56.2037C85.2661 60.2081 92.0255 64.619 98.7236 69.2479C107.284 75.2023 115.574 81.4938 123.632 88.1919C130.186 93.5443 136.5 99.1249 142.783 104.814C149.936 111.385 156.888 118.253 163.56 125.279C164.697 126.467 198.711 169.754 199.813 171.694C200.364 172.665 201.025 173.665 201.645 174.595Z" fill="#1A1A1A"/>
<path d="M39.4109 56.8242C35.0345 54.8181 30.4965 53.1788 26.0283 51.4998C25.1146 51.1937 25.1146 51.1937 25.2677 52.115C25.6748 55.2751 25.9027 58.4454 25.772 61.6359C25.5368 67.0855 24.4666 72.3677 22.8892 77.5713C22.8281 77.7893 22.7669 78.0074 22.6358 78.2651C22.6358 78.2651 22.6839 78.5128 22.7539 78.4731C22.9725 78.5323 23.261 78.5517 23.5496 78.5712C23.8599 78.3033 24.1702 78.0354 24.3713 77.7379C28.3007 73.5818 32.2608 69.3167 36.2603 65.1209C38.2447 63.0775 40.1198 61.0045 42.1042 58.9611C42.9259 58.1279 43.044 58.3358 41.8242 57.6536C40.8799 57.4566 40.0755 57.1801 39.4109 56.8242Z" fill="#F9F5F2"/>
</svg>
