<svg width="85" height="41" viewBox="0 0 85 41" fill="none" xmlns="http://www.w3.org/2000/svg">
<path d="M30.5644 16.8488C30.6739 16.7394 30.8053 16.6519 30.9149 16.5206C31.1559 16.2362 31.1997 15.8642 31.0463 15.5797C30.893 15.339 30.6082 15.1858 30.2796 15.2952C30.0167 15.3828 29.7757 15.5359 29.5786 15.711C28.2642 16.8707 27.3222 18.293 26.6869 19.9342C26.2706 21.0064 26.0516 22.1223 25.9858 23.2821C25.9858 23.4134 25.9858 23.5665 25.9858 23.6978C26.0297 24.2668 26.3583 24.6387 26.7964 24.6387C27.2564 24.6387 27.5412 24.2886 27.5412 23.6759C27.5412 23.2821 27.4974 22.8663 27.5631 22.4943C27.9136 20.2843 28.8775 18.3587 30.5644 16.8488Z" fill="#F9F5F2"/>
<path d="M33.3451 30.854C32.9727 30.3507 32.5126 29.9569 31.9211 29.7162C31.2201 29.4317 30.5191 29.4536 29.9057 29.9131C29.4457 30.2632 29.4237 30.3945 29.6647 30.8978C30.2124 31.9919 30.3657 33.1516 30.2562 34.3551C30.2124 34.8365 30.1467 35.3616 30.2562 35.843C30.5629 37.0247 31.1763 37.9656 32.425 38.3813C32.6879 38.4688 32.9069 38.4688 33.1479 38.3376C33.7394 38.0093 34.068 37.4623 34.2652 36.8496C34.4842 36.1931 34.5719 35.4929 34.528 34.8584C34.6157 33.0859 34.0023 31.7512 33.3451 30.854Z" fill="#F9F5F2"/>
<path d="M19.7402 28.5539C20.6165 28.532 21.427 28.7071 22.1937 29.1228C22.369 29.2104 22.5004 29.1885 22.6538 29.0572C23.0262 28.7508 23.3767 28.4445 23.7929 28.2257C24.0996 28.0725 24.2092 27.8974 24.1435 27.5911C24.1216 27.4817 24.1435 27.3504 24.1216 27.241C23.9901 26.2782 23.9901 25.2935 24.1216 24.3307C24.1435 24.1776 24.1435 24.0025 24.1435 23.8493C24.1435 23.8056 24.0339 23.7399 24.012 23.7618C23.3986 23.915 23.0481 23.5649 22.7852 23.0835C22.5881 22.7334 22.369 22.4051 22.128 22.0988C21.4051 21.2454 20.4412 20.764 19.324 20.7202C18.5134 20.6984 17.7686 20.9391 17.0895 21.3986C14.9864 22.799 14.0882 25.4467 14.4606 27.8756C14.5264 28.2694 14.6359 28.6414 14.6578 29.0353C14.6797 29.5167 14.3292 29.823 13.8472 29.7574C13.6501 29.7355 13.4748 29.6261 13.2996 29.5386C12.8833 29.3635 12.4671 29.1228 12.029 29.0572C9.70684 28.729 7.88857 30.2607 7.25328 31.7486C6.94658 32.4707 7.3409 33.2147 7.9762 33.4335C8.23908 33.5211 8.52387 33.5648 8.78675 33.5648C9.5754 33.5867 10.386 33.5648 11.1746 33.5648C12.029 33.5648 12.8833 33.5867 13.7377 33.5648C14.7454 33.5429 15.5341 32.9959 15.775 32.0769C16.1036 30.764 16.9799 29.823 18.0753 29.0791C18.5572 28.729 19.1268 28.5758 19.7402 28.5539Z" fill="#F9F5F2"/>
<path d="M42.0638 28.0745C42.0638 27.7463 42.0638 27.4399 42.0638 27.1117C42.0638 26.9804 42.0419 26.871 41.8666 26.9804C41.4504 27.243 41.1218 27.0898 40.8151 26.7616C40.6837 26.6303 40.5741 26.499 40.4427 26.3677C38.9092 24.7485 37.0909 23.6544 34.9003 23.2387C34.3088 23.1292 33.7173 23.1074 33.1258 23.3043C32.5781 23.5012 32.381 23.7857 32.3591 24.3765C32.3372 24.8141 32.4686 25.208 32.6658 25.58C33.1039 26.4334 33.7173 27.1774 34.4402 27.7901C35.8861 29.0154 37.5072 29.9126 39.3912 30.2408C39.7636 30.3064 40.0484 30.569 40.0703 30.8973C40.0922 31.2474 39.9388 31.4881 39.6102 31.6631C39.4788 31.7288 39.3693 31.86 39.3035 31.9695C39.0845 32.4509 38.8873 32.9541 38.6682 33.4355C38.5587 33.6762 38.5806 33.7856 38.8435 33.7856C39.4569 33.7856 40.7056 33.7638 40.7056 33.7856C41.319 33.7856 41.9324 33.7856 42.5458 33.7856C42.8963 33.7856 42.8963 33.7638 42.7867 33.4137C42.2829 31.6631 42.02 29.8907 42.0638 28.0745Z" fill="#F9F5F2"/>
<path d="M22.1505 30.9202C21.4714 30.2857 20.6608 29.9793 19.7626 30.045C18.8206 30.1106 17.4843 31.336 17.2433 32.255C17.2214 32.3644 17.2214 32.4957 17.1995 32.6051C17.1557 32.8896 17.2653 33.1084 17.4624 33.2835C17.6158 33.4148 17.7034 33.4585 17.8786 33.2616C18.2292 32.8677 18.6673 32.8896 18.9521 33.2397C19.0616 33.3929 19.1054 33.5898 19.1273 33.7867C19.215 34.7277 19.3464 35.6686 19.6969 36.5657C19.9379 37.1565 20.2665 37.6817 20.7265 38.1412C21.4933 38.9071 22.8734 38.6883 23.3334 37.7036C23.6621 36.9815 23.8154 36.2375 23.8592 35.4498C23.7497 34.7714 23.6621 34.0712 23.5087 33.4148C23.3335 32.452 22.8953 31.5986 22.1505 30.9202Z" fill="#F9F5F2"/>
<path d="M26.2041 29.4316C25.9193 29.3222 25.5688 29.2784 25.284 29.3222C24.7363 29.3878 24.2544 29.5848 23.8601 29.9786C23.5753 30.2412 23.5753 30.2412 23.7943 30.5257C24.2106 31.0508 24.5392 31.6198 24.7363 32.2325C24.9773 32.9546 25.1526 33.6767 25.2621 34.4206C25.3497 35.1646 25.3935 35.8648 25.2621 36.6088C25.1526 37.2434 25.284 37.8342 25.7002 38.3375C25.8098 38.4688 25.9412 38.6438 26.0946 38.6876C26.7737 38.8189 27.409 38.8407 27.8471 38.1624C28.0662 37.8342 28.2414 37.4622 28.3729 37.0902C28.7015 36.1055 28.8548 35.099 28.8548 33.9392C28.8767 32.4294 28.4605 31.5104 27.6938 30.5257C27.2775 30.0005 26.7956 29.6504 26.2041 29.4316Z" fill="#F9F5F2"/>
<path d="M58.0785 29.8221C57.5746 29.472 57.0488 29.2532 56.4135 29.2751C55.4934 29.2532 54.8362 29.7127 54.3543 30.4786C54.1571 30.7849 54.0038 31.135 53.8723 31.4851C53.5218 32.4041 53.4123 33.3669 53.3466 34.3297C53.237 35.577 53.5437 36.6711 54.2667 37.6776C54.5953 38.1153 54.9239 38.2247 55.4496 38.0496C56.4354 37.7433 56.8955 37.0212 56.9393 35.9271C56.9831 35.0081 57.0488 34.1109 57.1803 33.2138C57.3336 32.1634 57.5527 31.1569 58.1442 30.2597C58.3194 30.0409 58.2318 29.9315 58.0785 29.8221Z" fill="#F9F5F2"/>
<path d="M74.5528 29.3C74.268 29.3 73.9613 29.3438 73.6765 29.4094C72.9974 29.5407 72.3183 29.6501 71.7268 30.044C71.5296 30.1753 71.3105 30.2628 71.0915 30.3504C70.5438 30.5692 70.1057 30.3285 69.9742 29.7595C69.9085 29.4313 69.8647 29.1031 69.7771 28.7749C69.5142 27.7683 68.9884 26.893 68.2874 26.1053C67.674 25.4051 66.9511 25.0769 66.0091 25.2081C65.6805 25.2519 65.33 25.2738 65.0014 25.3176C64.5632 25.4051 64.1251 24.9674 64.147 24.486C64.2346 23.1294 64.2784 21.7508 64.1251 20.3942C64.0156 19.3438 63.8184 18.3154 63.5336 17.3088C62.1754 12.5167 59.3713 8.70932 55.3624 5.79905C52.0325 3.37018 48.3083 1.96975 44.2118 1.61965C42.5468 1.46647 40.8381 1.51024 39.1732 1.7947C37.4864 2.07916 35.8653 2.53868 34.3099 3.23889C30.6733 4.9019 27.8693 7.46207 25.9853 11.0069C24.9118 13.0419 24.3203 15.2082 24.1013 17.5058C23.9917 18.7312 24.0794 19.9128 24.1451 21.1381C24.167 21.4226 24.2108 21.6852 24.2546 21.9696C24.2546 22.0353 24.2765 22.0791 24.2984 22.1447C24.3203 22.1009 24.3423 22.0572 24.3642 21.9915C24.408 21.8384 24.4518 21.6852 24.4956 21.532C24.8023 20.0441 25.3062 18.6436 26.051 17.3088C26.8615 15.8428 27.8912 14.5955 29.3589 13.6984C30.52 12.9981 31.7906 12.7356 33.1269 12.9106C34.3099 13.0857 35.3395 13.6327 36.2377 14.4205C37.7712 15.7552 38.757 17.462 39.4142 19.3657C39.6332 20.0222 39.8085 20.6786 39.9837 21.357C40.0276 21.5539 40.0933 21.6852 40.3123 21.7071C41.0791 21.8165 41.8239 21.9478 42.5907 22.0572C42.985 22.1009 43.0069 22.0791 43.1602 21.7071C43.5327 20.7224 43.9708 19.7815 44.5404 18.8843C45.4385 17.4839 46.512 16.3023 47.9797 15.4927C48.9217 14.9675 49.9514 14.6612 51.0467 14.7049C51.9449 14.7268 52.7993 14.9894 53.5879 15.427C54.968 16.1929 55.9538 17.3526 56.6987 18.7093C57.9474 20.9412 58.3855 23.392 58.4731 25.9084C58.495 26.4992 58.4293 27.09 58.3855 27.6808C58.3417 28.0309 58.4074 28.2935 58.7579 28.4466C58.9332 28.5342 59.0865 28.6655 59.218 28.8186C59.3494 28.9718 59.4808 28.9718 59.6342 28.8624C60.0285 28.6217 60.4447 28.4466 60.9048 28.4029C62.745 28.1622 64.4756 29.3219 65.1985 30.8099C65.4833 31.4007 65.6805 32.0134 65.9215 32.626C66.2501 33.5232 66.8196 33.8952 67.6959 33.8952C69.2513 33.8733 70.8067 33.8952 72.3402 33.8952C72.3402 33.8952 72.3402 33.8952 72.3402 33.9171C73.9175 33.9171 75.4728 33.9171 77.0501 33.9171C77.4445 33.9171 77.795 33.8295 78.1455 33.6545C78.6274 33.3919 79.0218 33.0637 79.0656 32.451C79.1094 31.8164 78.9341 31.2694 78.496 30.8317C77.4445 29.7158 76.1081 29.2563 74.5528 29.3Z" fill="#F9F5F2"/>
<path d="M60.0501 30.4354C59.4587 30.9606 59.0862 31.5733 58.8891 32.3172C58.6043 33.4113 58.6043 34.5273 58.67 35.6214C58.7138 36.2122 58.911 36.7811 59.2615 37.2844C59.6558 37.8752 60.1597 38.094 60.9483 37.6345C61.3646 37.3938 61.6713 37.0437 61.8903 36.6061C62.2846 35.8183 62.438 34.9649 62.4599 34.0897C62.4599 33.9803 62.4599 33.849 62.4599 33.7396C62.4599 33.1925 62.6352 32.908 63.0076 32.7986C63.3362 32.7111 63.5991 32.8424 63.8838 33.3238C63.9715 33.477 64.0591 33.4332 64.1029 33.3676C64.1686 33.2582 64.2563 33.1269 64.2343 33.0175C64.1029 32.2297 63.7743 31.5295 63.3143 30.8512C62.7009 29.9978 61.1674 29.4507 60.0501 30.4354Z" fill="#F9F5F2"/>
<path d="M50.4128 18.0964C50.5442 17.812 50.4566 17.5056 50.2156 17.2868C49.9747 17.0899 49.7118 17.0242 49.4489 17.1774C49.2517 17.2868 49.0765 17.4181 48.9231 17.5713C47.2363 19.3437 45.9657 21.3787 45.199 23.72C45.0894 24.0701 45.0456 24.4421 44.958 24.8141C44.9799 24.8141 44.9799 24.8141 45.0018 24.8141C45.0018 24.9235 44.9799 25.0548 45.0018 25.1642C45.0675 25.6675 45.5495 25.9739 46.0095 25.755C46.3162 25.6237 46.4477 25.3612 46.4696 25.0548C46.5353 24.5078 46.6886 23.9607 46.8858 23.4575C47.6306 21.6413 48.6603 20.0001 50.0185 18.5778C50.1937 18.4684 50.3252 18.2934 50.4128 18.0964Z" fill="#F9F5F2"/>
<path d="M52.4931 29.7368C51.7483 29.0584 50.8282 29.0147 49.93 29.2554C48.8347 29.5617 48.2651 30.4151 47.9146 31.4217C47.5422 32.4501 47.5422 33.5223 47.4326 34.5945C47.4764 35.0978 47.4983 35.6011 47.5641 36.1044C47.6298 36.5201 47.7393 36.9577 48.0241 37.3079C48.5937 38.0518 50.0833 38.3582 51.0253 37.2203C51.4197 36.7389 51.573 36.17 51.6168 35.5792C51.6606 34.9665 51.6387 34.3538 51.7483 33.7411C51.9673 32.6252 52.2083 31.5092 52.6683 30.4589C52.8874 30.0212 52.8217 30.0212 52.4931 29.7368Z" fill="#F9F5F2"/>
<path d="M83.7315 34.0687C83.5562 34.0031 83.381 33.9812 83.2057 33.9593C82.9648 33.9374 82.6581 34.025 82.5047 33.8937C82.3733 33.7843 82.3952 33.4779 82.3514 33.2372C82.3514 33.2153 82.3514 33.1935 82.3295 33.1716C81.4532 29.9331 79.0872 27.8106 75.7136 27.4823C74.5306 27.3729 73.3257 27.4604 72.2304 27.9637C72.0332 28.0513 71.9456 28.0731 71.8799 27.8106C71.5513 26.5414 70.7845 25.5567 69.7111 24.8565C68.5939 24.1125 67.3671 23.5874 65.9869 23.6749C65.7679 23.6968 65.7241 23.6311 65.746 23.3904C65.8993 21.7493 65.7241 20.1301 65.4174 18.5327C64.6287 14.5721 62.8543 11.0929 60.1816 8.09512C57.7719 5.38178 54.8802 3.3249 51.5503 1.90259C49.0091 0.830384 46.3584 0.217695 43.6201 0.0426413C41.6484 -0.0886491 39.6987 0.0864048 37.7709 0.524039C33.2362 1.57436 29.4244 3.78442 26.5327 7.50431C24.0791 10.6553 22.7866 14.2658 22.6333 18.2701C22.6114 18.9047 22.6333 19.5393 22.6333 20.1738C22.6333 20.3051 22.6114 20.4364 22.4361 20.2832C22.3704 20.2395 22.3047 20.1957 22.239 20.1519C20.4207 18.839 18.0109 18.8828 16.2146 20.1301C13.7172 21.8806 12.7752 24.3751 12.9066 27.3292C12.9285 27.6355 12.9505 27.6136 12.5999 27.5699C12.2494 27.5042 11.8989 27.4386 11.5484 27.4386C9.8835 27.4167 8.45955 28.0294 7.25467 29.1672C6.09361 30.2394 5.45831 31.618 5.21734 33.1716C5.17352 33.4998 5.17352 33.5217 4.82301 33.5217C3.61814 33.5217 2.39135 33.5217 1.18648 33.4998C0.989314 33.4998 0.792152 33.4998 0.59499 33.5217C0.288294 33.5654 0.0911325 33.7624 0.025412 34.0468C-0.0622155 34.3313 0.0911325 34.5501 0.266387 34.7252C0.463549 34.9221 0.726431 34.9221 0.989313 34.9221C4.18771 34.944 7.38612 34.9878 10.5845 35.0096C12.6438 35.0315 14.7249 35.0315 16.7842 35.0315C17.047 35.0315 17.3099 35.0315 17.5509 35.0315C17.7481 35.0315 17.8357 35.0753 17.8576 35.2941C17.9014 35.6223 17.989 35.9506 18.0986 36.2788C18.4272 37.3729 18.9091 38.4013 19.7854 39.1672C20.5521 39.8674 21.4503 40.1956 22.5238 39.9549C23.1152 39.8236 23.641 39.5829 24.0791 39.1453C24.2106 39.0359 24.2982 38.9921 24.4077 39.1453C24.4516 39.1891 24.4954 39.2328 24.5173 39.2766C25.5031 40.4582 27.7157 40.502 28.7453 39.2547C28.9425 39.014 29.1396 38.7514 29.3149 38.4888C29.512 38.2044 29.512 38.2044 29.7311 38.4232C30.235 38.9265 30.8264 39.3422 31.4837 39.6267C32.5571 40.1081 33.521 39.9111 34.4192 39.1672C35.1859 38.5107 35.646 37.6792 35.8431 36.6945C35.9307 36.3007 35.9527 35.9068 35.9965 35.5129C36.0403 35.1628 36.0622 35.1409 36.3908 35.1409C36.4565 35.1409 36.5003 35.1409 36.566 35.1409C39.5235 35.1409 42.4809 35.1409 45.4602 35.1628C45.9641 35.1628 45.9641 35.1628 46.0079 35.6442C46.0298 35.863 46.0955 36.0818 46.1174 36.2788C46.2708 37.4823 46.8623 38.4451 47.8919 39.1015C49.3816 40.0424 51.2655 39.758 52.3171 38.3794C52.3609 38.3357 52.3828 38.2919 52.4266 38.2263C52.6895 37.898 52.6895 37.898 52.9305 38.2263C53.1057 38.4451 53.2591 38.6858 53.4562 38.8827C54.1573 39.5829 54.9678 39.9768 55.9755 39.6923C56.7423 39.4735 57.4433 39.1015 57.9909 38.4888C58.1443 38.3357 58.2319 38.27 58.4072 38.4888C58.7139 38.8389 59.0863 39.1234 59.5463 39.1891C60.4445 39.3203 61.2989 39.2109 62.0218 38.6201C62.5476 38.1825 63.0295 37.7011 63.2924 37.0665C63.4896 36.5851 63.6648 36.1037 63.7744 35.6004C63.8401 35.3379 63.9496 35.2285 64.2125 35.2503C64.322 35.2503 64.4097 35.2503 64.5192 35.2503C67.6081 35.2503 70.675 35.2503 73.7639 35.2503V35.2722C74.0925 35.2941 74.443 35.3379 74.7716 35.3379C77.6195 35.3598 80.4674 35.3597 83.2934 35.3597C83.4686 35.3597 83.6439 35.316 83.8191 35.2503C84.1039 35.1409 84.2134 34.8784 84.2134 34.572C84.1696 34.3751 84.0163 34.1563 83.7315 34.0687ZM15.7545 32.0775C15.5136 32.9965 14.7249 33.5436 13.7172 33.5654C12.8628 33.5873 12.0085 33.5654 11.1541 33.5654C10.3654 33.5654 9.55489 33.5873 8.76625 33.5654C8.50336 33.5654 8.21858 33.5217 7.95569 33.4342C7.29849 33.2153 6.90416 32.4714 7.23277 31.7493C7.88997 30.2613 9.70824 28.7296 12.0085 29.0578C12.4466 29.1235 12.8628 29.3642 13.2791 29.5392C13.4543 29.6049 13.6296 29.7361 13.8267 29.758C14.2868 29.8237 14.6592 29.5173 14.6373 29.0359C14.6154 28.6421 14.5058 28.2482 14.4401 27.8762C14.0677 25.4473 14.9659 22.7996 17.0689 21.3992C17.7481 20.9397 18.5148 20.699 19.3034 20.7209C20.4207 20.7646 21.3627 21.2242 22.1075 22.0994C22.3704 22.4058 22.5676 22.734 22.7647 23.0841C23.0495 23.5874 23.3781 23.9156 23.9915 23.7624C24.0353 23.7624 24.123 23.8281 24.123 23.85C24.123 24.0031 24.123 24.1782 24.101 24.3314C23.9696 25.2942 23.9696 26.2788 24.101 27.2416C24.123 27.351 24.101 27.4823 24.123 27.5917C24.1668 27.8981 24.0572 28.0731 23.7724 28.2263C23.3562 28.4451 22.9838 28.7515 22.6333 29.0578C22.4799 29.1891 22.3485 29.211 22.1732 29.1235C21.4065 28.7077 20.5959 28.5327 19.7197 28.5545C19.1063 28.5764 18.5367 28.7296 18.0328 29.0797C16.9594 29.8237 16.0831 30.7646 15.7545 32.0775ZM23.3781 37.7011C22.9181 38.6858 21.5379 38.9046 20.7712 38.1387C20.3112 37.6792 19.9826 37.1541 19.7416 36.5632C19.3911 35.6661 19.2377 34.7471 19.172 33.7843C19.1501 33.5873 19.1063 33.3904 18.9967 33.2372C18.712 32.8652 18.2738 32.8652 17.9233 33.2591C17.7481 33.456 17.6604 33.4123 17.5071 33.281C17.3099 33.1059 17.2004 32.8871 17.2442 32.6027C17.2661 32.4932 17.2661 32.362 17.288 32.2525C17.529 31.3335 18.8434 30.1081 19.8073 30.0425C20.7055 29.9768 21.516 30.3051 22.1951 30.9178C22.94 31.5961 23.3781 32.4495 23.5972 33.4123C23.7505 34.0906 23.8382 34.7689 23.9477 35.4473C23.8601 36.235 23.7286 36.979 23.3781 37.7011ZM28.8329 33.9156C28.8329 35.0753 28.6796 36.0818 28.351 37.0665C28.2195 37.4385 28.0443 37.8105 27.8252 38.1387C27.3871 38.8171 26.7518 38.8171 26.0727 38.6639C25.9193 38.642 25.7879 38.467 25.6783 38.3138C25.284 37.8105 25.1307 37.2197 25.2402 36.5851C25.3716 35.863 25.3497 35.1409 25.2402 34.397C25.1526 33.653 24.9554 32.9309 24.7144 32.2088C24.5173 31.5742 24.1887 31.0272 23.7724 30.502C23.5315 30.2175 23.5534 30.2175 23.8382 29.955C24.2325 29.5611 24.7363 29.3642 25.2621 29.2985C25.5688 29.2547 25.8974 29.3204 26.1822 29.4079C26.7518 29.6267 27.2556 29.9768 27.65 30.4801C28.4386 31.4867 28.8548 32.4276 28.8329 33.9156ZM27.5404 22.4933C27.4747 22.8872 27.5185 23.281 27.5185 23.6749C27.4966 24.2876 27.2337 24.6158 26.7737 24.6377C26.3355 24.6377 26.0069 24.2657 25.9631 23.6968C25.9631 23.5655 25.9631 23.4123 25.9631 23.281C26.0288 22.1213 26.226 21.0053 26.6641 19.9331C27.2994 18.3139 28.2414 16.8697 29.5559 15.71C29.753 15.5349 30.0159 15.3817 30.2569 15.2942C30.6074 15.1848 30.8922 15.338 31.0236 15.5787C31.1989 15.8631 31.1551 16.2351 30.8922 16.5196C30.7826 16.629 30.6731 16.7384 30.5417 16.8478C28.8767 18.3576 27.9128 20.2832 27.5404 22.4933ZM34.2877 36.8477C34.0906 37.4604 33.762 38.0074 33.1705 38.3357C32.9295 38.467 32.7104 38.467 32.4476 38.3794C31.2208 37.9637 30.5855 37.0009 30.2788 35.8411C30.1692 35.3816 30.235 34.8565 30.2788 34.3532C30.3664 33.1497 30.2131 31.99 29.6873 30.8959C29.4244 30.3926 29.4682 30.2394 29.9283 29.9112C30.5636 29.4517 31.2427 29.4298 31.9437 29.7143C32.5352 29.955 32.9952 30.3488 33.3676 30.8521C34.0248 31.7711 34.6382 33.0841 34.5725 34.8565C34.5944 35.491 34.5068 36.1913 34.2877 36.8477ZM42.5466 33.7843C41.9332 33.7843 41.3198 33.7843 40.7064 33.7843C40.7064 33.7624 39.4797 33.8061 38.8444 33.7843C38.5815 33.7843 38.5815 33.6749 38.6691 33.4342C38.8882 32.9528 39.0853 32.4495 39.3044 31.9681C39.3701 31.8368 39.4797 31.7055 39.6111 31.6617C39.9397 31.5086 40.093 31.246 40.0711 30.8959C40.0492 30.5895 39.7644 30.3051 39.392 30.2394C37.508 29.8893 35.8869 29.014 34.4411 27.7887C33.7182 27.176 33.1048 26.432 32.6666 25.5786C32.4695 25.2066 32.338 24.8128 32.3599 24.3751C32.3818 23.8062 32.579 23.4999 33.1267 23.3029C33.6962 23.106 34.3096 23.1279 34.9011 23.2373C37.0918 23.653 38.9101 24.769 40.4436 26.3664C40.575 26.4977 40.6845 26.6289 40.816 26.7602C41.1227 27.0885 41.4513 27.2416 41.8675 26.979C42.0428 26.8696 42.0647 26.979 42.0647 27.1103C42.0647 27.4386 42.0647 27.7449 42.0647 28.0731C42.0209 29.8893 42.2837 31.6617 42.8095 33.4123C42.919 33.7624 42.8971 33.7624 42.5466 33.7843ZM46.9061 23.478C46.687 24.0031 46.5337 24.5283 46.4899 25.0753C46.4679 25.4036 46.3365 25.6661 46.0298 25.7756C45.5698 25.9725 45.0878 25.688 45.0221 25.1847C45.0002 25.0753 45.0221 24.944 45.0221 24.8346C45.0002 24.8346 45.0002 24.8346 44.9783 24.8346C45.0659 24.4626 45.1097 24.0907 45.2193 23.7406C45.986 21.3992 47.2566 19.3642 48.9434 17.5918C49.0968 17.4386 49.272 17.3073 49.4692 17.1979C49.7321 17.0447 49.9949 17.1104 50.2359 17.3073C50.4769 17.5261 50.5645 17.8106 50.4331 18.1169C50.3455 18.3139 50.1921 18.4889 50.0607 18.6421C48.6805 20.0425 47.6509 21.6618 46.9061 23.478ZM52.6676 30.4801C52.2075 31.5304 51.9447 32.6464 51.7475 33.7624C51.638 34.3532 51.6599 34.9878 51.6161 35.6004C51.5722 36.1913 51.4408 36.7821 51.0246 37.2416C50.0607 38.3794 48.5929 38.0731 48.0233 37.3291C47.7604 36.9571 47.6509 36.5414 47.5633 36.1256C47.4757 35.6223 47.4757 35.0972 47.4318 34.6158C47.5414 33.5217 47.5414 32.4495 47.9138 31.4429C48.2862 30.4364 48.8558 29.583 49.9292 29.2766C50.8274 29.014 51.7475 29.0797 52.4923 29.758C52.8209 30.0206 52.8867 30.0206 52.6676 30.4801ZM58.1662 30.2613C57.5747 31.1585 57.3556 32.165 57.2023 33.2153C57.0709 34.1125 56.9832 35.0096 56.9613 35.9287C56.9175 37.0228 56.4575 37.723 55.4717 38.0512C54.9459 38.2263 54.6173 38.1168 54.2887 37.6792C53.5439 36.6727 53.2591 35.5786 53.3686 34.3313C53.4562 33.3685 53.5439 32.4057 53.8944 31.4867C54.0258 31.1366 54.1792 30.7865 54.3763 30.4801C54.8583 29.7361 55.5155 29.2766 56.4356 29.2766C57.0709 29.2547 57.5966 29.4736 58.1005 29.8237C58.2319 29.9331 58.3195 30.0425 58.1662 30.2613ZM64.103 33.3466C64.0591 33.4123 63.9715 33.456 63.8839 33.3029C63.5991 32.8215 63.3362 32.6683 63.0076 32.7777C62.6352 32.8871 62.4599 33.1716 62.4599 33.7186C62.4599 33.828 62.4599 33.9593 62.4599 34.0687C62.4599 34.944 62.3066 35.7974 61.8904 36.5851C61.6713 37.0228 61.3646 37.3729 60.9484 37.6136C60.1378 38.0731 59.6559 37.8543 59.2615 37.2635C58.911 36.7602 58.7139 36.1913 58.6701 35.6004C58.6043 34.4845 58.6043 33.3904 58.8891 32.2963C59.0863 31.5523 59.4587 30.9178 60.0502 30.4145C61.1674 29.4517 62.7228 29.9768 63.3143 30.8084C63.7744 31.4648 64.103 32.165 64.2344 32.9746C64.2563 33.0841 64.1687 33.2372 64.103 33.3466ZM79.0872 32.4714C79.0434 33.084 78.6272 33.4123 78.1672 33.6749C77.8386 33.8499 77.4661 33.9374 77.0718 33.9374C75.4945 33.9156 73.9391 33.9374 72.3618 33.9374C72.3618 33.9374 72.3618 33.9374 72.3618 33.9156C70.8065 33.9156 69.2511 33.8937 67.7176 33.9156C66.8413 33.9374 66.2498 33.5436 65.9431 32.6464C65.7241 32.0337 65.505 31.421 65.2202 30.8302C64.4973 29.3642 62.7885 28.2044 60.9265 28.4232C60.4664 28.4889 60.0502 28.6421 59.6559 28.8828C59.5025 28.9922 59.393 28.9922 59.2396 28.839C59.1082 28.6858 58.9548 28.5545 58.7796 28.467C58.4291 28.3138 58.3634 28.0513 58.4072 27.7011C58.4729 27.1103 58.5167 26.5195 58.4948 25.9287C58.4072 23.4123 57.969 20.9835 56.7203 18.7296C55.9755 17.373 54.9897 16.2132 53.6096 15.4474C52.8209 15.0097 51.9666 14.7472 51.0684 14.7253C49.973 14.6815 48.9434 14.9879 48.0014 15.513C46.5337 16.3226 45.4602 17.5043 44.562 18.9047C43.9925 19.8018 43.5543 20.7428 43.1819 21.7274C43.0286 22.0994 43.0067 22.1432 42.6123 22.0775C41.8456 21.9681 41.0789 21.8368 40.334 21.7274C40.115 21.7056 40.0711 21.5524 40.0054 21.3773C39.8302 20.7209 39.6549 20.0425 39.4358 19.3861C38.7786 17.4824 37.8147 15.7756 36.2594 14.4408C35.3612 13.6531 34.3315 13.106 33.1486 12.931C31.8123 12.734 30.5417 13.0185 29.3806 13.7187C27.9347 14.594 26.8832 15.8631 26.0727 17.3292C25.3278 18.6421 24.8459 20.0644 24.5173 21.5524C24.4735 21.7056 24.4296 21.8587 24.3858 22.0119C24.3639 22.0557 24.342 22.0994 24.3201 22.1651C24.2982 22.0994 24.2763 22.0557 24.2763 21.99C24.2325 21.7056 24.1887 21.443 24.1668 21.1585C24.101 19.955 24.0134 18.7515 24.123 17.5261C24.342 15.2286 24.9335 13.0623 26.0069 11.0273C27.869 7.48243 30.695 4.92227 34.3315 3.25926C35.8869 2.55904 37.508 2.09952 39.1949 1.81506C40.8817 1.5306 42.5685 1.48684 44.2334 1.64001C48.33 1.99012 52.0542 3.39055 55.384 5.81942C59.393 8.72969 62.1971 12.5152 63.5772 17.3292C63.862 18.3358 64.0372 19.3642 64.1687 20.4145C64.322 21.7931 64.2782 23.1497 64.1906 24.5064C64.1687 24.9878 64.6068 25.4036 65.045 25.3379C65.3736 25.2723 65.7022 25.2723 66.0527 25.2285C66.9728 25.0972 67.7176 25.4473 68.331 26.1257C69.0101 26.9134 69.5578 27.7887 69.8206 28.7952C69.9083 29.1235 69.9521 29.4517 70.0178 29.7799C70.1493 30.3488 70.5874 30.5677 71.1351 30.3707C71.3541 30.2832 71.5732 30.1957 71.7704 30.0644C72.3618 29.6486 73.041 29.5611 73.7201 29.4298C74.0049 29.3642 74.3116 29.3423 74.5963 29.3204C76.1298 29.2766 77.488 29.758 78.5615 30.874C78.9339 31.2897 79.1311 31.8368 79.0872 32.4714Z" fill="#1A1A1A"/>
</svg>
