<svg width="138" height="66" viewBox="0 0 138 66" fill="none" xmlns="http://www.w3.org/2000/svg">
<g clip-path="url(#clip0_130_40205)">
<path d="M50.0429 27.8552C50.2216 27.6762 50.4363 27.5327 50.6148 27.318C51.0076 26.8527 51.0772 26.2459 50.8246 25.7829C50.5722 25.3913 50.1051 25.1431 49.5678 25.3234C49.138 25.4676 48.7444 25.7187 48.4227 26.0053C46.2778 27.9039 44.7439 30.2286 43.7134 32.9083C43.0382 34.6591 42.686 36.4802 42.5851 38.3717C42.5858 38.5858 42.5867 38.8356 42.5875 39.0496C42.6625 39.9771 43.2025 40.5819 43.9197 40.5794C44.6727 40.5768 45.1369 40.0042 45.1334 39.0051C45.1311 38.3629 45.057 37.6852 45.1625 37.0782C45.7236 33.4723 47.2904 30.3268 50.0429 27.8552Z" fill="#F9F5F2"/>
<path d="M54.6751 50.6752C54.0626 49.8566 53.3073 49.2169 52.3377 48.8278C51.1885 48.3679 50.0411 48.4075 49.0397 49.1603C48.2886 49.7338 48.2535 49.9481 48.6508 50.7674C49.5536 52.5484 49.8113 54.4387 49.6389 56.4018C49.5699 57.1871 49.4654 58.0438 49.6474 58.8282C50.1563 60.7533 51.1657 62.2842 53.2121 62.955C53.643 63.0963 54.0016 63.095 54.3953 62.8796C55.3616 62.341 55.8964 61.4471 56.2156 60.4469C56.5704 59.3751 56.7099 58.2328 56.6345 57.1983C56.7678 54.3075 55.756 52.1344 54.6751 50.6752Z" fill="#F9F5F2"/>
<path d="M32.3935 47.0067C33.8278 46.966 35.1556 47.2469 36.4131 47.9205C36.7005 48.0622 36.9155 48.0258 37.1658 47.8108C37.7737 47.3092 38.3457 46.8076 39.0258 46.4484C39.527 46.1969 39.7053 45.9108 39.5959 45.4117C39.5594 45.2334 39.5945 45.0192 39.5581 44.8409C39.3374 43.2716 39.3317 41.6659 39.5414 40.0951C39.5763 39.8452 39.5753 39.5597 39.5745 39.31C39.5742 39.2386 39.3945 39.1322 39.3588 39.168C38.3556 39.4212 37.7798 38.8523 37.3467 38.0688C37.022 37.499 36.6615 36.965 36.2652 36.4668C35.077 35.0793 33.4963 34.2997 31.6672 34.2347C30.3402 34.2036 29.1223 34.6003 28.0133 35.3535C24.5787 37.6491 23.1236 41.9718 23.7472 45.9304C23.857 46.5723 24.0385 47.1783 24.0766 47.8205C24.1152 48.6054 23.5432 49.1069 22.7539 49.0026C22.431 48.968 22.1435 48.7906 21.8561 48.6489C21.1737 48.3658 20.491 47.9756 19.7734 47.8711C15.9703 47.349 13.0027 49.8571 11.9713 52.2871C11.4734 53.4664 12.1231 54.6773 13.1643 55.0306C13.5952 55.1718 14.0616 55.2415 14.4919 55.24C15.783 55.2713 17.1097 55.231 18.4007 55.2265C19.7993 55.2217 21.198 55.2525 22.5964 55.212C24.2459 55.1706 25.5337 54.274 25.9229 52.774C26.4533 50.6312 27.8823 49.0919 29.6711 47.8725C30.458 47.2988 31.3895 47.0458 32.3935 47.0067Z" fill="#F9F5F2"/>
<path d="M68.9339 46.0947C68.932 45.5594 68.9303 45.0599 68.9284 44.5247C68.9277 44.3106 68.8912 44.1323 68.6049 44.3117C67.9251 44.7422 67.3863 44.4943 66.8823 43.9608C66.6664 43.7475 66.4864 43.534 66.2705 43.3207C63.7509 40.6889 60.7682 38.915 57.1798 38.2495C56.2109 38.0744 55.2426 38.0421 54.2755 38.3666C53.3801 38.6909 53.059 39.1558 53.0265 40.1194C52.9932 40.8332 53.2106 41.4747 53.5355 42.0802C54.2576 43.4693 55.2659 44.679 56.4528 45.674C58.8267 47.6641 61.4855 49.1178 64.5714 49.6424C65.1814 49.7473 65.6491 50.1739 65.6868 50.709C65.7247 51.2798 65.475 51.6732 64.9381 51.9605C64.7233 52.0683 64.5448 52.283 64.4378 52.4618C64.082 53.248 63.7622 54.0699 63.4063 54.8561C63.2284 55.2492 63.2649 55.4275 63.6952 55.426C64.6993 55.4226 66.7432 55.3798 66.7433 55.4155C67.7474 55.412 68.7515 55.4085 69.7556 55.405C70.3294 55.4031 70.3293 55.3674 70.1479 54.7971C69.3131 51.9453 68.8726 49.0566 68.9339 46.0947Z" fill="#F9F5F2"/>
<path d="M36.3518 50.846C35.2365 49.8151 33.9079 49.3201 32.438 49.4322C30.8964 49.5446 28.7159 51.5504 28.3267 53.0504C28.2915 53.229 28.2922 53.4431 28.257 53.6216C28.1869 54.0857 28.3675 54.4419 28.6912 54.7262C28.943 54.9395 29.0867 55.0103 29.3724 54.6882C29.9439 54.0439 30.6613 54.0771 31.1295 54.6464C31.3096 54.8956 31.3825 55.2165 31.4195 55.5375C31.5683 57.0713 31.7889 58.6049 32.3678 60.0659C32.7657 61.028 33.3066 61.8825 34.0623 62.6292C35.3218 63.8737 37.5797 63.5091 38.3271 61.9008C38.8609 60.7214 39.1077 59.5073 39.1749 58.2225C38.9917 57.117 38.8442 55.9757 38.5894 54.9061C38.297 53.337 37.5749 51.9479 36.3518 50.846Z" fill="#F9F5F2"/>
<path d="M42.9756 48.3968C42.5088 48.22 41.9348 48.1506 41.4688 48.2236C40.5727 48.3337 39.7849 48.6576 39.1417 49.3021C38.677 49.7319 38.677 49.7319 39.0373 50.1945C39.7216 51.0485 40.2628 51.9744 40.589 52.9724C40.9876 54.1485 41.2787 55.3251 41.4622 56.5376C41.6099 57.7503 41.6857 58.8919 41.4748 60.1058C41.2991 61.1412 41.5177 62.1039 42.2019 62.9222C42.382 63.1357 42.5981 63.4204 42.8494 63.4909C43.9618 63.7011 45.0019 63.7332 45.7152 62.6246C46.0719 62.0881 46.3567 61.4805 46.5697 60.8732C47.1019 59.2656 47.3472 57.6234 47.3405 55.7322C47.3677 53.2701 46.6811 51.7738 45.4204 50.1724C44.736 49.3184 43.9451 48.7502 42.9756 48.3968Z" fill="#F9F5F2"/>
<path d="M95.1554 48.8578C94.3286 48.2897 93.4667 47.9359 92.4269 47.9752C90.9207 47.9447 89.8475 48.6978 89.063 49.9494C88.742 50.45 88.493 51.0218 88.2798 51.5935C87.7113 53.0941 87.5375 54.6647 87.4355 56.2351C87.2633 58.2696 87.7717 60.052 88.9608 61.6893C89.5012 62.4011 90.0398 62.5776 90.8994 62.2892C92.5113 61.784 93.2603 60.6039 93.3257 58.8196C93.3922 57.3207 93.4946 55.8573 93.7046 54.3936C93.9496 52.68 94.3024 51.0374 95.2655 49.5711C95.5511 49.2132 95.4071 49.0353 95.1554 48.8578Z" fill="#F9F5F2"/>
<path d="M122.121 47.9083C121.654 47.9099 121.153 47.983 120.687 48.0916C119.576 48.3096 118.465 48.4918 117.499 49.1375C117.177 49.3527 116.819 49.4967 116.461 49.6406C115.565 50.0006 114.847 49.6106 114.628 48.6836C114.519 48.1487 114.445 47.6137 114.3 47.079C113.864 45.439 112.998 44.0147 111.846 42.7341C110.838 41.5957 109.653 41.0646 108.111 41.284C107.574 41.3573 107 41.3949 106.462 41.4682C105.746 41.6134 105.026 40.9022 105.059 40.1171C105.195 37.9043 105.259 35.656 105 33.4445C104.814 31.7324 104.486 30.0564 104.014 28.4166C101.763 20.6098 97.151 14.417 90.5718 9.6939C85.107 5.752 79.0027 3.48943 72.2947 2.94174C69.5684 2.7014 66.7716 2.78245 64.0478 3.25577C61.2881 3.72921 58.6371 4.48774 56.095 5.6384C50.1517 8.3709 45.5762 12.5617 42.5125 18.3529C40.767 21.6775 39.8112 25.2135 39.4657 28.9614C39.2935 30.9602 39.4437 32.8866 39.5583 34.8845C39.5958 35.3482 39.669 35.7761 39.7424 36.2398C39.7428 36.3468 39.7789 36.4181 39.8151 36.525C39.8507 36.4535 39.8863 36.382 39.9218 36.2748C39.9927 36.0248 40.0635 35.7748 40.1343 35.5247C40.6279 33.0966 41.4446 30.81 42.6562 28.6292C43.9747 26.2338 45.653 24.1941 48.0505 22.7228C49.9471 21.5744 52.0255 21.139 54.214 21.4168C56.1515 21.6956 57.8401 22.5818 59.3149 23.8613C61.8328 26.0293 63.4563 28.8069 64.543 31.9076C64.9054 32.9768 65.1961 34.0463 65.4868 35.1515C65.5597 35.4724 65.668 35.6861 66.0268 35.7205C67.2825 35.8946 68.5025 36.1045 69.7583 36.2785C70.404 36.3477 70.4398 36.3119 70.6886 35.7044C71.2926 34.0965 72.0044 32.5597 72.9317 31.0935C74.3939 28.8047 76.1443 26.8718 78.5423 25.5432C80.0813 24.6815 81.765 24.1761 83.5583 24.2412C85.0287 24.2718 86.4288 24.6951 87.7223 25.4043C89.9859 26.6454 91.6063 28.531 92.8334 30.7391C94.8902 34.3716 95.6215 38.3656 95.7794 42.4686C95.8186 43.4319 95.7144 44.3957 95.6461 45.3594C95.5764 45.9306 95.6855 46.3584 96.2601 46.6062C96.5475 46.7479 96.7993 46.9612 97.0153 47.2102C97.2314 47.4592 97.4465 47.4585 97.6969 47.2792C98.341 46.8844 99.0214 46.5966 99.7742 46.5227C102.785 46.1197 105.625 48.0011 106.817 50.4234C107.286 51.3852 107.613 52.3832 108.011 53.381C108.554 54.8421 109.488 55.4455 110.923 55.4405C113.469 55.396 116.015 55.4228 118.525 55.4142C118.525 55.4142 118.525 55.4142 118.525 55.4498C121.107 55.4409 123.653 55.4321 126.235 55.4231C126.881 55.4209 127.454 55.2762 128.027 54.9887C128.814 54.5578 129.458 54.0203 129.526 53.021C129.594 51.9859 129.304 51.0948 128.584 50.3837C126.857 48.5698 124.666 47.8281 122.121 47.9083Z" fill="#F9F5F2"/>
<path d="M98.3871 49.8452C97.4219 50.7049 96.8158 51.7061 96.4973 52.9205C96.0374 54.7062 96.0438 56.526 96.1577 58.3097C96.2328 59.2729 96.5588 60.1995 97.1354 61.0182C97.7843 61.9794 98.6104 62.3333 99.8987 61.5796C100.579 61.1847 101.079 60.612 101.435 59.8971C102.076 58.6104 102.322 57.2179 102.353 55.7905C102.352 55.6121 102.351 55.398 102.351 55.2196C102.348 54.3275 102.633 53.8626 103.242 53.6821C103.779 53.5375 104.21 53.7501 104.679 54.5335C104.824 54.7828 104.967 54.7109 105.038 54.6036C105.145 54.4249 105.288 54.2103 105.251 54.032C105.032 52.7482 104.49 51.6082 103.733 50.5047C102.724 49.1165 100.21 48.2332 98.3871 49.8452Z" fill="#F9F5F2"/>
<path d="M82.5405 29.7761C82.754 29.3115 82.6088 28.8125 82.2131 28.457C81.8175 28.1372 81.3868 28.0317 80.9573 28.2829C80.6352 28.4625 80.3491 28.6776 80.0989 28.9282C77.3479 31.828 75.2796 35.1537 74.0379 38.976C73.8607 39.5475 73.7911 40.1544 73.6498 40.7615C73.6856 40.7614 73.6856 40.7614 73.7215 40.7612C73.7221 40.9396 73.687 41.1539 73.7235 41.3321C73.834 42.1525 74.6246 42.6493 75.3765 42.2899C75.8777 42.074 76.0914 41.6451 76.1255 41.1454C76.2299 40.253 76.4778 39.3601 76.7977 38.5383C78.0065 35.5724 79.6825 32.8904 81.8977 30.5634C82.184 30.384 82.3981 30.0978 82.5405 29.7761Z" fill="#F9F5F2"/>
<path d="M86.0138 48.7464C84.7907 47.6445 83.2843 47.5784 81.8154 47.976C80.0241 48.4817 79.0967 49.8766 78.5287 51.5199C77.925 53.1991 77.9311 54.9475 77.758 56.6966C77.8326 57.517 77.8713 58.3376 77.9818 59.1579C78.0917 59.8355 78.2736 60.5485 78.7417 61.1178C79.6784 62.3278 82.1186 62.8189 83.6541 60.9581C84.2968 60.1708 84.5446 59.2422 84.6129 58.2785C84.6811 57.2792 84.6417 56.2802 84.8175 55.2805C85.1697 53.4595 85.5578 51.6383 86.3048 49.923C86.6609 49.2081 86.5533 49.2085 86.0138 48.7464Z" fill="#F9F5F2"/>
<path d="M137.175 55.6355C136.888 55.5295 136.601 55.4948 136.314 55.4601C135.919 55.4258 135.418 55.5703 135.166 55.357C134.95 55.1794 134.984 54.6797 134.911 54.2874C134.911 54.2517 134.911 54.216 134.875 54.1805C133.422 48.9044 129.537 45.4566 124.012 44.9405C122.075 44.7688 120.103 44.9183 118.313 45.7452C117.991 45.8891 117.848 45.9253 117.738 45.4974C117.193 43.4297 115.932 41.8283 114.171 40.6926C112.338 39.4857 110.327 38.6362 108.068 38.7868C107.71 38.8237 107.638 38.7169 107.672 38.3243C107.914 35.6472 107.618 33.0077 107.106 30.4046C105.793 23.9504 102.868 18.2869 98.4757 13.4135C94.5154 9.00252 89.77 5.66473 84.311 3.36423C80.145 1.63017 75.8024 0.646086 71.3188 0.37615C68.0906 0.173233 64.9 0.469751 61.7467 1.19434C54.3296 2.93283 48.1025 6.55841 43.3902 12.6409C39.3919 17.7931 37.2968 23.6881 37.0688 30.219C37.0365 31.2539 37.076 32.2886 37.0797 33.3234C37.0804 33.5375 37.0453 33.7517 36.7576 33.5029C36.6497 33.4319 36.5419 33.3609 36.4341 33.2899C33.4501 31.1593 29.5056 31.2443 26.5722 33.2884C22.4941 36.1572 20.9664 40.2304 21.1985 45.0468C21.2362 45.5463 21.2719 45.5105 20.6979 45.4411C20.1237 45.336 19.5496 45.231 18.9758 45.2329C16.2503 45.2067 13.9228 46.2139 11.957 48.0762C10.0625 49.8313 9.03049 52.0829 8.64494 54.6177C8.5751 55.1532 8.57522 55.1889 8.00145 55.1909C6.02911 55.1977 4.02091 55.2047 2.04844 55.1758C1.72569 55.177 1.40295 55.1781 1.08033 55.2149C0.578527 55.288 0.25691 55.6102 0.15096 56.0745C0.0091486 56.5389 0.261429 56.8948 0.549319 57.1793C0.873195 57.4993 1.30352 57.4978 1.73385 57.4963C6.96965 57.5139 12.2056 57.5671 17.4414 57.5847C20.8124 57.6087 24.2192 57.5969 27.5901 57.5852C28.0204 57.5837 28.4507 57.5822 28.8452 57.5809C29.168 57.5797 29.3116 57.6506 29.3488 58.0073C29.4224 58.5423 29.5677 59.077 29.7489 59.6117C30.2931 61.394 31.0879 63.0683 32.5267 64.3122C33.7859 65.4497 35.258 65.9799 37.0138 65.5813C37.9813 65.3638 38.8406 64.9684 39.5553 64.2522C39.7698 64.0731 39.913 64.0012 40.0932 64.2503C40.1652 64.3215 40.2372 64.3926 40.2733 64.4638C41.8938 66.3851 45.516 66.4439 47.1943 64.4042C47.5156 64.0105 47.8369 63.5812 48.1223 63.152C48.4434 62.687 48.4434 62.687 48.8032 63.0426C49.6309 63.8605 50.6015 64.5351 51.679 64.9952C53.4389 65.7742 55.0157 65.4476 56.4817 64.2293C57.7331 63.1544 58.4814 61.7959 58.7985 60.189C58.9396 59.5462 58.9732 58.9038 59.0427 58.2613C59.1124 57.6901 59.1482 57.6543 59.6861 57.6524C59.7937 57.6521 59.8654 57.6518 59.973 57.6514C64.8142 57.6347 69.6554 57.6179 74.5325 57.6367C75.3573 57.6338 75.3573 57.6338 75.4318 58.4186C75.4689 58.7753 75.5778 59.1318 75.6148 59.4528C75.8727 61.4145 76.8465 62.9812 78.5357 64.0458C80.9796 65.5717 84.062 65.0972 85.7754 62.8432C85.8469 62.7716 85.8825 62.7001 85.9538 62.5928C86.3823 62.0561 86.3823 62.0561 86.7786 62.5899C87.0668 62.9458 87.3192 63.3374 87.6431 63.6574C88.7946 64.7953 90.1237 65.433 91.7717 64.9634C93.0256 64.6022 94.171 63.9917 95.064 62.9894C95.3141 62.7388 95.4572 62.6312 95.7453 62.9871C96.2494 63.5563 96.8606 64.018 97.6141 64.1225C99.0851 64.3315 100.483 64.1482 101.663 63.1807C102.521 62.464 103.307 61.6763 103.734 60.64C104.054 59.8538 104.338 59.0678 104.515 58.2465C104.621 57.8179 104.799 57.6389 105.23 57.6731C105.409 57.6725 105.553 57.672 105.732 57.6714C110.788 57.6538 115.809 57.6364 120.865 57.6189L120.865 57.6546C121.403 57.6884 121.977 57.7578 122.515 57.756C127.177 57.7755 131.839 57.7593 136.465 57.7433C136.752 57.7423 137.039 57.67 137.325 57.5619C137.791 57.3819 137.969 56.9531 137.967 56.4535C137.894 56.1326 137.642 55.7767 137.175 55.6355ZM25.8877 52.7739C25.4985 54.2739 24.2106 55.1704 22.5612 55.2118C21.1627 55.2524 19.764 55.2215 18.3655 55.2264C17.0745 55.2308 15.7477 55.2711 14.4566 55.2399C14.0263 55.2414 13.5599 55.1717 13.129 55.0304C12.052 54.6773 11.4022 53.4663 11.936 52.2869C13.0033 49.8568 15.9709 47.3487 19.7382 47.8709C20.4558 47.9754 21.1385 48.3656 21.8209 48.6487C22.1081 48.7547 22.3958 48.9678 22.7186 49.0024C23.4721 49.1068 24.08 48.6052 24.0413 47.8203C24.0032 47.1781 23.8217 46.5364 23.7119 45.9302C23.0884 41.9715 24.5435 37.6488 27.9781 35.3532C29.0871 34.6 30.3409 34.2031 31.632 34.2343C33.4611 34.2994 35.0058 35.0434 36.2301 36.4664C36.6621 36.9645 36.9868 37.4986 37.3115 38.0685C37.7806 38.8875 38.3204 39.4209 39.3236 39.1677C39.3953 39.1674 39.5392 39.274 39.5393 39.3097C39.5402 39.5594 39.5412 39.8449 39.5062 40.0948C39.2965 41.6656 39.3022 43.2713 39.5229 44.8406C39.5594 45.0189 39.5243 45.2331 39.5607 45.4114C39.6342 45.9107 39.4559 46.1968 38.9906 46.4482C38.3105 46.8074 37.7026 47.3091 37.1306 47.8106C36.8804 48.0256 36.6653 48.062 36.3779 47.9203C35.1204 47.2466 33.7926 46.9658 32.3583 47.0064C31.3543 47.0456 30.4228 47.2986 29.6 47.8724C27.8471 49.0917 26.4181 50.631 25.8877 52.7739ZM38.3995 61.9011C37.652 63.5095 35.3941 63.8741 34.1346 62.6296C33.3788 61.8828 32.8379 61.0283 32.4401 60.0662C31.8611 58.6052 31.6048 57.1074 31.4917 55.5377C31.4548 55.2167 31.3819 54.8958 31.2017 54.6467C30.7334 54.0417 30.0162 54.0442 29.4447 54.6884C29.1589 55.0106 29.0152 54.9397 28.7634 54.7265C28.4397 54.4421 28.2591 54.0859 28.3292 53.6218C28.3645 53.4433 28.3637 53.2292 28.3989 53.0506C28.7881 51.5506 30.9327 49.5449 32.5102 49.4324C33.9802 49.3202 35.3089 49.8509 36.4241 50.8461C37.6472 51.9481 38.3694 53.3372 38.7335 54.906C38.9884 56.0113 39.1357 57.117 39.3189 58.2226C39.18 59.5076 38.9691 60.7216 38.3995 61.9011ZM47.3071 55.6971C47.3137 57.5882 47.0685 59.2305 46.5362 60.8381C46.3232 61.4455 46.0384 62.0531 45.6817 62.5896C44.9684 63.6982 43.9284 63.7018 42.8159 63.4559C42.5647 63.4211 42.3486 63.1364 42.1684 62.8872C41.52 62.0687 41.2656 61.1062 41.4412 60.0707C41.6523 58.8925 41.6123 57.715 41.4287 56.5024C41.281 55.2897 40.9541 54.1133 40.5555 52.9371C40.2291 51.9035 39.688 51.0133 39.0037 50.1592C38.6076 49.6967 38.6434 49.6966 39.1081 49.2668C39.7514 48.6223 40.575 48.2982 41.4353 48.1882C41.9371 48.1151 42.4754 48.2203 42.9421 48.3614C43.8757 48.715 44.7025 49.2831 45.3509 50.1016C46.6477 51.7385 47.3344 53.2705 47.3071 55.6971ZM45.1258 37.0779C45.0205 37.7206 45.0944 38.3626 45.0967 39.0049C45.0644 40.0042 44.6359 40.5409 43.883 40.5792C43.1657 40.5817 42.6257 39.9769 42.5507 39.0494C42.55 38.8353 42.5491 38.5856 42.5483 38.3715C42.6493 36.4799 42.9656 34.659 43.6767 32.908C44.7073 30.2639 46.2411 27.9035 48.3861 26.0048C48.7078 25.7182 49.1373 25.467 49.5312 25.3229C50.1044 25.1425 50.5714 25.3906 50.788 25.7824C51.0765 26.2453 51.0069 26.8521 50.5782 27.3175C50.3995 27.4965 50.2209 27.6756 50.0063 27.8547C47.2896 30.3263 45.7227 33.4719 45.1258 37.0779ZM56.2532 60.4476C55.934 61.4479 55.3992 62.3418 54.4329 62.8804C54.0392 63.0959 53.6805 63.0971 53.2497 62.9559C51.2391 62.2848 50.1936 60.7184 49.6849 58.8289C49.503 58.0802 49.6076 57.2235 49.6764 56.4025C49.8129 54.4395 49.5553 52.5491 48.6883 50.768C48.2551 49.9488 48.326 49.6987 49.0772 49.1609C50.1145 48.4079 51.226 48.3684 52.3752 48.8283C53.3448 49.2175 54.1002 49.8572 54.7127 50.6757C55.7938 52.1707 56.8054 54.3082 56.708 57.1989C56.7475 58.2336 56.6081 59.3759 56.2532 60.4476ZM69.7552 55.4052C68.7511 55.4087 67.747 55.4122 66.7429 55.4156C66.7427 55.3799 64.7348 55.4583 63.6947 55.4262C63.2644 55.4277 63.2637 55.2493 63.4058 54.8563C63.7616 54.07 64.0815 53.2482 64.4374 52.4619C64.5442 52.2474 64.7227 52.0327 64.9376 51.9606C65.4747 51.709 65.7242 51.2799 65.6863 50.7091C65.6487 50.2097 65.1809 49.7474 64.5709 49.6425C61.4848 49.0822 58.8261 47.6641 56.4523 45.6741C55.2654 44.679 54.257 43.4693 53.5349 42.0801C53.21 41.4747 52.9926 40.8331 53.0259 40.1193C53.0585 39.1915 53.3795 38.6908 54.2749 38.3665C55.2062 38.0421 56.2104 38.0744 57.1793 38.2494C60.7677 38.915 63.7506 40.7245 66.27 43.3206C66.4859 43.534 66.6659 43.7475 66.8819 43.9608C67.3858 44.4943 67.9246 44.7422 68.6044 44.3117C68.8907 44.1323 68.9272 44.3106 68.9279 44.5247C68.9298 45.0599 68.9316 45.5595 68.9335 46.0947C68.8722 49.0566 69.3127 51.9454 70.1834 54.7971C70.3647 55.3674 70.3288 55.3675 69.7552 55.4052ZM76.8323 38.5739C76.4767 39.4315 76.2287 40.2887 76.1601 41.1811C76.1262 41.7164 75.9125 42.1454 75.4111 42.3255C74.6591 42.6493 73.8686 42.1881 73.7581 41.3678C73.7216 41.1895 73.7567 40.9753 73.7561 40.7969C73.7202 40.797 73.7202 40.797 73.6844 40.7971C73.8257 40.19 73.8953 39.5832 74.0726 39.0116C75.3143 35.1892 77.3825 31.8635 80.1336 28.9636C80.3838 28.713 80.6699 28.4979 80.992 28.3183C81.4215 28.0671 81.8522 28.1726 82.2478 28.4924C82.6435 28.8479 82.7886 29.3112 82.5752 29.8116C82.4328 30.1332 82.1828 30.4195 81.9685 30.6701C79.7173 32.9616 78.0412 35.608 76.8323 38.5739ZM86.3039 49.9597C85.5568 51.6751 85.1329 53.4964 84.8165 55.3173C84.6406 56.2814 84.6801 57.3161 84.6119 58.3154C84.5436 59.2791 84.3318 60.2433 83.6531 60.995C82.0818 62.856 79.6773 62.3647 78.7407 61.1548C78.3082 60.5496 78.1265 59.8723 77.9807 59.1948C77.8344 58.3746 77.8314 57.5182 77.7569 56.7334C77.9299 54.9487 77.9238 53.2002 78.5276 51.5567C79.1315 49.9132 80.059 48.5183 81.8144 48.0127C83.2832 47.5794 84.7897 47.6812 86.0128 48.7832C86.5523 49.2095 86.6598 49.2091 86.3039 49.9597ZM95.3037 49.5717C94.3406 51.038 93.9877 52.6807 93.7427 54.3943C93.5327 55.8581 93.3944 57.3216 93.3638 58.8204C93.2984 60.6048 92.5493 61.7492 90.9375 62.2901C90.0778 62.5785 89.5393 62.402 88.9989 61.6902C87.7738 60.053 87.3014 58.2704 87.4735 56.2359C87.6114 54.6654 87.7494 53.0948 88.3179 51.5941C88.531 51.0225 88.78 50.4507 89.101 49.95C89.8857 48.7341 90.9589 47.981 92.465 47.9758C93.5048 47.9365 94.3668 48.2903 95.1936 48.8584C95.4094 49.0361 95.5534 49.214 95.3037 49.5717ZM105.04 54.5693C104.968 54.6766 104.825 54.7485 104.681 54.4992C104.212 53.7158 103.781 53.4675 103.243 53.6478C102.634 53.8283 102.349 54.2932 102.352 55.1852C102.353 55.3636 102.354 55.5777 102.354 55.7562C102.359 57.1835 102.113 58.576 101.436 59.8629C101.08 60.5778 100.58 61.1505 99.9001 61.5453C98.5759 62.2993 97.7857 61.9452 97.1369 60.984C96.5602 60.1653 96.2342 59.2386 96.1591 58.2754C96.0451 56.456 96.0388 54.6718 96.4987 52.8861C96.8172 51.6718 97.4232 50.6348 98.3886 49.8108C100.212 48.2344 102.761 49.082 103.734 50.4346C104.491 51.5024 105.033 52.6424 105.253 53.962C105.289 54.1402 105.147 54.3905 105.04 54.5693ZM129.563 53.057C129.495 54.0564 128.816 54.594 128.064 55.0248C127.527 55.3121 126.918 55.457 126.273 55.4592C123.69 55.4325 121.144 55.477 118.563 55.4859C118.563 55.4859 118.563 55.4859 118.562 55.4502C116.016 55.459 113.47 55.4322 110.96 55.4766C109.526 55.5172 108.555 54.8783 108.048 53.417C107.686 52.4191 107.324 51.4213 106.854 50.4594C105.662 48.0728 102.858 46.1913 99.8116 46.5587C99.0589 46.6683 98.3784 46.9205 97.7343 47.3152C97.4839 47.4945 97.3046 47.4951 97.0527 47.2462C96.8366 46.9972 96.5848 46.784 96.2975 46.6422C95.7228 46.3944 95.6137 45.9666 95.6834 45.3954C95.7876 44.4316 95.856 43.4679 95.8167 42.5046C95.6588 38.4016 94.9277 34.4433 92.8707 30.775C91.6437 28.5669 90.0233 26.6813 87.7597 25.4402C86.4662 24.731 85.0661 24.3077 83.5957 24.2771C81.8024 24.212 80.1187 24.7174 78.5797 25.5791C76.1817 26.9077 74.4313 28.8406 72.969 31.1294C72.0418 32.5957 71.3299 34.1325 70.726 35.7403C70.4771 36.3478 70.4415 36.4193 69.7956 36.3145C68.5398 36.1404 67.284 35.9307 66.0641 35.7565C65.7053 35.722 65.6327 35.4725 65.5241 35.1874C65.2335 34.1179 64.9427 33.0128 64.5803 31.9435C63.4936 28.8428 61.9059 26.065 59.3522 23.8972C57.8774 22.6177 56.1888 21.7315 54.2513 21.4527C52.0626 21.1392 49.9844 21.6102 48.0878 22.7587C45.726 24.1942 44.0119 26.2698 42.6935 28.6651C41.4818 30.8103 40.701 33.1324 40.1716 35.5607C40.1008 35.8107 40.0299 36.0608 39.9591 36.3108C39.9235 36.3823 39.8879 36.4538 39.8524 36.561C39.8161 36.454 39.78 36.3828 39.7796 36.2757C39.7063 35.8121 39.6331 35.3842 39.5956 34.9204C39.4811 32.9582 39.3307 30.9962 39.503 28.9973C39.8484 25.2494 40.8043 21.7134 42.5498 18.3888C45.5776 12.5976 50.1889 8.40672 56.1323 5.6742C58.6744 4.52353 61.3254 3.765 64.0851 3.29155C66.8447 2.81811 69.6058 2.73718 72.3321 2.97752C79.04 3.52522 85.1444 5.7878 90.6091 9.72972C97.1884 14.4528 101.8 20.61 104.087 28.4524C104.559 30.0922 104.852 31.7683 105.073 33.4804C105.332 35.7275 105.268 37.9401 105.132 40.1529C105.099 40.9381 105.819 41.6136 106.536 41.504C107.073 41.3951 107.611 41.3933 108.185 41.3199C109.69 41.1006 110.911 41.6673 111.919 42.77C113.036 44.0507 113.937 45.4749 114.373 47.1148C114.518 47.6496 114.592 48.1846 114.702 48.7195C114.92 49.6465 115.638 50.0008 116.534 49.6766C116.892 49.5326 117.25 49.3886 117.572 49.1734C118.538 48.4921 119.649 48.3455 120.76 48.1275C121.226 48.0189 121.728 47.9815 122.194 47.9442C124.704 47.8641 126.93 48.6414 128.694 50.4552C129.306 51.131 129.631 52.022 129.563 53.057Z" fill="#1A1A1A"/>
</g>
<defs>
<clipPath id="clip0_130_40205">
<rect width="138" height="66" fill="white"/>
</clipPath>
</defs>
</svg>
