<svg width="179" height="192" viewBox="0 0 179 192" fill="none" xmlns="http://www.w3.org/2000/svg">
<g clip-path="url(#clip0_270_42201)">
<path d="M90.2538 28.8574L90.2538 28.8573L90.2601 28.8555C90.6311 28.7526 91.0705 28.6444 91.492 28.6711C92.105 28.6968 92.7303 28.7795 93.298 28.8546C93.3523 28.8618 93.4062 28.8689 93.4594 28.8759L93.4875 28.8796L93.5141 28.8893C93.8266 29.0036 94.1362 29.1122 94.4415 29.2192C94.833 29.3564 95.2172 29.4911 95.5909 29.6323L95.5909 29.6322L95.5938 29.6334C96.8384 30.121 98.0007 30.8167 99.0272 31.675C99.6282 32.1776 100.153 32.7653 100.525 33.4565L100.525 33.4564L100.528 33.4631C100.892 34.1908 100.918 34.9441 100.634 35.577C100.35 36.2096 99.769 36.6921 98.978 36.905C98.2539 37.1084 97.4884 37.0944 96.7941 36.9647C94.4919 36.5857 92.4585 35.6199 90.6672 34.1956C89.9562 33.6379 89.2859 32.9498 88.885 32.0793C88.5581 31.4105 88.5276 30.7164 88.7752 30.1264C89.0235 29.5348 89.5403 29.0751 90.2538 28.8574Z" fill="#1A1A1A" stroke="#1A1A1A" stroke-width="0.513177"/>
<path d="M77.9666 17.4819L77.9666 17.4816C78.5509 17.5139 79.0981 17.341 79.357 16.7773C79.535 16.4185 79.5548 16.0194 79.4137 15.6776C79.2703 15.3304 78.9678 15.0611 78.5443 14.9616L78.5334 14.959L78.5334 14.9593C77.8297 14.826 77.0834 14.7151 76.3499 14.6727L76.3434 14.6724L76.3434 14.6724C74.7554 14.6209 73.172 14.7351 71.6401 15.292C69.7307 15.9817 68.1208 17.0842 67.1188 18.9667L67.1181 18.9679C66.3452 20.4384 66.1506 21.9759 66.356 23.5936L77.9666 17.4819ZM77.9666 17.4819L77.9536 17.4806M77.9666 17.4819L77.9536 17.4806M77.9536 17.4806C77.211 17.4017 76.4803 17.3242 75.7372 17.306C74.3433 17.2908 72.9737 17.4966 71.7027 18.0892M77.9536 17.4806L71.7027 18.0892M71.3351 29.0646C71.5502 29.4971 71.391 29.9053 71.0358 30.2038M71.3351 29.0646C71.1832 28.752 70.9848 28.4683 70.7802 28.1758C70.7261 28.0984 70.6716 28.0204 70.6173 27.941L71.0358 30.2038M71.3351 29.0646L71.5649 28.9503C71.565 28.9507 71.5652 28.951 71.5654 28.9514M71.3351 29.0646L71.5659 28.9524C71.5657 28.9521 71.5656 28.9517 71.5654 28.9514M71.0358 30.2038C70.6506 30.4953 70.172 30.5102 69.8014 30.2003C69.5367 29.9789 69.3092 29.7345 69.1187 29.4669L71.0358 30.2038ZM71.7027 18.0892C70.3333 18.745 69.3837 19.7555 69.029 21.2654L69.0287 21.2668L69.0283 21.2682L69.028 21.2696L69.0277 21.271L69.0273 21.2724L69.027 21.2739L69.0267 21.2753L69.0263 21.2767L69.026 21.2781L69.0257 21.2795L69.0253 21.2809L69.025 21.2823L69.0247 21.2838L69.0243 21.2852L69.024 21.2866L69.0237 21.288L69.0233 21.2894L69.023 21.2908L69.0227 21.2922L69.0223 21.2937L69.022 21.2951L69.0217 21.2965L69.0213 21.2979L69.021 21.2993L69.0207 21.3007L69.0204 21.3021L69.02 21.3035L69.0197 21.305L69.0194 21.3064L69.019 21.3078L69.0187 21.3092L69.0184 21.3106L69.018 21.312L69.0177 21.3134L69.0174 21.3149L69.017 21.3163L69.0167 21.3177L69.0164 21.3191L69.016 21.3205L69.0157 21.3219L69.0154 21.3233L69.015 21.3248L69.0147 21.3262L69.0144 21.3276L69.014 21.329L69.0137 21.3304L69.0134 21.3318L69.013 21.3332L69.0127 21.3347L69.0124 21.3361L69.012 21.3375L69.0117 21.3389L69.0114 21.3403L69.0111 21.3417L69.0107 21.3431L69.0104 21.3446L69.0101 21.346L69.0097 21.3474L69.0094 21.3488L69.0091 21.3502L69.0087 21.3516L69.0084 21.353L69.0081 21.3545L69.0077 21.3559L69.0074 21.3573L69.0071 21.3587L69.0067 21.3601L69.0064 21.3615L69.0061 21.3629L69.0057 21.3644L69.0054 21.3658L69.0051 21.3672L69.0047 21.3686L69.0044 21.37L69.0041 21.3714L69.0037 21.3728L69.0034 21.3742L69.0031 21.3757L69.0027 21.3771L69.0024 21.3785L69.0021 21.3799L69.0017 21.3813L69.0014 21.3827L69.0011 21.3841L69.0008 21.3856L69.0004 21.387L69.0001 21.3884L68.9998 21.3898L68.9994 21.3912L68.9991 21.3926L68.9988 21.394L68.9984 21.3955L68.9981 21.3969L68.9978 21.3983L68.9974 21.3997L68.9971 21.4011L68.9968 21.4025L68.9964 21.4039L68.9961 21.4054L68.9958 21.4068L68.9954 21.4082L68.9951 21.4096L68.9948 21.411L68.9944 21.4124L68.9941 21.4138L68.9938 21.4153L68.9934 21.4167L68.9931 21.4181L68.9928 21.4195L68.9924 21.4209L68.9921 21.4223L68.9918 21.4237L68.9914 21.4252L68.9911 21.4266L68.9908 21.428L68.9905 21.4294L68.9901 21.4308L68.9898 21.4322L68.9895 21.4336L68.9891 21.435L68.9888 21.4365L68.9885 21.4379L68.9881 21.4393L68.9878 21.4407L68.9875 21.4421L68.9871 21.4435L68.9868 21.4449L68.9865 21.4464L68.9861 21.4478L68.9858 21.4492L68.9855 21.4506L68.9851 21.452L68.9848 21.4534L68.9845 21.4548L68.9841 21.4563L68.9838 21.4577L68.9835 21.4591L68.9831 21.4605L68.9828 21.4619L68.9825 21.4633L68.9821 21.4647L68.9818 21.4662L68.9815 21.4676L68.9811 21.469L68.9808 21.4704L68.9805 21.4718L68.9802 21.4732L68.9798 21.4746L68.9795 21.4761L68.9792 21.4775L68.9788 21.4789L68.9785 21.4803L68.9782 21.4817L68.9778 21.4831L68.9775 21.4845L68.9772 21.486L68.9768 21.4874L68.9765 21.4888L68.9762 21.4902L68.9758 21.4916L68.9755 21.493L68.9752 21.4944L68.9748 21.4959L68.9745 21.4973L68.9742 21.4987L68.9738 21.5001L68.9735 21.5015L68.9732 21.5029L68.9728 21.5043L68.9725 21.5057L68.9722 21.5072L68.9718 21.5086L68.9715 21.51L68.9712 21.5114L68.9708 21.5128L68.9705 21.5142L68.9702 21.5156L68.9699 21.5171L68.9695 21.5185L68.9692 21.5199L68.9689 21.5213L68.9685 21.5227L68.9682 21.5241L68.9679 21.5255L68.9675 21.527L68.9672 21.5284L68.9669 21.5298L68.9665 21.5312L68.9662 21.5326L68.9659 21.534L68.9655 21.5354L68.9652 21.5369L68.9649 21.5383L68.9645 21.5397L68.9642 21.5411L68.9639 21.5425L68.9635 21.5439L68.9632 21.5453L68.9629 21.5468L68.9625 21.5482L68.9622 21.5496L68.9619 21.551L68.9615 21.5524L68.9612 21.5538L68.9609 21.5552L68.9606 21.5567L68.9602 21.5581L68.9599 21.5595L68.9596 21.5609L68.9592 21.5623L68.9589 21.5637L68.9586 21.5651L68.9582 21.5666L68.9579 21.568L68.9576 21.5694L68.9572 21.5708L68.9569 21.5722L68.9566 21.5736L68.9562 21.575L68.9559 21.5764L68.9556 21.5779L68.9552 21.5793L68.9549 21.5807L68.9546 21.5821L68.9542 21.5835L68.9539 21.5849L68.9536 21.5863L68.9532 21.5878L68.9529 21.5892L68.9526 21.5906L68.9522 21.592L68.9519 21.5934L68.9516 21.5948L68.9512 21.5962L68.9509 21.5977L68.9506 21.5991L68.9503 21.6005L68.9499 21.6019L68.9496 21.6033L68.9493 21.6047L68.9489 21.6061L68.9486 21.6076L68.9483 21.609L68.9479 21.6104L68.9476 21.6118L68.9473 21.6132L68.9469 21.6146L68.9466 21.616L68.9463 21.6175L68.9459 21.6189L68.9456 21.6203L68.9453 21.6217L68.9449 21.6231L68.9446 21.6245L68.9443 21.6259L68.9439 21.6274L68.9436 21.6288L68.9433 21.6302L68.9429 21.6316L68.9426 21.633L68.9423 21.6344L68.9419 21.6358L68.9416 21.6373L68.9413 21.6387L68.9409 21.6401L68.9406 21.6415L68.9403 21.6429L68.94 21.6443L68.9396 21.6457L68.9393 21.6471L68.939 21.6486L68.9386 21.65L68.9383 21.6514L68.938 21.6528L68.9376 21.6542L68.9373 21.6556L68.937 21.657L68.9366 21.6585L68.9363 21.6599L68.936 21.6613L68.9356 21.6627L68.9353 21.6641L68.935 21.6655L68.9346 21.6669L68.9343 21.6684L68.934 21.6698L68.9336 21.6712L68.9333 21.6726L68.933 21.674L68.9326 21.6754L68.9323 21.6768L68.932 21.6783L68.9316 21.6797L68.9313 21.6811L68.931 21.6825L68.9306 21.6839L68.9303 21.6853L68.93 21.6867L68.9297 21.6882L68.9293 21.6896L68.929 21.691L68.9287 21.6924L68.9283 21.6938L68.928 21.6952L68.9277 21.6966L68.9273 21.6981L68.927 21.6995L68.9267 21.7009L68.9263 21.7023L68.926 21.7037L68.9257 21.7051L68.9253 21.7065L68.925 21.708L68.9247 21.7094L68.9243 21.7108L68.924 21.7122L68.9237 21.7136L68.9233 21.715L68.923 21.7164L68.9227 21.7178L68.9223 21.7193L68.922 21.7207L68.9217 21.7221L68.9213 21.7235L68.921 21.7249L68.9207 21.7263L68.9203 21.7277L68.92 21.7292L68.9197 21.7306L68.9194 21.732L68.919 21.7334L68.9187 21.7348L68.9184 21.7362L68.918 21.7376L68.9177 21.7391L68.9174 21.7405L68.917 21.7419L68.9167 21.7433L68.9164 21.7447L68.916 21.7461L68.9157 21.7475L68.9154 21.749L68.915 21.7504L68.9147 21.7518L68.9144 21.7532L68.914 21.7546L68.9137 21.756L68.9134 21.7574L68.913 21.7589L68.9127 21.7603L68.9124 21.7617L68.912 21.7631L68.9117 21.7645L68.9114 21.7659L68.911 21.7673L68.9107 21.7688L68.9104 21.7702L68.9101 21.7716L68.9097 21.773L68.9094 21.7744L68.9091 21.7758L68.9087 21.7772L68.9084 21.7787L68.9081 21.7801L68.9077 21.7815L68.9074 21.7829L68.9071 21.7843L68.9067 21.7857L68.9064 21.7871L68.9061 21.7885L68.9057 21.79L68.9054 21.7914L68.9051 21.7928L68.9047 21.7942L68.9044 21.7956L68.9041 21.797L68.9037 21.7984L68.9034 21.7999L68.9031 21.8013L68.9027 21.8027L68.9024 21.8041L68.9021 21.8055L68.9017 21.8069L68.9014 21.8083L68.9011 21.8098L68.9007 21.8112L68.9004 21.8126L68.9001 21.814L68.8998 21.8154L68.8994 21.8168L68.8991 21.8182L68.8988 21.8197L68.8984 21.8211L68.8981 21.8225L68.8978 21.8239L68.8974 21.8253L68.8971 21.8267L68.8968 21.8281L68.8964 21.8296L68.8961 21.831L68.8958 21.8324L68.8954 21.8338L68.8951 21.8352L68.8948 21.8366L68.8944 21.838L68.8941 21.8395L68.8938 21.8409L68.8934 21.8423L68.8931 21.8437L68.8928 21.8451L68.8924 21.8465L68.8921 21.8479L68.8918 21.8494L68.8914 21.8508L68.8911 21.8522L68.8908 21.8536L68.8904 21.855L68.8901 21.8564L68.8898 21.8578L68.8895 21.8592L68.8891 21.8607L68.8888 21.8621L68.8885 21.8635L68.8881 21.8649L68.8878 21.8663L68.8875 21.8677L68.8871 21.8691L68.8868 21.8706L68.8865 21.872L68.8861 21.8734L68.8858 21.8748L68.8855 21.8762L68.8851 21.8776L68.8848 21.879L68.8845 21.8805L68.8841 21.8819L68.8838 21.8833L68.8835 21.8847L68.8831 21.8861L68.8828 21.8875L68.8825 21.8889L68.8821 21.8904L68.8818 21.8918L68.8815 21.8932L68.8811 21.8946L68.8808 21.896L68.8805 21.8974L68.8801 21.8988L68.8798 21.9003L68.8795 21.9017L68.8792 21.9031L68.8788 21.9045L68.8785 21.9059L68.8782 21.9073L68.8778 21.9087L68.8775 21.9102L68.8772 21.9116L68.8768 21.913L68.8765 21.9144L68.8762 21.9158L68.8758 21.9172L68.8755 21.9186L68.8752 21.9201L68.8748 21.9215L68.8745 21.9229L68.8742 21.9243L68.8738 21.9257L68.8735 21.9271L68.8732 21.9285L68.8728 21.9299L68.8725 21.9314L68.8722 21.9328L68.8718 21.9342L68.8715 21.9356L68.8712 21.937L68.8708 21.9384L68.8705 21.9398L68.8702 21.9413L68.8698 21.9427L68.8695 21.9441L68.8692 21.9455L68.8689 21.9469L68.8685 21.9483L68.8682 21.9497L68.8679 21.9512L68.8675 21.9526L68.8672 21.954L68.8669 21.9554L68.8665 21.9568L68.8662 21.9582L68.8659 21.9596L68.8655 21.9611L68.8652 21.9625L68.8649 21.9639L68.8645 21.9653L68.8642 21.9667L68.8639 21.9681L68.8635 21.9695L68.8632 21.971L68.8629 21.9724L68.8625 21.9738L68.8622 21.9752L68.8619 21.9766L68.8615 21.978L68.8612 21.9794L68.8609 21.9809L68.8605 21.9823L68.8602 21.9837L68.8599 21.9851L68.8596 21.9865L68.8592 21.9879L68.8589 21.9893C68.8547 22.007 68.8539 22.0285 68.859 22.0663C68.8613 22.0832 68.8641 22.0992 68.8678 22.1204C68.8686 22.1249 68.8695 22.1297 68.8704 22.1348C68.8749 22.1607 68.8806 22.1946 68.8838 22.2305L68.885 22.2435L68.8848 22.2564C68.861 24.3102 69.6631 26.1089 70.8284 27.7951L70.8291 27.7962C70.8798 27.8703 70.932 27.9449 70.9846 28.0201C71.1904 28.3142 71.4037 28.6191 71.5654 28.9514M71.7027 18.0892L66.3561 23.5942C66.5359 25.0385 66.9978 26.3846 67.7013 27.6545C68.0591 28.3197 68.4836 28.9668 68.9009 29.6027L68.9041 29.6077L68.9095 29.6158L68.9096 29.6157C69.1135 29.902 69.3562 30.1624 69.6368 30.3971C70.1093 30.7922 70.7211 30.7637 71.1906 30.4084L71.2011 30.4005L71.2009 30.4003C71.4067 30.2273 71.5703 30.0104 71.6453 29.7574C71.7217 29.4996 71.7002 29.223 71.5654 28.9514" fill="#1A1A1A" stroke="#1A1A1A" stroke-width="0.513177"/>
<path d="M120.494 49.673L120.492 49.6739C117.889 50.8211 115.188 50.8973 112.567 50.4428L112.56 50.4415L112.552 50.4398L112.551 50.4394L112.549 50.439L112.548 50.4387L112.546 50.4383L112.544 50.4379L112.543 50.4376L112.541 50.4372L112.54 50.4368L112.538 50.4365L112.537 50.4361L112.535 50.4357L112.533 50.4353L112.532 50.435L112.53 50.4346L112.529 50.4343L112.527 50.4339L112.526 50.4335L112.524 50.4332L112.523 50.4328L112.521 50.4324L112.52 50.4321L112.518 50.4317L112.516 50.4313L112.515 50.431L112.513 50.4306L112.512 50.4303L112.51 50.4299L112.509 50.4295L112.507 50.4292L112.506 50.4288L112.504 50.4285L112.503 50.4281L112.501 50.4278L112.5 50.4274L112.498 50.427L112.497 50.4267L112.495 50.4263L112.494 50.426L112.492 50.4256L112.491 50.4253L112.489 50.4249L112.488 50.4246L112.486 50.4242L112.485 50.4239L112.483 50.4235L112.482 50.4232L112.48 50.4228L112.479 50.4225L112.477 50.4221L112.476 50.4218L112.474 50.4214L112.473 50.4211L112.471 50.4207L112.47 50.4204L112.468 50.42L112.467 50.4197L112.465 50.4193L112.464 50.419L112.462 50.4186L112.461 50.4183L112.459 50.4179L112.458 50.4176L112.456 50.4173L112.455 50.4169L112.454 50.4166L112.452 50.4162L112.451 50.4159L112.449 50.4155L112.448 50.4152L112.446 50.4149L112.445 50.4145L112.443 50.4142L112.442 50.4138L112.44 50.4135L112.439 50.4132L112.438 50.4128L112.436 50.4125L112.435 50.4121L112.433 50.4118L112.432 50.4115L112.43 50.4111L112.429 50.4108L112.428 50.4105L112.426 50.4101L112.425 50.4098L112.423 50.4095L112.422 50.4091L112.42 50.4088L112.419 50.4084L112.418 50.4081L112.416 50.4078L112.415 50.4074L112.413 50.4071L112.412 50.4068L112.411 50.4065L112.409 50.4061L112.408 50.4058L112.406 50.4055L112.405 50.4051L112.403 50.4048L112.402 50.4045L112.401 50.4041L112.399 50.4038L112.398 50.4035L112.396 50.4032L112.395 50.4028L112.394 50.4025L112.392 50.4022L112.391 50.4018L112.39 50.4015L112.388 50.4012L112.387 50.4009L112.385 50.4005L112.384 50.4002L112.383 50.3999L112.381 50.3996L112.38 50.3992L112.378 50.3989L112.377 50.3986L112.376 50.3983L112.374 50.398L112.373 50.3976L112.372 50.3973L112.37 50.397L112.369 50.3967L112.367 50.3963L112.366 50.396L112.365 50.3957L112.363 50.3954L112.362 50.3951L112.361 50.3947L112.359 50.3944L112.358 50.3941L112.357 50.3938L112.355 50.3935L112.354 50.3931L112.353 50.3928L112.351 50.3925L112.35 50.3922L112.348 50.3919L112.347 50.3916L112.346 50.3912L112.344 50.3909L112.343 50.3906L112.342 50.3903L112.34 50.39L112.339 50.3897L112.338 50.3894L112.336 50.389L112.335 50.3887L112.334 50.3884L112.332 50.3881L112.331 50.3878L112.33 50.3875L112.328 50.3872L112.327 50.3869L112.326 50.3865L112.324 50.3862L112.323 50.3859L112.322 50.3856L112.32 50.3853L112.319 50.385L112.318 50.3847L112.317 50.3844L112.315 50.3841L112.314 50.3838L112.313 50.3834L112.311 50.3831L112.31 50.3828L112.309 50.3825L112.307 50.3822L112.306 50.3819L112.305 50.3816L112.303 50.3813L112.302 50.381L112.301 50.3807L112.3 50.3804L112.298 50.3801L112.297 50.3798L112.296 50.3795L112.294 50.3792L112.293 50.3788L112.292 50.3785L112.29 50.3782L112.289 50.3779L112.288 50.3776L112.287 50.3773L112.285 50.377L112.284 50.3767L112.283 50.3764L112.281 50.3761L112.28 50.3758L112.279 50.3755L112.278 50.3752L112.276 50.3749L112.275 50.3746L112.274 50.3743L112.272 50.374L112.271 50.3737L112.27 50.3734L112.269 50.3731L112.267 50.3728L112.266 50.3725L112.265 50.3722L112.263 50.3719L112.262 50.3716L112.261 50.3713L112.26 50.371L112.258 50.3707L112.257 50.3704L112.256 50.3701L112.255 50.3698L112.253 50.3695L112.252 50.3692L112.251 50.3689L112.25 50.3686L112.248 50.3683L112.247 50.368L112.246 50.3677L112.244 50.3674L112.243 50.3671L112.242 50.3669L112.241 50.3666L112.239 50.3663L112.238 50.366L112.237 50.3657L112.236 50.3654L112.234 50.3651L112.233 50.3648L112.232 50.3645L112.231 50.3642L112.229 50.3639L112.228 50.3636L112.227 50.3633L112.226 50.363L112.224 50.3627L112.223 50.3624L112.222 50.3621L112.221 50.3619L112.219 50.3616L112.218 50.3613L112.217 50.361L112.216 50.3607L112.214 50.3604L112.213 50.3601L112.212 50.3598L112.211 50.3595L112.21 50.3592L112.208 50.3589L112.207 50.3587L112.206 50.3584L112.205 50.3581L112.203 50.3578L112.202 50.3575L112.201 50.3572L112.2 50.3569L112.198 50.3566L112.197 50.3563L112.196 50.356L112.195 50.3558L112.194 50.3555L112.192 50.3552L112.191 50.3549L112.19 50.3546L112.189 50.3543L112.187 50.354L112.186 50.3537L112.185 50.3535L112.184 50.3532L112.183 50.3529L112.181 50.3526L112.18 50.3523L112.179 50.352L112.178 50.3517L112.176 50.3514L112.175 50.3512L112.174 50.3509L112.173 50.3506L112.172 50.3503L112.17 50.35L112.169 50.3497L112.168 50.3494L112.167 50.3492L112.165 50.3489L112.164 50.3486L112.163 50.3483L112.162 50.348L112.161 50.3477L112.159 50.3475L112.158 50.3472L112.157 50.3469L112.156 50.3466L112.155 50.3463L112.153 50.346L112.152 50.3457L112.151 50.3455L112.15 50.3452L112.149 50.3449L112.147 50.3446L112.146 50.3443L112.145 50.344L112.144 50.3438L112.142 50.3435L112.141 50.3432L112.14 50.3429L112.139 50.3426L112.138 50.3423L112.136 50.3421L112.135 50.3418L112.134 50.3415L112.133 50.3412L112.132 50.3409L112.13 50.3407L112.129 50.3404L112.128 50.3401L112.127 50.3398L112.126 50.3395L112.124 50.3392L112.123 50.339L112.122 50.3387L112.121 50.3384L112.12 50.3381L112.118 50.3378L112.117 50.3376L112.116 50.3373L112.115 50.337L112.114 50.3367L112.112 50.3364L112.111 50.3361L112.11 50.3359L112.109 50.3356L112.108 50.3353L112.107 50.335L112.105 50.3347L112.104 50.3345L112.103 50.3342L112.102 50.3339L112.101 50.3336L112.099 50.3333L112.098 50.3331L112.097 50.3328L112.096 50.3325L112.095 50.3322L112.093 50.3319L112.092 50.3317L112.091 50.3314L112.09 50.3311L112.089 50.3308L112.087 50.3305L112.086 50.3303L112.085 50.33L112.084 50.3297L112.083 50.3294L112.081 50.3291L112.08 50.3289L112.079 50.3286L112.078 50.3283L112.077 50.328L112.076 50.3277L112.074 50.3275L112.073 50.3272L112.072 50.3269L112.071 50.3266L112.07 50.3264L112.068 50.3261L112.067 50.3258L112.066 50.3255L112.065 50.3252L112.064 50.325L112.062 50.3247L112.061 50.3244L112.06 50.3241L112.059 50.3238L112.058 50.3236L112.057 50.3233L112.055 50.323L112.054 50.3227L112.053 50.3224L112.052 50.3222L112.051 50.3219L112.049 50.3216L112.048 50.3213L112.047 50.3211L112.046 50.3208L112.045 50.3205L112.043 50.3202L112.042 50.3199L112.041 50.3197L112.04 50.3194L112.039 50.3191L112.038 50.3188L112.036 50.3185L112.035 50.3183L112.034 50.318L112.033 50.3177L112.032 50.3174L112.03 50.3171L112.029 50.3169L112.028 50.3166L112.027 50.3163L112.026 50.316L112.024 50.3158L112.023 50.3155L112.022 50.3152L112.021 50.3149L112.02 50.3146L112.019 50.3144L112.017 50.3141L112.016 50.3138L112.015 50.3135L112.014 50.3132L112.013 50.313L112.011 50.3127L112.01 50.3124L112.009 50.3121L112.008 50.3118L112.007 50.3116L112.005 50.3113L112.004 50.311L112.003 50.3107L112.002 50.3104L112.001 50.3102L112 50.3099L111.998 50.3096L111.997 50.3093L111.996 50.309L111.995 50.3088L111.994 50.3085L111.992 50.3082L111.991 50.3079L111.99 50.3076L111.989 50.3074L111.988 50.3071L111.986 50.3068L111.985 50.3065L111.984 50.3062L111.983 50.306L111.982 50.3057L111.98 50.3054L111.979 50.3051L111.978 50.3048L111.977 50.3046L111.976 50.3043L111.974 50.304L111.973 50.3037L111.972 50.3034L111.971 50.3031L111.97 50.3029L111.968 50.3026L111.967 50.3023L111.966 50.302L111.965 50.3017L111.964 50.3015L111.962 50.3012L111.961 50.3009L111.96 50.3006L111.959 50.3003L111.958 50.3L111.956 50.2998L111.955 50.2995L111.954 50.2992L111.953 50.2989L111.952 50.2986L111.95 50.2984L111.949 50.2981L111.948 50.2978L111.947 50.2975L111.946 50.2972L111.944 50.2969L111.943 50.2967L111.942 50.2964L111.941 50.2961L111.94 50.2958L111.938 50.2955L111.937 50.2952L111.936 50.2949L111.935 50.2947L111.934 50.2944L111.932 50.2941L111.931 50.2938L111.93 50.2935L111.929 50.2932L111.927 50.293L111.926 50.2927L111.925 50.2924L111.924 50.2921L111.923 50.2918L111.921 50.2915L111.92 50.2912L111.919 50.291L111.918 50.2907L111.917 50.2904L111.915 50.2901L111.914 50.2898L111.913 50.2895L111.912 50.2892L111.91 50.289L111.909 50.2887L111.908 50.2884L111.907 50.2881L111.906 50.2878L111.904 50.2875L111.903 50.2872L111.902 50.2869L111.901 50.2867L111.899 50.2864L111.898 50.2861L111.897 50.2858L111.896 50.2855L111.894 50.2852L111.893 50.2849L111.892 50.2846L111.882 50.2824C111.709 50.2416 111.482 50.1883 111.289 50.1078C110.979 49.9805 110.729 49.7899 110.589 49.5206C110.448 49.2484 110.439 48.9352 110.535 48.6061L110.535 48.6054C110.629 48.2839 110.817 48.0232 111.091 47.8604C111.364 47.6989 111.698 47.6483 112.063 47.698L112.065 47.6983C112.314 47.7343 112.561 47.7741 112.807 47.8136C113.273 47.8887 113.735 47.9631 114.197 48.0096C116.267 48.2141 118.228 47.9898 120.058 47.0003C121.179 46.3886 121.971 45.5656 122.405 44.5916C122.839 43.618 122.924 42.4728 122.598 41.1996L122.597 41.1989C122.409 40.4553 122.078 39.7943 121.672 39.1361C121.65 39.0993 121.625 39.061 121.599 39.0212C121.49 38.8501 121.362 38.6517 121.294 38.4246C121.093 37.8454 121.274 37.1857 121.757 36.8516L121.757 36.8514L121.767 36.845C122.034 36.6787 122.32 36.6099 122.606 36.651C122.887 36.6914 123.143 36.834 123.364 37.0481C123.433 37.1068 123.487 37.1698 123.532 37.2267C123.554 37.2548 123.572 37.278 123.589 37.2998C123.612 37.3306 123.634 37.3585 123.663 37.393L123.67 37.402L123.677 37.4117C124.427 38.5014 124.958 39.7046 125.229 41.0431C125.54 42.4946 125.468 43.9304 124.91 45.3209L124.911 45.3209L124.908 45.3259C124.03 47.3918 122.491 48.7722 120.494 49.673Z" fill="#1A1A1A" stroke="#1A1A1A" stroke-width="0.513177"/>
<path d="M83.5782 23.5114L83.5648 23.5105L83.5514 23.5082C82.562 23.3385 81.6418 23.2776 80.6763 23.5624C79.072 24.0385 78.2397 25.4738 78.615 27.1262L78.6155 27.1283C78.79 27.9282 79.1332 28.6419 79.65 29.245C79.8241 29.4446 80.0324 29.6937 80.1817 29.935C80.5474 30.4835 80.4651 31.2459 80.0015 31.6379C79.7577 31.8518 79.4694 31.9615 79.1619 31.9465C78.8576 31.9318 78.5615 31.7965 78.2921 31.5713C78.2841 31.5646 78.2741 31.5569 78.2565 31.5434C78.2407 31.5313 78.2199 31.5154 78.1986 31.4976C78.1624 31.4673 78.1148 31.4237 78.0739 31.3654C76.8263 30.0576 76.0493 28.4944 75.9248 26.6554L75.9248 26.6554L75.9247 26.6525C75.8026 24.4922 76.6979 22.8207 78.5194 21.6859L78.5194 21.6859L78.522 21.6843C80.1813 20.6775 81.987 20.5777 83.7798 20.9663L83.7798 20.9662L83.7841 20.9672L83.7859 20.9677L83.7876 20.9681L83.7894 20.9685L83.7911 20.9689L83.7929 20.9693L83.7946 20.9697L83.7964 20.9701L83.7982 20.9705L83.7999 20.971L83.8017 20.9714L83.8034 20.9718L83.8052 20.9722L83.807 20.9726L83.8087 20.973L83.8105 20.9734L83.8122 20.9739L83.814 20.9743L83.8157 20.9747L83.8175 20.9751L83.8193 20.9755L83.821 20.9759L83.8228 20.9763L83.8245 20.9767L83.8263 20.9772L83.8281 20.9776L83.8298 20.978L83.8316 20.9784L83.8333 20.9788L83.8351 20.9792L83.8369 20.9796L83.8386 20.9801L83.8404 20.9805L83.8421 20.9809L83.8439 20.9813L83.8456 20.9817L83.8474 20.9821L83.8492 20.9825L83.8509 20.9829L83.8527 20.9834L83.8544 20.9838L83.8562 20.9842L83.858 20.9846L83.8597 20.985L83.8615 20.9854L83.8632 20.9858L83.865 20.9862L83.8667 20.9867L83.8685 20.9871L83.8703 20.9875L83.872 20.9879L83.8738 20.9883L83.8755 20.9887L83.8773 20.9891L83.8791 20.9896L83.8808 20.99L83.8826 20.9904L83.8843 20.9908L83.8861 20.9912L83.8879 20.9916L83.8896 20.992L83.8914 20.9924L83.8931 20.9929L83.8949 20.9933L83.8966 20.9937L83.8984 20.9941L83.9002 20.9945L83.9019 20.9949L83.9037 20.9953L83.9054 20.9958L83.9072 20.9962L83.909 20.9966L83.9107 20.997L83.9125 20.9974L83.9142 20.9978L83.916 20.9982L83.9177 20.9986L83.9195 20.9991L83.9213 20.9995L83.923 20.9999L83.9248 21.0003L83.9265 21.0007L83.9283 21.0011L83.9301 21.0015L83.9318 21.002L83.9336 21.0024L83.9353 21.0028L83.9371 21.0032L83.9389 21.0036L83.9406 21.004L83.9424 21.0044L83.9441 21.0048L83.9459 21.0053L83.9476 21.0057L83.9494 21.0061L83.9512 21.0065L83.9529 21.0069L83.9547 21.0073L83.9564 21.0077L83.9582 21.0081L83.96 21.0086L83.9617 21.009L83.9635 21.0094L83.9652 21.0098L83.967 21.0102L83.9687 21.0106L83.9705 21.011L83.9723 21.0115L83.974 21.0119L83.9758 21.0123L83.9775 21.0127L83.9793 21.0131L83.9811 21.0135L83.9828 21.0139L83.9846 21.0143L83.9863 21.0148L83.9881 21.0152L83.9899 21.0156L83.9916 21.016L83.9934 21.0164L83.9951 21.0168L83.9969 21.0172L83.9986 21.0177L84.0004 21.0181L84.0022 21.0185L84.0039 21.0189L84.0057 21.0193L84.0074 21.0197L84.0092 21.0201L84.011 21.0205L84.0127 21.021L84.0145 21.0214L84.0162 21.0218L84.018 21.0222L84.0197 21.0226L84.0215 21.023L84.0233 21.0234L84.025 21.0239L84.0268 21.0243L84.0285 21.0247L84.0303 21.0251L84.0321 21.0255L84.0338 21.0259L84.0356 21.0263L84.0373 21.0267L84.0391 21.0272L84.0409 21.0276L84.0426 21.028L84.0444 21.0284L84.0461 21.0288L84.0479 21.0292L84.0496 21.0296L84.0514 21.03L84.0532 21.0305L84.0549 21.0309L84.0567 21.0313L84.0584 21.0317L84.0602 21.0321L84.062 21.0325L84.0637 21.0329L84.0655 21.0334L84.0672 21.0338L84.069 21.0342L84.0707 21.0346L84.0725 21.035L84.0743 21.0354L84.076 21.0358L84.0778 21.0362L84.0795 21.0367L84.0813 21.0371L84.0831 21.0375L84.0848 21.0379L84.0866 21.0383L84.0883 21.0387L84.0901 21.0391L84.0919 21.0396L84.0936 21.04L84.0954 21.0404L84.0971 21.0408L84.0989 21.0412L84.1006 21.0416L84.1024 21.042L84.1042 21.0424L84.1059 21.0429L84.1077 21.0433L84.1094 21.0437L84.1112 21.0441L84.113 21.0445L84.1147 21.0449L84.1165 21.0453L84.1182 21.0458L84.12 21.0462L84.1217 21.0466L84.1235 21.047L84.1253 21.0474L84.127 21.0478L84.1288 21.0482L84.1305 21.0486L84.1323 21.0491L84.1341 21.0495L84.1358 21.0499L84.1376 21.0503L84.1393 21.0507L84.1411 21.0511L84.1429 21.0515L84.1446 21.0519L84.1464 21.0524L84.1481 21.0528L84.1499 21.0532L84.1516 21.0536L84.1534 21.054L84.1552 21.0544L84.1569 21.0548L84.1587 21.0553L84.1604 21.0557L84.1622 21.0561L84.164 21.0565L84.1657 21.0569L84.1675 21.0573L84.1692 21.0577L84.171 21.0581L84.1727 21.0586L84.1745 21.059L84.1763 21.0594L84.178 21.0598L84.1798 21.0602L84.1815 21.0606L84.1833 21.061L84.1851 21.0615L84.1868 21.0619L84.1886 21.0623L84.1903 21.0627L84.1921 21.0631L84.1939 21.0635L84.1956 21.0639L84.1974 21.0643L84.1991 21.0648L84.2009 21.0652L84.2026 21.0656L84.2044 21.066L84.2062 21.0664L84.2079 21.0668L84.2097 21.0672L84.2114 21.0677L84.2132 21.0681L84.215 21.0685L84.2167 21.0689L84.2185 21.0693L84.2202 21.0697L84.222 21.0701L84.2237 21.0705L84.2255 21.071L84.2273 21.0714L84.229 21.0718L84.2308 21.0722L84.2325 21.0726L84.2343 21.073L84.2361 21.0734L84.2378 21.0738L84.2396 21.0743L84.2413 21.0747L84.2431 21.0751L84.2449 21.0755L84.2466 21.0759L84.2484 21.0763L84.2501 21.0767L84.2519 21.0772L84.2536 21.0776L84.2554 21.078L84.2572 21.0784L84.2589 21.0788L84.2607 21.0792L84.2624 21.0796L84.2642 21.08L84.266 21.0805L84.2677 21.0809L84.2695 21.0813L84.2712 21.0817L84.273 21.0821L84.2747 21.0825L84.2765 21.0829L84.2783 21.0834L84.28 21.0838L84.2818 21.0842L84.2835 21.0846L84.2853 21.085L84.2871 21.0854L84.2888 21.0858L84.2906 21.0862L84.2923 21.0867L84.2941 21.0871L84.2958 21.0875L84.2976 21.0879L84.2994 21.0883L84.3011 21.0887L84.3029 21.0891L84.3046 21.0896L84.3064 21.09L84.3082 21.0904L84.3099 21.0908L84.3117 21.0912L84.3134 21.0916L84.3152 21.092L84.317 21.0924L84.3187 21.0929L84.3205 21.0933L84.3222 21.0937L84.324 21.0941L84.3257 21.0945L84.3275 21.0949L84.3293 21.0953L84.331 21.0957L84.3328 21.0962L84.3345 21.0966L84.3363 21.097L84.3381 21.0974L84.3398 21.0978L84.3416 21.0982L84.3433 21.0986L84.3451 21.0991L84.3468 21.0995L84.3486 21.0999L84.3504 21.1003L84.3521 21.1007L84.3539 21.1011L84.3556 21.1015L84.3574 21.1019L84.3592 21.1024L84.3609 21.1028L84.3627 21.1032L84.3644 21.1036L84.3662 21.104L84.368 21.1044L84.3697 21.1048L84.3715 21.1053L84.3732 21.1057L84.375 21.1061L84.3767 21.1065L84.3785 21.1069L84.3803 21.1073L84.382 21.1077L84.3838 21.1081L84.3855 21.1086L84.3873 21.109L84.3891 21.1094L84.3908 21.1098L84.3926 21.1102L84.3943 21.1106L84.3961 21.111L84.3978 21.1115L84.3996 21.1119L84.4014 21.1123L84.4031 21.1127L84.4049 21.1131L84.4066 21.1135L84.4084 21.1139L84.4102 21.1143L84.4119 21.1148L84.4137 21.1152L84.4154 21.1156L84.4172 21.116L84.419 21.1164L84.4207 21.1168L84.4225 21.1172L84.4242 21.1176L84.426 21.1181L84.4277 21.1185L84.4295 21.1189L84.4313 21.1193L84.433 21.1197L84.4348 21.1201L84.4365 21.1205L84.4383 21.121L84.4401 21.1214L84.4418 21.1218L84.4436 21.1222L84.4453 21.1226L84.4471 21.123L84.4488 21.1234L84.4506 21.1238L84.4524 21.1243L84.4541 21.1247L84.4559 21.1251L84.4576 21.1255L84.4594 21.1259L84.4612 21.1263L84.4629 21.1267L84.4647 21.1272L84.4664 21.1276L84.4682 21.128L84.47 21.1284L84.4717 21.1288L84.4735 21.1292L84.4752 21.1296L84.477 21.13L84.4787 21.1305L84.4805 21.1309L84.4823 21.1313L84.484 21.1317L84.4858 21.1321L84.4875 21.1325L84.4893 21.1329L84.4911 21.1334L84.4928 21.1338L84.4946 21.1342L84.4963 21.1346L84.4981 21.135L84.4998 21.1354L84.5016 21.1358L84.5034 21.1362L84.5051 21.1367L84.5069 21.1371L84.5086 21.1375L84.5104 21.1379L84.5122 21.1383L84.5139 21.1387L84.5157 21.1391L84.5174 21.1395L84.5192 21.14L84.521 21.1404L84.5227 21.1408L84.5245 21.1412L84.5262 21.1416L84.528 21.142L84.5297 21.1424L84.5315 21.1429L84.5333 21.1433L84.535 21.1437L84.5368 21.1441L84.5385 21.1445L84.5403 21.1449L84.5421 21.1453L84.5438 21.1457L84.5456 21.1462L84.5473 21.1466L84.5491 21.147L84.5508 21.1474L84.5526 21.1478L84.5544 21.1482L84.5561 21.1486L84.5579 21.1491L84.5596 21.1495L84.5614 21.1499L84.5632 21.1503L84.5649 21.1507L84.5667 21.1511L84.5684 21.1515L84.5702 21.1519L84.572 21.1524L84.5737 21.1528L84.5755 21.1532L84.5772 21.1536L84.579 21.154L84.5807 21.1544L84.5825 21.1548L84.5843 21.1553L84.586 21.1557L84.5878 21.1561L84.5895 21.1565L84.5913 21.1569L84.5931 21.1573L84.5948 21.1577L84.5966 21.1581L84.5983 21.1586L84.6001 21.159L84.6018 21.1594L84.6036 21.1598L84.6054 21.1602L84.6071 21.1606L84.6089 21.161L84.6106 21.1614L84.6124 21.1619L84.6142 21.1623L84.6159 21.1627L84.6177 21.1631L84.6194 21.1635L84.6212 21.1639L84.623 21.1643L84.6247 21.1648L84.6265 21.1652L84.6282 21.1656L84.63 21.166L84.6317 21.1664L84.6335 21.1668L84.6353 21.1672L84.637 21.1676L84.6388 21.1681L84.6405 21.1685L84.6423 21.1689L84.6441 21.1693L84.6458 21.1697L84.6476 21.1701L84.6493 21.1705L84.6511 21.171L84.6528 21.1714L84.6546 21.1718L84.6564 21.1722L84.6581 21.1726L84.6599 21.173L84.6616 21.1734L84.6634 21.1738L84.6652 21.1743L84.6669 21.1747L84.6687 21.1751L84.6704 21.1755L84.6722 21.1759L84.674 21.1763L84.6757 21.1767L84.6775 21.1772L84.6792 21.1776L84.681 21.178L84.6827 21.1784L84.6845 21.1788C84.7788 21.201 84.8608 21.2517 84.9197 21.2954C84.9786 21.339 85.0326 21.3892 85.0771 21.4361C85.4713 21.7928 85.6653 22.3756 85.4724 22.844C85.2649 23.3861 84.7483 23.7114 84.1421 23.6143C84.0315 23.6056 83.9215 23.5798 83.8334 23.5591C83.8305 23.5584 83.8277 23.5577 83.8248 23.557C83.7227 23.533 83.6466 23.5158 83.5782 23.5114Z" fill="#1A1A1A" stroke="#1A1A1A" stroke-width="0.513177"/>
<path d="M107.238 45.0213L107.227 45.0188L106.834 42.5619L106.857 42.3064C106.857 42.3064 106.858 42.3065 106.859 42.3065C106.99 42.3183 107.111 42.3477 107.223 42.378C107.262 42.3886 107.299 42.399 107.335 42.4092C107.407 42.4298 107.476 42.4493 107.553 42.4673L107.553 42.467L107.565 42.4706C108.11 42.6276 108.675 42.6152 109.281 42.5397L109.282 42.5395C110.287 42.4188 111.152 41.882 111.65 41.1068C112.146 40.337 112.291 39.3153 111.827 38.1916C111.752 38.012 111.659 37.8412 111.559 37.6569L111.556 37.6518C111.458 37.4725 111.353 37.2801 111.267 37.0737C111.165 36.8286 111.145 36.5508 111.19 36.2985C111.234 36.0488 111.347 35.7992 111.539 35.6255C111.736 35.4412 111.962 35.3296 112.204 35.2974C112.446 35.2653 112.686 35.3148 112.909 35.4249L112.909 35.4246L112.921 35.4311C113.145 35.5567 113.385 35.7568 113.553 35.9811L113.553 35.981L113.557 35.9861C114.15 36.8187 114.556 37.7792 114.649 38.8073C114.76 39.935 114.619 40.9682 114.2 41.882C113.78 42.797 113.087 43.5772 112.117 44.2082L112.115 44.2092C110.6 45.18 108.953 45.4242 107.238 45.0213Z" fill="#1A1A1A" stroke="#1A1A1A" stroke-width="0.513177"/>
<path d="M86.0998 29.3242L86.0997 29.3277C86.096 29.5091 86.1367 29.7049 86.2058 29.9204C86.2591 30.0869 86.3249 30.2523 86.3941 30.4265C86.4153 30.4797 86.4367 30.5338 86.4583 30.5889C86.4983 30.6865 86.5604 30.7892 86.637 30.9035C86.6602 30.938 86.6858 30.9752 86.7123 31.0137C86.7671 31.0932 86.8258 31.1783 86.8741 31.2567C87.0677 31.571 87.161 31.8986 87.1278 32.2132C87.0941 32.5322 86.9331 32.8103 86.6703 33.0213C86.4116 33.2289 86.0992 33.3395 85.7773 33.3153C85.4537 33.291 85.1457 33.1325 84.8945 32.848C83.7703 31.5877 83.3205 30.0773 83.5236 28.642L83.5252 28.6305L83.5279 28.6192C84.0891 26.2307 86.0392 24.9552 88.2103 25.1612L88.2103 25.1611L88.2151 25.1616C88.8531 25.2341 89.3398 25.7346 89.367 26.3223L89.3671 26.3223L89.3672 26.3276C89.3759 26.6713 89.3019 26.9801 89.1194 27.2249C88.936 27.4711 88.6649 27.6233 88.3365 27.6942C88.2068 27.7248 88.0714 27.7301 87.9539 27.7309C87.9076 27.7313 87.8652 27.731 87.8251 27.7307C87.754 27.7302 87.6898 27.7298 87.6229 27.733C87.1048 27.7726 86.7333 27.9384 86.4901 28.192C86.2473 28.4452 86.1034 28.8163 86.0998 29.3242Z" fill="#1A1A1A" stroke="#1A1A1A" stroke-width="0.513177"/>
<path d="M103.599 35.0405L103.572 34.968L103.59 34.8927C103.708 34.3899 104.007 34.0168 104.393 33.8508C104.784 33.6828 105.233 33.7428 105.596 34.0463L105.596 34.0461L105.604 34.0536C105.857 34.2843 106.107 34.5905 106.242 34.9539C106.685 36.0721 106.654 37.2292 106.026 38.3111L106.026 38.3111L106.025 38.3136C105.256 39.603 104.115 40.4327 102.515 40.4657C101.786 40.4855 101.185 39.9962 101.119 39.2652C101.091 38.9565 101.179 38.666 101.373 38.4321C101.562 38.2039 101.84 38.044 102.178 37.9607C102.298 37.9193 102.438 37.9096 102.517 37.9042C102.527 37.9035 102.536 37.9029 102.544 37.9023C103.145 37.7811 103.537 37.4986 103.738 37.1358C103.94 36.7701 103.974 36.2766 103.765 35.6862C103.707 35.5418 103.672 35.3903 103.648 35.2715C103.642 35.241 103.636 35.2118 103.631 35.1853L103.631 35.184C103.625 35.1576 103.621 35.1343 103.616 35.1132C103.612 35.0917 103.608 35.0747 103.605 35.0612C103.603 35.0546 103.602 35.0495 103.601 35.0458C103.6 35.0423 103.599 35.0407 103.599 35.0405C103.599 35.0405 103.599 35.0405 103.599 35.0405Z" fill="#1A1A1A" stroke="#1A1A1A" stroke-width="0.513177"/>
<path d="M131.591 49.7473C131.488 49.9142 131.378 50.1113 131.246 50.2711C131.062 50.5144 130.848 50.7506 130.604 50.9798C130.154 51.415 129.59 51.7919 129.01 52.1014C127.525 52.8982 125.9 53.344 124.227 53.5876C123.765 53.6699 123.309 53.722 122.883 53.7811C122.203 53.8442 121.524 53.9072 120.858 53.91C120.252 53.9268 119.616 53.9366 118.988 53.9162C117.125 53.8923 115.267 53.7105 113.424 53.4683C113.027 53.4068 112.629 53.3453 112.232 53.2838C111.835 53.2223 111.445 53.1306 111.047 53.0691C110.657 52.9774 110.26 52.9159 109.87 52.8242C109.48 52.7325 109.082 52.671 108.692 52.5794C108.512 52.537 108.355 52.5319 108.175 52.4896C107.995 52.4473 107.838 52.4422 107.658 52.3999C107.32 52.3525 106.96 52.2679 106.63 52.1903C105.67 51.9646 104.753 51.6857 103.8 51.4299C103.207 51.2586 102.614 51.0874 102.013 50.9464C101.413 50.8053 100.827 50.604 100.241 50.4026C98.5725 49.8196 96.9414 49.2136 95.3173 48.5773C93.5502 47.8757 91.8061 47.2112 90.0603 46.419C86.2828 44.7039 82.6149 42.7916 79.0779 40.5918C76.7781 39.1921 74.5667 37.6857 72.4366 36.103C71.9001 35.6904 71.3936 35.285 70.8571 34.8724C70.5924 34.6511 70.3206 34.4599 70.0859 34.2456C68.8154 33.1831 67.559 32.0603 66.3539 30.8541C65.7857 30.3068 65.2547 29.7364 64.7236 29.166C64.1925 28.5956 63.6986 28.0021 63.2117 27.3784C62.2309 26.1612 61.3684 24.8444 60.6544 23.4353C60.1784 22.4958 59.7995 21.5474 59.5548 20.5668C59.4756 20.2299 59.4264 19.9 59.3844 19.54C59.2914 18.7224 59.3114 17.9632 59.5116 17.2463C59.5824 16.9446 59.6833 16.65 59.8213 16.3323C59.9522 16.0448 60.1132 15.7643 60.3041 15.4908C60.495 15.2174 60.716 14.951 60.9598 14.7218C61.2921 14.3861 61.6773 14.0946 62.0854 13.8404C62.4935 13.5861 62.8945 13.362 63.3556 13.1521C63.7495 12.9582 64.1293 12.8246 64.5462 12.6679C65.7526 12.2511 67.0136 12.0062 68.2834 11.859C69.4931 11.6976 70.7116 11.6337 71.9459 11.6373C72.866 11.6306 73.7718 11.6843 74.7076 11.7451C75.022 11.7553 75.3292 11.7956 75.6364 11.836C75.8836 11.8622 76.1008 11.8814 76.348 11.9077C77.2768 11.9986 78.2055 12.0895 79.1201 12.2407C79.8246 12.3426 80.492 12.4676 81.1823 12.6298C81.2423 12.6439 81.3324 12.665 81.3924 12.6791C81.4525 12.6932 81.5425 12.7144 81.6025 12.7285C82.5029 12.9401 83.4404 13.1285 84.348 13.3099C85.2555 13.4913 86.1859 13.7099 87.0792 13.9517C88.4227 14.2992 89.7379 14.7673 91.0673 15.1752C91.4804 15.3041 91.9235 15.44 92.3366 15.5689C92.7497 15.6978 93.1929 15.8338 93.5989 15.9928C95.313 16.6502 97.0271 17.3076 98.727 18.0254C100.743 18.881 102.759 19.7366 104.746 20.7129C105.228 20.9535 105.74 21.2011 106.222 21.4416C107.209 21.9599 108.165 22.4712 109.122 22.9824C110.072 23.5239 111.021 24.0653 111.964 24.6369C112.906 25.2085 113.849 25.7801 114.747 26.4049C115.215 26.7058 115.653 26.9996 116.113 27.3307C119.902 29.9399 123.485 32.7551 126.581 36.1564C126.832 36.4381 127.059 36.6825 127.31 36.9642C128.038 37.772 128.693 38.6261 129.31 39.5032C129.478 39.7336 129.615 39.9569 129.753 40.1802C130.058 40.6338 130.333 41.0804 130.601 41.5572C130.739 41.7805 130.869 42.034 130.97 42.2804C131.116 42.6013 131.292 42.9292 131.432 43.2802C131.555 43.5638 131.671 43.8776 131.787 44.1914C131.826 44.296 131.865 44.4006 131.874 44.4982C131.921 44.7003 131.999 44.9095 132.046 45.1117C132.094 45.3138 132.141 45.516 132.182 45.7483C132.229 45.9504 132.24 46.1757 132.257 46.3708C132.296 47.0164 132.267 47.6781 132.081 48.3347C132.003 48.6665 131.895 48.9912 131.794 49.2858C131.773 49.3763 131.693 49.5804 131.591 49.7473ZM78.4714 15.2713C77.7811 15.1091 77.0466 15.0002 76.3208 14.9889C74.7492 14.9379 73.2022 15.0519 71.7132 15.5933C69.8444 16.2682 68.2949 17.3365 67.331 19.1472C66.5864 20.5638 66.4263 22.054 66.5963 23.6219C66.7718 25.0318 67.2528 26.3544 67.9122 27.5916C68.2649 28.2474 68.6846 28.8871 69.1044 29.5269C69.2949 29.7944 69.5154 30.0691 69.7872 30.2602C70.1578 30.5701 70.6363 30.5553 71.0215 30.2638C71.3767 29.9653 71.5359 29.5571 71.3209 29.1246C71.1287 28.7293 70.8323 28.3732 70.6031 28.001C69.4213 26.291 68.5893 24.4403 68.614 22.3134C68.6123 22.1857 68.6036 22.0882 68.5948 21.9906C68.6515 21.7493 68.7082 21.508 68.7649 21.2666C69.1406 19.6679 70.1215 18.5933 71.5789 17.9172C72.8949 17.3033 74.306 17.0937 75.7275 17.1094C76.4833 17.1279 77.2249 17.2066 77.9665 17.2854C78.4909 17.3449 78.9148 17.1581 79.127 16.7941C79.4472 16.1054 79.1617 15.4335 78.4714 15.2713ZM84.9275 21.6265C84.8516 21.5451 84.7458 21.4565 84.6557 21.4354C84.3627 21.3347 84.0555 21.2943 83.7553 21.2238C81.9703 20.8681 80.2733 20.9468 78.685 21.9105C76.9412 22.9968 76.0941 24.5803 76.2107 26.6448C76.3011 28.4167 77.084 29.9376 78.3049 31.2112C78.3578 31.2555 78.4337 31.3369 78.4867 31.3812C78.9402 31.7424 79.4417 31.7648 79.864 31.4502C80.2191 31.1517 80.3009 30.5343 79.9957 30.0806C79.8582 29.8573 79.6606 29.6199 79.4859 29.4197C78.9461 28.7517 78.5776 28.0286 78.3947 27.1898C78.02 25.4147 78.9271 23.8454 80.6334 23.3232C81.6243 23.0149 82.6201 23.0897 83.6248 23.2621C83.8048 23.3044 84.0149 23.3538 84.2021 23.3659C84.6965 23.4184 85.0975 23.1944 85.2939 22.763C85.409 22.4081 85.2681 21.9294 84.9275 21.6265ZM89.1035 26.3638C89.0827 25.9132 88.7033 25.5058 88.1789 25.4462C86.1042 25.2452 84.272 26.4381 83.7705 28.7076C83.5787 30.063 84.0384 31.4761 85.0793 32.7074C85.5045 33.1893 86.0731 33.1956 86.5025 32.8508C86.9318 32.5061 86.9923 31.9792 86.6484 31.4209C86.5179 31.1674 86.3133 30.9602 86.2128 30.7138C86.0648 30.2652 85.8568 29.8026 85.836 29.352C85.844 28.2398 86.4714 27.5915 87.5998 27.5065C87.8241 27.4955 88.0413 27.5147 88.2726 27.4736C88.8467 27.322 89.126 26.942 89.1035 26.3638ZM100.298 33.5778C99.9529 32.8918 99.4148 32.3516 98.8625 31.8716C97.8566 31.0305 96.7482 30.3563 95.5001 29.8721C94.8311 29.6194 94.1249 29.3898 93.4258 29.13C92.7743 29.0724 92.1369 28.9545 91.4783 28.9271C91.1039 28.9028 90.7012 28.9991 90.3285 29.1026C89.0321 29.4982 88.5172 30.746 89.1166 31.969C89.5239 32.7968 90.1308 33.4487 90.8261 33.9941C92.6173 35.4017 94.6191 36.3176 96.8384 36.7118C97.5358 36.8438 98.2387 36.818 98.9098 36.6574C100.363 36.2668 100.967 34.9125 100.298 33.5778ZM106.01 35.0152C105.894 34.7014 105.673 34.4268 105.438 34.2125C104.856 33.7255 104.052 34.046 103.847 34.9208C103.878 35.0555 103.912 35.318 104.012 35.5644C104.477 36.8196 103.885 37.8582 102.587 38.1261C102.49 38.1351 102.356 38.1673 102.258 38.1763C101.654 38.3208 101.338 38.7239 101.382 39.2117C101.464 39.804 101.911 40.1954 102.516 40.1785C104.012 40.148 105.079 39.3802 105.818 38.1215C106.427 37.1503 106.428 36.0683 106.01 35.0152ZM114.393 38.8311C114.312 37.8255 113.919 36.9373 113.348 36.1346C113.203 35.9415 112.991 35.7644 112.796 35.6547C112.427 35.4725 112.038 35.5086 111.713 35.8141C111.425 36.0966 111.334 36.6164 111.504 36.9745C111.666 37.3627 111.902 37.7047 112.064 38.093C113.053 40.4898 111.464 42.5355 109.313 42.794C108.693 42.8712 108.087 42.888 107.494 42.7168C107.284 42.6675 107.051 42.5809 106.834 42.5617C106.339 42.5092 105.857 42.8096 105.721 43.2551C105.591 43.6703 105.831 44.2678 106.26 44.464C106.576 44.6019 106.936 44.6866 107.296 44.7712C108.954 45.1289 110.522 44.9244 111.947 43.9858C113.846 42.7769 114.571 41.0375 114.393 38.8311ZM124.977 41.0952C124.706 39.822 124.19 38.6503 123.465 37.5569C123.396 37.4452 123.297 37.3265 123.192 37.238C122.805 36.8607 122.311 36.8082 121.903 37.0624C121.532 37.2936 121.337 37.8526 121.538 38.3454C121.638 38.5919 121.783 38.785 121.891 39.0012C122.303 39.6712 122.679 40.3642 122.846 41.1356C123.494 43.7705 122.475 45.9503 120.18 47.2254C118.323 48.2533 116.269 48.5028 114.172 48.2646C113.46 48.1929 112.733 48.0538 112.028 47.952C111.384 47.8642 110.938 48.1416 110.781 48.6775C110.616 49.2436 110.831 49.6761 111.387 49.8704C111.56 49.9429 111.77 49.9922 111.95 50.0345C112.131 50.0769 112.341 50.1262 112.611 50.1897C115.227 50.6454 117.844 50.56 120.388 49.4388C122.33 48.5899 123.823 47.2219 124.635 45.2483C125.201 43.9171 125.25 42.4962 124.977 41.0952Z" fill="#F9F5F2"/>
<path d="M75.7154 40.8845C75.7683 40.9288 75.8213 40.9731 75.8813 40.9872C76.6279 41.4491 77.3745 41.911 78.1282 42.3427C78.8747 42.8046 79.6213 43.2665 80.375 43.6982C80.8727 44.0061 81.3775 44.2839 81.8823 44.5617C85.3789 46.5291 88.9922 48.2694 92.6993 49.7452C94.5193 50.4911 96.3906 51.1536 98.269 51.786C98.735 51.9591 99.2081 52.1021 99.6442 52.2682C100.583 52.5844 101.493 52.8935 102.439 53.1795C102.912 53.3225 103.385 53.4655 103.835 53.5713C104.285 53.6771 104.729 53.813 105.179 53.9188C105.629 54.0246 106.079 54.1304 106.529 54.2362C109.231 54.8708 111.93 55.3778 114.687 55.6435C115.181 55.696 115.675 55.7485 116.177 55.7708C117.667 55.8982 119.142 55.9581 120.607 55.9206C121.213 55.9037 121.819 55.8869 122.431 55.8399C123.336 55.7659 124.247 55.6617 125.142 55.4901C125.739 55.3757 126.343 55.2312 126.917 55.0796C127.223 54.9922 127.498 54.8978 127.804 54.8104C128.08 54.716 128.325 54.6146 128.601 54.5202C128.876 54.4258 129.122 54.3243 129.397 54.2299C129.173 54.7819 128.948 55.3338 128.723 55.8858C128.643 56.0899 128.564 56.294 128.454 56.4911C128.265 56.8922 127.984 57.1445 127.498 57.1896C126.497 57.2726 125.496 57.3557 124.517 57.4759C123.516 57.5589 122.508 57.6721 121.513 57.725C119.361 57.8558 117.176 57.8519 115.019 57.5995C114.03 57.4945 113.011 57.3825 112.022 57.2775C111.468 57.2109 110.943 57.1513 110.396 57.0545C109.842 56.9879 109.324 56.8982 108.777 56.8014C108.32 56.7258 107.87 56.62 107.419 56.5142C106.969 56.4085 106.519 56.3027 106.069 56.1969C106.062 56.2271 106.055 56.2572 106.055 56.2572C104.275 55.7436 102.518 55.2672 100.739 54.7536C100.116 54.5753 99.5365 54.3438 98.9275 54.1052C97.9654 53.7518 97.0104 53.3682 96.0625 52.9545C94.7614 52.426 93.4233 51.9206 92.0923 51.3851C91.6634 51.1888 91.2273 51.0227 90.7984 50.8264C90.3165 50.5859 89.7975 50.3684 89.3156 50.1279C85.8753 48.4601 82.5376 46.6255 79.2795 44.5867C78.1481 43.8752 77.1652 43.0713 76.299 42.0402C75.9797 41.6469 75.6604 41.2536 75.3411 40.8602C75.2881 40.816 75.3094 40.7255 75.2936 40.6581C75.3536 40.6722 75.4207 40.6561 75.4807 40.6702C75.5107 40.6773 75.5107 40.6773 75.5407 40.6843C75.6095 40.796 75.6625 40.8403 75.7154 40.8845Z" fill="#F9F5F2"/>
<path d="M6.56121 130.727C7.099 129.516 7.65972 128.343 8.19752 127.133C9.12095 125.09 10.0144 123.039 10.9078 120.989C11.8312 118.946 12.7546 116.903 13.6409 114.884C14.5643 112.841 15.4578 110.79 16.3512 108.74C17.2304 106.751 18.1396 104.768 19.0189 102.778L31.3014 75.1706L34.6007 67.7335C35.1756 66.4998 35.7205 65.2592 36.2654 64.0185C37.1888 61.9755 38.0522 59.9184 38.9756 57.8754C40.0371 55.5146 41.1056 53.1238 42.167 50.7631C43.0533 48.7432 43.9696 46.7303 44.856 44.7104C45.6626 42.8947 46.4693 41.0789 47.276 39.2631C48.0756 37.4775 48.8752 35.6919 49.6748 33.9062C50.4603 32.1809 51.2157 30.4486 52.0082 28.6932C52.9016 26.6431 53.795 24.5931 54.7184 22.55C55.5251 20.7343 56.3618 18.9255 57.1685 17.1097C57.6409 16.043 58.1203 14.9461 58.8415 14.0333C60.1213 12.3605 61.8138 11.3576 63.7798 10.6737C67.1906 9.50159 70.7118 9.34221 74.2452 9.53579C75.6083 9.6651 76.9873 9.86178 78.3733 10.0283C79.4822 10.1615 80.5981 10.2646 81.6786 10.5184C85.2944 11.3044 88.8803 12.0833 92.3827 13.3518C93.6079 13.7988 94.8914 14.1322 96.1094 14.6094C97.9665 15.3323 99.8094 16.1154 101.652 16.8986C105.022 18.327 108.238 20.0057 111.426 21.8051C116.619 24.7759 121.488 28.18 125.873 32.2978C128.523 34.7667 130.892 37.4879 132.64 40.6995C133.682 42.5996 134.388 44.5799 134.447 46.7581C134.46 47.7798 134.383 48.7804 133.939 49.7265C133.271 51.2245 132.542 52.7085 131.813 54.1925C131.449 54.9344 131.077 55.7066 130.743 56.4556C130.67 56.6296 130.665 56.7874 130.926 56.7534C131.061 56.7212 131.188 56.7193 131.322 56.6872C134.151 56.2379 137.012 55.9233 139.876 55.8642C142.681 55.791 145.501 55.7852 148.307 55.8397C149.691 55.8785 151.07 56.0752 152.449 56.2719C153.401 56.4 154.354 56.6558 155.314 56.8815C158.023 57.486 160.673 58.2041 163.165 59.4582C165.567 60.6911 167.853 62.1512 169.859 63.9914C170.639 64.7157 170.699 65.2708 170.158 66.2259C169.404 67.545 168.658 68.8338 167.905 70.1529C166.711 72.1324 165.525 74.0818 164.143 75.9215C163.952 76.1949 163.784 76.5056 163.713 76.8072C163.622 77.3271 163.652 77.8751 163.591 78.4021C163.551 78.7108 163.495 79.0798 163.305 79.3532C162.953 79.9072 162.608 80.431 162.18 80.9034C161.464 81.6583 161.079 82.4908 161.115 83.5497C161.173 84.5181 160.801 85.2903 160.159 85.999C159.813 86.395 159.437 86.784 159.09 87.1801C158.707 87.5993 158.466 88.0839 158.301 88.65C157.945 90.0305 157.529 91.397 157.136 92.8006C156.842 93.782 156.585 94.7402 156.261 95.7145C155.686 97.4891 155.118 99.2336 154.55 100.978C154.146 102.157 153.75 103.305 153.346 104.483C152.849 105.926 152.358 107.339 151.861 108.781C151.565 109.635 151.3 110.496 150.891 111.291C150.12 112.956 148.895 114.26 147.519 115.401C147.134 115.692 146.898 116.019 146.792 116.471C146.55 117.369 146.277 118.26 145.981 119.114C145.578 120.292 144.978 121.361 143.835 122.047C143.761 122.093 143.65 122.163 143.568 122.239C142.65 122.914 142.13 123.779 142.108 124.952C142.111 125.207 142.054 125.448 141.997 125.69C141.588 128.108 140.735 130.39 139.619 132.579C138.977 133.829 138.342 135.048 137.7 136.298C137.394 136.926 137.088 137.555 137.015 138.27C136.961 138.766 136.878 139.256 136.855 139.76C136.793 141.369 136.199 142.821 135.491 144.214C134.952 145.297 134.428 146.447 133.942 147.574C133.455 148.701 132.969 149.828 132.512 150.963C132.077 152.006 131.679 153.027 131.244 154.07C130.67 155.432 130.127 156.8 129.464 158.14C128.16 160.858 126.601 163.452 124.935 165.957C124.048 167.308 123.266 168.748 122.89 170.347C122.727 171.04 122.377 171.722 122.124 172.395C121.972 172.773 121.685 173.183 121.69 173.566C121.702 174.46 121.511 175.274 121.252 176.105C120.965 177.056 120.573 177.919 119.947 178.695C119.41 179.364 118.887 179.432 118.259 178.871C117.865 178.524 117.486 178.117 117.085 177.8C113.66 174.989 109.761 173.118 105.462 172.14C103.924 171.811 102.379 171.511 100.864 171.219C100.197 171.094 99.4922 170.992 98.8035 170.958C96.9848 170.88 95.1289 170.826 93.296 170.809C89.4058 170.787 85.5119 171.049 81.6371 171.635C76.5384 172.442 71.4452 173.092 66.2732 172.863C64.3944 172.772 62.4998 172.613 60.6106 172.297C60.1833 172.228 59.786 172.167 59.3587 172.098L52.1041 170.489C51.1279 170.196 50.1816 169.91 49.2053 169.617C48.5291 169.394 47.8159 169.195 47.1539 168.912C46.3419 168.594 45.5299 168.276 44.7478 167.965C44.7478 167.965 36.384 164.472 28.2508 159.728C28.0019 159.574 27.806 159.464 27.806 159.464C25.7322 158.181 23.6796 156.808 21.6712 155.381C20.2364 154.343 18.8758 153.26 17.6265 152.107C17.6265 152.107 11.7014 146.322 8.76232 140.634C8.21752 139.583 7.68689 138.472 7.18628 137.367C6.40723 135.561 6.02377 133.688 6.26729 131.708C6.31525 131.369 6.42322 131.045 6.56121 130.727ZM132.316 46.2574C132.305 46.0321 132.288 45.837 132.24 45.6349C132.193 45.4328 132.175 45.2377 132.105 44.9983C132.057 44.7961 132.01 44.594 131.932 44.3848C131.894 44.2802 131.885 44.1826 131.846 44.0781C131.76 43.7713 131.636 43.4877 131.49 43.1668C131.351 42.8158 131.204 42.4949 131.028 42.167C130.559 41.1974 129.986 40.267 129.369 39.3898C128.751 38.5127 128.06 37.6818 127.368 36.8508C127.118 36.5692 126.89 36.3247 126.64 36.043C123.513 32.6347 119.931 29.8194 116.172 27.2173C115.704 26.9164 115.273 26.5924 114.806 26.2916C113.87 25.6898 112.965 25.0951 112.022 24.5235C111.08 23.9519 110.13 23.4105 109.181 22.8691C108.231 22.3277 107.244 21.8093 106.281 21.3282C105.799 21.0877 105.287 20.8401 104.805 20.5995C102.847 19.6303 100.801 18.7676 98.7855 17.912C97.0856 17.1943 95.3715 16.5369 93.6574 15.8795C93.2514 15.7204 92.8082 15.5845 92.3951 15.4556C91.982 15.3267 91.5389 15.1907 91.1258 15.0618C89.7964 14.654 88.4813 14.1858 87.1377 13.8383C86.2444 13.5966 85.3069 13.4081 84.4065 13.1966C83.499 13.0151 82.5685 12.7965 81.661 12.6151C81.601 12.601 81.511 12.5799 81.4509 12.5658C81.3909 12.5517 81.3309 12.5376 81.2408 12.5164C80.5505 12.3542 79.8831 12.2292 79.1786 12.1274C78.264 11.9761 77.3353 11.8852 76.4065 11.7943C76.1593 11.7681 75.9421 11.7489 75.6949 11.7226C75.3877 11.6823 75.0734 11.6721 74.7662 11.6317C73.8603 11.578 72.9245 11.5173 72.0044 11.5239C70.8001 11.5274 69.5516 11.5842 68.3419 11.7456C67.0721 11.8929 65.8111 12.1377 64.6047 12.5545C64.1949 12.681 63.808 12.8448 63.4141 13.0387C62.9831 13.2557 62.552 13.4728 62.1439 13.727C61.7358 13.9812 61.3806 14.2798 61.0183 14.6084C60.7674 14.8678 60.5464 15.1342 60.3555 15.4076C60.1646 15.6811 60.0037 15.9616 59.8728 16.2491C59.7418 16.5367 59.641 16.8313 59.5701 17.1329C59.4 17.8569 59.3428 18.6392 59.4429 19.4266C59.4849 19.7867 59.5341 20.1165 59.6133 20.4534C59.8509 21.4642 60.2298 22.4126 60.7129 23.3219C61.4269 24.7311 62.2894 26.0478 63.2702 27.265C63.7571 27.8887 64.251 28.4822 64.7821 29.0526C65.3132 29.623 65.8442 30.1934 66.4124 30.7407C67.6246 31.9168 68.851 33.0326 70.1144 34.1252C70.3791 34.3465 70.6438 34.5679 70.8856 34.752C71.4221 35.1645 71.9286 35.57 72.4651 35.9825C74.5881 37.5955 76.8066 39.0716 79.1063 40.4714C82.6504 42.641 86.3113 44.5834 90.0888 46.2986C91.8046 47.0837 93.5716 47.7854 95.3458 48.4569C96.9699 49.0931 98.631 49.7063 100.299 50.2892C100.885 50.4906 101.479 50.6618 102.072 50.833C102.665 51.0042 103.258 51.1754 103.858 51.3165C104.812 51.5723 105.728 51.8513 106.688 52.0769C106.749 52.091 106.809 52.1051 106.869 52.1192C107.139 52.1827 107.439 52.2532 107.716 52.2865C107.896 52.3288 108.046 52.3641 108.233 52.3763C108.413 52.4186 108.571 52.4237 108.751 52.466C109.538 52.6192 110.326 52.7724 111.106 52.9557C111.893 53.1089 112.681 53.2621 113.452 53.3479C115.91 53.6708 118.396 53.8729 120.886 53.7895C121.559 53.7566 122.232 53.7237 122.912 53.6607C123.368 53.6086 123.823 53.5565 124.256 53.4672C125.928 53.2235 127.523 52.7707 129.039 51.9809C129.656 51.6483 130.182 51.2946 130.633 50.8594C130.869 50.6603 131.083 50.4241 131.274 50.1507C131.407 49.9908 131.509 49.824 131.619 49.6269C131.729 49.4298 131.831 49.263 131.911 49.0589C132.042 48.7713 132.15 48.4465 132.198 48.1077C132.325 47.5647 132.384 46.9101 132.316 46.2574ZM75.3025 40.7554C75.3183 40.8228 75.3271 40.9203 75.35 40.9575C75.6693 41.3509 75.9886 41.7442 76.3079 42.1375C77.1441 43.1616 78.157 43.9725 79.2584 44.6769C82.5165 46.7157 85.8542 48.5504 89.2945 50.2181C89.7764 50.4587 90.2883 50.7063 90.7773 50.9167C91.2062 51.1129 91.6352 51.3092 92.0712 51.4753C93.3651 52.034 94.7103 52.5092 96.0114 53.0377C96.9664 53.4213 97.9214 53.8048 98.8764 54.1884C99.4854 54.427 100.072 54.6283 100.688 54.8368C102.467 55.3504 104.247 55.864 106.003 56.3404C106.011 56.3103 106.018 56.2801 106.018 56.2801C106.468 56.3859 106.918 56.4916 107.368 56.5974C107.818 56.7032 108.269 56.809 108.726 56.8846C109.273 56.9814 109.791 57.0711 110.345 57.1377C110.899 57.2043 111.424 57.2639 111.971 57.3607C112.953 57.4958 113.979 57.5777 114.968 57.6827C117.132 57.9049 119.31 57.939 121.462 57.8082C122.457 57.7553 123.465 57.6421 124.466 57.5591C125.468 57.4761 126.476 57.3629 127.447 57.2728C127.933 57.2277 128.207 57.0056 128.403 56.5743C128.483 56.3702 128.592 56.1731 128.672 55.969C128.897 55.417 129.121 54.8651 129.346 54.3131C129.071 54.4075 128.825 54.5089 128.549 54.6034C128.274 54.6978 128.028 54.7992 127.753 54.8936C127.477 54.988 127.172 55.0754 126.866 55.1628C126.285 55.3445 125.688 55.4589 125.091 55.5733C124.196 55.7449 123.284 55.8491 122.38 55.9231C121.768 55.9701 121.162 55.9869 120.556 56.0037C119.06 56.0343 117.586 55.9743 116.126 55.854C115.631 55.8015 115.13 55.7792 114.635 55.7267C111.886 55.4309 109.15 54.947 106.478 54.3193C106.028 54.2136 105.578 54.1078 105.128 54.002C104.677 53.8962 104.234 53.7603 103.784 53.6545C103.304 53.5417 102.831 53.3987 102.388 53.2627C101.441 52.9767 100.532 52.6676 99.593 52.3514C99.127 52.1783 98.6539 52.0353 98.2178 51.8692C96.3395 51.2368 94.4682 50.5743 92.6482 49.8284C88.9482 48.3224 85.3349 46.5822 81.8312 44.6449C81.3264 44.3671 80.8287 44.0592 80.3239 43.7814C78.8236 42.8878 77.3305 41.964 75.8302 41.0704C75.7773 41.0261 75.7243 40.9818 75.6643 40.9677C75.6114 40.9235 75.5584 40.8792 75.4984 40.8651C75.4984 40.8651 75.4684 40.858 75.4384 40.851C75.4296 40.7534 75.3696 40.7393 75.3025 40.7554ZM8.27401 133.007C8.28609 133.36 8.30526 133.683 8.37737 134.05C8.59535 135.279 9.02174 136.43 9.55237 137.541C10.4444 139.406 11.4406 141.232 12.5482 142.988C14.7704 146.47 17.5545 149.448 20.715 152.037C23.588 154.367 26.7189 156.408 29.8783 158.328C31.5374 159.354 33.2406 160.327 34.9881 161.247C35.8618 161.707 36.7055 162.16 37.5863 162.59C38.4672 163.02 39.348 163.449 40.2359 163.849C40.6648 164.045 41.0938 164.242 41.5298 164.408C42.8237 164.966 44.1689 165.442 45.4999 165.977C46.455 166.361 47.41 166.744 48.365 167.128C48.974 167.366 49.5601 167.568 50.1833 167.746C51.9329 168.253 53.6824 168.759 55.4391 169.236C55.4462 169.205 55.4532 169.175 55.4532 169.175C55.6934 169.232 55.9035 169.281 56.1136 169.33C56.7739 169.485 57.4571 169.678 58.1245 169.803C59.2192 169.996 60.328 170.13 61.4369 170.263C62.4186 170.398 63.4374 170.51 64.4333 170.585C64.9877 170.652 65.5492 170.688 66.1107 170.724C66.6722 170.761 67.2408 170.767 67.8094 170.773C68.0937 170.777 68.378 170.78 68.6623 170.783C69.2309 170.789 69.7766 170.758 70.3523 170.734C70.6366 170.737 70.9279 170.71 71.1822 170.706C72.0122 170.679 72.8193 170.614 73.6334 170.518C76.0916 170.3 78.5182 169.947 80.9519 169.564C82.0045 169.398 83.0871 169.238 84.1555 169.139C87.3749 168.782 90.6048 168.649 93.8292 168.675C95.3107 168.705 96.7852 168.765 98.2596 168.825C98.7611 168.847 99.2326 168.862 99.734 168.884C99.9812 168.911 100.198 168.93 100.446 168.956C100.693 168.982 100.903 169.032 101.15 169.058C101.48 169.136 101.848 169.19 102.178 169.268C103.205 169.477 104.233 169.687 105.253 169.927C105.583 170.004 105.944 170.089 106.274 170.166C107.294 170.406 108.301 170.706 109.293 171.067C110.548 171.521 111.789 172.035 112.986 172.603C114.348 173.273 115.615 174.08 116.839 174.941C117.246 175.227 117.647 175.544 118.054 175.831C118.107 175.875 118.183 175.957 118.236 176.001C118.289 176.045 118.372 176.097 118.425 176.141C118.455 176.148 118.485 176.155 118.515 176.162C118.575 176.176 118.672 176.167 118.746 176.121C118.784 176.098 118.814 176.105 118.821 176.075C118.865 176.021 118.902 175.998 118.916 175.938C119.012 175.801 119.107 175.665 119.15 175.484C119.185 175.333 119.228 175.152 119.263 175.001C119.298 174.85 119.341 174.669 119.376 174.518C119.454 174.186 119.502 173.848 119.483 173.525C119.455 173.104 119.576 172.592 119.758 172.221C119.823 172.077 119.889 171.933 119.947 171.819C120.078 171.532 120.172 171.267 120.303 170.98C120.563 170.277 120.763 169.56 120.993 168.85C121.324 167.846 121.731 166.923 122.258 166.028C122.543 165.49 122.888 164.967 123.232 164.443C123.437 164.109 123.673 163.782 123.871 163.479C124.509 162.515 125.094 161.506 125.679 160.498C126.06 159.823 126.44 159.149 126.79 158.467C127.14 157.785 127.49 157.104 127.848 156.392C128.095 155.877 128.306 155.385 128.523 154.864C128.741 154.342 128.959 153.82 129.169 153.328C129.626 152.194 130.059 151.023 130.516 149.889C130.979 148.724 131.473 147.567 131.997 146.417C132.483 145.29 133 144.17 133.569 143.094C134.277 141.701 134.594 140.215 134.768 138.665C134.898 137.168 135.412 135.792 136.135 134.466C136.361 134.042 136.588 133.617 136.814 133.193C137.493 131.92 138.119 130.603 138.685 129.272C139.186 128.085 139.597 126.876 139.744 125.574C139.837 124.641 140.064 123.676 140.366 122.792C140.446 122.588 140.526 122.384 140.628 122.217C140.826 121.913 141.054 121.616 141.312 121.327C141.607 121.014 141.933 120.709 142.281 120.44C142.399 120.341 142.51 120.272 142.629 120.172C143.081 119.865 143.435 119.438 143.615 118.94C143.716 118.645 143.81 118.381 143.911 118.086C144.206 117.232 144.502 116.379 144.767 115.518C144.817 115.307 144.89 115.133 144.969 114.929C145.093 114.671 145.247 114.421 145.454 114.215C145.586 114.055 145.742 113.933 145.867 113.803C145.949 113.727 146.023 113.68 146.134 113.611C146.742 113.181 147.274 112.669 147.753 112.113C148.232 111.557 148.605 110.913 148.925 110.224C149.128 109.763 149.309 109.264 149.49 108.765C149.67 108.267 149.813 107.791 149.994 107.292C150.47 105.94 150.946 104.588 151.422 103.235C151.826 102.057 152.252 100.916 152.626 99.7303C152.806 99.2316 152.957 98.7259 153.137 98.2272C153.318 97.7285 153.468 97.2227 153.649 96.724C153.677 96.6033 153.729 96.5199 153.757 96.3992C154.157 94.9654 154.557 93.5316 154.988 92.1048C155.246 91.2743 155.468 90.4669 155.726 89.6364C155.985 88.8058 156.236 88.0055 156.494 87.175C156.516 87.0845 156.574 86.9709 156.625 86.8874C156.756 86.5999 156.984 86.3033 157.175 86.0299C157.492 85.6267 157.831 85.2609 158.193 84.9322C158.63 84.5573 158.84 84.0656 158.924 83.5759C158.966 83.3949 158.972 83.237 158.954 83.042C158.94 82.5613 159.01 82.1319 159.139 81.7166C159.174 81.5658 159.233 81.4522 159.298 81.3084C159.422 81.0511 159.546 80.7937 159.699 80.5433C159.853 80.293 160.037 80.0497 160.244 79.8437C160.376 79.6838 160.516 79.4938 160.679 79.341C160.915 79.142 161.069 78.8917 161.216 78.6715C161.289 78.4976 161.361 78.3237 161.404 78.1427C161.467 77.8712 161.501 77.5926 161.505 77.3071C161.525 77.0888 161.521 76.8334 161.571 76.6223C161.59 76.4041 161.647 76.1627 161.727 75.9586C161.755 75.838 161.806 75.7545 161.835 75.6339C161.914 75.4298 162.031 75.2025 162.141 75.0055C162.199 74.8919 162.28 74.8155 162.339 74.7019C164.199 72.1786 165.809 69.5014 167.337 66.7728C167.549 66.4088 167.732 66.0379 167.974 65.681C168.158 65.4377 168.103 65.2657 167.914 65.1258C167.733 64.9558 167.514 64.8089 167.332 64.6389C167.15 64.4689 166.931 64.3219 166.743 64.1821C166.335 63.8953 165.957 63.6156 165.542 63.359C165.135 63.0722 164.72 62.8156 164.305 62.559C163.476 62.0458 162.639 61.5627 161.744 61.1933C160.736 60.7655 159.712 60.2703 158.639 59.9862C157.385 59.6599 156.116 59.2661 154.833 58.9327C152.145 58.2377 149.389 57.972 146.62 57.8944C145.58 57.8729 144.54 57.8513 143.493 57.8599C142.446 57.8685 141.399 57.8771 140.375 57.9229C139.32 57.9617 138.296 58.0075 137.258 58.1136C136.226 58.1896 135.188 58.2958 134.142 58.4321C131.924 58.7067 129.715 59.0788 127.52 59.3906C124.182 59.8477 120.827 60.1098 117.466 59.9887C116.65 59.9561 115.812 59.8864 114.973 59.8166C114.134 59.7469 113.303 59.647 112.494 59.5843C111.228 59.446 109.932 59.3006 108.687 59.0718C108.05 58.9539 107.412 58.8359 106.805 58.7251C106.505 58.6545 106.175 58.577 105.875 58.5064C105.574 58.4359 105.244 58.3583 104.944 58.2878C103.36 57.8839 101.768 57.3824 100.213 56.8578C98.6575 56.3332 97.1022 55.8086 95.5611 55.2237C91.7268 53.7499 88.0022 52.079 84.4085 50.1205C79.7752 47.5995 75.2886 44.8583 71.0955 41.6767C70.6949 41.3598 70.2643 41.0358 69.8637 40.7189C69.0696 40.0548 68.2755 39.3908 67.5256 38.6734C65.6322 36.8917 63.9015 34.9572 62.3775 32.8166C60.5184 30.2153 59.0161 27.4432 57.7365 24.5324C57.6289 24.3161 57.5585 24.0768 57.458 23.8304C57.3876 23.591 57.2871 23.3446 57.2167 23.1052C57.2008 23.0378 57.1479 22.9936 57.125 22.9563C57.102 22.9191 57.072 22.9121 57.0791 22.8819C57.0562 22.8447 57.0262 22.8376 57.0333 22.8075C56.9891 22.8608 56.9449 22.914 56.9007 22.9673C56.8565 23.0206 56.8123 23.0739 56.7681 23.1271C56.6372 23.4147 56.5134 23.6721 56.3825 23.9596C55.0522 26.9256 53.729 29.8614 52.4287 32.8344C51.1496 35.717 49.9006 38.6066 48.6216 41.4891C47.2187 44.629 45.7859 47.7619 44.383 50.9018C42.9802 54.0417 41.6073 57.1887 40.2345 60.3356C39.1589 62.7567 38.0533 65.1707 36.9706 67.6219L20.5679 104.543C20.5608 104.573 20.5537 104.603 20.5537 104.603C19.9646 105.897 19.3756 107.191 18.8165 108.492C18.2274 109.786 17.6383 111.08 17.0793 112.381C16.025 114.712 15.0378 117.026 14.0134 119.364C12.8653 121.959 11.6801 124.577 10.5019 127.165C10.0296 128.231 9.56434 129.268 9.092 130.335C8.94692 130.683 8.80184 131.031 8.64966 131.409C8.56295 131.643 8.48333 131.847 8.43372 132.058C8.3099 132.315 8.29195 132.661 8.27401 133.007Z" fill="#1A1A1A"/>
<path d="M8.38793 131.983C8.30997 132.315 8.29203 132.661 8.27409 133.007C8.28617 133.36 8.30532 133.683 8.37743 134.05C8.59541 135.279 9.02182 136.43 9.55244 137.541C10.4445 139.406 11.4407 141.231 12.5482 142.988C14.7704 146.47 17.5545 149.448 20.7151 152.037C23.588 154.367 26.719 156.407 29.8783 158.328C31.5374 159.354 33.2407 160.327 34.9881 161.247C35.8619 161.707 36.7056 162.16 37.5864 162.59C38.4672 163.019 39.348 163.449 40.2359 163.849C40.6649 164.045 41.0938 164.241 41.5299 164.407C42.8238 164.966 44.169 165.441 45.5 165.977C46.455 166.36 47.41 166.744 48.365 167.128C48.9741 167.366 49.5602 167.568 50.1834 167.746C51.9329 168.252 53.6825 168.759 55.4391 169.235C55.4462 169.205 55.4533 169.175 55.4533 169.175C55.6934 169.231 55.9035 169.281 56.1136 169.33C56.7739 169.485 57.4571 169.678 58.1245 169.803C59.2192 169.996 60.3281 170.129 61.4369 170.263C62.4186 170.398 63.4374 170.51 64.4333 170.585C64.9877 170.651 65.5492 170.688 66.1108 170.724C66.6723 170.761 67.2409 170.767 67.8095 170.773C68.0938 170.776 68.3781 170.779 68.6624 170.783C69.231 170.789 69.7766 170.758 70.3523 170.734C70.6366 170.737 70.928 170.71 71.1823 170.706C72.0123 170.678 72.8193 170.613 73.6335 170.518C76.0917 170.3 78.5183 169.947 80.9519 169.564C82.0045 169.398 83.0871 169.238 84.1555 169.139C87.375 168.781 90.6048 168.649 93.8293 168.675C95.3108 168.704 96.7852 168.764 98.2597 168.824C98.7612 168.847 99.2326 168.862 99.7341 168.884C99.9813 168.911 100.198 168.93 100.446 168.956C100.693 168.982 100.903 169.032 101.15 169.058C101.48 169.135 101.848 169.19 102.178 169.267C103.205 169.477 104.233 169.687 105.253 169.926C105.583 170.004 105.944 170.089 106.274 170.166C107.294 170.406 108.301 170.706 109.293 171.067C110.548 171.521 111.789 172.035 112.986 172.603C114.348 173.273 115.616 174.08 116.839 174.94C117.246 175.227 117.647 175.544 118.055 175.831C118.107 175.875 118.183 175.957 118.236 176.001C118.289 176.045 118.372 176.096 118.425 176.141C118.455 176.148 118.485 176.155 118.515 176.162C118.575 176.176 118.672 176.167 118.747 176.121C118.784 176.098 118.814 176.105 118.821 176.075C118.865 176.021 118.902 175.998 118.916 175.938C119.012 175.801 119.107 175.664 119.15 175.483C119.185 175.333 119.228 175.152 119.263 175.001C119.299 174.85 119.341 174.669 119.376 174.518C119.454 174.186 119.502 173.847 119.483 173.525C119.455 173.104 119.576 172.591 119.758 172.22C119.823 172.077 119.889 171.933 119.947 171.819C120.078 171.532 120.172 171.267 120.303 170.98C120.563 170.277 120.763 169.56 120.993 168.85C121.324 167.846 121.731 166.923 122.258 166.028C122.543 165.49 122.888 164.966 123.232 164.443C123.437 164.109 123.673 163.782 123.871 163.478C124.509 162.514 125.094 161.506 125.68 160.498C126.06 159.823 126.44 159.148 126.79 158.467C127.14 157.785 127.49 157.103 127.848 156.392C128.095 155.877 128.306 155.385 128.524 154.863C128.741 154.342 128.959 153.82 129.169 153.328C129.626 152.194 130.059 151.023 130.516 149.888C130.979 148.724 131.473 147.567 131.997 146.417C132.483 145.29 133 144.17 133.569 143.094C134.277 141.7 134.594 140.215 134.768 138.665C134.898 137.167 135.412 135.792 136.135 134.466C136.361 134.042 136.588 133.617 136.814 133.193C137.493 131.92 138.119 130.603 138.685 129.272C139.186 128.085 139.597 126.876 139.744 125.574C139.837 124.641 140.064 123.675 140.366 122.792C140.446 122.587 140.526 122.383 140.628 122.216C140.826 121.913 141.054 121.616 141.312 121.327C141.608 121.014 141.933 120.709 142.281 120.44C142.399 120.341 142.51 120.271 142.629 120.172C143.081 119.864 143.435 119.438 143.615 118.939C143.716 118.645 143.81 118.38 143.911 118.086C144.206 117.232 144.502 116.378 144.768 115.518C144.817 115.307 144.89 115.133 144.969 114.929C145.093 114.671 145.247 114.421 145.454 114.215C145.586 114.055 145.742 113.932 145.867 113.803C145.949 113.726 146.023 113.68 146.134 113.611C146.742 113.181 147.274 112.669 147.753 112.113C148.232 111.557 148.605 110.913 148.925 110.224C149.129 109.763 149.309 109.264 149.49 108.765C149.67 108.266 149.814 107.791 149.994 107.292C150.47 105.94 150.946 104.587 151.422 103.235C151.826 102.057 152.252 100.916 152.626 99.7301C152.806 99.2314 152.957 98.7256 153.137 98.2269C153.318 97.7282 153.469 97.2225 153.649 96.7238C153.677 96.6031 153.729 96.5197 153.757 96.399C154.157 94.9652 154.557 93.5313 154.988 92.1046C155.246 91.274 155.468 90.4666 155.726 89.6361C155.985 88.8056 156.236 88.0052 156.494 87.1747C156.516 87.0842 156.574 86.9706 156.625 86.8872C156.756 86.5996 156.984 86.3031 157.175 86.0296C157.492 85.6265 157.831 85.2606 158.193 84.9319C158.63 84.557 158.84 84.0654 158.924 83.5757C158.966 83.3947 158.972 83.2368 158.954 83.0417C158.94 82.561 159.01 82.1317 159.139 81.7164C159.174 81.5656 159.233 81.452 159.298 81.3082C159.422 81.0508 159.546 80.7934 159.7 80.5431C159.853 80.2928 160.037 80.0495 160.244 79.8434C160.377 79.6836 160.516 79.4936 160.679 79.3408C160.916 79.1418 161.069 78.8915 161.216 78.6713C161.289 78.4974 161.361 78.3234 161.404 78.1424C161.468 77.8709 161.501 77.5924 161.505 77.3068C161.525 77.0886 161.521 76.8332 161.571 76.622C161.591 76.4038 161.647 76.1625 161.727 75.9584C161.755 75.8377 161.807 75.7543 161.835 75.6336C161.914 75.4295 162.031 75.2023 162.141 75.0052C162.199 74.8916 162.281 74.8152 162.339 74.7016C164.199 72.1784 165.809 69.5011 167.337 66.7725C167.55 66.4086 167.732 66.0376 167.974 65.6807C168.158 65.4374 168.103 65.2655 167.914 65.1256C167.733 64.9556 167.514 64.8087 167.332 64.6386C167.15 64.4686 166.931 64.3217 166.743 64.1818C166.335 63.8951 165.957 63.6153 165.542 63.3587C165.135 63.072 164.72 62.8153 164.305 62.5587C163.476 62.0455 162.639 61.5625 161.744 61.193C160.736 60.7652 159.712 60.27 158.639 59.986C157.385 59.6596 156.116 59.2659 154.833 58.9325C152.146 58.2374 149.389 57.9718 146.62 57.8942C145.58 57.8726 144.54 57.851 143.493 57.8596C142.446 57.8683 141.399 57.8769 140.375 57.9227C139.32 57.9614 138.296 58.0073 137.258 58.1134C136.226 58.1894 135.188 58.2955 134.142 58.4318C131.924 58.7064 129.715 59.0786 127.52 59.3904C124.182 59.8475 120.827 60.1095 117.466 59.9884C116.65 59.9559 115.812 59.8861 114.973 59.8164C114.134 59.7466 113.303 59.6467 112.494 59.584C111.228 59.4457 109.932 59.3004 108.687 59.0716C108.05 58.9536 107.412 58.8357 106.805 58.7248C106.505 58.6543 106.175 58.5767 105.875 58.5062C105.574 58.4357 105.244 58.3581 104.944 58.2876C103.361 57.8837 101.768 57.3822 100.213 56.8576C98.6575 56.333 97.1022 55.8084 95.5611 55.2235C91.7269 53.7496 88.0023 52.0787 84.4086 50.1203C79.7752 47.5992 75.2886 44.858 71.0955 41.6765C70.6949 41.3595 70.2643 41.0355 69.8637 40.7186C69.0696 40.0546 68.2755 39.3905 67.5256 38.6732C65.6323 36.8915 63.9016 34.9569 62.3776 32.8163C60.5185 30.215 59.0162 27.4429 57.7365 24.5321C57.629 24.3159 57.5585 24.0765 57.4581 23.8301C57.3877 23.5907 57.2872 23.3443 57.2168 23.105C57.2009 23.0376 57.148 22.9933 57.125 22.9561C57.1021 22.9189 57.0721 22.9118 57.0792 22.8817C57.0563 22.8444 57.0263 22.8374 57.0333 22.8072C56.9892 22.8605 56.945 22.9138 56.9008 22.9671C56.8566 23.0203 56.8124 23.0736 56.7682 23.1269C56.6373 23.4144 56.5135 23.6718 56.3826 23.9594C55.0523 26.9253 53.729 29.8612 52.4287 32.8342C51.1497 35.7167 49.9007 38.6063 48.6217 41.4888C47.2188 44.6288 45.7859 47.7616 44.3831 50.9015C42.9802 54.0415 41.6074 57.1884 40.2346 60.3354C39.159 62.7564 38.0534 65.1704 36.9707 67.6216L20.5679 104.543C20.5608 104.573 20.5538 104.603 20.5538 104.603C19.9647 105.897 19.3756 107.191 18.8166 108.492C18.2275 109.786 17.6384 111.08 17.0794 112.381C16.025 114.711 15.0378 117.026 14.0135 119.363C12.8654 121.958 11.6801 124.577 10.502 127.164C10.0297 128.231 9.5644 129.268 9.09206 130.335C8.94698 130.682 8.8019 131.03 8.64974 131.408C8.49425 131.531 8.43754 131.772 8.38793 131.983Z" fill="#F9F5F2"/>
</g>
<defs>
<clipPath id="clip0_270_42201">
<rect width="144.753" height="162.556" fill="white" transform="matrix(-0.973489 -0.228734 -0.228734 0.973489 178.098 33.1094)"/>
</clipPath>
</defs>
</svg>
